<svg xmlns="http://www.w3.org/2000/svg" width="134" height="134" viewBox="0 0 134 134" fill="none"><path fill="#929292" d="M19.821 99.465a3.924 3.924 0 0 0 5.055-2.298l2.97-7.921h10.529c.341 4.116 1.217 8.086 2.583 11.77l-7.394 1.382a3.93 3.93 0 0 0-2.955 2.482l-3.926 10.468a3.928 3.928 0 0 0 3.676 5.305c1.59 0 3.085-.972 3.677-2.548l3.148-8.395 7.377-1.379a35.886 35.886 0 0 0 1.733 2.498c5.456 7.178 12.81 11.132 20.706 11.132 7.897 0 15.25-3.954 20.707-11.132a35.5 35.5 0 0 0 1.732-2.498l7.378 1.379 3.148 8.395a3.927 3.927 0 0 0 5.054 2.298 3.926 3.926 0 0 0 2.297-5.055l-3.926-10.468a3.925 3.925 0 0 0-2.954-2.482l-7.395-1.382c1.367-3.684 2.243-7.654 2.584-11.77h10.53l2.97 7.921a3.927 3.927 0 0 0 5.054 2.298 3.925 3.925 0 0 0 2.297-5.054l-3.925-10.469a3.925 3.925 0 0 0-3.676-2.548h-13.25a45.542 45.542 0 0 0-1.243-7.469l9.008-7.485a3.922 3.922 0 0 0 2.042-3.444V51.22a3.925 3.925 0 1 0-7.852 0v9.45L91.5 65.5c-1.12-2.372-2.25-3.657-3.793-5.687-1.62-2.132-3.408-3.976-5.327-5.52l1.831-1.83a3.924 3.924 0 0 0 0-5.552 3.924 3.924 0 0 0-5.551 0l-3.311 3.311A23.397 23.397 0 0 0 67 48.68a23.4 23.4 0 0 0-8.348 1.541L55.34 46.91a3.924 3.924 0 0 0-5.55 0 3.924 3.924 0 0 0 0 5.551l1.83 1.831c-1.919 1.544-3.707 3.388-5.326 5.52a37.078 37.078 0 0 0-3.999 6.628l-7.01-5.384v-9.45a3.925 3.925 0 1 0-7.851 0v11.777c0 1.434.782 2.755 2.041 3.443l10.144 7.1a45.542 45.542 0 0 0-1.244 7.468h-13.25a3.926 3.926 0 0 0-3.676 2.548l-3.926 10.469a3.927 3.927 0 0 0 2.298 5.054zm32.724 6.613a28.804 28.804 0 0 1-2.493-3.925l-.032-.058c-2.569-4.864-3.957-10.662-3.957-16.775 0-3.166.377-6.247 1.093-9.16h15.919v37.435c-3.92-1.036-7.565-3.616-10.53-7.517zm18.381 7.517V76.16h15.919a38.436 38.436 0 0 1 1.093 9.16c0 6.113-1.389 11.912-3.958 16.774l-.031.059a28.804 28.804 0 0 1-2.494 3.925c-2.965 3.901-6.61 6.481-10.529 7.517zm3.378-55.241l.129.07c2.578 1.36 4.964 3.43 7.022 6.139a28.8 28.8 0 0 1 2.398 3.745H50.147a28.694 28.694 0 0 1 2.398-3.745c2.058-2.709 4.444-4.779 7.023-6.14a4.06 4.06 0 0 0 .129-.069c2.314-1.197 4.781-1.823 7.303-1.823 2.522 0 4.99.626 7.304 1.823z"/><path d="M122.223 0H11.777C5.283 0 0 5.283 0 11.777v110.446C0 128.717 5.283 134 11.777 134h110.446c6.494 0 11.777-5.283 11.777-11.777V11.777C134 5.283 128.717 0 122.223 0zM7.852 11.777a3.93 3.93 0 0 1 3.925-3.925h110.446a3.93 3.93 0 0 1 3.925 3.925v19.63H7.852v-19.63zm118.296 110.446a3.93 3.93 0 0 1-3.925 3.925H11.777a3.93 3.93 0 0 1-3.925-3.925V39.258h118.296v82.965z" fill="#929292"/><path d="M118.297 19.629a3.926 3.926 0 1 1-7.852 0 3.926 3.926 0 0 1 7.852 0zm-15.703 0a3.926 3.926 0 1 1-7.852 0 3.926 3.926 0 0 1 7.852 0zm-15.704 0a3.925 3.925 0 1 1-7.85 0 3.925 3.925 0 0 1 7.85 0z" fill="#929292"/><path d="M19.721 99.265a3.924 3.924 0 0 0 5.054-2.299l2.97-7.92h10.53c.34 4.115 1.217 8.085 2.583 11.77l-7.395 1.381a3.93 3.93 0 0 0-2.954 2.482l-3.926 10.468a3.928 3.928 0 0 0 3.675 5.305 3.93 3.93 0 0 0 3.678-2.548l3.147-8.395 7.378-1.379a35.886 35.886 0 0 0 1.732 2.498c5.457 7.178 12.81 11.132 20.707 11.132 7.896 0 15.25-3.954 20.706-11.132a35.5 35.5 0 0 0 1.732-2.498l7.378 1.38 3.148 8.394a3.927 3.927 0 0 0 5.055 2.298 3.926 3.926 0 0 0 2.297-5.055l-3.926-10.468a3.925 3.925 0 0 0-2.954-2.482l-7.395-1.382c1.367-3.684 2.243-7.654 2.583-11.77h10.53l2.97 7.921a3.927 3.927 0 0 0 5.055 2.299 3.925 3.925 0 0 0 2.297-5.055l-3.925-10.469a3.925 3.925 0 0 0-3.676-2.547h-13.25a45.542 45.542 0 0 0-1.244-7.47l9.009-7.485a3.922 3.922 0 0 0 2.042-3.443V51.018a3.925 3.925 0 1 0-7.852 0v9.45L91.4 65.3c-1.12-2.373-2.251-3.658-3.794-5.688-1.62-2.132-3.407-3.976-5.326-5.52l1.83-1.83a3.924 3.924 0 0 0 0-5.552 3.924 3.924 0 0 0-5.55 0l-3.312 3.312A23.397 23.397 0 0 0 66.9 48.48c-2.877 0-5.681.527-8.349 1.542l-3.31-3.312a3.924 3.924 0 0 0-5.552 0 3.924 3.924 0 0 0 0 5.551l1.83 1.831c-1.918 1.544-3.706 3.388-5.326 5.52a37.078 37.078 0 0 0-3.998 6.628l-7.01-5.384v-9.45a3.925 3.925 0 1 0-7.852 0v11.777c0 1.434.783 2.755 2.042 3.443l10.144 7.1a45.542 45.542 0 0 0-1.245 7.469h-13.25a3.926 3.926 0 0 0-3.675 2.547l-3.926 10.47a3.927 3.927 0 0 0 2.298 5.054zm32.724 6.612a28.804 28.804 0 0 1-2.493-3.925l-.032-.058c-2.57-4.863-3.958-10.662-3.958-16.775 0-3.166.378-6.247 1.093-9.16h15.92v37.435c-3.92-1.036-7.565-3.616-10.53-7.517zm18.38 7.517V75.96h15.92a38.436 38.436 0 0 1 1.092 9.16c0 6.113-1.388 11.912-3.957 16.774a28.804 28.804 0 0 1-2.525 3.984c-2.965 3.901-6.61 6.481-10.53 7.517zm3.378-55.24l.13.069c2.578 1.36 4.964 3.43 7.022 6.139a28.8 28.8 0 0 1 2.398 3.746H50.047a28.694 28.694 0 0 1 2.398-3.746c2.058-2.708 4.444-4.779 7.022-6.14a4.06 4.06 0 0 0 .13-.069c2.314-1.197 4.78-1.823 7.303-1.823 2.522 0 4.989.626 7.303 1.823z" fill="teal"/></svg>