<svg width="134" height="134" viewBox="0 0 134 134" fill="none" xmlns="http://www.w3.org/2000/svg"><path d="M20.957 104.63a3.93 3.93 0 0 0 5.054-2.298l2.97-7.921 9.394-5.165c.341 4.116 1.217 8.086 2.583 11.77l-6.644 4.834a3.928 3.928 0 0 0-2.954 2.481L27.434 118.8a3.927 3.927 0 0 0 7.352 2.756l3.148-8.394 6.627-4.831a35.85 35.85 0 0 0 1.733 2.498c5.456 7.178 12.81 11.132 20.706 11.132 7.897 0 15.25-3.954 20.707-11.132a35.5 35.5 0 0 0 1.732-2.498l4.943 5.264 3.147 8.394a3.927 3.927 0 0 0 5.055 2.299 3.926 3.926 0 0 0 2.297-5.055l-3.926-10.469a3.926 3.926 0 0 0-2.954-2.481l-4.96-5.267c1.367-3.684 2.243-7.654 2.584-11.77l10.654 3.926 2.97 7.921a3.93 3.93 0 0 0 5.055 2.298 3.926 3.926 0 0 0 2.297-5.054l-3.926-10.47A3.923 3.923 0 0 0 109 85.32l-13.374-3.926c-.213-2.556-.512-3.983-1.126-6.394l7 2c5.5 1.5 6.821-2.849 6.821-4.283V60.94a3.925 3.925 0 1 0-7.851 0V69l-8.765-2.56a37.13 37.13 0 0 0-3.998-6.628c-1.62-2.132-3.408-3.976-5.327-5.52l1.831-1.83a3.924 3.924 0 0 0 0-5.552 3.924 3.924 0 0 0-5.551 0l-3.311 3.311A23.397 23.397 0 0 0 67 48.68c-2.877 0-5.681.527-8.348 1.541L55.34 46.91a3.924 3.924 0 0 0-5.55 0 3.924 3.924 0 0 0 0 5.551l1.83 1.831c-1.919 1.544-3.707 3.388-5.326 5.52a37.071 37.071 0 0 0-3.999 6.628L31.36 68.308v-7.851a3.925 3.925 0 1 0-7.852 0v11.777C23.508 73.67 25 77 29.5 76.16l10-1.66c-.614 2.41-.913 4.338-1.125 6.894L26.26 86.56a3.926 3.926 0 0 0-3.676 2.548l-3.926 10.469a3.927 3.927 0 0 0 2.298 5.054zm31.588 1.448a28.824 28.824 0 0 1-2.493-3.925l-.032-.058c-2.569-4.864-3.957-10.662-3.957-16.775 0-3.166.377-6.247 1.093-9.16h15.918v37.435c-3.92-1.036-7.564-3.616-10.529-7.517zm18.381 7.517V76.16h15.919a38.431 38.431 0 0 1 1.093 9.16c0 6.113-1.389 11.912-3.958 16.774-.01.019-.02.039-.032.059a28.813 28.813 0 0 1-2.493 3.925c-2.965 3.901-6.61 6.481-10.529 7.517zm3.378-55.241l.129.07c2.578 1.36 4.964 3.43 7.022 6.139a28.81 28.81 0 0 1 2.398 3.745H50.147a28.694 28.694 0 0 1 2.398-3.745c2.058-2.709 4.444-4.779 7.023-6.14.043-.022.086-.044.129-.069 2.314-1.197 4.781-1.823 7.303-1.823 2.522 0 4.99.626 7.304 1.823z" fill="#929292"/><path d="M122.223 0H11.777C5.283 0 0 5.283 0 11.777v110.446C0 128.717 5.283 134 11.777 134h110.446c6.494 0 11.777-5.283 11.777-11.777V11.777C134 5.283 128.717 0 122.223 0zM7.852 11.777a3.93 3.93 0 0 1 3.925-3.925h110.446a3.93 3.93 0 0 1 3.925 3.925v19.63H7.852v-19.63zm118.296 110.446a3.93 3.93 0 0 1-3.925 3.925H11.777a3.93 3.93 0 0 1-3.925-3.925V39.258h118.296v82.965z" fill="#929292"/><path d="M118.297 19.629a3.926 3.926 0 1 1-7.852 0 3.926 3.926 0 0 1 7.852 0zm-15.703 0a3.926 3.926 0 1 1-7.852 0 3.926 3.926 0 0 1 7.852 0zm-15.704 0a3.925 3.925 0 1 1-7.85 0 3.925 3.925 0 0 1 7.85 0z" fill="#929292"/></svg>