<svg xmlns="http://www.w3.org/2000/svg" width="139" height="139" viewBox="0 0 139 139" fill="none"><path d="M108.95 64h8.1v20h-8.1V64z" fill="#929292"/><path d="M123 69.95v8.1h-20v-8.1h20zM108.95 104h8.1v20h-8.1v-20z" fill="#929292"/><path d="M123 109.95v8.1h-20v-8.1h20z" fill="#929292"/><path d="M137.873 49.41L121.584 0H17.416L1.127 49.41H0V139h139V49.41zM23.306 8.145h92.388l13.604 41.265H9.702zm57.713 49.41c-1.68 4.74-6.21 8.144-11.519 8.144s-9.838-3.404-11.519-8.144zm28.118-8.416c-72.758 59.907-36.379 29.953 0 0zm21.718 81.716H8.145V98.277h41.403c1.892 9.283 10.12 16.289 19.952 16.289 9.833 0 18.06-7.006 19.952-16.289h41.403zM57.981 98.277h23.038c-1.68 4.741-6.21 8.145-11.519 8.145s-9.838-3.404-11.519-8.145zM8.145 90.133V57.555h41.403c1.892 9.282 10.12 16.289 19.952 16.289 9.833 0 18.06-7.007 19.952-16.29h41.403v32.579z" fill="#929292"/><path d="M137.873 49.41L121.584 0H17.416L1.127 49.41H0V139h139V49.41h-1.127zM23.306 8.145h92.388l13.604 41.265h-12.017l1-17.832h-5.072V14.29H25.791v17.29h-5.072l1 17.831H9.702L23.306 8.145zm57.713 49.41c-1.68 4.74-6.21 8.144-11.519 8.144s-9.838-3.404-11.519-8.144h23.038zm24.045-25.977H33.936v-9.144h71.128v9.144zm5.073 8.145l-1 9.416H29.863l-1-9.416h81.274zm20.718 91.132H8.145V98.277h41.403c1.892 9.283 10.12 16.289 19.952 16.289 9.833 0 18.06-7.006 19.952-16.289h41.403v32.578zM57.981 98.277h23.038c-1.68 4.741-6.21 8.145-11.519 8.145s-9.838-3.404-11.519-8.145zM8.145 90.133V57.555h41.403c1.892 9.282 10.12 16.289 19.952 16.289 9.833 0 18.06-7.007 19.952-16.29h41.403v32.579H8.145z" fill="#00f"/><path d="M117.281 49.723l1.041-18.186-5.113-.208.104-17.226-87.522.104V31.64h-5.218l1.146 17.977zm-12.217-18.186l-71.128.104-.105-9.186h71.337zm5.114 8.145L108.92 49.73l-78.99-.021-1.108-10.027z" fill="#d40000"/></svg>