<svg xmlns="http://www.w3.org/2000/svg" width="512" height="512" viewBox="0 0 512 512" fill="none"><path d="M444.606 0c-1.643 0-3.243.32-4.843.491-.81-.192-1.578-.491-2.432-.491h-256c-29.397 0-53.333 23.936-53.333 53.333V160c0 5.888 4.779 10.667 10.667 10.667s10.667-4.779 10.667-10.667V53.333c0-17.643 14.357-32 32-32h204.032l-80.107 34.325a46.033 46.033 0 0 0-27.925 42.347v328.661h-95.583c-20.501 0-31.969-15.734-31.969-32.001l-.448-106.709c-.021-5.867-4.8-10.624-10.667-10.624h-.043c-5.888.021-10.645 4.821-10.624 10.709l.491 106.624c0 29.335 26.041 53.333 53.259 53.333h95.583v17.941c0 25.387 20.672 46.059 46.059 46.059a45.811 45.811 0 0 0 18.133-3.712l121.216-51.947a46.033 46.033 0 0 0 27.925-42.347V46.059C490.665 20.672 469.993 0 444.606 0zm24.725 413.995a24.677 24.677 0 0 1-14.997 22.72l-121.216 51.946c-3.072 1.344-6.357 2.005-9.728 2.005-13.632 0-24.725-11.093-24.725-24.725V98.005a24.677 24.677 0 0 1 14.997-22.72l121.216-51.946c3.072-1.344 6.357-2.005 9.728-2.005 13.632 0 24.725 11.093 24.725 24.725v367.936z" fill="#000"/><path d="M437.487 0c-90.953-.08-177.786-.019-256.156 0-29.397 0-53.333 23.936-53.333 53.333V160c0 5.888 4.779 10.667 10.667 10.667s10.667-4.779 10.667-10.667V53.333c0-17.643 14.357-32.004 32-32l255.919.056c17.658-.001 32.037 14.272 32.044 31.933l-.02 341.223c.013 17.412-14.377 31.76-31.995 31.771l-255.938.011c-17.681 0-31.963-14.581-31.901-31.594l-.109-106.777c-.021-5.867-4.8-10.624-10.667-10.624h-.043c-5.888.021-10.645 4.821-10.624 10.709l.012 106.624c-.01 29.43 23.99 53.333 53.163 53.333h256.221c29.25.05 53.314-23.915 53.304-53.362l.023-341.318C490.708 23.976 466.708 0 437.487 0z" fill="red"/><path d="M437.487 0c-25.114 0-2.232.008-3.347-.003-1.183-.011-175.402-.016-252.81.003-29.397 0-53.333 23.936-53.333 53.333V226c0 5.888 4.779 10.667 10.667 10.667s10.667-4.779 10.667-10.667V53.333c0-17.643 14.357-32.004 32-32 85.306.019 240.84.057 255.919.056 17.658-.001 32.045 14.272 32.044 31.933-.007 113.741-.032 326.194-.02 341.223.013 17.412-14.377 31.77-31.995 31.771l-255.938.011c-17.681 0-31.89-14.581-31.901-31.594l-.109-174.777c-.001-6.027-4.658-10.673-10.71-10.624-5.888.021-10.645 4.821-10.624 10.709l.012 174.624c.002 29.43 23.99 53.333 53.163 53.333h256.221c29.25 0 53.314-23.915 53.304-53.362-.01-25.141.015-227.546.023-341.318C490.723 23.976 466.708 0 437.487 0z" fill="#ff8c00"/><path d="M444.606 0c-.331 0-6.965.082-12.715 1.89-6.181 1.944-111.109 47.215-126.696 53.771-16.924 7.119-27.88 23.925-27.875 42.384l.034 126.497c.002 5.888 4.643 9.854 10.531 9.854 5.888 0 10.262-3.694 10.26-9.582 0 0-.02-84.513-.033-126.77-.003-9.829 6.318-18.98 15.574-22.789 43.64-17.957 127.453-53.867 130.92-53.871 13.647-.015 24.682 11.023 24.69 24.752.005 11.653-.022 245.14-.033 367.71 0 10.041-5.805 19.103-14.898 22.911-8.403 3.52-127.585 54.574-130.97 54.586-13.7.047-25.286-11.75-25.287-25.431l-.022-243.214c-.052-5.623-4.207-10.526-10.327-10.406-5.888.021-10.333 4.507-10.336 10.395l-.13 243.216C277.28 491.39 298.033 512 323.386 512a46.04 46.04 0 0 0 18.09-3.726c40.428-17.303 105.75-45.122 121.282-51.909 16.97-7.416 27.907-23.944 27.906-42.509-.004-122.552-.065-345.914-.011-367.657C490.708 23.976 469.966.068 444.606 0z" fill="#ff10ff"/><path d="M-82.22 280.469c-4.16 4.16-4.16 10.923 0 15.083a10.716 10.716 0 0 0 7.552 3.115c2.731 0 5.461-1.045 7.531-3.115l64-64a10.643 10.643 0 0 0 2.304-3.477c.299-.747.341-1.515.469-2.304.107-.597.363-1.152.363-1.771 0-.811-.299-1.536-.469-2.283-.128-.576-.128-1.195-.363-1.749a11.19 11.19 0 0 0-2.368-3.563l-63.936-63.936c-4.16-4.16-10.923-4.16-15.083 0s-4.16 10.923 0 15.083l45.76 45.781h-187.541c-5.888 0-10.667 4.779-10.667 10.667s4.779 10.667 10.667 10.667h187.584l-45.803 45.802z" fill="#ff2a2a"/><path d="M173.509 280.469c-4.16 4.16-4.16 10.923 0 15.083a10.716 10.716 0 0 0 7.552 3.115c2.73 0 5.46-1.045 7.53-3.115l64-64a10.643 10.643 0 0 0 2.305-3.477c.299-.747.34-1.515.469-2.304.107-.597.363-1.152.363-1.771 0-.811-.3-1.536-.47-2.283-.127-.576-.127-1.195-.362-1.749a11.19 11.19 0 0 0-2.368-3.563l-63.936-63.936c-4.16-4.16-10.923-4.16-15.083 0s-4.16 10.923 0 15.083l45.76 45.781H31.728c-5.888 0-10.667 4.779-10.667 10.667s4.779 10.667 10.667 10.667h187.584l-45.803 45.802z" fill="#000"/></svg>