<svg width="392" height="406" viewBox="0 0 392 406" fill="none" xmlns="http://www.w3.org/2000/svg"><path d="M314.579 349.532c-40.546 0-76.897-83.888-76.897-174.766C237.682 83.888 274.033 0 314.579 0c40.545 0 76.897 83.888 76.897 174.766 0 90.878-36.352 174.766-76.897 174.766zm0-335.55c-27.963 0-62.916 71.304-62.916 160.784 0 89.48 34.953 160.784 62.916 160.784 27.962 0 62.915-71.304 62.915-160.784 0-89.48-34.953-160.785-62.915-160.785z" fill="#000"/><path d="M300.597 223.7c-4.194 0-6.99-2.796-6.99-6.99 0-4.195 2.796-6.991 6.99-6.991 16.778 0 34.953-15.379 34.953-34.953 0-19.574-18.175-34.953-34.953-34.953-4.194 0-6.99-2.797-6.99-6.991 0-4.194 2.796-6.991 6.99-6.991 23.768 0 48.935 20.972 48.935 48.935 0 27.962-25.167 48.934-48.935 48.934zm-13.981 111.849c-1.398 0-2.796 0-4.194-1.398l-124.434-82.489-95.072-6.991C26.564 244.671 0 213.912 0 174.765c0-37.75 25.166-62.916 62.916-62.916h95.072l117.443-82.49c2.796-1.398 6.991-1.398 8.389 1.398 2.796 2.797 2.796 5.593 1.398 8.39-20.972 32.156-33.555 82.489-33.555 135.618 0 57.323 20.972 120.238 40.546 149.599 1.398 2.796 1.398 6.991-1.399 8.389 0 2.796-2.796 2.796-4.194 2.796zM62.916 125.83c-29.36 0-48.935 19.574-48.935 48.935 0 32.156 20.972 55.925 48.935 55.925l97.869 6.99c1.398 0 2.796 0 2.796 1.398l102.063 68.509c-12.583-32.157-27.962-81.092-27.962-132.822 0-43.342 8.388-85.286 22.37-117.443l-95.073 67.11c-1.398 1.398-2.796 1.398-4.194 1.398h-97.87z" fill="#000"/><path d="M146.803 405.457c-1.398 0-2.796 0-4.194-1.398l-41.944-27.963c-11.185-6.99-16.778-19.574-16.778-33.555v-67.11l-26.564-33.555c-2.796-2.796-1.398-6.991 1.398-9.787 2.797-2.796 6.99-1.398 9.787 1.398l27.963 34.953c1.398 1.399 1.398 2.797 1.398 4.195v69.906c0 9.787 4.194 16.778 11.185 22.37l37.749 25.167 2.796-2.797c5.593-5.592 12.584-16.777 12.584-22.37v-8.389c0-6.99-5.593-16.777-12.584-22.37-6.99-6.99-4.194-16.777-2.796-25.166v-2.796l5.593-54.527c-33.555-5.593-54.527-41.944-54.527-76.897 0-37.749 25.166-62.916 62.915-62.916 4.195 0 6.991 2.796 6.991 6.991 0 4.194-2.796 6.99-6.991 6.99-29.36 0-48.934 19.574-48.934 48.935 0 30.759 19.574 62.916 48.934 62.916 1.399 0 4.195 1.398 5.593 2.796 1.398 1.398 1.398 2.796 1.398 5.592l-8.389 67.111c0 2.796-2.796 9.786-1.398 11.185 8.389 8.388 15.38 22.37 15.38 32.156v6.991c0 11.185-8.389 25.166-15.38 33.555l-6.99 6.991s-2.797 1.398-4.195 1.398z" fill="#000"/></svg>