<svg width="59" height="96" viewBox="0 0 59 96" fill="none" xmlns="http://www.w3.org/2000/svg"><path d="M59 58.5l-29.5 37L0 58.5S13.208 29 29.5 29 59 58.5 59 58.5z" fill="#631E76"/><path fill="#FDEE3A" d="M0 0h59v58H0z"/><path d="M19.81 29a.353.353 0 0 1-.237-.084.353.353 0 0 1-.085-.238v-9.142c0-.103.029-.182.085-.238a.324.324 0 0 1 .238-.098h.7c.149 0 .27.075.364.224l2.953 5.656 2.983-5.656a.345.345 0 0 1 .111-.154.398.398 0 0 1 .238-.07h.686c.103 0 .183.033.238.098a.296.296 0 0 1 .099.238v9.142a.324.324 0 0 1-.099.238.353.353 0 0 1-.238.084h-.686a.353.353 0 0 1-.238-.084.353.353 0 0 1-.084-.238V21.79L24.5 26.354c-.093.196-.242.294-.448.294h-.433c-.206 0-.355-.098-.448-.294l-2.352-4.564v6.888a.324.324 0 0 1-.098.238.303.303 0 0 1-.224.084h-.686zm10.934 0a.353.353 0 0 1-.238-.084.353.353 0 0 1-.084-.238v-6.636c0-.093.028-.168.084-.224a.324.324 0 0 1 .238-.098h.672a.28.28 0 0 1 .224.098.28.28 0 0 1 .098.224V24.1h1.456c.924 0 1.61.22 2.058.658.457.43.686 1.04.686 1.834 0 .821-.243 1.428-.728 1.82-.476.392-1.204.588-2.184.588h-2.282zm6.51 0a.353.353 0 0 1-.238-.084.353.353 0 0 1-.084-.238v-6.636c0-.093.028-.168.084-.224a.324.324 0 0 1 .238-.098h.672a.28.28 0 0 1 .224.098.28.28 0 0 1 .098.224v6.636a.324.324 0 0 1-.098.238.303.303 0 0 1-.224.084h-.672zm-4.186-1.05c.578 0 .994-.103 1.246-.308.261-.205.392-.555.392-1.05s-.13-.859-.392-1.092c-.252-.233-.668-.35-1.246-.35h-1.344v2.8h1.344zM15.005 41.14c-.682 0-1.246-.107-1.694-.322-.44-.215-.761-.476-.966-.784-.196-.308-.3-.611-.308-.91v-.028c0-.075.028-.135.084-.182a.297.297 0 0 1 .196-.07h.658c.168 0 .28.089.336.266.102.355.303.607.602.756.308.14.709.21 1.204.21.476 0 .868-.098 1.176-.294.308-.196.462-.485.462-.868 0-.392-.112-.681-.336-.868-.215-.196-.551-.294-1.008-.294h-.77a.285.285 0 0 1-.21-.084.303.303 0 0 1-.084-.224v-.378c0-.093.028-.168.084-.224a.285.285 0 0 1 .21-.084h.686c.793 0 1.19-.313 1.19-.938 0-.336-.122-.616-.364-.84-.234-.224-.616-.336-1.148-.336-.514 0-.887.089-1.12.266-.224.168-.388.439-.49.812a.518.518 0 0 1-.14.21c-.047.037-.117.056-.21.056h-.63a.317.317 0 0 1-.21-.07.269.269 0 0 1-.084-.196 1.99 1.99 0 0 1 .336-1.064c.214-.327.536-.588.966-.784.429-.196.956-.294 1.582-.294.653 0 1.19.103 1.61.308.42.205.723.462.91.77.186.308.28.63.28.966 0 .383-.066.695-.196.938-.122.233-.346.43-.672.588.4.15.686.383.854.7.177.317.266.705.266 1.162 0 .681-.28 1.209-.84 1.582-.56.364-1.298.546-2.212.546zm4.21 1.4a.324.324 0 0 1-.238-.098.303.303 0 0 1-.084-.224v-2.016c0-.093.028-.168.084-.224a.324.324 0 0 1 .238-.098h.07c.392-.01.686-.336.882-.98.205-.644.308-1.666.308-3.066v-1.792c0-.093.028-.168.084-.224a.324.324 0 0 1 .238-.098h4.466a.28.28 0 0 1 .224.098.28.28 0 0 1 .098.224v5.81h.658a.28.28 0 0 1 .224.098.28.28 0 0 1 .098.224v2.044a.28.28 0 0 1-.098.224.28.28 0 0 1-.224.098h-.658a.324.324 0 0 1-.238-.098.303.303 0 0 1-.084-.224V41h-5.068v1.218a.28.28 0 0 1-.098.224.28.28 0 0 1-.224.098h-.658zm5.068-2.688V34.84h-2.534v1.148c0 1.867-.266 3.164-.798 3.892l3.332-.028zm6.658 1.288c-.961 0-1.731-.294-2.31-.882-.57-.597-.882-1.41-.938-2.436l-.014-.476.014-.462c.066-1.008.383-1.81.952-2.408.579-.597 1.34-.896 2.282-.896 1.036 0 1.839.331 2.408.994.57.653.854 1.54.854 2.66v.238a.324.324 0 0 1-.098.238.303.303 0 0 1-.224.084h-4.844v.126c.028.607.21 1.125.546 1.554.346.42.798.63 1.358.63.43 0 .78-.084 1.05-.252.28-.177.485-.36.616-.546.084-.112.145-.177.182-.196a.49.49 0 0 1 .238-.042h.686c.084 0 .154.023.21.07a.241.241 0 0 1 .084.196c0 .205-.13.453-.392.742-.252.29-.611.541-1.078.756-.457.205-.985.308-1.582.308zm1.918-4.312v-.042c0-.644-.177-1.167-.532-1.568-.345-.41-.812-.616-1.4-.616-.588 0-1.055.205-1.4.616-.336.401-.504.924-.504 1.568v.042h3.836zm5.944 4.312c-.998 0-1.782-.28-2.352-.84-.56-.57-.858-1.363-.896-2.38l-.014-.56.014-.56c.038-1.017.336-1.806.896-2.366.57-.57 1.353-.854 2.352-.854.672 0 1.242.121 1.708.364.467.243.812.541 1.036.896.234.355.36.71.378 1.064a.245.245 0 0 1-.084.224.353.353 0 0 1-.238.084h-.672c-.093 0-.163-.019-.21-.056a.578.578 0 0 1-.14-.224c-.159-.448-.383-.765-.672-.952-.29-.196-.653-.294-1.092-.294-.578 0-1.04.182-1.386.546-.336.355-.518.9-.546 1.638l-.014.504.014.476c.028.747.21 1.297.546 1.652.336.355.798.532 1.386.532.439 0 .803-.093 1.092-.28.29-.196.514-.518.672-.966a.578.578 0 0 1 .14-.224c.047-.047.117-.07.21-.07h.672c.093 0 .173.033.238.098.066.056.093.13.084.224-.018.345-.144.7-.378 1.064-.224.355-.57.653-1.036.896-.457.243-1.027.364-1.708.364zM43.91 41a.353.353 0 0 1-.238-.084.353.353 0 0 1-.084-.238v-6.636c0-.093.028-.168.084-.224a.324.324 0 0 1 .238-.098h.672a.28.28 0 0 1 .224.098.28.28 0 0 1 .098.224V36.1h1.568c.924 0 1.61.22 2.058.658.457.43.686 1.04.686 1.834 0 .821-.243 1.428-.728 1.82-.476.392-1.204.588-2.184.588H43.91zm2.45-1.05c.57 0 .98-.103 1.232-.308.261-.205.392-.555.392-1.05s-.13-.859-.392-1.092c-.252-.233-.663-.35-1.232-.35h-1.47v2.8h1.47z" fill="#000"/></svg>