<svg xmlns="http://www.w3.org/2000/svg" xmlns:xlink="http://www.w3.org/1999/xlink"><symbol id="arrow" viewBox="0 0 10 10.4"><path d="M10 5.2L4.8 0v4.2H0V6h4.8v4.4L10 5.2z"/></symbol><symbol id="check" viewBox="0 0 12 10"><path d="M12 1.42L10.59 0 4 6.59 1.42 4.02 0 5.43l4 3.99 8-8z"/></symbol><symbol id="close" viewBox="0 0 33 33"><path d="M30 0l2.828 2.828L3.13 32.527.302 29.698z"/><path d="M0 2.8L2.828-.028 32.527 29.67l-2.829 2.828z"/></symbol><symbol id="logo-google-small" viewBox="0 0 512 512"><path d="M113.47 309.408L95.648 375.94l-65.139 1.378C11.042 341.211 0 299.9 0 256c0-42.451 10.324-82.483 28.624-117.732h.014L86.63 148.9l25.404 57.644c-5.317 15.501-8.215 32.141-8.215 49.456.002 18.792 3.406 36.797 9.651 53.408z" fill="#fbbb00"/><path d="M507.527 208.176C510.467 223.662 512 239.655 512 256c0 18.328-1.927 36.206-5.598 53.451-12.462 58.683-45.025 109.925-90.134 146.187l-.014-.014-73.044-3.727-10.338-64.535c29.932-17.554 53.324-45.025 65.646-77.911h-136.89V208.176h245.899z" fill="#518ef8"/><path d="M416.253 455.624l.014.014C372.396 490.901 316.666 512 256 512c-97.491 0-182.252-54.491-225.491-134.681l82.961-67.91c21.619 57.698 77.278 98.771 142.53 98.771 28.047 0 54.323-7.582 76.87-20.818l83.383 68.262z" fill="#28b446"/><path d="M419.404 58.936l-82.933 67.896C313.136 112.246 285.552 103.82 256 103.82c-66.729 0-123.429 42.957-143.965 102.724l-83.397-68.276h-.014C71.23 56.123 157.06 0 256 0c62.115 0 119.068 22.126 163.404 58.936z" fill="#f14336"/></symbol><symbol id="logo-mail-small" viewBox="0 0 22 22"><path d="M14.39 10.85a3.228 3.228 0 0 1-6.456 0 3.228 3.228 0 0 1 6.457 0zM11.163.127C5.243.128.427 4.94.427 10.856s4.816 10.721 10.735 10.721c2.166 0 4.258-.645 6.047-1.869l.034-.02-1.446-1.68-.027.013a8.536 8.536 0 0 1-4.608 1.351c-4.701 0-8.529-3.824-8.529-8.523 0-4.698 3.828-8.523 8.53-8.523 4.701 0 8.528 3.825 8.528 8.523a8.49 8.49 0 0 1-.202 1.835c-.269 1.11-1.042 1.445-1.627 1.398-.585-.047-1.272-.464-1.278-1.485v-1.748a5.432 5.432 0 0 0-5.428-5.424 5.432 5.432 0 0 0-5.428 5.424 5.432 5.432 0 0 0 5.428 5.425 5.412 5.412 0 0 0 3.847-1.6 3.493 3.493 0 0 0 2.684 1.6c.094.006.195.013.289.013a3.65 3.65 0 0 0 2.18-.733c.645-.49 1.123-1.196 1.385-2.043.04-.134.121-.45.121-.45v-.014a9.553 9.553 0 0 0 .229-2.198C21.897 4.941 17.08.128 11.162.128z" fill="#FC2C38"/></symbol><symbol id="logo-mail" viewBox="0 0 56 19"><path d="M56 2h-2v12h2V2z"/><path fill-rule="evenodd" clip-rule="evenodd" d="M52.61 14h-2.22V5.011h2.22V14zM51.5 1c.828 0 1.5.565 1.5 1.261 0 .697-.672 1.262-1.5 1.262S50 2.958 50 2.261C50 1.565 50.672 1 51.5 1zM49 13.78h-1.745v-.936c-.626.71-1.728 1.156-2.764 1.156A4.498 4.498 0 0 1 40 9.5C40 7.017 42.013 5 44.491 5c1.036 0 2.08.392 2.764 1.083V5.22H49v8.56zM44.548 6.8c1.528 0 2.73 1.095 2.73 2.7 0 1.606-1.202 2.712-2.73 2.712s-2.69-1.18-2.69-2.711c0-1.532 1.162-2.701 2.69-2.701zM26.703 14H25V5.225h1.703v.613A2.955 2.955 0 0 1 28.773 5c1.209 0 2.11.535 2.727 1.396C32.175 5.544 33.288 5 34.422 5 36.55 5 38 6.512 38 8.87V14h-1.703V8.87c0-1.145-.885-2.077-1.973-2.077s-1.972.932-1.972 2.077V14h-1.703V8.87c0-1.145-.886-2.077-1.973-2.077-1.088 0-1.973.932-1.973 2.077V14z"/><path d="M12.357 9.5A2.86 2.86 0 0 1 9.5 12.357 2.86 2.86 0 0 1 6.643 9.5 2.86 2.86 0 0 1 9.5 6.643 2.86 2.86 0 0 1 12.357 9.5zM9.5 0C4.261 0 0 4.261 0 9.5S4.261 19 9.5 19c1.919 0 3.77-.571 5.351-1.652l.027-.02-1.28-1.487-.021.014A7.516 7.516 0 0 1 9.5 17.052c-4.164 0-7.553-3.388-7.553-7.552S5.336 1.947 9.5 1.947s7.552 3.389 7.552 7.553c0 .54-.06 1.086-.177 1.623-.24.98-.926 1.28-1.44 1.241-.52-.042-1.126-.411-1.13-1.315V9.5A4.81 4.81 0 0 0 9.5 4.695 4.81 4.81 0 0 0 4.695 9.5 4.81 4.81 0 0 0 9.5 14.305a4.765 4.765 0 0 0 3.404-1.418 3.087 3.087 0 0 0 2.63 1.429 3.22 3.22 0 0 0 1.928-.65c.569-.433.994-1.058 1.23-1.81a9.95 9.95 0 0 0 .106-.4l.002-.01A8.43 8.43 0 0 0 19 9.5C19 4.261 14.739 0 9.5 0z" fill="#FF9E00"/></symbol><symbol id="logo-yandex-narrow" viewBox="0 0 12 20"><path d="M4.544 21v-6.816L0 1.964h2.288l3.36 9.412L9.493 0h2.11l-4.95 14.265V21h-2.11z" fill="red"/></symbol><symbol id="logo-yandex-small" viewBox="0 0 21 21"><path d="M9.544 21v-6.816L5 1.964h2.288l3.36 9.412L14.494 0h2.11l-4.95 14.265V21h-2.11z" fill="red"/></symbol><symbol id="logo-yandex" viewBox="0 0 57 22"><path d="M5.697 11.99l-3.258 7.32H.062l3.579-7.829C1.958 10.626.837 9.077.837 6.217.837 2.21 3.374.205 6.39.205h3.071v19.106H7.406v-7.322H5.697zm1.71-10.048H6.31c-1.655 0-3.258 1.096-3.258 4.275 0 3.073 1.47 4.062 3.258 4.062h1.095V1.942z" fill="red"/><path d="M19.37 5.843v13.468h-2.057v-6.04h-3.097v6.04h-2.083V5.843h2.083v5.719h3.097V5.843h2.056zm10.708 16.113h-1.87v-2.645H22.44v2.645h-1.869v-4.355h.828c1.228-2.86 1.362-7.028 1.362-10.609V5.843h6.249v11.758h1.068v4.355zm-3.125-14.43H24.63v.241c0 2.833-.133 6.974-1.255 9.834h3.578V7.527zm8.866 11.972c-2.777 0-4.486-2.218-4.486-6.36 0-4.329 1.202-7.482 4.059-7.482 2.243 0 3.712 1.684 3.712 6.253v1.15h-5.608c0 3.045.854 4.649 2.51 4.649 1.175 0 2.11-.535 2.644-.909l.48 1.603a5.298 5.298 0 0 1-3.31 1.096zm-2.296-8.15h3.444c0-2.298-.373-3.982-1.575-3.982-1.282 0-1.736 1.577-1.87 3.982zm9.8 1.256v6.707H41.24V5.843h2.083v6.226l3.231-6.226h2.11l-3.338 6.333 3.818 7.135h-2.27l-3.551-6.707zm6.088-.027c0-4.222 1.63-6.92 4.78-6.92 1.202 0 1.896.32 2.484.694l-.294 1.977c-.56-.48-1.362-.935-2.216-.935-1.496 0-2.564 1.684-2.564 5.077 0 3.367.801 5.29 2.484 5.29a3.4 3.4 0 0 0 2.27-.827l.48 1.55a4.072 4.072 0 0 1-2.804 1.015c-2.884 0-4.62-2.325-4.62-6.92z"/></symbol><symbol id="quote" viewBox="0 0 56 40"><path d="M0 24h12L4 40h12l8-16V0H0v24zM32 0v24h12l-8 16h12l8-16V0H32z" fill="#EEE"/></symbol><symbol id="triangle" viewBox="0 0 10 5"><path d="M0 0h10L5 5 0 0z"/></symbol><symbol id="zoom-hover" viewBox="0 0 62 62"><path d="M0 25.43a25.436 25.436 0 0 0 3.353 12.628l4.198-2.414-.017-.032a20.585 20.585 0 0 1-2.69-10.182c0-11.351 9.235-20.586 20.586-20.586 11.35 0 20.586 9.235 20.586 20.586 0 11.35-9.235 20.586-20.586 20.586a20.59 20.59 0 0 1-10.075-2.63l-.035-.019-2.375 4.22.036.021A25.439 25.439 0 0 0 25.43 50.86a25.312 25.312 0 0 0 16.118-5.775s9.891 9.94 16.323 16.213l.032.03 3.433-3.415-.051-.052L44.983 41.67a25.313 25.313 0 0 0 5.876-16.24C50.86 11.409 39.452 0 25.43 0 11.409 0 0 11.408 0 25.43zm9.16-1.03l-.885 1.393.884 1.392s.377.535.559.764c.81 1.019 2.71 3.408 5.351 5.516 3.387 2.703 6.873 4.074 10.36 4.074 3.488 0 6.974-1.37 10.36-4.074 2.643-2.108 4.542-4.497 5.353-5.517.181-.228.559-.763.559-.763l1.014-1.392L41.7 24.4s-.377-.534-.558-.762c-.811-1.02-2.71-3.409-5.352-5.517-3.387-2.703-6.873-4.074-10.36-4.074-3.488 0-6.974 1.37-10.36 4.074-2.643 2.108-4.542 4.497-5.352 5.517-.182.228-.559.762-.559.762zm5.051 1.393c3.85-4.581 7.621-6.902 11.219-6.902 3.596 0 7.367 2.32 11.218 6.902-3.851 4.581-7.622 6.902-11.218 6.902-3.598 0-7.368-2.32-11.219-6.902zm11.098-4.602a4.601 4.601 0 1 1 0 9.203 4.601 4.601 0 0 1 0-9.203z" fill="#000" fill-opacity=".3"/></symbol><symbol id="zoom-new" viewBox="0 0 62 62"><path d="M0 25.43a25.436 25.436 0 0 0 3.353 12.628l4.198-2.414-.017-.032a20.585 20.585 0 0 1-2.69-10.182c0-11.351 9.235-20.586 20.586-20.586 11.35 0 20.586 9.235 20.586 20.586 0 11.35-9.235 20.586-20.586 20.586a20.59 20.59 0 0 1-10.075-2.63l-.035-.019-2.375 4.22.036.021A25.439 25.439 0 0 0 25.43 50.86a25.312 25.312 0 0 0 16.118-5.775s9.891 9.94 16.323 16.213l.032.03 3.433-3.415-.051-.052L44.983 41.67a25.313 25.313 0 0 0 5.876-16.24C50.86 11.409 39.452 0 25.43 0 11.409 0 0 11.408 0 25.43zm9.16-1.03l-.885 1.393.884 1.392s.377.535.559.764c.81 1.019 2.71 3.408 5.351 5.516 3.387 2.703 6.873 4.074 10.36 4.074 3.488 0 6.974-1.37 10.36-4.074 2.643-2.108 4.542-4.497 5.353-5.517.181-.228.559-.763.559-.763l1.014-1.392L41.7 24.4s-.377-.534-.558-.762c-.811-1.02-2.71-3.409-5.352-5.517-3.387-2.703-6.873-4.074-10.36-4.074-3.488 0-6.974 1.37-10.36 4.074-2.643 2.108-4.542 4.497-5.352 5.517-.182.228-.559.762-.559.762zm5.051 1.393c3.85-4.581 7.621-6.902 11.219-6.902 3.596 0 7.367 2.32 11.218 6.902-3.851 4.581-7.622 6.902-11.218 6.902-3.598 0-7.368-2.32-11.219-6.902zm11.098-4.602a4.601 4.601 0 1 1 0 9.203 4.601 4.601 0 0 1 0-9.203z" fill="#fff"/></symbol><symbol id="zoom-plus" viewBox="0 0 19 19"><path d="M1.02 11.649A7.795 7.795 0 0 1 0 7.793C0 3.496 3.496 0 7.793 0c4.297 0 7.793 3.496 7.793 7.793 0 1.89-.677 3.626-1.8 4.977l4.995 4.961.016.016-1.052 1.047-.01-.01c-1.971-1.922-5.002-4.968-5.002-4.968a7.757 7.757 0 0 1-4.94 1.77 7.796 7.796 0 0 1-3.815-.996l-.01-.007.727-1.293.011.006a6.31 6.31 0 0 0 9.396-5.503 6.316 6.316 0 0 0-6.309-6.309 6.316 6.316 0 0 0-6.308 6.309c0 1.096.285 2.175.824 3.12l.005.01-1.286.74-.008-.014z" fill="#000"/><path d="M8.475 7.054h1.557v1.32H8.475v1.784H7.037V8.374h-1.56v-1.32h1.56V5.32h1.438v1.734z" fill="#000"/></symbol></svg>