<svg width="62" height="62" viewBox="0 0 62 62" fill="none" xmlns="http://www.w3.org/2000/svg"><path d="M0 25.43a25.436 25.436 0 0 0 3.353 12.628l4.198-2.414-.017-.032a20.585 20.585 0 0 1-2.69-10.182c0-11.351 9.235-20.586 20.586-20.586 11.35 0 20.586 9.235 20.586 20.586 0 11.35-9.235 20.586-20.586 20.586a20.59 20.59 0 0 1-10.075-2.63l-.035-.019-2.375 4.22.036.021A25.439 25.439 0 0 0 25.43 50.86a25.312 25.312 0 0 0 16.118-5.775s9.891 9.94 16.323 16.213l.032.03 3.433-3.415-.051-.052L44.983 41.67a25.313 25.313 0 0 0 5.876-16.24C50.86 11.409 39.452 0 25.43 0 11.409 0 0 11.408 0 25.43zm9.16-1.03l-.885 1.393.884 1.392s.377.535.559.764c.81 1.019 2.71 3.408 5.351 5.516 3.387 2.703 6.873 4.074 10.36 4.074 3.488 0 6.974-1.37 10.36-4.074 2.643-2.108 4.542-4.497 5.353-5.517.181-.228.559-.763.559-.763l1.014-1.392L41.7 24.4s-.377-.534-.558-.762c-.811-1.02-2.71-3.409-5.352-5.517-3.387-2.703-6.873-4.074-10.36-4.074-3.488 0-6.974 1.37-10.36 4.074-2.643 2.108-4.542 4.497-5.352 5.517-.182.228-.559.762-.559.762zm5.051 1.393c3.85-4.581 7.621-6.902 11.219-6.902 3.596 0 7.367 2.32 11.218 6.902-3.851 4.581-7.622 6.902-11.218 6.902-3.598 0-7.368-2.32-11.219-6.902zm11.098-4.602a4.601 4.601 0 1 1 0 9.203 4.601 4.601 0 0 1 0-9.203z" fill="#fff"/></svg>