<svg width="414" height="280" viewBox="0 0 414 280" fill="none" xmlns="http://www.w3.org/2000/svg"><g filter="url(#filter0_d)"><path d="M16 52c0-8.837 7.163-16 16-16h350c8.837 0 16 7.163 16 16v160c0 8.837-7.163 16-16 16H215l-8 8-8-8H32c-8.837 0-16-7.163-16-16V52z" fill="#fff"/><path d="M215 227.75h-.104l-.073.073-7.823 7.823-7.823-7.823-.073-.073H32c-8.698 0-15.75-7.052-15.75-15.75V52c0-8.699 7.052-15.75 15.75-15.75h350c8.698 0 15.75 7.051 15.75 15.75v160c0 8.698-7.052 15.75-15.75 15.75H215z" stroke="#F5F5F5" stroke-width=".5"/></g><defs><filter id="filter0_d" x="-24" y="0" width="462" height="280" filterUnits="userSpaceOnUse" color-interpolation-filters="sRGB"><feFlood flood-opacity="0" result="BackgroundImageFix"/><feColorMatrix in="SourceAlpha" values="0 0 0 0 0 0 0 0 0 0 0 0 0 0 0 0 0 0 127 0"/><feOffset dy="4"/><feGaussianBlur stdDeviation="20"/><feColorMatrix values="0 0 0 0 0 0 0 0 0 0 0 0 0 0 0 0 0 0 0.08 0"/><feBlend in2="BackgroundImageFix" result="effect1_dropShadow"/><feBlend in="SourceGraphic" in2="effect1_dropShadow" result="shape"/></filter></defs></svg>