<svg width="18" height="15" viewBox="0 0 18 15" fill="none" xmlns="http://www.w3.org/2000/svg"><path d="M2.453 14.102h12.578c1.406 0 2.219-.813 2.219-2.422V3.055c0-1.602-.82-2.414-2.453-2.414H2.219C.813.64 0 1.445 0 3.055v8.625c0 1.617.82 2.422 2.453 2.422zm5.242-6.336l-5.898-5.82a1.59 1.59 0 01.61-.11h12.437c.242 0 .453.039.625.125L9.586 7.766c-.336.336-.64.484-.945.484-.313 0-.618-.148-.946-.484zm-6.5 3.914V2.977l4.492 4.406-4.484 4.43c-.008-.04-.008-.086-.008-.133zm14.86-8.617v8.726l-4.461-4.406L16.054 3v.063zM2.406 12.905c-.219 0-.414-.031-.57-.101l4.672-4.617.508.5c.546.539 1.07.765 1.625.765.546 0 1.078-.226 1.625-.765l.507-.5 4.665 4.609c-.172.078-.368.11-.594.11H2.406z" fill="#0487D9"/></svg>