<svg width="17" height="17" viewBox="0 0 17 17" fill="none" xmlns="http://www.w3.org/2000/svg"><path d="M10.703 16.227c.274 0 .547-.07.781-.204l4.086-2.32c.47-.258.68-.633.68-1.156V1.71c0-.578-.32-.899-.883-.899-.195 0-.398.063-.656.204L10.57 3.32 6.327.72A1.58 1.58 0 005.54.5c-.281 0-.562.078-.805.219L.672 3.03C.21 3.297 0 3.671 0 4.195v10.82c0 .579.32.907.883.907.195 0 .398-.07.648-.211l3.977-2.14 4.32 2.421c.281.156.586.235.875.235zM1.36 14.305c-.062 0-.101-.047-.101-.125V4.5c0-.188.07-.32.258-.43L4.72 2.195a8.06 8.06 0 00.281-.156v10.29l-3.523 1.937c-.04.015-.079.039-.118.039zm8.633.242c-.11-.063-.226-.117-.344-.18l-3.39-1.914V2.203c.078.047.172.094.25.14L9.992 4.47v10.078zm1.258.14V4.392l3.523-1.922a.233.233 0 01.11-.04c.07 0 .11.048.11.126v9.68c0 .195-.079.328-.259.437l-3.132 1.82c-.118.07-.235.14-.352.195z" fill="#151A34"/></svg>