<svg width="20" height="20" viewBox="0 0 20 20" fill="none" xmlns="http://www.w3.org/2000/svg"><path d="M14.852 19.53c1.709 0 2.832-.46 3.818-1.573.078-.078.156-.166.224-.244.587-.654.86-1.299.86-1.914 0-.703-.41-1.358-1.28-1.963l-2.841-1.973c-.88-.605-1.904-.673-2.725.137l-.752.752c-.224.225-.42.234-.635.098-.527-.332-1.591-1.26-2.314-1.983-.762-.752-1.494-1.592-1.885-2.207-.127-.224-.117-.41.108-.635l.742-.752c.82-.82.752-1.855.146-2.724L6.346 1.707C5.74.837 5.086.437 4.383.427c-.615-.009-1.26.274-1.914.86l-.244.215C1.11 2.498.652 3.622.652 5.311c0 2.793 1.72 6.191 4.873 9.345 3.135 3.135 6.543 4.873 9.327 4.873zm.01-1.505c-2.49.05-5.684-1.865-8.214-4.384C4.1 11.1 2.098 7.8 2.146 5.31c.02-1.075.4-2.002 1.163-2.666.068-.06.117-.108.185-.157.293-.254.606-.39.889-.39.283 0 .537.107.722.4L7 5.34c.205.303.225.644-.078.947l-.86.86c-.673.673-.625 1.494-.136 2.148.556.752 1.523 1.846 2.275 2.588.742.752 1.924 1.807 2.686 2.373.654.488 1.474.537 2.148-.137l.86-.86c.302-.302.634-.282.947-.087l2.842 1.894c.293.196.4.44.4.733 0 .283-.137.596-.39.889-.06.068-.098.117-.157.185-.664.762-1.592 1.133-2.676 1.152z" fill="#151A34"/></svg>