<svg width="30" height="30" viewBox="0 0 30 30" fill="none" xmlns="http://www.w3.org/2000/svg"><path d="M12.23 23.412c2.588 0 4.965-.863 6.887-2.316l7.705 7.72c.257.257.62.408.999.408.848 0 1.407-.65 1.407-1.438 0-.363-.12-.726-.393-.999l-7.674-7.674a11.333 11.333 0 002.527-7.16C23.689 5.656 18.543.495 12.23.495S.771 5.656.771 11.953c0 6.312 5.147 11.459 11.459 11.459zm0-1.923c-5.237 0-9.536-4.299-9.536-9.536 0-5.222 4.299-9.536 9.536-9.536 5.237 0 9.536 4.314 9.536 9.536 0 5.237-4.299 9.536-9.536 9.536zm1.241-5.086v-3.3h3.012c.621 0 1.136-.544 1.136-1.15 0-.59-.515-1.135-1.136-1.135h-3.012V7.503c0-.712-.605-1.15-1.241-1.15-.636 0-1.241.439-1.241 1.15v3.315H7.977c-.621 0-1.136.545-1.136 1.135 0 .606.515 1.15 1.136 1.15h3.012v3.3c0 .712.605 1.166 1.241 1.166.636 0 1.241-.454 1.241-1.166z" fill="#999"/></svg>