<svg width="90" height="89" viewBox="0 0 90 89" fill="none" xmlns="http://www.w3.org/2000/svg"><g clip-path="url(#clip0)"><path d="M43.6.038v21.1H9.7v64.4H1.3c-.8 0-1.3.7-1.3 1.4 0 .8.7 1.3 1.4 1.3h86.3c.8 0 1.4-.6 1.4-1.4 0-.7-.6-1.3-1.4-1.4h-9.2V.038H43.6zm9.2 8.7h10.3v10.3H52.8v-10.3zm-37 20.5H26v10.3H15.8v-10.3zm45.2 4.1h10.3v10.3H61v-10.3zm-28.7 14.4h10.2v10.2H32.3v-10.2zm23.6 14.4h12.3v23.3H55.9v-23.3zm-34.9 4.1h12.3v19.2H21v-19.2z" fill="#fff"/></g><defs><clipPath id="clip0"><path fill="#fff" d="M0 0h89.1v88.2H0z"/></clipPath></defs></svg>