<svg width="24" height="34" viewBox="0 0 24 34" fill="none" xmlns="http://www.w3.org/2000/svg"><path fill-rule="evenodd" clip-rule="evenodd" d="M11.963 0c4.284 0 8.381 2.203 10.43 6.059 2.049 3.672 2.235 8.078 0 11.75v.183l-8.009 13.77c-.558.918-1.49 1.469-2.42 1.469-.932 0-1.863-.551-2.422-1.469L1.72 18.36C-1.632 12.668.044 5.14 5.631 1.835 7.493.734 9.728 0 11.963 0zm8.754 17.258v-.184a9.823 9.823 0 000-10.097C19.04 4.039 15.688 2.02 11.963 2.02c-1.862 0-3.724.55-5.4 1.468-4.657 2.754-6.147 9.18-3.167 13.954l7.823 13.402c.186.367.558.55.744.55.187 0 .56 0 .745-.55l8.009-13.586zM12 7.385c-2.585 0-4.615 2.03-4.615 4.615 0 2.585 2.03 4.615 4.615 4.615 2.585 0 4.615-2.03 4.615-4.615 0-2.585-2.03-4.615-4.615-4.615zM9.23 12c0 1.477 1.293 2.77 2.77 2.77s2.77-1.293 2.77-2.77S13.476 9.23 12 9.23 9.23 10.524 9.23 12z" fill="#fff"/></svg>