<svg width="68" height="48" viewBox="0 0 68 48" fill="none" xmlns="http://www.w3.org/2000/svg"><path d="M59.729 22.623l.64-.32c.481-.193 1.026-.546 1.667-1.058.641-.513 1.25-1.122 1.89-1.859.642-.705 1.186-1.666 1.635-2.82a10.44 10.44 0 00.705-3.78c0-3.622-1.41-6.666-4.23-9.101C59.216 1.25 55.467 0 50.853 0c-2.019 0-3.941.256-5.768.769-1.858.513-3.332 1.057-4.422 1.634a17.233 17.233 0 00-3.14 2.083c-.961.833-1.57 1.378-1.827 1.698-.256.32-.448.545-.576.705l5.896 5.896.993-1.057c.64-.673 1.666-1.378 3.14-2.115 1.474-.705 3.044-1.09 4.71-1.09 1.923 0 3.461.513 4.583 1.475 1.09.993 1.666 2.243 1.666 3.78 0 1.667-.577 3.013-1.698 4.038-1.122 1.026-2.628 1.538-4.55 1.538h-4.583v8.203h4.935c2.34 0 4.166.577 5.512 1.667 1.345 1.121 2.018 2.531 2.018 4.23 0 1.73-.705 3.14-2.05 4.23-1.346 1.12-3.3 1.665-5.832 1.665-1.282 0-2.5-.16-3.685-.512-1.186-.32-2.147-.705-2.916-1.154-.77-.449-1.474-.93-2.147-1.506-.705-.577-1.122-.961-1.314-1.185-.192-.225-.352-.417-.417-.545l-5.928 6.216.673.737c.417.545 1.122 1.154 2.083 1.859.961.705 2.115 1.377 3.397 2.083 1.282.704 2.916 1.313 4.934 1.826 2.02.513 4.134.737 6.313.737 5.127 0 9.228-1.346 12.369-4.07 3.14-2.691 4.71-5.928 4.71-9.709 0-1.666-.32-3.172-.897-4.582-.609-1.41-1.282-2.5-1.987-3.3a13.054 13.054 0 00-2.467-2.083c-.961-.61-1.602-.994-1.987-1.154-.384-.16-.673-.288-.865-.384z" fill="#fff"/><path fill-rule="evenodd" clip-rule="evenodd" d="M21.875 36.81L0 14.937l5.524-5.524L27.4 31.287l-5.524 5.524z" fill="#fff"/><path fill-rule="evenodd" clip-rule="evenodd" d="M27.762 15.299L5.887 37.174.363 31.65 22.238 9.775l5.524 5.524z" fill="#fff"/></svg>