<svg width="617" height="655" viewBox="0 0 617 655" fill="none" xmlns="http://www.w3.org/2000/svg"><path fill-rule="evenodd" clip-rule="evenodd" d="M554.134 352.296L450.475 562.071c-9.89 20.015-31.859 31.058-53.811 27.05-21.954-4.007-38.562-22.091-40.679-44.302l-17.324-181.521-29.295 222.323c-3.353 25.443-25.452 44.228-51.107 43.445-25.656-.783-46.514-20.88-48.239-46.476l-17.201-255.298-3.207 23.054c-3.498 25.146-25.315 43.691-50.703 43.098-25.387-.593-46.259-20.136-48.51-45.418L60.408 11.068c-.284-3.185.043-11.857.043-11.857h210.413l5.07 75.67 9.971-75.67h118.442l34.397 361.268 25.843-52.3c12.221-24.733 42.175-34.907 66.903-22.725 13.42 6.612 22.543 18.451 26.126 31.849a49.725 49.725 0 01-3.483 34.993z" fill="#7BDBD3"/></svg>