<svg xmlns="http://www.w3.org/2000/svg" width="617" height="655" viewBox="0 0 617 655"><path d="M-19.625-37.77v725.15h679.031V-37.77H-19.625zM60.451-.79h210.414l5.07 75.673L285.907-.79h118.442l34.396 361.268 25.844-52.3c12.22-24.732 42.174-34.908 66.902-22.726 13.42 6.612 22.544 18.452 26.127 31.85a49.728 49.728 0 01-3.482 34.994L450.475 562.07c-9.89 20.015-31.859 31.06-53.81 27.051-21.955-4.007-38.564-22.092-40.68-44.303l-17.325-181.52-29.295 222.323c-3.353 25.443-25.45 44.228-51.105 43.445-25.656-.783-46.515-20.88-48.24-46.476l-17.202-255.297-3.207 23.053c-3.498 25.146-25.315 43.69-50.703 43.097-25.387-.593-46.258-20.136-48.51-45.418L60.408 11.068c-.283-3.185.043-11.857.043-11.857z"/></svg>