<svg xmlns="http://www.w3.org/2000/svg" width="874.572" height="569.294" viewBox="0 0 874.572 569.294"><path d="M271.029 563.465a53.178 53.178 0 0018.147-15.147l123.933-162.16c11.082-14.501 13.899-33.528 7.747-50.424l172.454-37.47c25.267-5.49 42.975-28.291 41.996-54.071-.98-25.78-20.366-47.09-45.972-50.538l-169.9-22.87 410.133-65.135c29.052-4.612 48.91-31.854 44.355-60.845-4.556-28.99-31.8-48.75-60.851-44.137L44.997 122.65C18.9 126.796-.253 149.406.003 175.774c.253 26.368 19.837 48.519 46.008 52.042l229.117 30.84-165.599 35.982c-26.298 5.709-44.238 30.1-41.818 56.837 2.42 26.738 24.442 47.429 51.327 48.225l146.607 4.344-61.079 79.919c-17.856 23.364-13.39 56.71 9.974 74.482 16.806 12.783 38.813 14.024 56.489 5.02z" fill="#ffd567"/></svg>