<svg width="922" height="508" viewBox="0 0 922 508" fill="none" xmlns="http://www.w3.org/2000/svg"><path fill-rule="evenodd" clip-rule="evenodd" d="M335.754 449.796l128.558-168.105c11.496-15.032 14.424-34.752 8.052-52.26l178.818-38.899c26.2-5.699 44.569-29.337 43.563-56.053-1.005-26.717-21.097-48.796-47.645-52.358L470.954 58.484 840.786-.41H140.279L82.746 8.743C55.687 13.05 35.821 36.49 36.075 63.816c.253 27.327 20.548 50.276 47.682 53.917L321.3 149.607 149.589 186.96c-27.269 5.927-45.879 31.211-43.381 58.92 2.499 27.709 25.324 49.144 53.2 49.959l152.004 4.445-63.359 82.849c-18.523 24.22-13.906 58.778 10.312 77.187 17.42 13.241 40.237 14.519 58.567 5.18a55.208 55.208 0 0018.822-15.704z" fill="#FFD567"/></svg>