<svg width="19" height="19" viewBox="0 0 19 19" fill="none" xmlns="http://www.w3.org/2000/svg"><path opacity=".4" d="M14.715 14.52c1.367-1.36 2.05-3 2.05-4.922 0-1.922-.683-3.563-2.05-4.922-1.36-1.36-3-2.04-4.922-2.04-1.914 0-3.55.68-4.91 2.04-1.36 1.36-2.04 3-2.04 4.922 0 1.921.68 3.562 2.04 4.921 1.36 1.36 2.996 2.04 4.91 2.04 1.922 0 3.563-.68 4.922-2.04zM16.12 3.469c1.703 1.672 2.555 3.715 2.555 6.129 0 2.414-.852 4.457-2.555 6.129-1.703 1.671-3.812 2.507-6.328 2.507-2.508 0-4.613-.836-6.316-2.507C1.773 14.055.922 12.012.922 9.597c0-2.413.851-4.456 2.555-6.128C5.18 1.797 7.285.96 9.793.96c2.516 0 4.625.836 6.328 2.508zM7.895 7.57c-.57.57-.856 1.25-.856 2.04 0 .78.281 1.456.844 2.027.57.562 1.25.843 2.039.843.492 0 .95-.117 1.371-.351.43-.242.73-.484.902-.727l.246-.363 1.196 1.195-.14.211a5.394 5.394 0 01-1.195 1.055c-.259.172-.607.324-1.044.457-.43.133-.875.2-1.336.2-1.313 0-2.422-.442-3.328-1.325-.907-.89-1.36-1.969-1.36-3.234 0-1.266.454-2.34 1.36-3.223.906-.89 2.015-1.336 3.328-1.336.75 0 1.426.152 2.027.457.602.305 1.012.602 1.23.89l.34.458-1.195 1.195a1.967 1.967 0 00-.246-.351c-.11-.149-.375-.348-.797-.598a2.58 2.58 0 00-1.36-.375c-.78 0-1.456.285-2.026.855z" fill="#000"/></svg>