<svg width="56" height="38" viewBox="0 0 56 38" fill="none" xmlns="http://www.w3.org/2000/svg"><path clip-rule="evenodd" d="M27.122 1.06C7.163 1.918 1.064 7.748 1 19.196.938 30.645 7.163 37 26.923 37s27.637-4.59 28.062-16.41C55.409 8.768 47.08.2 27.122 1.06z" stroke="#fff" stroke-width="2"/><path d="M30.736 13.002L29.057 13c-1.886 0-3.105 1.16-3.105 2.953v1.362h-1.688c-.146 0-.264.11-.264.245v1.973c0 .135.118.244.264.244h1.688v4.978c0 .136.118.245.264.245h2.203c.146 0 .264-.11.264-.245v-4.978h1.974c.145 0 .264-.11.264-.245V17.56a.236.236 0 00-.077-.173.275.275 0 00-.187-.072h-1.974V16.16c0-.555.142-.837.922-.837h1.131c.146 0 .264-.11.264-.245v-1.832c0-.135-.118-.244-.264-.245z" fill="#fff"/></svg>