<svg width="1299" height="800" viewBox="0 0 1299 800" fill="none" xmlns="http://www.w3.org/2000/svg"><path fill-rule="evenodd" clip-rule="evenodd" d="M1092.31 691.679l-322.399-11.537c-40.43-1.446-76.756-31.094-90.152-73.577-13.394-42.481-.846-88.245 31.142-113.572l6.989-5.534-166.576 73.289a84.699 84.699 0 01-13.636 4.665c-40.052 9.976-83.516-10.63-105.491-51.928-24.498-46.04-14.507-103.197 23.241-132.938l18.753-14.776-295.847 119.923c-47.773 19.369-102.798-8.206-122.875-61.593-20.078-53.387 2.383-112.367 50.167-131.737L825.43-.414h372.58s-4.33 40.955-13.7 57.262L1299.88 5.56l-.56 280.409-250 198.733 39.78 1.424c51.83 1.855 94.56 49.373 95.44 106.135.75 47.833-28.47 86.968-68.69 96.985-7.51 1.87-15.39 2.723-23.54 2.432z" fill="#FFD567"/></svg>