<svg width="261" height="40" viewBox="0 0 261 40" fill="none" xmlns="http://www.w3.org/2000/svg"><path fill-rule="evenodd" clip-rule="evenodd" d="M60.587 5.643v9.447h-1.938v-3.95l.12-2.99-4.663 6.94h-2.28V5.643h1.937v3.95l-.12 2.972 4.663-6.922h2.28zm11.521 0v9.447H70.17v-3.9h-5.006v3.9h-1.937V5.643h1.937v3.71h5.007v-3.71h1.937zM82.12 7.464h-3.07v7.626h-1.937V7.464h-3.086v-1.82h8.093v1.82zm2.81 1.855h5.487C90.126 8.03 89.15 7.12 87.726 7.12c-1.475 0-2.47.928-2.795 2.199m7.561 1.58h-7.664c.154 1.735 1.372 2.697 2.95 2.697 1.13 0 2.073-.481 2.52-1.409h2.005c-.737 2.113-2.537 3.109-4.543 3.109-2.863 0-4.904-2.061-4.904-4.912 0-2.852 2.023-4.947 4.87-4.947 3.034 0 4.955 2.353 4.766 5.462m8.212-3.435h-4.338v7.626H94.43V5.643h6.275v1.82zm9.652 2.903c0-1.804-1.166-3.075-2.812-3.075s-2.898 1.271-2.898 3.075c0 1.82 1.252 3.074 2.898 3.074 1.629 0 2.812-1.254 2.812-3.075m1.954 0c0 2.886-1.834 4.93-4.354 4.93-1.475 0-2.606-.721-3.292-1.786v5.874h-1.938V5.644h1.938v1.614c.686-1.082 1.817-1.821 3.309-1.821 2.469 0 4.337 2.044 4.337 4.93m9.018 0c0-1.804-1.251-3.075-2.897-3.075s-2.812 1.271-2.812 3.075c0 1.82 1.183 3.074 2.812 3.074 1.646 0 2.897-1.254 2.897-3.075zm1.92-4.724v9.447h-1.937v-1.58c-.686 1.082-1.817 1.786-3.292 1.786-2.52 0-4.355-2.044-4.355-4.93 0-2.885 1.869-4.929 4.338-4.929 1.492 0 2.623.739 3.309 1.82V5.644h1.937zm9.687 1.821h-3.069v7.626h-1.938V7.464h-3.086v-1.82h8.093v1.82zm2.691 2.903c0 1.82 1.286 3.074 2.932 3.074s2.932-1.254 2.932-3.075c0-1.82-1.303-3.074-2.932-3.074s-2.932 1.254-2.932 3.075m7.818 0c0 2.834-2.143 4.929-4.886 4.929-2.726 0-4.887-2.113-4.887-4.93 0-2.85 2.195-4.929 4.887-4.929 2.709 0 4.886 2.078 4.886 4.93m9.361 0c0-1.804-1.166-3.075-2.812-3.075s-2.898 1.271-2.898 3.075c0 1.82 1.252 3.074 2.898 3.074 1.629 0 2.812-1.254 2.812-3.075m1.954 0c0 2.886-1.834 4.93-4.355 4.93-1.474 0-2.606-.721-3.291-1.786v5.874h-1.938V5.644h1.938v1.614c.685-1.082 1.817-1.821 3.309-1.821 2.468 0 4.337 2.044 4.337 4.93m6.892 0c0-2.817 2.091-4.93 4.903-4.93 2.229 0 4.201 1.357 4.629 3.641h-2.006c-.36-1.185-1.405-1.838-2.623-1.838-1.749 0-2.949 1.306-2.949 3.127 0 1.837 1.235 3.126 2.932 3.126 1.235 0 2.28-.688 2.64-1.856h2.006c-.445 2.336-2.434 3.659-4.646 3.659-2.795 0-4.886-2.113-4.886-4.93m12.669.001c0 1.82 1.286 3.074 2.932 3.074s2.932-1.254 2.932-3.075c0-1.82-1.303-3.074-2.932-3.074s-2.932 1.254-2.932 3.075m7.818 0c0 2.834-2.143 4.929-4.886 4.929-2.726 0-4.886-2.113-4.886-4.93 0-2.85 2.194-4.929 4.886-4.929 2.709 0 4.886 2.078 4.886 4.93m3.292 0c0 1.82 1.286 3.074 2.932 3.074s2.931-1.254 2.931-3.075c0-1.82-1.303-3.074-2.931-3.074-1.629 0-2.932 1.254-2.932 3.075m7.818 0c0 2.834-2.143 4.929-4.886 4.929-2.726 0-4.887-2.113-4.887-4.93 0-2.85 2.195-4.929 4.887-4.929 2.708 0 4.886 2.078 4.886 4.93m9.104.154c0-1.803-1.218-2.989-2.829-2.989-1.595 0-2.984 1.168-2.984 2.989 0 1.89 1.252 3.092 2.881 3.092 1.629 0 2.932-1.202 2.932-3.092m1.937-.103c0 2.937-2.092 4.878-4.783 4.878-2.641 0-4.904-1.803-4.921-5.771 0-6.716 3.292-7.867 8.521-7.867v1.838c-4.286 0-6.275.67-6.549 4.346.685-1.306 2.04-1.976 3.463-1.976 2.4 0 4.269 1.804 4.269 4.552m16.373 2.852v4.276h-1.937V15.09h-12.448V5.643h1.937v7.626h3.429V5.643h1.938v7.626h3.429V5.643h1.937v7.626h1.715zm3.154-3.951h5.486c-.291-1.289-1.269-2.199-2.692-2.199-1.474 0-2.469.928-2.794 2.199m7.561 1.58h-7.664c.154 1.735 1.371 2.697 2.949 2.697 1.131 0 2.074-.481 2.52-1.409h2.006c-.737 2.113-2.537 3.109-4.543 3.109-2.863 0-4.904-2.061-4.904-4.912 0-2.852 2.023-4.947 4.869-4.947 3.035 0 4.955 2.353 4.767 5.462m1.285-.532c0-2.817 2.092-4.93 4.903-4.93 2.229 0 4.201 1.357 4.63 3.641h-2.006c-.36-1.185-1.406-1.838-2.624-1.838-1.748 0-2.948 1.306-2.948 3.127 0 1.837 1.234 3.126 2.931 3.126 1.235 0 2.281-.688 2.641-1.856h2.006c-.446 2.336-2.435 3.659-4.647 3.659-2.794 0-4.886-2.113-4.886-4.93m18.533-2.902h-3.068v7.626h-1.938V7.464h-3.086v-1.82h8.092v1.82zm7.818 4.757c0-.773-.412-1.27-1.56-1.27h-2.726v2.61h2.743c1.2 0 1.543-.55 1.543-1.34m-1.989-5.05h-2.297v2.371h2.263c1.166 0 1.56-.48 1.56-1.15 0-.757-.343-1.22-1.526-1.22m3.943 5.204c0 1.786-1.285 2.714-3.377 2.714h-4.801V5.643h4.389c2.041 0 3.326.653 3.326 2.387 0 .962-.514 1.53-1.285 1.993 1.165.344 1.748 1.202 1.748 2.353M58.204 35.203l-4.441-4.363v4.363h-1.937v-9.447h1.937v4.088l4.08-4.088h2.487l-4.613 4.483 4.99 4.964h-2.503zm11.812-4.723c0-1.804-1.166-3.075-2.812-3.075s-2.898 1.271-2.898 3.075c0 1.82 1.252 3.074 2.898 3.074 1.629 0 2.812-1.254 2.812-3.075m1.954 0c0 2.886-1.834 4.93-4.355 4.93-1.474 0-2.605-.722-3.291-1.786v5.874h-1.938V25.756h1.938v1.614c.686-1.082 1.817-1.82 3.309-1.82 2.469 0 4.337 2.044 4.337 4.93m10.167-4.724l-6.241 13.74h-2.074L76.308 34l-3.72-8.244h2.074l2.674 6.149 2.727-6.15h2.074zm14.076 9.447l-4.458-4.363v4.363h-1.937V30.84l-4.458 4.363h-2.486l4.972-4.964-4.612-4.483h2.503l4.08 4.105v-4.105h1.938v4.105l4.08-4.105h2.504l-4.612 4.483 4.972 4.964h-2.486zm10.457 0l-4.44-4.363v4.363h-1.938v-9.447h1.938v4.088l4.08-4.088h2.486l-4.612 4.483 4.989 4.964h-2.503zm4.732-4.723c0 1.82 1.286 3.074 2.932 3.074 1.645 0 2.932-1.254 2.932-3.075 0-1.82-1.304-3.074-2.932-3.074-1.629 0-2.932 1.254-2.932 3.075m7.818 0c0 2.833-2.143 4.929-4.886 4.929-2.727 0-4.887-2.113-4.887-4.93 0-2.85 2.195-4.93 4.887-4.93 2.708 0 4.886 2.08 4.886 4.93m8.212 1.856c0-.773-.411-1.271-1.56-1.271h-2.726v2.61h2.743c1.2 0 1.543-.55 1.543-1.34m-1.989-5.05h-2.297v2.372h2.263c1.166 0 1.56-.482 1.56-1.151 0-.756-.343-1.22-1.526-1.22m3.944 5.204c0 1.787-1.286 2.714-3.378 2.714h-4.801v-9.447h4.389c2.041 0 3.327.653 3.327 2.388 0 .962-.515 1.529-1.286 1.992 1.166.344 1.749 1.203 1.749 2.354m3.496-2.01c0 1.82 1.286 3.074 2.932 3.074s2.932-1.254 2.932-3.075c0-1.82-1.303-3.074-2.932-3.074s-2.932 1.254-2.932 3.075m7.819 0c0 2.833-2.144 4.929-4.887 4.929-2.726 0-4.886-2.113-4.886-4.93 0-2.85 2.194-4.93 4.886-4.93 2.709 0 4.887 2.08 4.887 4.93m8.263-2.902h-4.338v7.626h-1.937v-9.447h6.275v1.82zm3.034 2.903c0 1.82 1.286 3.074 2.932 3.074s2.932-1.254 2.932-3.075c0-1.82-1.303-3.074-2.932-3.074s-2.932 1.254-2.932 3.075m7.818 0c0 2.833-2.143 4.929-4.886 4.929-2.726 0-4.887-2.113-4.887-4.93 0-2.85 2.195-4.93 4.887-4.93 2.709 0 4.886 2.08 4.886 4.93m15.019 2.903v-5.805h-3.155l-.566 3.503c-.171 1.1-.411 1.821-.737 2.302h4.458zm3.651 0v4.277h-1.937v-2.456h-7.989v2.456h-1.938v-4.277h1.646c.429-.326.703-1.048.926-2.387l.84-5.24h6.738v7.627h1.714zm8.161-1.047c0-.773-.412-1.271-1.56-1.271h-2.727v2.61h2.744c1.2 0 1.543-.55 1.543-1.34m-1.989-5.05h-2.298v2.372h2.264c1.165 0 1.56-.482 1.56-1.151 0-.756-.343-1.22-1.526-1.22m3.943 5.204c0 1.787-1.285 2.714-3.377 2.714h-4.801v-9.447h4.389c2.04 0 3.326.653 3.326 2.388 0 .962-.514 1.529-1.286 1.992 1.166.344 1.749 1.203 1.749 2.354m10.955-6.734v9.447h-1.937v-3.95l.12-2.99-4.664 6.94h-2.28v-9.447h1.937v3.95l-.12 2.972 4.664-6.922h2.28zm14.916 9.447l-4.458-4.363v4.363h-1.937V30.84l-4.458 4.363h-2.486l4.972-4.964-4.612-4.483h2.503l4.081 4.105v-4.105h1.937v4.105l4.081-4.105h2.503l-4.612 4.483 4.972 4.964h-2.486zm4.886-5.771h5.486c-.291-1.288-1.269-2.199-2.692-2.199-1.474 0-2.469.928-2.794 2.199m7.561 1.58h-7.664c.154 1.735 1.371 2.697 2.949 2.697 1.131 0 2.074-.481 2.52-1.409h2.006c-.737 2.113-2.537 3.109-4.544 3.109-2.863 0-4.903-2.061-4.903-4.912s2.023-4.947 4.869-4.947c3.035 0 4.955 2.353 4.767 5.462m10.817-5.256v9.447H235.8v-3.9h-5.006v3.9h-1.938v-9.447h1.938v3.71h5.006v-3.71h1.937zm11.401 0v9.447h-1.937v-3.95l.12-2.99-4.664 6.94h-2.28v-9.447h1.937v3.95l-.12 2.972 4.664-6.922h2.28zm8.624 4.432v-2.68h-2.692c-1.2 0-1.578.584-1.578 1.374 0 .774.48 1.306 1.629 1.306h2.641zm1.937-4.432v9.447h-1.937v-3.418h-1.869l-2.452 3.418h-2.383l2.76-3.555c-1.303-.326-2.28-1.151-2.28-2.731 0-2.182 1.491-3.16 3.429-3.16h4.732z" fill="#000"/><mask id="a" maskUnits="userSpaceOnUse" x="0" y="0" width="40" height="40"><path fill-rule="evenodd" clip-rule="evenodd" d="M0 0h39.928v40H0V0z" fill="#fff"/></mask><g mask="url(#a)"><path fill-rule="evenodd" clip-rule="evenodd" d="M39.876 18.837c-.377-2-2.614-2.558-4.733-2.894.366-1.38.546-2.588.548-3.663.004-2.642-.717-6.009-2.469-7.208-1.676-1.146-3.653.043-5.389 1.307-.716-1.236-1.44-2.217-2.198-2.978C23.774 1.53 20.888-.341 18.803.053c-1.995.376-2.553 2.618-2.889 4.741-1.378-.367-2.583-.547-3.656-.549-2.637-.004-5.998.718-7.194 2.473-1.146 1.68.042 3.66 1.304 5.399-1.234.717-2.214 1.443-2.974 2.202C1.527 16.184-.34 19.075.053 21.163c.376 2 2.613 2.558 4.733 2.894-.367 1.38-.547 2.588-.549 3.664-.004 2.641.717 6.008 2.469 7.207 1.677 1.146 3.653-.043 5.389-1.307.716 1.236 1.44 2.217 2.198 2.979 1.861 1.87 4.748 3.74 6.833 3.347 1.994-.376 2.553-2.618 2.888-4.741 1.379.367 2.584.547 3.657.549 2.636.004 5.997-.718 7.194-2.473 1.145-1.68-.043-3.66-1.304-5.399 1.233-.717 2.213-1.443 2.973-2.202 1.867-1.864 3.734-4.756 3.342-6.844m-9.025 2.076c-1.324 2.626-1.866 3.583-.573 6.165-1.307.57-2.357.982-3.26 1.279-2.79.92-3.848 1.213-4.757 3.954-1.326-.523-2.36-.976-3.208-1.405-2.622-1.326-3.577-1.868-6.154-.573-.57-1.31-.98-2.362-1.277-3.266-.918-2.795-1.21-3.856-3.947-4.765.522-1.33.974-2.365 1.403-3.215 1.323-2.626 1.865-3.583.572-6.165 1.307-.57 2.358-.982 3.26-1.279 2.79-.92 3.849-1.213 4.757-3.954 1.327.523 2.36.976 3.208 1.405 2.622 1.326 3.577 1.868 6.154.573.57 1.31.98 2.362 1.277 3.267.918 2.794 1.211 3.855 3.947 4.765-.522 1.329-.974 2.364-1.402 3.214m2.108-11.72c.248.889.398 1.966.396 3.083 0 .912-.073 2.17-.46 3.208-1.283-.366-1.614-1.06-2.438-3.35a83.903 83.903 0 00-1.463-3.806c2.598-1.9 3.194-1.902 3.965.864m-11.434-6.04c.803.453 1.67 1.11 2.456 1.9.643.646 1.48 1.587 1.94 2.594-1.166.65-1.89.395-4.09-.641a83.12 83.12 0 00-3.72-1.655c.496-3.184.915-3.607 3.414-2.198m-12.35 3.83a11.594 11.594 0 013.079-.397c.91.001 2.166.074 3.202.46-.365 1.286-1.057 1.618-3.344 2.443a82.99 82.99 0 00-3.799 1.466c-1.897-2.603-1.899-3.2.863-3.972m-6.03 11.455a11.639 11.639 0 011.897-2.461c.645-.644 1.584-1.482 2.59-1.943.648 1.168.394 1.893-.64 4.096a82.4 82.4 0 00-1.652 3.727c-3.179-.496-3.601-.917-2.194-3.42m3.822 12.372a11.653 11.653 0 01-.396-3.084c.001-.912.074-2.17.46-3.208 1.283.366 1.614 1.06 2.438 3.35.35.976.797 2.193 1.463 3.806-2.598 1.9-3.193 1.902-3.965-.864m11.435 6.04a11.63 11.63 0 01-2.457-1.9c-.643-.646-1.48-1.587-1.94-2.594 1.167-.65 1.89-.395 4.09.641.936.441 2.111.986 3.72 1.655-.495 3.184-.915 3.607-3.413 2.198m12.349-3.83c-.888.25-1.964.4-3.079.397-.91 0-2.165-.073-3.202-.46.366-1.286 1.058-1.618 3.344-2.443a82.968 82.968 0 003.8-1.466c1.896 2.603 1.898 3.2-.863 3.972m1.543-7.051c-.65-1.168-.394-1.893.64-4.096.44-.938.984-2.115 1.652-3.727 3.178.496 3.6.917 2.194 3.42a11.656 11.656 0 01-1.897 2.46c-.645.644-1.583 1.482-2.59 1.943" fill="#12100B"/></g></svg>