<svg width="754" height="559" viewBox="0 0 754 559" fill="none" xmlns="http://www.w3.org/2000/svg"><path fill-rule="evenodd" clip-rule="evenodd" d="M580.075 539.068a41.35 41.35 0 01-16.097-8.866L445.331 424.854c-10.61-9.42-15.584-23.519-13.398-37.32l-137.163-3.033c-20.097-.444-36.995-15.216-40.075-35.028-3.08-19.812 8.551-38.943 27.579-45.367l126.257-42.622-322.646 11.079c-22.854.787-42.052-17.054-42.88-39.846-.827-22.791 17.03-41.903 39.884-42.688l604.233-20.748c20.53-.704 38.502 13.708 42.222 33.861 3.721 20.154-7.935 39.954-27.384 46.52l-170.263 57.477 131.711 2.913c20.917.459 38.228 16.408 40.35 37.164 2.123 20.757-11.611 39.805-32.009 44.396l-111.233 25.037 58.475 51.92c17.094 15.179 18.637 41.28 3.446 58.3-10.927 12.242-27.537 16.45-42.362 12.199z" fill="#fff"/></svg>