<svg width="756" height="457" viewBox="0 0 756 457" xmlns="http://www.w3.org/2000/svg"><path d="M-44.348 464.63a53.437 53.437 0 0023.634-1.999L174.48 400.79c17.455-5.53 30.719-19.527 35.384-36.93l163.332 68.387c23.93 10.02 51.609 1.486 65.637-20.235 14.03-21.72 10.355-50.356-8.711-67.905l-126.51-116.44 374.64 182.316c26.537 12.916 58.538 1.974 71.475-24.438 12.936-26.411 1.91-58.29-24.627-71.205L23.491-27.095C-.348-38.695-29.103-31.148-44.067-9.36-59.03 12.426-55.677 41.863-36.19 59.8l170.606 157.026-156.84-65.668c-24.905-10.432-53.687-.728-67.084 22.607-13.396 23.335-7.198 52.976 14.446 69.086L42.96 330.695l-96.199 30.479c-28.124 8.91-43.641 38.845-34.66 66.862 6.46 20.152 23.838 33.824 43.55 36.594" fill="#FB809D" fill-rule="evenodd"/></svg>