<svg width="65" height="62" viewBox="0 0 63 62" fill="none" xmlns="http://www.w3.org/2000/svg"><path fill-rule="evenodd" clip-rule="evenodd" d="M45 1v19l18-1L45 1z" fill="#FB809D"/><path fill-rule="evenodd" clip-rule="evenodd" d="M45 20V1l18 18-18 1zm13.423-2.749L47 5.828v12.058l11.423-.635z" fill="#000"/><path fill-rule="evenodd" clip-rule="evenodd" d="M63 53.805V18.586L45.153.74.463 27.762l29.174 33.342L63 53.805zM44.847 3.262L61 19.415v32.78l-30.637 6.702L3.538 28.24 44.847 3.262z" fill="#000"/><path fill-rule="evenodd" clip-rule="evenodd" d="M32.207 42.715c2.243-.56 4.123.514 4.682 2.757.576 2.31-.666 4.213-3.206 4.847l-2.046.51 1.008 4.041-1.765.44L28 43.764l4.206-1.05zm1.126 5.851c1.336-.333 1.947-1.326 1.63-2.596-.316-1.27-1.305-1.795-2.642-1.461l-2.127.53 1.011 4.058 2.128-.53zm16.07-4.006c-.85-3.415-3.814-5.181-7.262-4.322l-4.552 1.135 2.879 11.547 4.338-1.082c3.612-.9 5.461-3.815 4.598-7.278zm-5.041 5.567c2.523-.63 3.716-2.591 3.095-5.082-.62-2.49-2.595-3.663-5.119-3.034l-2.557.638 2.024 8.115 2.557-.637zm12.842-11.822l-.427-1.716-7.01 1.748 2.878 11.546 1.765-.44-1.226-4.915 4.932-1.23-.427-1.715-4.932 1.23-.798-3.2 5.245-1.308z" fill="#000"/></svg>