<svg width="55" height="57" viewBox="0 0 55 57" fill="none" xmlns="http://www.w3.org/2000/svg"><path fill-rule="evenodd" clip-rule="evenodd" d="M10.335 5c2.312 0 3.876 1.496 3.876 3.808 0 2.38-1.666 3.927-4.284 3.927H7.819V16.9H6V5h4.335zm-.323 5.95c1.377 0 2.21-.816 2.21-2.125 0-1.309-.833-2.057-2.21-2.057H7.819v4.182h2.193zm16.562 0c0-3.519-2.448-5.95-6-5.95H15.88v11.9h4.471c3.723 0 6.222-2.38 6.222-5.95zm-6.239 4.182c2.601 0 4.233-1.615 4.233-4.182s-1.632-4.182-4.233-4.182H17.7v8.364h2.635zm15.322-8.364V5h-7.225v11.9h1.819v-5.066h5.082v-1.768h-5.082V6.768h5.405z" fill="#000"/><path fill-rule="evenodd" clip-rule="evenodd" d="M19 56V38H1l18 18z" fill="#FFD567"/><path fill-rule="evenodd" clip-rule="evenodd" d="M19 38v18L1 38h18zm-2 2H5.828L17 51.172V40z" fill="#000"/><path d="M41.072 2.132L52.56 34.68 17.836 54.585l.994 1.735L55 35.586 42.487.132H.78v38h2v-36h38.292z" fill="#000"/></svg>