<svg width="41" height="36" viewBox="0 0 41 36" fill="none" xmlns="http://www.w3.org/2000/svg"><path fill-rule="evenodd" clip-rule="evenodd" d="M38.855 13.323h-12v-12l12 12z" fill="#FF937D" stroke="#000" stroke-width="2" stroke-linejoin="round"/><path clip-rule="evenodd" d="M26.855 1.323L2 1.647 5.931 27.53 30.172 34l8.683-20.677-12-12z" stroke="#000" stroke-width="2"/><path fill-rule="evenodd" clip-rule="evenodd" d="M14.61 18.013c1.45.308 2.22 1.5 1.897 3.02-.333 1.565-1.593 2.36-3.234 2.012l-1.32-.28-.583 2.738-1.14-.242 1.664-7.825 2.716.577zm-1.034 3.87c.863.183 1.5-.243 1.682-1.103.183-.861-.234-1.464-1.097-1.647l-1.374-.293-.585 2.75 1.374.293zm10.38 2.206c.491-2.314-.703-4.239-2.93-4.712l-2.94-.625-1.663 7.825 2.802.595c2.333.496 4.231-.736 4.73-3.083zm-4.495 1.919c1.63.346 2.878-.498 3.237-2.186s-.438-2.968-2.068-3.314l-1.651-.351-1.17 5.5 1.652.35zm10.77-3.46l.247-1.162-4.527-.962-1.663 7.825 1.14.242.708-3.331 3.185.677.247-1.163-3.185-.677.46-2.169 3.388.72z" fill="#000"/><path d="M11.953 22.764l.03-.146-.146-.032-.031.147.147.031zm-.583 2.739l-.03.147.146.03.031-.146-.147-.031zm-1.14-.242l-.146-.031-.031.146.146.031.031-.146zm1.664-7.825l.03-.147-.146-.031-.031.146.147.032zm1.682 4.447l-.03.146.03-.146zm.585-2.75l-.031.146.03-.146zm-1.374-.293l.03-.146-.146-.031-.031.146.146.031zm-.585 2.75l-.147-.03-.03.146.146.031.031-.147zm5.884-2.838l.031-.147-.146-.031-.032.147.147.03zm-1.663 7.825l-.147-.031-.031.146.146.032.032-.147zm3.038-.57l.031-.146-.031.147zm1.17-5.5l.03-.146-.03.147zm-1.652-.35l.031-.147-.147-.031-.03.146.146.032zm-1.17 5.5l-.146-.032-.031.147.147.031.03-.146zm12.67-4.271l.146.031.032-.147-.147-.03-.032.146zm-.248 1.163l-.03.146.146.031.031-.146-.147-.031zm-4.28-2.125l.031-.147-.147-.031-.03.146.146.032zm-1.663 7.825l-.147-.031-.031.146.146.031.032-.146zm1.14.242l-.032.147.147.03.031-.146-.147-.031zm.708-3.331l.03-.147-.146-.031-.031.146.147.032zm3.185.677l-.031.146.146.032.032-.147-.147-.031zm.247-1.163l.147.031.03-.146-.146-.032-.031.147zm-3.185-.677l-.147-.031-.031.147.147.03.03-.146zm.46-2.169l.032-.146-.147-.031-.031.146.147.031zm-10.19-.764c.17-.792.055-1.511-.303-2.076-.358-.565-.95-.96-1.709-1.122l-.062.294c.69.146 1.208.5 1.517.989.31.488.42 1.125.264 1.853l.294.063zm-3.41 2.128c.85.18 1.617.067 2.217-.308.601-.375 1.02-1.003 1.194-1.82l-.294-.062c-.159.75-.537 1.301-1.059 1.628-.523.326-1.207.436-1.996.268l-.063.294zm-1.322-.281l1.321.28.063-.293-1.321-.28-.063.293zm-.404 2.623l.582-2.739-.293-.062-.582 2.739.293.062zm-1.318-.127l1.14.243.063-.294-1.14-.242-.063.293zm1.548-8.003l-1.663 7.826.293.062 1.663-7.825-.293-.063zm2.895.462l-2.717-.577-.062.293 2.716.578.063-.294zm.47 2.882c-.086.401-.272.684-.522.85-.25.164-.582.223-.982.138l-.063.293c.462.099.88.036 1.21-.181.33-.217.552-.577.65-1.037l-.293-.063zm-.982-1.469c.404.086.685.266.847.507.162.24.22.562.134.962l.294.063c.098-.46.038-.87-.179-1.193-.216-.321-.575-.535-1.034-.632l-.062.293zm-1.375-.292l1.375.292.062-.293-1.374-.292-.063.293zm-.406 2.635l.584-2.75-.293-.063-.585 2.75.294.063zm1.258.114l-1.374-.292-.062.293 1.374.292.063-.293zm7.388-2.213c1.077.23 1.896.807 2.388 1.599.492.792.665 1.811.426 2.936l.293.062c.253-1.19.074-2.29-.464-3.157-.54-.867-1.43-1.489-2.58-1.733l-.063.293zm-2.94-.625l2.94.625.063-.293-2.94-.625-.063.293zm-1.486 7.71l1.664-7.825-.294-.062-1.663 7.825.293.062zm2.687.418l-2.802-.596-.063.294 2.802.595.063-.293zm4.553-2.968c-.243 1.14-.822 1.998-1.613 2.513-.791.515-1.807.696-2.94.455l-.063.293c1.2.255 2.3.068 3.167-.496.866-.564 1.486-1.496 1.742-2.703l-.293-.063zm-1.258-.268c-.173.815-.557 1.41-1.079 1.763-.521.352-1.198.474-1.98.308l-.062.293c.848.18 1.61.053 2.21-.352.6-.405 1.02-1.076 1.205-1.95l-.293-.062zM20.6 20.654c.782.167 1.35.553 1.684 1.087.333.535.442 1.235.268 2.05l.294.062c.186-.874.075-1.657-.308-2.27-.383-.615-1.028-1.042-1.876-1.222l-.062.293zm-1.651-.35l1.65.35.063-.293-1.651-.351-.062.293zm-.992 5.384l1.17-5.5-.294-.063-1.169 5.5.293.063zm1.536.173l-1.651-.351-.062.293 1.65.351.063-.293zm10.84-4.506l-.247 1.162.293.063.247-1.163-.293-.062zm-4.412-.785l4.527.963.063-.294-4.528-.962-.062.293zm-1.486 7.71l1.664-7.825-.294-.063-1.663 7.826.293.062zm1.025.064l-1.14-.242-.063.293 1.14.243.063-.294zm.53-3.216l-.708 3.332.293.062.708-3.331-.293-.063zm3.363.562l-3.185-.677-.063.293 3.186.677.062-.293zm.07-1.047l-.248 1.162.294.063.247-1.163-.294-.062zm-3.07-.5l3.185.678.062-.294-3.185-.677-.063.294zm.345-2.346l-.461 2.169.293.062.461-2.168-.293-.063zm3.566.605l-3.388-.72-.063.293 3.388.72.063-.293z" fill="#000"/></svg>