<svg width="1175" height="760" viewBox="0 0 1175 760" fill="none" xmlns="http://www.w3.org/2000/svg"><path fill-rule="evenodd" clip-rule="evenodd" d="M807.643 692.676l-148.7-194.443c-13.297-17.388-16.683-40.198-9.313-60.449L277.094 375c-30.305-6.592-51.552-33.934-50.389-64.836 1.164-30.902 24.403-56.44 55.111-60.561l220.129-9.55-342.571-78.263c-34.843-5.541-58.67-38.206-53.219-72.956 5.45-34.75 38.113-58.425 72.956-52.882L1100.29 182.52c31.3 4.981 54.28 32.093 53.98 63.702-.29 31.608-23.76 58.152-55.15 62.364l-190.036 36.868 113.886 43.206c31.55 6.856 53.07 36.101 50.18 68.152-2.89 32.05-29.29 56.843-61.53 57.786l-175.821 5.142 73.285 95.829c21.425 28.016 16.084 67.988-11.927 89.281-20.149 15.316-46.542 16.794-67.744 5.992-8.273-4.216-15.756-10.301-21.77-18.165z" fill="#fff"/></svg>