<svg width="34" height="25" viewBox="0 0 34 25" fill="none" xmlns="http://www.w3.org/2000/svg"><path clip-rule="evenodd" d="M12.5 24C18.851 24 24 18.851 24 12.5S18.851 1 12.5 1 1 6.149 1 12.5 6.149 24 12.5 24z" stroke="#000" stroke-width="2"/><path d="M13.921 15.222c-1.503.678-2.18 2.462-1.51 3.986.669 1.523 2.43 2.208 3.932 1.53l11.328-5.11c2.537-1.144 2.285-4.874-.382-5.657l-2.785-.819L31.499 8c1.623-.268 2.726-1.819 2.462-3.465-.264-1.646-1.794-2.763-3.418-2.495l-20.042 3.3c-3.135.517-3.402 4.984-.351 5.88l7.654 2.25-3.883 1.752z" fill="#FF937D"/></svg>