<svg width="775" height="799" viewBox="0 0 775 799" fill="none" xmlns="http://www.w3.org/2000/svg"><path fill-rule="evenodd" clip-rule="evenodd" d="M775.436 680.407l-59.269 119.64H506.551l-11.883-124.416-16.523 124.416H309.897l-11.814-173.005-4.319 31.09c-4.709 33.912-34.111 58.917-68.331 58.112-34.22-.806-62.357-27.165-65.397-61.261l-40.494-454.432c-3.299-37.032 24.045-69.759 61.077-73.099 18.367-1.656 35.67 4.232 48.846 15.101L249.326-1.39h143.078l17.655 143.943 28.483-72.412c4.466-33.956 33.704-59.176 67.939-58.603 30.432.51 56.194 21.259 63.829 49.803a67.495 67.495 0 011.986 11.039l57.272 599.47 34.823-70.527c16.468-33.353 56.84-47.067 90.172-30.632 9.125 4.499 20.873 18.242 20.873 18.242v91.474z" fill="#F0E7E5"/><mask id="a" maskUnits="userSpaceOnUse" x="0" y="-94" width="825" height="1024"><path fill-rule="evenodd" clip-rule="evenodd" d="M775.436 680.407l-59.269 119.64H506.551l-11.883-124.416-16.523 124.416H309.897l-11.814-173.005-4.319 31.09c-4.709 33.912-34.111 58.917-68.331 58.112-34.22-.806-62.357-27.165-65.397-61.261l-40.494-454.432c-3.299-37.032 24.045-69.759 61.077-73.099 18.367-1.656 35.67 4.232 48.846 15.101L249.326-1.39h143.078l17.655 143.943 28.483-72.412c4.466-33.956 33.704-59.176 67.939-58.603 30.432.51 56.194 21.259 63.829 49.803a67.495 67.495 0 011.986 11.039l57.272 599.47 34.823-70.527c16.468-33.353 56.84-47.067 90.172-30.632 9.125 4.499 20.873 18.242 20.873 18.242v91.474z" fill="#fff"/></mask><g mask="url(#a)"><path d="M-171-9h1221v814H-171z"/></g></svg>