<svg xmlns="http://www.w3.org/2000/svg" width="400" height="310" viewBox="0 0 400 310"><path fill="#ffd567" d="M311.866 259.509l81.818-118.007c7.807-11.26 7.206-26.325-1.47-36.9-8.677-10.58-23.322-14.103-35.875-8.628l-102.606 44.731L364.39 58.836c12.663-9.37 16.18-26.809 8.135-40.331S347.492-.22 333.236 6.472l-142.18 66.755 11.424-8.58c12.462-9.36 15.934-26.575 8.07-40.012-7.864-13.434-24.559-18.81-38.802-12.494C114.843 37.385.334 87.868.334 87.868L.333 230.16l79.91-37.252L.333 252.03l-.002 49.86s16.91 6.66 25.544 4.5a30.67 30.67 0 004.832-1.646l251.257-109.539-20.398 29.421c-9.647 13.913-6.207 33.002 7.682 42.634 7.539 5.228 16.607 6.595 24.864 4.53a30.564 30.564 0 0017.754-12.282z"/></svg>