<svg xmlns="http://www.w3.org/2000/svg" width="707" height="836" viewBox="0 0 707 836" fill="#ffd567"><path d="M165.747 69.94A58.72 58.72 0 00157.335 84L70.217 289.604c-10.926 25.783-2.994 57.223 19.683 78.023 22.676 20.799 54.999 26.283 80.216 13.608l5.51-2.769-94.628 83.105a58.593 58.593 0 00-6.91 7.192c-17.967 22.213-17.785 55.491 1.64 81.328 21.655 28.803 60.362 39.215 90.028 24.215l14.738-7.451L18.843 717.441c-26.106 24.316-24.943 66.88 2.604 95.053 27.548 28.175 71.046 31.297 97.156 6.975L644.35 329.711c23.75-22.132 25.222-59.848 3.425-88.119-16.33-21.179-41.918-32.128-66.075-30.045l104.73-91.978c24.635-21.641 26.925-59.658 5.318-88.458-21.607-28.8-60.265-39.262-89.947-24.343l-327.467 164.6 10.75-25.374c14.005-33.05-3.241-73.72-38.52-90.84-29.727-14.426-62.777-7.52-80.818 14.787z"/></svg>