<svg width="448" height="274" viewBox="0 0 448 274" fill="none" xmlns="http://www.w3.org/2000/svg"><path fill-rule="evenodd" clip-rule="evenodd" d="M378.236 267.612l-90.005-49.07a26.672 26.672 0 01-13.858-21.544l-86.791 18.023c-12.716 2.641-25.502-4.202-30.32-16.225-4.818-12.023-.277-25.754 10.768-32.563l73.289-45.175-201.508 53.858c-14.273 3.816-28.953-4.624-32.786-18.85-3.833-14.225 4.63-28.85 18.904-32.665L403.302 22.54c12.822-3.427 26.231 3.033 31.502 15.178 5.272 12.144.812 26.301-10.478 33.26l-98.833 60.92 83.341-17.306c13.234-2.751 26.45 4.773 30.804 17.529 4.353 12.757-1.525 26.742-13.699 32.596l-66.386 31.923 44.358 24.183c12.968 7.07 17.733 23.275 10.643 36.196-5.099 9.293-14.944 14.356-24.895 13.834a26.734 26.734 0 01-11.423-3.241z" fill="#7BDBD3"/></svg>