<svg width="689" height="372" viewBox="0 0 689 372" fill="none" xmlns="http://www.w3.org/2000/svg"><path fill-rule="evenodd" clip-rule="evenodd" d="M538.409 370.318a41.485 41.485 0 01-16.136-8.883L403.326 255.903c-10.637-9.437-15.626-23.557-13.438-37.378l-137.479-3.073c-20.143-.45-37.084-15.248-40.175-35.089-3.092-19.842 8.559-38.997 27.63-45.425l126.534-42.65-323.381 11.009C20.11 104.079.863 86.207.028 63.382c-.835-22.824 17.057-41.959 39.964-42.74L645.604.025c20.577-.7 38.594 13.738 42.328 33.922 3.734 20.183-7.943 40.01-27.434 46.58L489.859 138.04l132.014 2.952c20.964.465 38.319 16.441 40.453 37.228 2.133 20.788-11.628 39.86-32.072 44.452l-111.481 25.044 58.622 52.01c17.138 15.205 18.692 41.345 3.47 58.385-10.949 12.257-27.596 16.467-42.456 12.206z" fill="#fff"/></svg>