<svg width="57" height="57" viewBox="0 0 57 57" fill="none" xmlns="http://www.w3.org/2000/svg"><path fill-rule="evenodd" clip-rule="evenodd" d="M37.25 0h-17.5C3.782 0 0 3.781 0 19.75v17.5C0 53.218 3.781 57 19.75 57h17.5C53.218 57 57 53.219 57 37.25v-17.5C57 3.782 53.178 0 37.25 0zm8.768 40.668h-4.143c-1.569 0-2.051-1.247-4.867-4.103-2.454-2.373-3.54-2.695-4.144-2.695-.844 0-1.086.242-1.086 1.408v3.741c0 1.006-.321 1.61-2.976 1.61-4.385 0-9.252-2.656-12.671-7.604-5.15-7.24-6.557-12.67-6.557-13.797 0-.603.241-1.167 1.408-1.167h4.143c1.046 0 1.448.483 1.85 1.61 2.052 5.913 5.471 11.102 6.879 11.102.523 0 .764-.242.764-1.569V23.09c-.16-2.816-1.65-3.058-1.65-4.063 0-.483.403-.966 1.047-.966h6.516c.885 0 1.207.483 1.207 1.529v8.246c0 .885.402 1.207.644 1.207.523 0 .965-.322 1.93-1.287 2.977-3.339 5.11-8.488 5.11-8.488.28-.603.764-1.166 1.81-1.166h4.143c1.247 0 1.528.643 1.247 1.528-.523 2.414-5.592 9.574-5.592 9.574-.442.724-.603 1.046 0 1.85.443.604 1.891 1.85 2.856 2.977 1.77 2.011 3.138 3.7 3.5 4.867.402 1.167-.201 1.77-1.368 1.77z" fill="#000"/></svg>