<svg width="56" height="38" viewBox="0 0 56 38" fill="none" xmlns="http://www.w3.org/2000/svg"><path clip-rule="evenodd" d="M27.122 1.06C7.163 1.918 1.064 7.748 1 19.196.938 30.645 7.163 37 26.923 37s27.637-4.59 28.062-16.41C55.409 8.768 47.08.2 27.122 1.06z" stroke="#fff" stroke-width="2"/><path d="M34.926 22.225a.964.964 0 00-.048-.091c-.243-.439-.707-.976-1.392-1.614l-.014-.014-.008-.008-.007-.007h-.007a8.429 8.429 0 01-.59-.599c-.152-.194-.185-.392-.103-.591.058-.151.277-.47.656-.956.2-.258.357-.465.474-.621.84-1.12 1.205-1.835 1.093-2.146l-.043-.073c-.03-.044-.105-.084-.226-.12a1.146 1.146 0 00-.467-.019l-2.099.015a.273.273 0 00-.146.003l-.095.022-.036.019-.029.022a.326.326 0 00-.08.076.499.499 0 00-.073.128 11.925 11.925 0 01-.78 1.643c-.18.301-.345.563-.496.784-.15.222-.277.385-.379.49a2.654 2.654 0 01-.277.251c-.082.064-.146.09-.19.08a5.403 5.403 0 01-.123-.029.484.484 0 01-.164-.178.802.802 0 01-.084-.285 3.16 3.16 0 01-.022-.646c.005-.151.008-.253.008-.307 0-.185.003-.386.01-.602l.019-.515c.005-.126.007-.26.007-.402 0-.14-.009-.251-.026-.332a1.14 1.14 0 00-.076-.233.393.393 0 00-.15-.175.84.84 0 00-.244-.1 4.84 4.84 0 00-.984-.094c-.904-.01-1.484.049-1.742.175a.981.981 0 00-.277.22c-.087.106-.1.165-.036.174.291.044.498.149.62.314l.043.088c.034.063.068.175.102.336.034.16.056.338.066.533.024.355.024.66 0 .912-.025.253-.048.45-.07.592a1.185 1.185 0 01-.185.503.126.126 0 01-.037.037.546.546 0 01-.197.036c-.068 0-.15-.034-.248-.102a1.751 1.751 0 01-.302-.281 3.755 3.755 0 01-.354-.5 8.734 8.734 0 01-.408-.76l-.116-.211a18.288 18.288 0 01-.3-.595 11.5 11.5 0 01-.335-.756.482.482 0 00-.174-.233l-.037-.022a.771.771 0 00-.284-.11l-1.997.015c-.204 0-.343.046-.416.139l-.03.043a.238.238 0 00-.021.117c0 .054.015.12.044.197.291.687.608 1.348.951 1.986.342.638.64 1.151.893 1.54.252.39.51.757.772 1.103.263.345.437.567.522.664.085.098.152.17.2.22l.182.174c.117.117.288.257.514.42.226.163.477.324.751.482.275.158.594.287.959.387.364.1.719.14 1.064.12h.838c.17-.014.299-.068.386-.16l.03-.037a.483.483 0 00.054-.135.74.74 0 00.026-.2c-.005-.21.01-.398.047-.566.036-.168.078-.295.124-.38a.934.934 0 01.28-.321.47.47 0 01.059-.026c.116-.038.254 0 .412.114.158.114.306.255.444.423.139.168.306.357.5.566.194.21.364.365.51.467l.146.088c.097.058.223.112.379.16a.815.815 0 00.408.037l1.866-.03c.185 0 .328-.03.43-.09.102-.061.163-.128.182-.201a.565.565 0 00.004-.249.922.922 0 00-.051-.193z" fill="#fff"/></svg>