<svg width="1197" height="9" viewBox="0 0 1197 9" fill="none" xmlns="http://www.w3.org/2000/svg"><path d="M1 7l6.25-5 6.25 5 6.25-5L26 7l6.25-5 6.25 5 6.25-5L51 7l6.25-5 6.25 5 6.25-5L76 7m517 0l6.25-5 6.25 5 6.25-5L618 7l6.25-5 6.25 5 6.25-5L643 7l6.25-5 6.25 5 6.25-5L668 7M297 7l6.25-5 6.25 5 6.25-5L322 7l6.25-5 6.25 5 6.25-5L347 7l6.25-5 6.25 5 6.25-5L372 7m517 0l6.25-5 6.25 5 6.25-5L914 7l6.25-5 6.25 5 6.25-5L939 7l6.25-5 6.25 5 6.25-5L964 7M149 7l6.25-5 6.25 5 6.25-5L174 7l6.25-5 6.25 5 6.25-5L199 7l6.25-5 6.25 5 6.25-5L224 7m517 0l6.25-5 6.25 5 6.25-5L766 7l6.25-5 6.25 5 6.25-5L791 7l6.25-5 6.25 5 6.25-5L816 7M445 7l6.25-5 6.25 5 6.25-5L470 7l6.25-5 6.25 5 6.25-5L495 7l6.25-5 6.25 5 6.25-5L520 7m517 0l6.25-5 6.25 5 6.25-5 6.25 5 6.25-5 6.25 5 6.25-5 6.25 5 6.25-5 6.25 5 6.25-5 6.25 5" stroke="#000" stroke-width="2"/><path d="M75 7l6.25-5 6.25 5 6.25-5L100 7l6.25-5 6.25 5 6.25-5L125 7l6.25-5 6.25 5 6.25-5L150 7m517 0l6.25-5 6.25 5 6.25-5L692 7l6.25-5 6.25 5 6.25-5L717 7l6.25-5 6.25 5 6.25-5L742 7M371 7l6.25-5 6.25 5 6.25-5L396 7l6.25-5 6.25 5 6.25-5L421 7l6.25-5 6.25 5 6.25-5L446 7m517 0l6.25-5 6.25 5 6.25-5L988 7l6.25-5 6.25 5 6.25-5 6.25 5 6.25-5 6.25 5 6.25-5 6.25 5M223 7l6.25-5 6.25 5 6.25-5L248 7l6.25-5 6.25 5 6.25-5L273 7l6.25-5 6.25 5 6.25-5L298 7m517 0l6.25-5 6.25 5 6.25-5L840 7l6.25-5 6.25 5 6.25-5L865 7l6.25-5 6.25 5 6.25-5L890 7M519 7l6.25-5 6.25 5 6.25-5L544 7l6.25-5 6.25 5 6.25-5L569 7l6.25-5 6.25 5 6.25-5L594 7m517 0l6.25-5 6.25 5 6.25-5 6.25 5 6.25-5 6.25 5" stroke="#000" stroke-width="2"/><path d="M1147 7l6.25-5 6.25 5 6.25-5 6.25 5 6.25-5 6.25 5" stroke="#000" stroke-width="2"/><path d="M1183 7l6.25-5 6.25 5" stroke="#000" stroke-width="2"/></svg>