<svg xmlns="http://www.w3.org/2000/svg" xmlns:xlink="http://www.w3.org/1999/xlink"><defs><clipPath id="clip0"><path fill="#fff" d="M0 0h89v93H0z"/></clipPath></defs><symbol id="arrow-down" viewBox="0 0 20 37"><path d="M9.9 1.9v33.9m8.2-8.1l-8.2 8.2-8.3-8.2" stroke="#002FA6" stroke-width="2" stroke-linecap="round" stroke-linejoin="round"/></symbol><symbol id="arrow-top" viewBox="0 0 20 37"><path d="M9.9 1.9v33.9m8.2-8.1l-8.2 8.2-8.3-8.2" stroke="#fff" stroke-width="2" stroke-linecap="round" stroke-linejoin="round"/></symbol><symbol id="arrow" viewBox="0 0 57 96"><path d="M28.576 22.42v51.01m12.397-12.188L28.576 73.58l-12.55-12.338" stroke="#fff" stroke-width="3" stroke-linecap="round" stroke-linejoin="round"/></symbol><symbol id="burger-radius" viewBox="0 0 25 11"><path d="M.659.013c-.382.035-.694.345-.66.724.035.38.347.69.729.655h23.578c.382 0 .694-.31.694-.69a.693.693 0 0 0-.694-.689H.66zm0 9.31c-.382.035-.694.345-.66.724.035.38.347.69.729.656h23.578c.382 0 .694-.31.694-.69 0-.38-.312-.69-.694-.69H.66z" fill="#fff"/></symbol><symbol id="cross-radius" viewBox="0 0 20 20"><path d="M.635.862h0C.548.777.548.672.634.587c.083-.085.186-.085.27 0L19.46 19.185c.063.063.08.138.048.207a1.508 1.508 0 0 0-.038.017c-.037.017-.082.04-.112.056a2.586 2.586 0 0 1-.074.035c-.096-.003-.13-.027-.142-.04 0 0 0 0 0 0L.635.862z" stroke="#fff"/><path d="M.587 19.185h0L19.096.587s0 0 0 0c.085-.085.187-.085.271 0 .085.085.085.19 0 .275L.93 19.342l-.076.06-.034.026a1.27 1.27 0 0 1-.1.072c-.088-.004-.12-.028-.132-.04-.085-.085-.085-.19 0-.275z" stroke="#fff"/></symbol><symbol id="cross" viewBox="0 0 55 55"><path stroke="#fff" stroke-opacity=".5" d="M0 26.762h54.524M27.762 0v54.524"/></symbol><symbol id="download" viewBox="0 0 10 11"><path d="M4.994 0a.365.365 0 0 0-.351.371v6.531L2.397 4.567a.348.348 0 0 0-.252-.109.364.364 0 0 0-.357.372c0 .102.04.195.105.262l2.854 2.969.005.004a.36.36 0 0 0 .011.01v.001l.015.014a.758.758 0 0 0 .01.007l.001.001.017.012.001.001a.168.168 0 0 0 .013.008l.002.001.015.009h.001a.1.1 0 0 0 .013.007l.002.001.015.007h.002l.016.007h.002a.228.228 0 0 0 .013.005h.002l.016.005h.003l.014.003h.002a.21.21 0 0 0 .016.003h.002l.016.002h.038c.01 0 .02 0 .031-.002H5.04h.004-.002a.315.315 0 0 0 .024-.004h-.002l.02-.004H5.08a.273.273 0 0 0 .016-.003h-.003a.928.928 0 0 0 .024-.007h-.002l.015-.005h-.002a.205.205 0 0 0 .02-.009l-.002.001a.508.508 0 0 0 .03-.015l-.002.001.002-.002-.001.001a.293.293 0 0 0 .021-.014l-.001.001.015-.01a.416.416 0 0 0 .023-.02v.001l.002-.002.017-.015 2.854-2.969a.377.377 0 0 0 .108-.266.364.364 0 0 0-.357-.371h-.01a.35.35 0 0 0-.245.112L5.357 6.903V.372A.364.364 0 0 0 5 .002h-.006V0zM.361 9.653H.356a.364.364 0 0 0-.357.372c0 .205.16.37.357.37h9.287a.364.364 0 0 0 .357-.37.364.364 0 0 0-.357-.372H.361z" fill="#fff"/></symbol><symbol id="equal" viewBox="0 0 45 22"><path stroke="#fff" stroke-opacity=".5" d="M0 .762h45m0 20H0"/></symbol><symbol id="fh" viewBox="0 0 27 15"><path d="M4.613 6.408V.874h2.714c1.763 0 2.442 1.747 3.392 3.932-.136-1.456-.136-2.913-.272-4.223 0-.437-.135-.583-.542-.583H.136c.678.291 1.356 1.165 1.356 2.767v9.32c0 1.02-.407 2.04-1.492 2.622h5.97c-1.086-.583-1.493-1.457-1.493-2.622V7.282c.407-.146.679-.146.95-.146 1.357 0 2.171 1.02 2.578 2.476V4.223c-.678 1.602-1.492 2.185-2.578 2.185-.136.145-.543 0-.814 0zm20.759 5.534V3.204c0-1.456.543-2.476 1.357-2.913h-5.834c.678.437 1.492 1.457 1.492 2.913v3.35h-4.884v-3.35c0-1.602.27-2.476 1.356-3.058h-5.834c1.221.728 1.357 1.456 1.357 3.058v8.446c0 1.165-.271 2.476-1.493 3.204h5.97c-1.22-.728-1.492-1.893-1.492-3.204V7.282h5.02v4.66c0 1.31 0 2.184-1.357 3.058H27c-1.357-.874-1.628-1.456-1.628-3.058z" fill="#fff"/></symbol><symbol id="fh_logo" viewBox="0 0 89 93"><g clip-path="url(#clip0)"><path d="M39.917.69c2.07 0 3.91 1.937 4.37 3.71h.427L44.188.23h-14.62v.295c1.216 0 1.741 1.051 1.741 3.251v4.63L25.89.23h-4.6v.295c1.051.132 2.201.789 2.201 3.974v4.794c0 2.463-.821 3.153-1.675 3.153-1.249 0-1.676-1.05-2.694-4.072L16.36.13h-.723l-3.58 9.754c-.264.722-.494 1.247-.724 1.642-.558.853-.985.952-1.51 1.05v.362h4.04v-.362c-.591 0-1.445-.427-1.445-1.346 0-.394.098-.92.722-2.594h3.22c.591 1.74.723 2.298.723 2.758 0 .788-.854 1.182-1.446 1.182v.362H25.92v-.362c-1.05 0-1.807-.558-1.807-3.218V2.824h.033l6.932 10.213h.855V5.583c0-3.941 2.825-4.893 4.796-4.893h.263v8.505c0 2.167-.361 3.087-1.183 3.284-.23.098-.427.098-.591.098v.362h6.21v-.362c-.132 0-.395 0-.56-.098-.92-.23-1.182-1.215-1.182-3.284V.69h.23zM13.37 8.11l1.479-4.105 1.347 4.105H13.37zM6.472.788c2.333 0 3.253 2.299 3.713 3.81h.394L10.185.262H0v.36c1.084 0 1.741.69 1.741 2.956v5.386c0 2.43-.295 3.645-1.741 3.645v.361h6.11v-.36c-1.215 0-1.773-.92-1.773-3.646V6.371h.525c1.939 0 2.596 1.379 2.727 2.528h.394V3.251H7.59C7.458 4.335 6.932 5.78 4.862 5.78h-.525V3.645c0-2.167.92-2.857 2.135-2.857zM81.214 26.83v-.295c-5.191-1.346-4.041-8.308 2.76-8.768 5.519-.361 5.847 5.156.525 7.093v.361l4.074-.164S89 23.841 89 21.444c0-3.35-2.07-6.207-6.242-6.207-3.975 0-7.326 2.824-7.326 6.24 0 2.791 1.61 5.221 5.782 5.352zm1.084 31.854c4.107 0 6.768-2.627 6.67-6.37 0-3.514-2.465-5.977-6.342-5.977-4.172 0-6.767 2.627-6.767 6.272 0 3.58 2.53 6.075 6.439 6.075zm-5.782-5.287c0-2.134 3.416-4.466 7.819-4.466 2.595 0 3.975 1.084 3.975 2.594 0 2.168-3.252 4.565-7.753 4.565-2.596-.033-4.041-1.15-4.041-2.693zM79.8 81.375c2.53 0 3.384-1.773 4.304-3.776.657-1.347 1.347-2.628 2.858-2.628.854 0 1.511.526 1.511 1.61 0 1.576-1.642 3.12-3.614 3.48v.362l3.844-.23S89 77.927 89 76.778c0-2.43-1.478-4.04-3.483-4.04-2.53 0-3.515 1.905-4.303 3.678-.953 2.168-2.07 2.693-3.121 2.693-.92 0-1.676-.657-1.676-1.872 0-2.298 1.939-3.382 4.172-4.039v-.394l-4.336.099s-.394 2.692-.394 4.039c.065 2.299 1.412 4.433 3.942 4.433zm5.092 2.988h-4.796c-2.53 0-3.548-.394-3.548-1.674h-.362V93h4.37v-.394c-1.512-.361-3.811-1.248-3.811-3.481 0-1.938 1.642-2.135 2.858-2.135h2.694v.657c0 2.07-1.347 2.562-2.53 2.824v.296h5.552v-.296c-1.05-.295-2.266-.722-2.266-2.824v-.657h2.43c1.052 0 2.728-.098 2.728 2.135 0 2.135-1.873 3.12-3.68 3.48V93h4.238V82.689h-.361c.032 1.313-1.085 1.674-3.516 1.674zm-4.862-20.59h4.862c2.694 0 3.417.296 3.614 1.74h.296v-6.009h-.296c-.263 1.38-.953 1.61-3.614 1.61h-4.04c-2.563 0-4.929.689-4.929 4.728 0 3.284 2.201 4.204 4.468 4.204h4.896c2.89 0 2.956.656 3.22 1.806h.295v-4.565h-.296c-.131 1.084-.296 1.806-3.22 1.806H80.82c-2.43 0-4.303-.558-4.303-2.561 0-1.84 1.577-2.759 3.515-2.759zm4.928-27.125c1.676 0 3.252-.098 3.515 1.577h.296v-5.879h-.296c-.131 1.248-.722 1.642-2.99 1.642h-6.011c-2.267 0-2.859-.394-2.99-1.642h-.296v5.879h.296c.263-1.642 1.807-1.577 3.548-1.577h2.135v4.565H80.03c-1.741 0-3.285.033-3.548-1.61h-.296v5.945h.296c.131-1.314.723-1.642 2.99-1.642h6.012c2.267 0 2.858.36 2.99 1.642h.295v-5.944h-.296c-.263 1.642-1.807 1.609-3.515 1.609H83.02v-4.565h1.938zm-25.1-31.656c-1.446-.723-2.694-1.314-2.694-2.825 0-1.116.723-1.674 1.741-1.674 1.774 0 2.957 1.74 3.417 3.678h.361l-.23-3.908S60.187 0 59.038 0c-2.53 0-4.074 1.478-4.074 3.514 0 2.397 1.905 3.382 3.68 4.302 1.938.985 2.562 2.069 2.562 2.988 0 1.018-.591 1.872-2.464 1.872-1.905 0-3.91-.657-5.027-3.415L50.035.164h-.722l-3.285 9.753c-.263.723-.526 1.248-.723 1.642-.559.821-.986.953-1.511 1.051v.361h4.04v-.36c-.59 0-1.445-.395-1.445-1.249 0-.36.296-1.248.789-2.693h3.646c.69 1.741.92 2.3.92 2.759 0 .788-.854 1.182-1.478 1.182v.361c6.472 0 7.688.165 8.837.165 2.596 0 4.501-1.215 4.501-3.646-.033-2.331-1.774-3.612-3.745-4.498zm-12.55 3.12c.394-1.216.92-2.694 1.511-4.467a131.217 131.217 0 0 1 1.742 4.466h-3.253zM76.121 15.5l4.173-3.645c1.084-.92 1.905-.953 2.53-.953.624 0 .92.23 1.215.592l.263-.263c-.69-.985-1.347-1.905-2.07-2.759-.723-.82-1.577-1.674-2.398-2.462l-.263.23c.361.295.559.722.427 1.313-.131.591-.493 1.314-1.511 2.2l-4.238 3.678c-1.019.953-2.037 1.38-2.858 1.38-1.118 0-1.84-.822-1.052-3.843l2.53-8.308c1.478.591 2.825 3.382 2.694 5.254l.296.132 1.117-4.072C75.924 3.317 71.818 1.248 65.87.59c-.131.361-.854 2.627-1.215 3.777l.295.098c1.479-2.069 3.647-2.955 5.257-2.594l-2.431 8.242c-.986 3.416-2.629 2.989-2.76 3.022v.394c1.938 0 3.712.427 5.322 1.477 1.479.953 2.826 2.562 3.68 4.434l.295-.23c-.13-.23-.164-.493-.164-.723.033-.722.066-1.346 1.971-2.988z" fill="#fff"/></g></symbol><symbol id="flats_hovers_fl_1" viewBox="0 0 1465.4 1306.1"><style>.st0{opacity:.1;fill:#0068e2}.st1{opacity:.4}</style><g id="_x30_2.08" class="flat-hover flat-hover-4"><path class="st0" d="M1014 981.8h13.4v-13.6H1014z"/><path class="st0" d="M1207.4 810.2h-9.2V802h-35v8.2h-9.2V802h-36.2v8.2h-5.6v28.6h-3.7V802h-35.9v8.2h-9.2V802h-36.2v8.2h-9.2V802h-36.4v8.2h-9.3V802h-35.5v110.3h35.5v.1h2.7v26.2h-3.7v-21.8h-34.5v64.6h34.5v-20.1h3.7v43.2h35.3v-40h17.1v-47.7h-17.7v-4.4h98.8v-28.3h3.7v28.3h26.1v4.4h-26.1v16.4h-3.7v-16.4H1031v65h77.5v-28.6h3.7v28.6h132.2v-65h-74.7v-4.4h74.7V802h-37z"/><path class="st0" d="M938.7 987.6h30v19.4h-30z"/></g><g id="_x30_2.07" class="flat-hover flat-hover-3"><g class="st1"><path class="st0" d="M864.4 987.6h15.7v19.4h-15.7z"/><path class="st0" d="M834.5 1004.5v-19.4h-16.7v-23.8h3.7v20.1h35.7v-64.6h-35.7v21.8h-3.7v-26.2h20.1V907h3.7v5.4h53.6v4.4h-34.3v64.6h66.7v-64.6h-10.1v-4.5h10.1V802h-36.5v8.2h-9.2V802h-34.8v8.2h-5.5v73.4h-3.7V802h-36.6v8.2h-9.2V802h-35.7v8.2h-9.2V802h-36.8v8.2h-9.3V802h-35.4v8.2h-1.5v120.1h79.6v-18h3.7v25.5h-3.7V934h-79.6v10.2h11.7v15.7h-11.7v44.6h79.6v-42.1h3.7v42.1z"/><path class="st0" d="M664.2 947.9h8v8.4h-8zm176.6 39.7h20v19.4h-20zm43 0h34.1v19.4h-34.1zm37.8 0h10.9v19.4h-10.9z"/></g></g><g id="_x30_2.06" class="flat-hover flat-hover-2"><path class="st0" d="M318.1 456.4h19.6v29.5h-19.6zm0 47.8h19.6v7.7h-19.6zm0-14.7h19.6v11h-19.6z"/><path class="st0" d="M418.9 466.3h-3.7v-30.1h-71.3v23.3h30.7v21.2h-30.7v33h71.3v-27.4h3.7v51.9h-3.7v-20.8h-71.3v65.1h71.3v-21.9h3.7v4.6h42.3v3.7h-42.3v17.3h-34.3v106.3h17.6v3.7h-38.8v-3.7h17.5v-68.6h-33.8v-3.7h33.8v-34h-40.7v-32.4h-19.6v66.4h8.1v3.7h-8.1l-.3 115.1h225v-2.3h9.9v-35.1h-9.9v-9.2h9.9v-34.9h-9.9v-9.2h9.9v-35.2h-9.9v-9.2h9.9v-35h-37.8v-3.7h27.9v-5.6h9.9v-34.8h-9.9v-9.3h9.9v-35h-9.9v-9.3h9.9v-35H418.9z"/><path class="st0" d="M343.9 463.2h27v8.3h-27zm-25.8 52.4h19.6v20.2h-19.6zm2.5 26.4h19.6v8.2h-19.6zm-.7-129.8h17.7v38h-17.7z"/></g><g id="_x30_2.05" class="flat-hover flat-hover-1"><g class="st1"><path class="st0" d="M309.1 352.3h31.2v7.9h-31.2zm-75.3.2h13.6v7.7h-13.6zm74-162.7H321v15.5h-13.2z"/><path class="st0" d="M309.5 115.9v.1h-1.7v70.1h16.9v67.8h-22.4v-3.7H321V209h-43.3v41.2h4.9v3.7h-11.2v-3.7h2.6V209h-40.2v41.2h18.5v3.7h-18.5v94.9h17.3v11.4h54.2v-72.4h72.8v30.9h-3.7v-27.2h-65.3v57.3h34.8v22h30.5v-32h3.7v32h5.9v3.3h-16.3v-.1h-23.8v52.9h66v-52.8h-5.2v-3.3h5.2V368h3.7v58.9h141.6v-34.7h-9.9V383h9.9v-35.2h-9.9v-5.6H413.8v4.7h-4.3V333h4.3v5.5h141.4v-34.9h-9.9v-9.2h9.9v-34.7h-9.9v-5.5H413.8v54.9h-4.3v-58.7h145.7v-39.5h-9.9v-9.2h9.9v-38.1h-9.9v-9.2h9.9V116H331.7v-.1z"/></g></g></symbol><symbol id="logo" viewBox="0 0 466 476"><path d="M106.309 62.766h16.562c-4.61-2.564-6.488-6.495-6.488-11.28V13.714l42.515 49.907V14.74c0-5.64 1.708-10.084 6.147-12.306h-16.391c5.122 2.905 6.488 7.178 6.488 12.477v23.585c-4.61-5.469-18.441-21.876-29.539-34.866-.512-.512-1.366-1.025-2.049-1.025-5.293-.171-10.928-.171-17.587-.171 5.293 2.905 6.489 7.178 6.489 12.306v37.088c.17 4.785-2.22 8.887-6.147 10.938zM20.083 27.9V5.68h12.464c7.684 0 10.757 7.179 14.855 16.237-.342-6.153-.683-11.793-.854-17.433-.17-1.71-.683-2.051-2.39-2.051H.447C3.179 3.8 6.594 7.048 6.594 13.713V52.17c0 4.444-2.05 8.546-6.489 10.939H26.4c-4.61-2.564-6.488-6.153-6.488-10.939V32.002c1.537-.513 2.732-.513 3.927-.513 6.147 0 9.391 4.102 11.44 10.084V19.696c-2.903 6.495-6.83 8.887-11.27 8.887-.853 0-2.39-.17-3.926-.683zM359.524 5.852v45.976c0 4.443-1.708 8.032-5.464 10.425a2.368 2.368 0 0 1-.683.513h25.953c-4.952-2.735-6.318-6.837-6.318-11.622V5.852c1.366-.513 3.074-.513 4.44-.513 7.854 0 11.952 7.52 16.05 18.117l-1.195-21.022h-52.078l-1.024 20.851c5.464-12.647 9.22-17.946 16.05-17.946 2.049 0 3.927.342 4.269.513zM75.916 62.766h27.49c-4.61-3.076-6.83-7.691-8.708-12.306C86.502 31.66 75.575 5.51 73.184.896c-2.39 5.469-9.561 23.586-15.196 37.942-3.244 8.375-6.83 17.946-13.83 24.099h16.391c-2.732-1.197-5.805-3.418-4.951-8.204.683-3.076 2.22-6.495 3.244-9.4l-.512.854h20.66c0-.341-1.366-2.05-1.708-2.05 0 0 .17.17.17.341 1.708 3.76 3.416 7.862 3.416 10.939 0 3.076-1.537 5.298-4.952 7.349zm-16.22-20.168c2.731-7.178 5.293-14.185 8.195-21.535 3.074 7.52 5.805 14.357 8.708 21.535H59.695zm349.856 25.124c8.196-10.596 16.733-21.193 25.099-31.79 2.391-2.734 5.293-4.272 8.538-4.272.853 0 1.707.17 2.39.342-6.83-5.47-13.489-10.768-19.977-16.066.512 1.196.854 2.564.854 3.931 0 2.735-1.025 5.64-3.245 8.716-7.854 9.913-15.879 19.997-23.733 29.91-2.732 3.247-5.635 4.615-9.391 4.615-.683 0-1.537 0-2.39-.171 7 5.469 13.659 10.938 20.489 16.407-.683-1.709-1.025-3.418-1.025-5.127 0-2.222.683-4.444 2.391-6.495zm5.464 157.069h36.027c6.147 0 10.074 2.563 12.123 5.981v-25.636c-1.708 3.076-5.976 6.323-12.123 6.323h-13.66v-21.705l13.489.17c6.488 0 9.903 1.368 12.294 5.982V170.27c-3.244 5.298-5.805 6.152-12.635 6.152h-34.662c-4.951 0-10.073-1.367-12.976-6.323v26.149c3.073-5.298 7.513-6.324 13.147-6.324h18.099v21.535h-18.782c-5.293 0-8.708-.171-12.293-6.152v26.149c3.073-5.811 5.634-6.665 11.952-6.665zm-1.025-110.068c0-11.28 10.757-20.68 28.515-20.68 10.415 0 19.123 5.127 19.294 14.186.171 9.058-7.342 16.065-15.709 20.167v.171h17.416c1.366-5.982 1.878-12.135 1.537-18.629-.854-16.75-13.147-29.226-32.442-29.226-16.22 0-30.392 12.647-30.392 28.884 0 14.698 11.269 22.731 21.514 23.928-3.927-2.906-9.733-8.204-9.733-18.801zm19.465 125.279c-16.904 0-31.758 11.964-31.758 29.909 0 17.946 14.342 29.226 30.734 29.739h.512c17.074 0 31.417-12.306 31.417-30.081 0-17.774-13.83-29.567-30.905-29.567zm-28.685 32.302c0-12.476 16.733-17.262 31.929-17.262 12.294 0 24.758 3.247 24.758 11.964 0 11.28-16.391 17.604-32.783 17.604-12.123 0-23.904-4.102-23.904-12.306zm45.93 82.551H422.87c-11.781 0-16.904-6.324-16.904-13.161 0-7.349 4.952-13.331 15.197-13.331h29.88c5.634 0 9.903 2.564 11.952 6.153v-25.637c-2.903 4.615-7 5.982-11.952 5.982h-28.685c-14.172 0-20.831 9.742-20.831 22.902 0 13.161 8.879 21.194 20.66 21.194h28.514c5.977 0 9.733 2.05 12.294 7.178v-18.801c-3.244 5.811-7.171 7.521-12.294 7.521zM425.26 397.07c-2.561 5.64-5.634 12.306-11.44 12.306-5.463 0-8.537-4.273-8.537-10.255 0-12.648 13.831-20.51 20.831-23.757h-23.733c1.195 2.393 1.707 4.615 1.707 7.007 0 4.957-1.878 9.913-1.878 15.724 0 12.648 7.342 20.339 17.416 20.339 13.489 0 16.562-11.964 21.514-22.902 2.39-5.299 4.61-12.306 11.269-12.477h.171c4.951 0 8.537 4.444 8.537 10.084 0 12.135-11.782 19.655-17.928 22.218 7-.341 13.488-.683 19.806-1.025.683-6.836 1.537-11.622 1.537-18.8 0-14.699-8.537-21.706-18.611-21.706-12.465.171-16.051 13.16-20.661 23.244zm-19.123 50.248h27.49c.512.855.512 2.393.512 3.418 0 5.982-4.098 9.059-10.074 11.281h21.856c-6.489-2.222-9.05-6.837-9.05-11.11 0-1.196.171-2.734.683-3.76h22.197v11.109c-.171 10.597-8.708 12.648-15.709 15.382 5.806-.17 11.611-.512 17.416-.854 1.366-.171 1.708-.513 1.708-1.88v-43.583c-2.732 4.786-7.342 6.153-12.635 6.153h-36.198c-5.464 0-9.391-2.564-11.44-6.324v46.83l19.294 1.368c-14.513-6.837-16.05-16.066-16.05-28.03zm-97.154-406.6c5.635 2.564 12.294 5.64 12.294 11.451 0 5.47-4.269 8.546-10.245 8.546-12.635 0-20.489-13.844-23.734-20.851V63.62c2.391-1.197 4.611-1.71 7.001-1.71 4.952 0 9.903 1.88 15.709 1.88 12.635 0 20.318-7.349 20.318-17.433 0-13.502-11.952-16.578-22.88-21.535-5.293-2.392-12.293-4.614-12.464-11.28v-.17c0-4.957 4.439-8.546 10.074-8.546 12.123 0 19.636 11.793 22.197 17.946-.342-7.008-.683-13.503-1.025-19.826-6.829-.684-11.61-1.539-18.782-1.539-14.684 0-21.684 8.546-21.684 18.63.171 12.306 13.318 15.895 23.221 20.68zm-55.492 22.048h27.49c-4.61-3.076-6.83-7.691-8.708-12.306-8.196-18.8-19.123-44.95-21.514-49.564-2.39 5.469-9.562 23.586-15.196 37.942-3.244 8.375-6.83 17.946-13.831 24.099h16.392c-2.732-1.197-5.805-3.418-4.952-8.204.683-3.076 2.22-6.495 3.244-9.4l-.512.854h20.66c0-.341-1.366-2.05-1.707-2.05 0 0 .171.17.171.341 1.707 3.76 3.415 7.862 3.415 10.939.17 3.076-1.366 5.298-4.952 7.349zM237.27 42.598c2.732-7.178 5.293-14.185 8.196-21.535 3.073 7.52 5.805 14.357 8.708 21.535H237.27zM192.535 5.852v45.975c0 4.444-1.707 8.033-5.464 10.426-.171.171-.341.342-.683.513h25.953c-4.951-2.735-6.317-6.837-6.317-11.622V5.852c1.366-.513 3.073-.513 4.439-.513 7.855 0 11.952 7.52 16.05 18.117l-1.195-21.022h-52.077l-1.025 20.851c5.464-12.647 9.221-17.946 16.05-17.946 1.879 0 3.928.342 4.269.513z" fill="#fff"/></symbol><symbol id="mobile" viewBox="0 0 34 32"><path d="M19.623 1.12h-5.246c-.185 0-.371.233-.371.558 0 .325.14.557.371.557h5.246c.186 0 .372-.232.372-.557 0-.325-.186-.557-.372-.557zm9.378 8.775v12.21c0 .186.14.371.371.371a.366.366 0 0 0 .372-.371V9.895a.366.366 0 0 0-.372-.371.4.4 0 0 0-.371.371zm3.529 2.089v7.985c0 .186.139.372.37.372.186 0 .372-.14.372-.372v-7.985a.366.366 0 0 0-.371-.371c-.186.046-.372.186-.372.371zM4.303 9.895v12.21c0 .186.139.371.371.371a.366.366 0 0 0 .372-.371V9.895a.366.366 0 0 0-.372-.371.366.366 0 0 0-.371.371zM.774 11.984v7.985c0 .186.14.372.372.372.186 0 .371-.14.371-.372v-7.985a.366.366 0 0 0-.371-.371c-.232.046-.372.186-.372.371z" fill="#fff"/><path d="M22.13.47H11.916a3.893 3.893 0 0 0-3.9 3.9v23.306c0 2.136 1.718 3.9 3.9 3.9H22.13c2.135 0 3.9-1.718 3.9-3.9V4.37c-.047-2.182-1.765-3.9-3.9-3.9zm3.157 4.504v22.702a3.16 3.16 0 0 1-3.157 3.157H11.916a3.16 3.16 0 0 1-3.157-3.157V4.417a3.16 3.16 0 0 1 3.157-3.157H22.13a3.16 3.16 0 0 1 3.157 3.157v.557z" fill="#fff"/></symbol></svg>