<svg width="25" height="25" viewBox="0 0 25 25" fill="none" xmlns="http://www.w3.org/2000/svg">
<path d="M21.6317 0.967869C22.1199 0.479714 22.9114 0.479713 23.3995 0.967868C23.8877 1.45602 23.8877 2.24748 23.3995 2.73563L10.6056 15.5296C10.1174 16.0177 9.32597 16.0177 8.83781 15.5296C8.34965 15.0414 8.34965 14.25 8.83781 13.7618L21.6317 0.967869Z" fill="#F1F1F1"/>
<rect x="11.0508" width="13.2622" height="2.5" rx="1.25" fill="#F1F1F1"/>
<rect x="21.8164" y="13.2622" width="13.2622" height="2.5" rx="1.25" transform="rotate(-90 21.8164 13.2622)" fill="#F1F1F1"/>
<path d="M2.68467 23.4456C2.19651 23.9337 1.40505 23.9337 0.916898 23.4456C0.428742 22.9574 0.428742 22.166 0.916898 21.6778L13.7108 8.88389C14.199 8.39573 14.9904 8.39573 15.4786 8.88389C15.9668 9.37204 15.9668 10.1635 15.4786 10.6517L2.68467 23.4456Z" fill="#F1F1F1"/>
<rect x="13.2656" y="24.4135" width="13.2622" height="2.5" rx="1.25" transform="rotate(-180 13.2656 24.4135)" fill="#F1F1F1"/>
<rect x="2.5" y="11.1513" width="13.2622" height="2.5" rx="1.25" transform="rotate(90 2.5 11.1513)" fill="#F1F1F1"/>
</svg>
