<svg width="104" height="105" viewBox="0 0 104 105" fill="none" xmlns="http://www.w3.org/2000/svg">
<path d="M52.0703 104.141C23.3586 104.141 0 80.7821 0 52.0703C0 23.3586 23.3586 0 52.0703 0V7.50066C27.495 7.50066 7.50066 27.4932 7.50066 52.0703C7.50066 76.6457 27.495 96.64 52.0703 96.64V104.141Z" />
<path d="M63.9852 1.46694L62.958 6.64088L62.6788 6.58745L62.6719 6.5616L60.8139 0.837866L58.9267 0.463867L57.4531 7.88525L58.7975 8.15239L59.8247 2.97845L60.1039 3.0336L60.1125 3.05773L61.9687 8.78147L63.8559 9.15719L65.3295 1.73408L63.9852 1.46694Z" />
<path d="M68.6737 10.9168L71.4037 3.86079L69.9956 3.31616L67.2656 10.3739L68.6737 10.9168Z" />
<path d="M80.341 8.4882L77.6231 13.0089L77.3801 12.8624V12.8366L77.5714 6.82158L75.922 5.83057L72.0234 12.3161L73.1954 13.021L75.9151 8.50026L76.1581 8.64676V8.67261L75.9668 14.6876L77.6145 15.6786L81.5147 9.19483L80.341 8.4882Z" />
<path d="M88.7012 17.1179L89.6147 16.1424L85.5472 12.3335L80.375 17.8556L84.5286 21.7455L85.4421 20.77L82.3915 17.9125L83.6824 16.5319L85.9902 18.6949L86.8829 17.7418L84.5752 15.5806L85.7334 14.3414L85.7661 14.3707L88.7012 17.1179Z" />
<path d="M96.122 26.7781C96.265 26.4989 96.3495 26.199 96.3684 25.8819C96.3891 25.563 96.3495 25.2287 96.2495 24.8857C96.1478 24.5393 95.9841 24.1911 95.7635 23.8464C95.5153 23.4621 95.243 23.1501 94.9534 22.9209C94.6622 22.6899 94.3623 22.5245 94.0624 22.4331C93.7608 22.3401 93.4609 22.316 93.1662 22.359C92.8714 22.4056 92.5922 22.5124 92.3337 22.6779C91.8598 22.9829 91.5633 23.3707 91.4547 23.8292C91.3444 24.2894 91.4116 24.8202 91.6564 25.4062L92.2286 26.7695C92.3561 27.0763 92.413 27.352 92.3958 27.5899C92.3785 27.8363 92.2355 28.0449 91.9718 28.2155C91.7029 28.3896 91.4151 28.4102 91.1221 28.2793C90.8343 28.1517 90.5723 27.9035 90.3396 27.5433C90.2276 27.3692 90.1328 27.1883 90.0587 27.0073C89.9846 26.8246 89.9415 26.6402 89.9312 26.461C89.9191 26.28 89.9449 26.1042 90.007 25.937C90.0673 25.7767 90.1742 25.6233 90.3241 25.482L89.4899 24.1842C88.9315 24.6461 88.6144 25.2269 88.5472 25.9112C88.4782 26.6161 88.7058 27.3796 89.2245 28.1845C89.5037 28.6171 89.8036 28.9618 90.119 29.2117C90.4327 29.4598 90.7533 29.6322 91.0687 29.7235C91.3858 29.8149 91.6995 29.8356 92.0028 29.7856C92.3061 29.7339 92.594 29.6219 92.8577 29.453C93.1403 29.2703 93.3626 29.0669 93.5195 28.8463C93.6746 28.6257 93.778 28.3896 93.8263 28.1448C93.8745 27.8966 93.878 27.6364 93.8349 27.371C93.7918 27.1038 93.7125 26.8263 93.5988 26.5454L93.0438 25.2063C92.9404 24.9529 92.8852 24.7133 92.8766 24.4927C92.8697 24.2618 92.9783 24.0705 93.2024 23.9257C93.3333 23.8412 93.4712 23.7964 93.6091 23.793H93.6263C93.7573 23.793 93.8849 23.824 94.0038 23.8826C94.1261 23.9429 94.2451 24.0308 94.3605 24.1394C94.4726 24.2497 94.5777 24.379 94.6725 24.5255C94.8914 24.865 95.0086 25.177 95.0189 25.4493C95.0275 25.7164 94.9259 25.9663 94.7156 26.1955L95.5515 27.4933C95.7945 27.2848 95.9841 27.0435 96.122 26.7781Z" />
<path d="M98.7708 32.71L98.7863 32.7514L100.241 36.4983L101.487 36.014L99.4722 30.8193L92.418 33.558L94.4775 38.8629L95.7236 38.3803L94.2104 34.4818L95.9718 33.7975L95.9873 33.8389L97.1179 36.7464L98.3347 36.2725L97.1886 33.3253L98.7708 32.71Z" />
<path d="M103.81 47.1356L103.596 45.7826L98.386 46.6065L98.3411 46.3255L98.3618 46.31L103.091 42.589L102.789 40.6897L95.3164 41.872L95.5301 43.225L100.74 42.4011L100.785 42.6803L96.0368 46.4169L96.3367 48.3179L103.81 47.1356Z" />
<path d="M103.289 56.9648C103.492 56.72 103.656 56.4253 103.777 56.0892C103.897 55.7497 103.97 55.3705 103.994 54.9638C104.018 54.5071 103.98 54.0934 103.88 53.7367C103.782 53.3816 103.635 53.0731 103.446 52.8198C103.258 52.5681 103.029 52.3717 102.765 52.2338C102.5 52.0976 102.21 52.0201 101.903 52.0028C101.34 51.9753 100.874 52.1114 100.516 52.4182C100.156 52.7267 99.8988 53.1955 99.7541 53.8125L99.4145 55.2533C99.3387 55.5756 99.2232 55.8324 99.0681 56.0151C98.9113 56.203 98.6717 56.2943 98.3598 56.2719C98.0375 56.2547 97.7927 56.103 97.6324 55.8238C97.4756 55.5532 97.4084 55.1982 97.4325 54.769C97.4446 54.5622 97.4721 54.3606 97.5204 54.1693C97.5669 53.978 97.6411 53.8039 97.7376 53.6539C97.8324 53.5005 97.9582 53.373 98.1081 53.2748C98.2512 53.18 98.427 53.1179 98.6321 53.0921L98.7182 51.5513C97.9944 51.5961 97.3963 51.8805 96.9396 52.3958C96.4725 52.9249 96.2071 53.6781 96.1537 54.6346C96.1244 55.1465 96.1657 55.6032 96.2743 55.9893C96.3829 56.3753 96.5415 56.7028 96.7431 56.9613C96.9448 57.2216 97.1878 57.4215 97.4618 57.5594C97.7376 57.6973 98.0357 57.7765 98.3494 57.7938C98.6855 57.8145 98.9837 57.7783 99.2405 57.6921C99.4973 57.6042 99.7196 57.4732 99.9023 57.3043C100.085 57.1337 100.24 56.9234 100.364 56.6821C100.485 56.4408 100.585 56.1685 100.657 55.8755L100.993 54.4657C101.059 54.2003 101.155 53.9728 101.278 53.7918C101.398 53.6126 101.579 53.5212 101.819 53.5212C101.836 53.5212 101.855 53.5212 101.874 53.523C102.029 53.5316 102.167 53.5764 102.281 53.6539C102.393 53.7315 102.482 53.8349 102.546 53.959C102.61 54.0796 102.656 54.2192 102.686 54.3761C102.712 54.5329 102.722 54.7001 102.712 54.8707C102.689 55.2757 102.601 55.5963 102.448 55.8238C102.3 56.0444 102.07 56.1875 101.765 56.2478L101.679 57.7903C101.996 57.7628 102.294 57.68 102.562 57.5456C102.843 57.4043 103.087 57.2078 103.289 56.9648Z" />
<path d="M95.5866 60.8633L94.1406 66.3664L95.4332 66.7059L96.4966 62.6626L98.3236 63.1435L97.5204 66.2027L98.782 66.5336L99.5869 63.4761L101.228 63.907L100.194 67.8366L101.488 68.1761L102.905 62.7867L95.5866 60.8633Z" />
<path d="M95.8639 79.0532C96.1724 78.924 96.4619 78.7327 96.7273 78.4879C96.9928 78.2415 97.2306 77.9295 97.4357 77.5607C97.7132 77.0609 97.8786 76.5628 97.9321 76.0767C97.9838 75.5924 97.9338 75.1271 97.7804 74.6928C97.6287 74.2602 97.3788 73.85 97.0393 73.476C96.6998 73.102 96.2706 72.7711 95.7639 72.4884C95.2589 72.2075 94.7505 72.0196 94.2524 71.93C93.756 71.8387 93.2769 71.8438 92.8253 71.9438C92.3772 72.0438 91.9567 72.2454 91.5741 72.5436C91.1932 72.8417 90.8554 73.2485 90.5762 73.7535C90.3607 74.1395 90.2194 74.5256 90.1522 74.8996C90.085 75.2719 90.085 75.6338 90.1505 75.9802C90.2142 76.3249 90.3452 76.6507 90.5365 76.9488C90.7175 77.2315 90.9519 77.4883 91.2328 77.7123L91.9963 76.3353C91.7257 76.0888 91.5637 75.7975 91.5138 75.4684C91.4621 75.1305 91.5396 74.7721 91.7464 74.4015C91.9136 74.0982 92.1239 73.8621 92.3669 73.7C92.6116 73.5398 92.8805 73.4398 93.1666 73.4019C93.4527 73.3657 93.756 73.3864 94.068 73.4656C94.3799 73.5432 94.6971 73.6725 95.0107 73.8465C95.3244 74.0206 95.6002 74.2223 95.8328 74.4446C96.0638 74.6687 96.2413 74.9151 96.362 75.1771C96.4826 75.4391 96.5412 75.72 96.5326 76.0113C96.5257 76.3042 96.4361 76.6059 96.2672 76.9109C95.8863 77.5951 95.3658 77.8761 94.7229 77.7468L93.9542 79.1342C94.2679 79.2342 94.5868 79.2738 94.9004 79.2669C95.2313 79.2549 95.5554 79.1825 95.8639 79.0532Z" />
<path d="M84.7016 84.2239L87.3455 81.1527L87.3799 81.182L92.042 85.1977L93.0278 84.0533L87.2937 79.1155L83.6641 83.3312L84.7016 84.2239Z" />
<path d="M86.1645 91.2282L81.2646 85.4631L80.1133 86.4404L85.0132 92.2072L86.1645 91.2282Z" />
<path d="M74.2847 93.1753L79.481 96.2069L81.1373 95.2297L77.2922 88.7131L76.1133 89.4077L78.7934 93.9526L78.5486 94.0973L78.5262 94.0836L73.3299 91.0519L71.6719 92.0291L75.517 98.5457L76.6976 97.8511L74.0158 93.3063L74.2606 93.1615L74.2847 93.1753Z" />
<path d="M70.9931 100.475L68.3217 93.3945L66.9102 93.9271L69.5816 101.007L70.9931 100.475Z" />
<path d="M59.5957 103.046C59.8921 103.2 60.2247 103.298 60.5832 103.343C60.9434 103.388 61.3347 103.369 61.75 103.288C62.3102 103.179 62.7996 102.984 63.2047 102.712C63.608 102.44 63.932 102.102 64.1646 101.705C64.399 101.309 64.5507 100.854 64.6179 100.354C64.6851 99.8526 64.6627 99.3097 64.5524 98.7427C64.4404 98.1739 64.2577 97.6638 64.0078 97.226C63.7562 96.7865 63.4442 96.4229 63.0788 96.1437C62.7135 95.8662 62.2878 95.6731 61.8138 95.5732C61.3381 95.4715 60.8107 95.4784 60.2454 95.5887C59.8094 95.6731 59.4233 95.8127 59.0941 96.0006C58.7667 96.1902 58.4892 96.4229 58.2668 96.6952C58.0445 96.9692 57.879 97.2777 57.7756 97.6138C57.674 97.9378 57.6291 98.2825 57.6378 98.6393L59.1837 98.3377C59.1992 97.9706 59.3164 97.6586 59.5353 97.4104C59.7611 97.1536 60.0868 96.9813 60.5005 96.9003C60.8435 96.8348 61.1606 96.8417 61.4398 96.9244C61.719 97.0071 61.9689 97.1485 62.1809 97.3449C62.3929 97.5397 62.5721 97.7862 62.7135 98.074C62.8531 98.3618 62.9599 98.6858 63.0289 99.0409C63.0978 99.3942 63.1219 99.7354 63.0995 100.054C63.0788 100.375 63.0047 100.67 62.8824 100.932C62.76 101.192 62.5808 101.418 62.3532 101.6C62.124 101.783 61.8345 101.909 61.4932 101.974C60.7228 102.124 60.173 101.909 59.8593 101.333L58.3013 101.638C58.4288 101.943 58.5995 102.216 58.8115 102.448C59.0338 102.693 59.2975 102.895 59.5957 103.046Z" />
</svg>
