<svg width="26" height="26" viewBox="0 0 26 26" fill="none" xmlns="http://www.w3.org/2000/svg">
<path d="M11.9025 1C5.89413 1 1 5.89413 1 11.9025C1 17.9109 5.89413 22.805 11.9025 22.805C14.5153 22.805 16.9148 21.8772 18.7954 20.337L23.1231 24.6648C23.2236 24.7694 23.3439 24.853 23.477 24.9105C23.6102 24.9681 23.7535 24.9985 23.8985 24.9999C24.0436 25.0014 24.1875 24.9739 24.3218 24.9191C24.4561 24.8643 24.5781 24.7832 24.6806 24.6806C24.7832 24.5781 24.8643 24.4561 24.9191 24.3218C24.9739 24.1875 25.0014 24.0436 24.9999 23.8985C24.9985 23.7535 24.9681 23.6102 24.9105 23.477C24.853 23.3439 24.7694 23.2236 24.6648 23.1231L20.337 18.7954C21.8772 16.9148 22.805 14.5153 22.805 11.9025C22.805 5.89413 17.9109 1 11.9025 1ZM11.9025 3.1805C16.7325 3.1805 20.6245 7.07256 20.6245 11.9025C20.6245 16.7325 16.7325 20.6245 11.9025 20.6245C7.07256 20.6245 3.1805 16.7325 3.1805 11.9025C3.1805 7.07256 7.07256 3.1805 11.9025 3.1805ZM11.8855 7.43635C11.5967 7.44086 11.3215 7.55976 11.1203 7.76696C10.9191 7.97416 10.8083 8.25272 10.8123 8.5415V10.8123H8.5415C8.39703 10.8102 8.2536 10.8369 8.11953 10.8908C7.98546 10.9447 7.86344 11.0246 7.76056 11.1261C7.65767 11.2275 7.57597 11.3484 7.52021 11.4817C7.46444 11.615 7.43573 11.758 7.43573 11.9025C7.43573 12.047 7.46444 12.19 7.52021 12.3233C7.57597 12.4566 7.65767 12.5775 7.76056 12.6789C7.86344 12.7804 7.98546 12.8604 8.11953 12.9142C8.2536 12.9681 8.39703 12.9948 8.5415 12.9928H10.8123V15.2635C10.8102 15.408 10.8369 15.5514 10.8908 15.6855C10.9447 15.8196 11.0246 15.9416 11.1261 16.0445C11.2275 16.1473 11.3484 16.229 11.4817 16.2848C11.615 16.3406 11.758 16.3693 11.9025 16.3693C12.047 16.3693 12.19 16.3406 12.3233 16.2848C12.4566 16.229 12.5775 16.1473 12.6789 16.0445C12.7804 15.9416 12.8604 15.8196 12.9142 15.6855C12.9681 15.5514 12.9948 15.408 12.9928 15.2635V12.9928H15.2635C15.408 12.9948 15.5514 12.9681 15.6855 12.9142C15.8196 12.8604 15.9416 12.7804 16.0445 12.6789C16.1473 12.5775 16.229 12.4566 16.2848 12.3233C16.3406 12.19 16.3693 12.047 16.3693 11.9025C16.3693 11.758 16.3406 11.615 16.2848 11.4817C16.229 11.3484 16.1473 11.2275 16.0445 11.1261C15.9416 11.0246 15.8196 10.9447 15.6855 10.8908C15.5514 10.8369 15.408 10.8102 15.2635 10.8123H12.9928V8.5415C12.9948 8.39564 12.9675 8.25086 12.9125 8.11573C12.8575 7.98061 12.776 7.85788 12.6728 7.75483C12.5695 7.65178 12.4466 7.57049 12.3114 7.51579C12.1762 7.46108 12.0313 7.43407 11.8855 7.43635Z" fill="white" stroke="white" stroke-width="0.5"/>
</svg>
