<svg width="385" height="432" viewBox="0 0 385 432" fill="none" xmlns="http://www.w3.org/2000/svg">
<path d="M301.444 112.619L295.187 96.7827L289.894 106.04L284.622 96.7827L278.343 112.619H276.5V115.02H285.972V112.619H284.558L285.929 108.676L289.894 115.191L293.858 108.676L295.23 112.619H293.815V115.02H303.287V112.619H301.444Z" fill="#B6B0B8"/>
<path d="M92.4444 360.687L86.1869 344.851L80.8937 354.108L75.6219 344.851L69.343 360.687H67.5V363.087H76.972V360.687H75.5576L76.9292 356.744L80.8937 363.259L84.8582 356.744L86.2297 360.687H84.8153V363.087H94.2874V360.687H92.4444Z" fill="#B6B0B8"/>
<path d="M239.849 126.242H242.189L246.239 137.042L250.307 126.242H252.647V139.094H251.027V128.402H250.991L246.977 139.094H245.519L241.505 128.402H241.469V139.094H239.849V126.242ZM257.995 139.292C257.575 139.292 257.179 139.244 256.807 139.148C256.435 139.064 256.105 138.92 255.817 138.716C255.541 138.5 255.319 138.23 255.151 137.906C254.995 137.57 254.917 137.168 254.917 136.7C254.917 136.172 255.007 135.74 255.187 135.404C255.367 135.068 255.601 134.798 255.889 134.594C256.189 134.378 256.525 134.216 256.897 134.108C257.281 134 257.671 133.91 258.067 133.838C258.487 133.754 258.883 133.694 259.255 133.658C259.639 133.61 259.975 133.55 260.263 133.478C260.551 133.394 260.779 133.28 260.947 133.136C261.115 132.98 261.199 132.758 261.199 132.47C261.199 132.134 261.133 131.864 261.001 131.66C260.881 131.456 260.719 131.3 260.515 131.192C260.323 131.084 260.101 131.012 259.849 130.976C259.609 130.94 259.369 130.922 259.129 130.922C258.481 130.922 257.941 131.048 257.509 131.3C257.077 131.54 256.843 132.002 256.807 132.686H255.277C255.301 132.11 255.421 131.624 255.637 131.228C255.853 130.832 256.141 130.514 256.501 130.274C256.861 130.022 257.269 129.842 257.725 129.734C258.193 129.626 258.691 129.572 259.219 129.572C259.639 129.572 260.053 129.602 260.461 129.662C260.881 129.722 261.259 129.848 261.595 130.04C261.931 130.22 262.201 130.478 262.405 130.814C262.609 131.15 262.711 131.588 262.711 132.128V136.916C262.711 137.276 262.729 137.54 262.765 137.708C262.813 137.876 262.957 137.96 263.197 137.96C263.305 137.96 263.461 137.93 263.665 137.87V139.058C263.401 139.214 263.035 139.292 262.567 139.292C262.171 139.292 261.853 139.184 261.613 138.968C261.385 138.74 261.271 138.374 261.271 137.87C260.851 138.374 260.359 138.74 259.795 138.968C259.243 139.184 258.643 139.292 257.995 139.292ZM258.337 137.96C258.841 137.96 259.273 137.894 259.633 137.762C259.993 137.618 260.287 137.444 260.515 137.24C260.743 137.024 260.911 136.796 261.019 136.556C261.127 136.304 261.181 136.07 261.181 135.854V134.288C260.989 134.444 260.737 134.552 260.425 134.612C260.113 134.672 259.783 134.726 259.435 134.774C259.099 134.822 258.757 134.87 258.409 134.918C258.061 134.966 257.749 135.05 257.473 135.17C257.197 135.29 256.969 135.464 256.789 135.692C256.621 135.908 256.537 136.208 256.537 136.592C256.537 136.844 256.585 137.06 256.681 137.24C256.789 137.408 256.921 137.546 257.077 137.654C257.245 137.762 257.437 137.84 257.653 137.888C257.869 137.936 258.097 137.96 258.337 137.96ZM267.231 135.458C266.571 135.362 266.031 135.062 265.611 134.558C265.191 134.054 264.981 133.418 264.981 132.65C264.981 131.774 265.239 131.078 265.755 130.562C266.283 130.046 266.997 129.788 267.897 129.788H272.613V139.094H271.083V135.512H269.049L266.205 139.094H264.171L267.231 135.458ZM271.083 134.198V131.138H268.383C267.735 131.138 267.267 131.276 266.979 131.552C266.691 131.828 266.547 132.2 266.547 132.668C266.547 133.148 266.691 133.526 266.979 133.802C267.267 134.066 267.735 134.198 268.383 134.198H271.083ZM275.099 129.788H276.629V134.234L280.895 129.788H282.929L278.807 133.82L283.415 139.094H281.453L277.565 134.666L276.629 135.584V139.094H275.099V129.788ZM288.768 139.292C288.024 139.292 287.37 139.172 286.806 138.932C286.254 138.68 285.786 138.338 285.402 137.906C285.018 137.462 284.73 136.946 284.538 136.358C284.346 135.77 284.25 135.134 284.25 134.45C284.25 133.766 284.346 133.13 284.538 132.542C284.73 131.942 285.018 131.426 285.402 130.994C285.786 130.55 286.254 130.202 286.806 129.95C287.37 129.698 288.024 129.572 288.768 129.572C289.5 129.572 290.148 129.698 290.712 129.95C291.276 130.202 291.75 130.55 292.134 130.994C292.518 131.426 292.806 131.942 292.998 132.542C293.19 133.13 293.286 133.766 293.286 134.45C293.286 135.134 293.19 135.77 292.998 136.358C292.806 136.946 292.518 137.462 292.134 137.906C291.75 138.338 291.276 138.68 290.712 138.932C290.148 139.172 289.5 139.292 288.768 139.292ZM288.768 137.96C289.164 137.96 289.536 137.882 289.884 137.726C290.244 137.57 290.556 137.348 290.82 137.06C291.084 136.76 291.288 136.394 291.432 135.962C291.588 135.518 291.666 135.014 291.666 134.45C291.666 133.886 291.588 133.388 291.432 132.956C291.288 132.512 291.084 132.14 290.82 131.84C290.556 131.54 290.244 131.312 289.884 131.156C289.536 131 289.164 130.922 288.768 130.922C288.372 130.922 287.994 131 287.634 131.156C287.286 131.312 286.98 131.54 286.716 131.84C286.452 132.14 286.242 132.512 286.086 132.956C285.942 133.388 285.87 133.886 285.87 134.45C285.87 135.014 285.942 135.518 286.086 135.962C286.242 136.394 286.452 136.76 286.716 137.06C286.98 137.348 287.286 137.57 287.634 137.726C287.994 137.882 288.372 137.96 288.768 137.96ZM295.27 129.788H299.572C299.98 129.788 300.37 129.818 300.742 129.878C301.126 129.938 301.468 130.052 301.768 130.22C302.068 130.376 302.308 130.604 302.488 130.904C302.668 131.204 302.758 131.588 302.758 132.056C302.758 132.56 302.638 132.968 302.398 133.28C302.158 133.592 301.822 133.85 301.39 134.054V134.072C301.93 134.18 302.356 134.432 302.668 134.828C302.992 135.224 303.154 135.734 303.154 136.358C303.154 136.754 303.082 137.12 302.938 137.456C302.806 137.792 302.614 138.08 302.362 138.32C302.11 138.56 301.81 138.752 301.462 138.896C301.114 139.028 300.736 139.094 300.328 139.094H295.27V129.788ZM300.04 137.798C300.544 137.798 300.922 137.654 301.174 137.366C301.438 137.066 301.57 136.694 301.57 136.25C301.57 135.83 301.432 135.494 301.156 135.242C300.88 134.99 300.418 134.864 299.77 134.864H296.782V137.798H300.04ZM299.41 133.604C300.07 133.604 300.526 133.484 300.778 133.244C301.042 133.004 301.174 132.686 301.174 132.29C301.174 131.906 301.048 131.612 300.796 131.408C300.544 131.192 300.082 131.084 299.41 131.084H296.782V133.604H299.41ZM309.023 139.292C308.315 139.292 307.685 139.178 307.133 138.95C306.593 138.722 306.137 138.398 305.765 137.978C305.405 137.558 305.129 137.06 304.937 136.484C304.757 135.908 304.667 135.266 304.667 134.558C304.667 133.862 304.757 133.214 304.937 132.614C305.117 132.002 305.387 131.474 305.747 131.03C306.119 130.574 306.575 130.22 307.115 129.968C307.667 129.704 308.315 129.572 309.059 129.572C309.587 129.572 310.079 129.638 310.535 129.77C311.003 129.89 311.411 130.082 311.759 130.346C312.119 130.61 312.413 130.946 312.641 131.354C312.869 131.75 313.013 132.224 313.073 132.776H311.489C311.369 132.188 311.117 131.732 310.733 131.408C310.349 131.084 309.833 130.922 309.185 130.922C308.633 130.922 308.171 131.024 307.799 131.228C307.427 131.432 307.127 131.702 306.899 132.038C306.683 132.374 306.527 132.764 306.431 133.208C306.335 133.64 306.287 134.09 306.287 134.558C306.287 134.99 306.335 135.41 306.431 135.818C306.539 136.226 306.701 136.592 306.917 136.916C307.133 137.228 307.409 137.48 307.745 137.672C308.093 137.864 308.513 137.96 309.005 137.96C309.761 137.96 310.349 137.762 310.769 137.366C311.201 136.97 311.465 136.412 311.561 135.692H313.127C312.959 136.856 312.533 137.75 311.849 138.374C311.165 138.986 310.223 139.292 309.023 139.292ZM315.019 129.788H316.549V134.234L320.815 129.788H322.849L318.727 133.82L323.335 139.094H321.373L317.485 134.666L316.549 135.584V139.094H315.019V129.788ZM327.247 139.292C326.827 139.292 326.431 139.244 326.059 139.148C325.687 139.064 325.357 138.92 325.069 138.716C324.793 138.5 324.571 138.23 324.403 137.906C324.247 137.57 324.169 137.168 324.169 136.7C324.169 136.172 324.259 135.74 324.439 135.404C324.619 135.068 324.853 134.798 325.141 134.594C325.441 134.378 325.777 134.216 326.149 134.108C326.533 134 326.923 133.91 327.319 133.838C327.739 133.754 328.135 133.694 328.507 133.658C328.891 133.61 329.227 133.55 329.515 133.478C329.803 133.394 330.031 133.28 330.199 133.136C330.367 132.98 330.451 132.758 330.451 132.47C330.451 132.134 330.385 131.864 330.253 131.66C330.133 131.456 329.971 131.3 329.767 131.192C329.575 131.084 329.353 131.012 329.101 130.976C328.861 130.94 328.621 130.922 328.381 130.922C327.733 130.922 327.193 131.048 326.761 131.3C326.329 131.54 326.095 132.002 326.059 132.686H324.529C324.553 132.11 324.673 131.624 324.889 131.228C325.105 130.832 325.393 130.514 325.753 130.274C326.113 130.022 326.521 129.842 326.977 129.734C327.445 129.626 327.943 129.572 328.471 129.572C328.891 129.572 329.305 129.602 329.713 129.662C330.133 129.722 330.511 129.848 330.847 130.04C331.183 130.22 331.453 130.478 331.657 130.814C331.861 131.15 331.963 131.588 331.963 132.128V136.916C331.963 137.276 331.981 137.54 332.017 137.708C332.065 137.876 332.209 137.96 332.449 137.96C332.557 137.96 332.713 137.93 332.917 137.87V139.058C332.653 139.214 332.287 139.292 331.819 139.292C331.423 139.292 331.105 139.184 330.865 138.968C330.637 138.74 330.523 138.374 330.523 137.87C330.103 138.374 329.611 138.74 329.047 138.968C328.495 139.184 327.895 139.292 327.247 139.292ZM327.589 137.96C328.093 137.96 328.525 137.894 328.885 137.762C329.245 137.618 329.539 137.444 329.767 137.24C329.995 137.024 330.163 136.796 330.271 136.556C330.379 136.304 330.433 136.07 330.433 135.854V134.288C330.241 134.444 329.989 134.552 329.677 134.612C329.365 134.672 329.035 134.726 328.687 134.774C328.351 134.822 328.009 134.87 327.661 134.918C327.313 134.966 327.001 135.05 326.725 135.17C326.449 135.29 326.221 135.464 326.041 135.692C325.873 135.908 325.789 136.208 325.789 136.592C325.789 136.844 325.837 137.06 325.933 137.24C326.041 137.408 326.173 137.546 326.329 137.654C326.497 137.762 326.689 137.84 326.905 137.888C327.121 137.936 327.349 137.96 327.589 137.96ZM336.483 135.458C335.823 135.362 335.283 135.062 334.863 134.558C334.443 134.054 334.233 133.418 334.233 132.65C334.233 131.774 334.491 131.078 335.007 130.562C335.535 130.046 336.249 129.788 337.149 129.788H341.865V139.094H340.335V135.512H338.301L335.457 139.094H333.423L336.483 135.458ZM340.335 134.198V131.138H337.635C336.987 131.138 336.519 131.276 336.231 131.552C335.943 131.828 335.799 132.2 335.799 132.668C335.799 133.148 335.943 133.526 336.231 133.802C336.519 134.066 336.987 134.198 337.635 134.198H340.335Z" fill="#ABA3AD"/>
<path d="M25.9773 374.31H34.7793V375.75H27.6873V379.53H31.9713C33.2433 379.53 34.2153 379.86 34.8873 380.52C35.5713 381.18 35.9133 382.128 35.9133 383.364C35.9133 384.588 35.5713 385.53 34.8873 386.19C34.2153 386.838 33.2433 387.162 31.9713 387.162H25.9773V374.31ZM31.4133 385.722C33.2853 385.722 34.2213 384.936 34.2213 383.364C34.2213 381.768 33.2853 380.97 31.4133 380.97H27.6873V385.722H31.4133ZM40.6258 387.36C40.2057 387.36 39.8097 387.312 39.4377 387.216C39.0657 387.132 38.7357 386.988 38.4477 386.784C38.1717 386.568 37.9497 386.298 37.7817 385.974C37.6257 385.638 37.5477 385.236 37.5477 384.768C37.5477 384.24 37.6377 383.808 37.8177 383.472C37.9977 383.136 38.2317 382.866 38.5197 382.662C38.8197 382.446 39.1557 382.284 39.5277 382.176C39.9117 382.068 40.3017 381.978 40.6977 381.906C41.1177 381.822 41.5137 381.762 41.8857 381.726C42.2697 381.678 42.6057 381.618 42.8937 381.546C43.1818 381.462 43.4098 381.348 43.5778 381.204C43.7458 381.048 43.8298 380.826 43.8298 380.538C43.8298 380.202 43.7638 379.932 43.6317 379.728C43.5118 379.524 43.3498 379.368 43.1457 379.26C42.9538 379.152 42.7318 379.08 42.4797 379.044C42.2398 379.008 41.9998 378.99 41.7597 378.99C41.1117 378.99 40.5717 379.116 40.1397 379.368C39.7077 379.608 39.4737 380.07 39.4377 380.754H37.9077C37.9317 380.178 38.0517 379.692 38.2677 379.296C38.4837 378.9 38.7717 378.582 39.1317 378.342C39.4917 378.09 39.8997 377.91 40.3557 377.802C40.8237 377.694 41.3217 377.64 41.8497 377.64C42.2697 377.64 42.6837 377.67 43.0917 377.73C43.5117 377.79 43.8897 377.916 44.2257 378.108C44.5618 378.288 44.8318 378.546 45.0358 378.882C45.2398 379.218 45.3417 379.656 45.3417 380.196V384.984C45.3417 385.344 45.3598 385.608 45.3958 385.776C45.4438 385.944 45.5878 386.028 45.8278 386.028C45.9357 386.028 46.0917 385.998 46.2958 385.938V387.126C46.0317 387.282 45.6657 387.36 45.1978 387.36C44.8018 387.36 44.4838 387.252 44.2438 387.036C44.0158 386.808 43.9018 386.442 43.9018 385.938C43.4817 386.442 42.9897 386.808 42.4257 387.036C41.8737 387.252 41.2737 387.36 40.6258 387.36ZM40.9677 386.028C41.4717 386.028 41.9037 385.962 42.2637 385.83C42.6237 385.686 42.9177 385.512 43.1457 385.308C43.3738 385.092 43.5418 384.864 43.6498 384.624C43.7577 384.372 43.8117 384.138 43.8117 383.922V382.356C43.6198 382.512 43.3678 382.62 43.0557 382.68C42.7437 382.74 42.4137 382.794 42.0657 382.842C41.7297 382.89 41.3877 382.938 41.0397 382.986C40.6917 383.034 40.3797 383.118 40.1037 383.238C39.8277 383.358 39.5997 383.532 39.4197 383.76C39.2517 383.976 39.1677 384.276 39.1677 384.66C39.1677 384.912 39.2157 385.128 39.3117 385.308C39.4197 385.476 39.5517 385.614 39.7077 385.722C39.8757 385.83 40.0677 385.908 40.2837 385.956C40.4997 386.004 40.7278 386.028 40.9677 386.028ZM47.9537 377.856H49.4837V379.116H49.5197C49.7717 378.6 50.1677 378.228 50.7077 378C51.2477 377.76 51.8417 377.64 52.4897 377.64C53.2097 377.64 53.8337 377.772 54.3617 378.036C54.9017 378.3 55.3457 378.66 55.6937 379.116C56.0537 379.56 56.3237 380.076 56.5037 380.664C56.6837 381.252 56.7737 381.876 56.7737 382.536C56.7737 383.208 56.6837 383.838 56.5037 384.426C56.3357 385.002 56.0717 385.512 55.7117 385.956C55.3637 386.388 54.9197 386.73 54.3797 386.982C53.8517 387.234 53.2337 387.36 52.5257 387.36C52.2857 387.36 52.0277 387.336 51.7517 387.288C51.4757 387.24 51.1997 387.162 50.9237 387.054C50.6477 386.946 50.3837 386.802 50.1317 386.622C49.8917 386.43 49.6877 386.196 49.5197 385.92H49.4837V390.708H47.9537V377.856ZM52.3637 386.028C52.8797 386.028 53.3177 385.926 53.6777 385.722C54.0377 385.518 54.3257 385.248 54.5417 384.912C54.7577 384.576 54.9137 384.192 55.0097 383.76C55.1057 383.328 55.1537 382.884 55.1537 382.428C55.1537 381.996 55.0937 381.576 54.9737 381.168C54.8657 380.748 54.6917 380.376 54.4517 380.052C54.2237 379.728 53.9237 379.47 53.5517 379.278C53.1917 379.086 52.7657 378.99 52.2737 378.99C51.7577 378.99 51.3197 379.092 50.9597 379.296C50.5997 379.5 50.3057 379.77 50.0777 380.106C49.8497 380.43 49.6817 380.802 49.5737 381.222C49.4777 381.642 49.4297 382.068 49.4297 382.5C49.4297 382.956 49.4837 383.4 49.5917 383.832C49.6997 384.252 49.8677 384.624 50.0957 384.948C50.3357 385.272 50.6417 385.536 51.0137 385.74C51.3857 385.932 51.8357 386.028 52.3637 386.028ZM58.8036 377.856H60.3336V379.116H60.3696C60.6216 378.6 61.0176 378.228 61.5576 378C62.0976 377.76 62.6916 377.64 63.3396 377.64C64.0596 377.64 64.6836 377.772 65.2116 378.036C65.7516 378.3 66.1956 378.66 66.5436 379.116C66.9036 379.56 67.1736 380.076 67.3536 380.664C67.5336 381.252 67.6236 381.876 67.6236 382.536C67.6236 383.208 67.5336 383.838 67.3536 384.426C67.1856 385.002 66.9216 385.512 66.5616 385.956C66.2136 386.388 65.7696 386.73 65.2296 386.982C64.7016 387.234 64.0836 387.36 63.3756 387.36C63.1356 387.36 62.8776 387.336 62.6016 387.288C62.3256 387.24 62.0496 387.162 61.7736 387.054C61.4976 386.946 61.2336 386.802 60.9816 386.622C60.7416 386.43 60.5376 386.196 60.3696 385.92H60.3336V390.708H58.8036V377.856ZM63.2136 386.028C63.7296 386.028 64.1676 385.926 64.5276 385.722C64.8876 385.518 65.1756 385.248 65.3916 384.912C65.6076 384.576 65.7636 384.192 65.8596 383.76C65.9556 383.328 66.0036 382.884 66.0036 382.428C66.0036 381.996 65.9436 381.576 65.8236 381.168C65.7156 380.748 65.5416 380.376 65.3016 380.052C65.0736 379.728 64.7736 379.47 64.4016 379.278C64.0416 379.086 63.6156 378.99 63.1236 378.99C62.6076 378.99 62.1696 379.092 61.8096 379.296C61.4496 379.5 61.1556 379.77 60.9276 380.106C60.6996 380.43 60.5316 380.802 60.4236 381.222C60.3276 381.642 60.2796 382.068 60.2796 382.5C60.2796 382.956 60.3336 383.4 60.4416 383.832C60.5496 384.252 60.7176 384.624 60.9456 384.948C61.1856 385.272 61.4916 385.536 61.8636 385.74C62.2356 385.932 62.6856 386.028 63.2136 386.028ZM69.5996 377.856H71.1296V385.452L75.5216 377.856H77.4836V387.162H75.9536V379.566L71.5616 387.162H69.5996V377.856ZM79.9749 377.856H81.5049V382.302L85.7709 377.856H87.8049L83.6829 381.888L88.2909 387.162H86.3289L82.4409 382.734L81.5049 383.652V387.162H79.9749V377.856ZM92.2035 387.36C91.7835 387.36 91.3875 387.312 91.0155 387.216C90.6435 387.132 90.3135 386.988 90.0255 386.784C89.7495 386.568 89.5275 386.298 89.3595 385.974C89.2035 385.638 89.1255 385.236 89.1255 384.768C89.1255 384.24 89.2155 383.808 89.3955 383.472C89.5755 383.136 89.8095 382.866 90.0975 382.662C90.3975 382.446 90.7335 382.284 91.1055 382.176C91.4895 382.068 91.8795 381.978 92.2755 381.906C92.6955 381.822 93.0915 381.762 93.4635 381.726C93.8475 381.678 94.1835 381.618 94.4715 381.546C94.7595 381.462 94.9875 381.348 95.1555 381.204C95.3235 381.048 95.4075 380.826 95.4075 380.538C95.4075 380.202 95.3415 379.932 95.2095 379.728C95.0895 379.524 94.9275 379.368 94.7235 379.26C94.5315 379.152 94.3095 379.08 94.0575 379.044C93.8175 379.008 93.5775 378.99 93.3375 378.99C92.6895 378.99 92.1495 379.116 91.7175 379.368C91.2855 379.608 91.0515 380.07 91.0155 380.754H89.4855C89.5095 380.178 89.6295 379.692 89.8455 379.296C90.0615 378.9 90.3495 378.582 90.7095 378.342C91.0695 378.09 91.4775 377.91 91.9335 377.802C92.4015 377.694 92.8995 377.64 93.4275 377.64C93.8475 377.64 94.2615 377.67 94.6695 377.73C95.0895 377.79 95.4675 377.916 95.8035 378.108C96.1395 378.288 96.4095 378.546 96.6135 378.882C96.8175 379.218 96.9195 379.656 96.9195 380.196V384.984C96.9195 385.344 96.9375 385.608 96.9735 385.776C97.0215 385.944 97.1655 386.028 97.4055 386.028C97.5135 386.028 97.6695 385.998 97.8735 385.938V387.126C97.6095 387.282 97.2435 387.36 96.7755 387.36C96.3795 387.36 96.0615 387.252 95.8215 387.036C95.5935 386.808 95.4795 386.442 95.4795 385.938C95.0595 386.442 94.5675 386.808 94.0035 387.036C93.4515 387.252 92.8515 387.36 92.2035 387.36ZM92.5455 386.028C93.0495 386.028 93.4815 385.962 93.8415 385.83C94.2015 385.686 94.4955 385.512 94.7235 385.308C94.9515 385.092 95.1195 384.864 95.2275 384.624C95.3355 384.372 95.3895 384.138 95.3895 383.922V382.356C95.1975 382.512 94.9455 382.62 94.6335 382.68C94.3215 382.74 93.9915 382.794 93.6435 382.842C93.3075 382.89 92.9655 382.938 92.6175 382.986C92.2695 383.034 91.9575 383.118 91.6815 383.238C91.4055 383.358 91.1775 383.532 90.9975 383.76C90.8295 383.976 90.7455 384.276 90.7455 384.66C90.7455 384.912 90.7935 385.128 90.8895 385.308C90.9975 385.476 91.1295 385.614 91.2855 385.722C91.4535 385.83 91.6455 385.908 91.8615 385.956C92.0775 386.004 92.3055 386.028 92.5455 386.028ZM98.3795 385.812H99.4775C99.6095 385.56 99.7415 385.218 99.8735 384.786C100.017 384.342 100.143 383.856 100.251 383.328C100.371 382.788 100.467 382.218 100.539 381.618C100.611 381.018 100.647 380.43 100.647 379.854V377.856H107.379V385.812H108.639V389.988H107.181V387.162H99.8375V389.988H98.3795V385.812ZM105.849 385.812V379.206H102.141V379.998C102.141 380.586 102.105 381.174 102.033 381.762C101.973 382.338 101.889 382.884 101.781 383.4C101.673 383.916 101.553 384.384 101.421 384.804C101.301 385.224 101.181 385.56 101.061 385.812H105.849ZM110.257 377.856H111.787V381.564H116.503V377.856H118.033V387.162H116.503V382.878H111.787V387.162H110.257V377.856ZM123.083 387.36C122.663 387.36 122.267 387.312 121.895 387.216C121.523 387.132 121.193 386.988 120.905 386.784C120.629 386.568 120.407 386.298 120.239 385.974C120.083 385.638 120.005 385.236 120.005 384.768C120.005 384.24 120.095 383.808 120.275 383.472C120.455 383.136 120.689 382.866 120.977 382.662C121.277 382.446 121.613 382.284 121.985 382.176C122.369 382.068 122.759 381.978 123.155 381.906C123.575 381.822 123.971 381.762 124.343 381.726C124.727 381.678 125.063 381.618 125.351 381.546C125.639 381.462 125.867 381.348 126.035 381.204C126.203 381.048 126.287 380.826 126.287 380.538C126.287 380.202 126.221 379.932 126.089 379.728C125.969 379.524 125.807 379.368 125.603 379.26C125.411 379.152 125.189 379.08 124.937 379.044C124.697 379.008 124.457 378.99 124.217 378.99C123.569 378.99 123.029 379.116 122.597 379.368C122.165 379.608 121.931 380.07 121.895 380.754H120.365C120.389 380.178 120.509 379.692 120.725 379.296C120.941 378.9 121.229 378.582 121.589 378.342C121.949 378.09 122.357 377.91 122.813 377.802C123.281 377.694 123.779 377.64 124.307 377.64C124.727 377.64 125.141 377.67 125.549 377.73C125.969 377.79 126.347 377.916 126.683 378.108C127.019 378.288 127.289 378.546 127.493 378.882C127.697 379.218 127.799 379.656 127.799 380.196V384.984C127.799 385.344 127.817 385.608 127.853 385.776C127.901 385.944 128.045 386.028 128.285 386.028C128.393 386.028 128.549 385.998 128.753 385.938V387.126C128.489 387.282 128.123 387.36 127.655 387.36C127.259 387.36 126.941 387.252 126.701 387.036C126.473 386.808 126.359 386.442 126.359 385.938C125.939 386.442 125.447 386.808 124.883 387.036C124.331 387.252 123.731 387.36 123.083 387.36ZM123.425 386.028C123.929 386.028 124.361 385.962 124.721 385.83C125.081 385.686 125.375 385.512 125.603 385.308C125.831 385.092 125.999 384.864 126.107 384.624C126.215 384.372 126.269 384.138 126.269 383.922V382.356C126.077 382.512 125.825 382.62 125.513 382.68C125.201 382.74 124.871 382.794 124.523 382.842C124.187 382.89 123.845 382.938 123.497 382.986C123.149 383.034 122.837 383.118 122.561 383.238C122.285 383.358 122.057 383.532 121.877 383.76C121.709 383.976 121.625 384.276 121.625 384.66C121.625 384.912 121.673 385.128 121.769 385.308C121.877 385.476 122.009 385.614 122.165 385.722C122.333 385.83 122.525 385.908 122.741 385.956C122.957 386.004 123.185 386.028 123.425 386.028ZM132.319 383.526C131.659 383.43 131.119 383.13 130.699 382.626C130.279 382.122 130.069 381.486 130.069 380.718C130.069 379.842 130.327 379.146 130.843 378.63C131.371 378.114 132.085 377.856 132.985 377.856H137.701V387.162H136.171V383.58H134.137L131.293 387.162H129.259L132.319 383.526ZM136.171 382.266V379.206H133.471C132.823 379.206 132.355 379.344 132.067 379.62C131.779 379.896 131.635 380.268 131.635 380.736C131.635 381.216 131.779 381.594 132.067 381.87C132.355 382.134 132.823 382.266 133.471 382.266H136.171Z" fill="#ABA3AD"/>
<path d="M253.904 307.999H263.912V320.851H262.202V309.439H255.614V320.851H253.904V307.999ZM269.22 321.049C268.8 321.049 268.404 321.001 268.032 320.905C267.66 320.821 267.33 320.677 267.042 320.473C266.766 320.257 266.544 319.987 266.376 319.663C266.22 319.327 266.142 318.925 266.142 318.457C266.142 317.929 266.232 317.497 266.412 317.161C266.592 316.825 266.826 316.555 267.114 316.351C267.414 316.135 267.75 315.973 268.122 315.865C268.506 315.757 268.896 315.667 269.292 315.595C269.712 315.511 270.108 315.451 270.48 315.415C270.864 315.367 271.2 315.307 271.488 315.235C271.776 315.151 272.004 315.037 272.172 314.893C272.34 314.737 272.424 314.515 272.424 314.227C272.424 313.891 272.358 313.621 272.226 313.417C272.106 313.213 271.944 313.057 271.74 312.949C271.548 312.841 271.326 312.769 271.074 312.733C270.834 312.697 270.594 312.679 270.354 312.679C269.706 312.679 269.166 312.805 268.734 313.057C268.302 313.297 268.068 313.759 268.032 314.443H266.502C266.526 313.867 266.646 313.381 266.862 312.985C267.078 312.589 267.366 312.271 267.726 312.031C268.086 311.779 268.494 311.599 268.95 311.491C269.418 311.383 269.916 311.329 270.444 311.329C270.864 311.329 271.278 311.359 271.686 311.419C272.106 311.479 272.484 311.605 272.82 311.797C273.156 311.977 273.426 312.235 273.63 312.571C273.834 312.907 273.936 313.345 273.936 313.885V318.673C273.936 319.033 273.954 319.297 273.99 319.465C274.038 319.633 274.182 319.717 274.422 319.717C274.53 319.717 274.686 319.687 274.89 319.627V320.815C274.626 320.971 274.26 321.049 273.792 321.049C273.396 321.049 273.078 320.941 272.838 320.725C272.61 320.497 272.496 320.131 272.496 319.627C272.076 320.131 271.584 320.497 271.02 320.725C270.468 320.941 269.868 321.049 269.22 321.049ZM269.562 319.717C270.066 319.717 270.498 319.651 270.858 319.519C271.218 319.375 271.512 319.201 271.74 318.997C271.968 318.781 272.136 318.553 272.244 318.313C272.352 318.061 272.406 317.827 272.406 317.611V316.045C272.214 316.201 271.962 316.309 271.65 316.369C271.338 316.429 271.008 316.483 270.66 316.531C270.324 316.579 269.982 316.627 269.634 316.675C269.286 316.723 268.974 316.807 268.698 316.927C268.422 317.047 268.194 317.221 268.014 317.449C267.846 317.665 267.762 317.965 267.762 318.349C267.762 318.601 267.81 318.817 267.906 318.997C268.014 319.165 268.146 319.303 268.302 319.411C268.47 319.519 268.662 319.597 268.878 319.645C269.094 319.693 269.322 319.717 269.562 319.717ZM278.744 312.895H275.414V311.545H283.604V312.895H280.274V320.851H278.744V312.895ZM285.06 311.545H286.59V312.805H286.626C286.878 312.289 287.274 311.917 287.814 311.689C288.354 311.449 288.948 311.329 289.596 311.329C290.316 311.329 290.94 311.461 291.468 311.725C292.008 311.989 292.452 312.349 292.8 312.805C293.16 313.249 293.43 313.765 293.61 314.353C293.79 314.941 293.88 315.565 293.88 316.225C293.88 316.897 293.79 317.527 293.61 318.115C293.442 318.691 293.178 319.201 292.818 319.645C292.47 320.077 292.026 320.419 291.486 320.671C290.958 320.923 290.34 321.049 289.632 321.049C289.392 321.049 289.134 321.025 288.858 320.977C288.582 320.929 288.306 320.851 288.03 320.743C287.754 320.635 287.49 320.491 287.238 320.311C286.998 320.119 286.794 319.885 286.626 319.609H286.59V324.397H285.06V311.545ZM289.47 319.717C289.986 319.717 290.424 319.615 290.784 319.411C291.144 319.207 291.432 318.937 291.648 318.601C291.864 318.265 292.02 317.881 292.116 317.449C292.212 317.017 292.26 316.573 292.26 316.117C292.26 315.685 292.2 315.265 292.08 314.857C291.972 314.437 291.798 314.065 291.558 313.741C291.33 313.417 291.03 313.159 290.658 312.967C290.298 312.775 289.872 312.679 289.38 312.679C288.864 312.679 288.426 312.781 288.066 312.985C287.706 313.189 287.412 313.459 287.184 313.795C286.956 314.119 286.788 314.491 286.68 314.911C286.584 315.331 286.536 315.757 286.536 316.189C286.536 316.645 286.59 317.089 286.698 317.521C286.806 317.941 286.974 318.313 287.202 318.637C287.442 318.961 287.748 319.225 288.12 319.429C288.492 319.621 288.942 319.717 289.47 319.717ZM295.856 311.545H297.386V319.141L301.778 311.545H303.74V320.851H302.21V313.255L297.818 320.851H295.856V311.545ZM306.232 311.545H307.762V315.991L312.028 311.545H314.062L309.94 315.577L314.548 320.851H312.586L308.698 316.423L307.762 317.341V320.851H306.232V311.545ZM315.886 311.545H317.416V319.141L321.808 311.545H323.77V320.851H322.24V313.255L317.848 320.851H315.886V311.545Z" fill="#ABA3AD"/>
<path d="M153.91 209.832H162.712V211.272H155.62V215.052H159.904C161.176 215.052 162.148 215.382 162.82 216.042C163.504 216.702 163.846 217.65 163.846 218.886C163.846 220.11 163.504 221.052 162.82 221.712C162.148 222.36 161.176 222.684 159.904 222.684H153.91V209.832ZM159.346 221.244C161.218 221.244 162.154 220.458 162.154 218.886C162.154 217.29 161.218 216.492 159.346 216.492H155.62V221.244H159.346ZM169.999 222.882C169.255 222.882 168.601 222.762 168.037 222.522C167.485 222.27 167.017 221.928 166.633 221.496C166.249 221.052 165.961 220.536 165.769 219.948C165.577 219.36 165.481 218.724 165.481 218.04C165.481 217.356 165.577 216.72 165.769 216.132C165.961 215.532 166.249 215.016 166.633 214.584C167.017 214.14 167.485 213.792 168.037 213.54C168.601 213.288 169.255 213.162 169.999 213.162C170.731 213.162 171.379 213.288 171.943 213.54C172.507 213.792 172.981 214.14 173.365 214.584C173.749 215.016 174.037 215.532 174.229 216.132C174.421 216.72 174.517 217.356 174.517 218.04C174.517 218.724 174.421 219.36 174.229 219.948C174.037 220.536 173.749 221.052 173.365 221.496C172.981 221.928 172.507 222.27 171.943 222.522C171.379 222.762 170.731 222.882 169.999 222.882ZM169.999 221.55C170.395 221.55 170.767 221.472 171.115 221.316C171.475 221.16 171.787 220.938 172.051 220.65C172.315 220.35 172.519 219.984 172.663 219.552C172.819 219.108 172.897 218.604 172.897 218.04C172.897 217.476 172.819 216.978 172.663 216.546C172.519 216.102 172.315 215.73 172.051 215.43C171.787 215.13 171.475 214.902 171.115 214.746C170.767 214.59 170.395 214.512 169.999 214.512C169.603 214.512 169.225 214.59 168.865 214.746C168.517 214.902 168.211 215.13 167.947 215.43C167.683 215.73 167.473 216.102 167.317 216.546C167.173 216.978 167.101 217.476 167.101 218.04C167.101 218.604 167.173 219.108 167.317 219.552C167.473 219.984 167.683 220.35 167.947 220.65C168.211 220.938 168.517 221.16 168.865 221.316C169.225 221.472 169.603 221.55 169.999 221.55ZM176.428 222.792C176.272 222.792 176.11 222.774 175.942 222.738C175.774 222.714 175.636 222.69 175.528 222.666V221.316C175.648 221.352 175.756 221.376 175.852 221.388C175.96 221.4 176.062 221.406 176.158 221.406C176.554 221.406 176.854 221.25 177.058 220.938C177.274 220.626 177.43 220.146 177.526 219.498C177.634 218.85 177.7 218.022 177.724 217.014C177.748 215.994 177.772 214.782 177.796 213.378H184.33V222.684H182.8V214.728H179.272C179.236 215.82 179.194 216.858 179.146 217.842C179.11 218.814 179.008 219.666 178.84 220.398C178.672 221.13 178.402 221.712 178.03 222.144C177.658 222.576 177.124 222.792 176.428 222.792ZM186.913 213.378H188.443V216.942H191.755C192.667 216.942 193.399 217.194 193.951 217.698C194.503 218.19 194.779 218.886 194.779 219.786C194.779 220.662 194.515 221.364 193.987 221.892C193.459 222.42 192.739 222.684 191.827 222.684H186.913V213.378ZM191.269 221.334C192.553 221.334 193.195 220.818 193.195 219.786C193.195 218.766 192.553 218.256 191.269 218.256H188.443V221.334H191.269ZM196.618 213.378H198.148V221.334H201.622V213.378H203.152V221.334H206.626V213.378H208.156V222.684H196.618V213.378ZM213.206 222.882C212.786 222.882 212.39 222.834 212.018 222.738C211.646 222.654 211.316 222.51 211.028 222.306C210.752 222.09 210.53 221.82 210.362 221.496C210.206 221.16 210.128 220.758 210.128 220.29C210.128 219.762 210.218 219.33 210.398 218.994C210.578 218.658 210.812 218.388 211.1 218.184C211.4 217.968 211.736 217.806 212.108 217.698C212.492 217.59 212.882 217.5 213.278 217.428C213.698 217.344 214.094 217.284 214.466 217.248C214.85 217.2 215.186 217.14 215.474 217.068C215.762 216.984 215.99 216.87 216.158 216.726C216.326 216.57 216.41 216.348 216.41 216.06C216.41 215.724 216.344 215.454 216.212 215.25C216.092 215.046 215.93 214.89 215.726 214.782C215.534 214.674 215.312 214.602 215.06 214.566C214.82 214.53 214.58 214.512 214.34 214.512C213.692 214.512 213.152 214.638 212.72 214.89C212.288 215.13 212.054 215.592 212.018 216.276H210.488C210.512 215.7 210.632 215.214 210.848 214.818C211.064 214.422 211.352 214.104 211.712 213.864C212.072 213.612 212.48 213.432 212.936 213.324C213.404 213.216 213.902 213.162 214.43 213.162C214.85 213.162 215.264 213.192 215.672 213.252C216.092 213.312 216.47 213.438 216.806 213.63C217.142 213.81 217.412 214.068 217.616 214.404C217.82 214.74 217.922 215.178 217.922 215.718V220.506C217.922 220.866 217.94 221.13 217.976 221.298C218.024 221.466 218.168 221.55 218.408 221.55C218.516 221.55 218.672 221.52 218.876 221.46V222.648C218.612 222.804 218.246 222.882 217.778 222.882C217.382 222.882 217.064 222.774 216.824 222.558C216.596 222.33 216.482 221.964 216.482 221.46C216.062 221.964 215.57 222.33 215.006 222.558C214.454 222.774 213.854 222.882 213.206 222.882ZM213.548 221.55C214.052 221.55 214.484 221.484 214.844 221.352C215.204 221.208 215.498 221.034 215.726 220.83C215.954 220.614 216.122 220.386 216.23 220.146C216.338 219.894 216.392 219.66 216.392 219.444V217.878C216.2 218.034 215.948 218.142 215.636 218.202C215.324 218.262 214.994 218.316 214.646 218.364C214.31 218.412 213.968 218.46 213.62 218.508C213.272 218.556 212.96 218.64 212.684 218.76C212.408 218.88 212.18 219.054 212 219.282C211.832 219.498 211.748 219.798 211.748 220.182C211.748 220.434 211.796 220.65 211.892 220.83C212 220.998 212.132 221.136 212.288 221.244C212.456 221.352 212.648 221.43 212.864 221.478C213.08 221.526 213.308 221.55 213.548 221.55ZM222.442 219.048C221.782 218.952 221.242 218.652 220.822 218.148C220.402 217.644 220.192 217.008 220.192 216.24C220.192 215.364 220.45 214.668 220.966 214.152C221.494 213.636 222.208 213.378 223.108 213.378H227.824V222.684H226.294V219.102H224.26L221.416 222.684H219.382L222.442 219.048ZM226.294 217.788V214.728H223.594C222.946 214.728 222.478 214.866 222.19 215.142C221.902 215.418 221.758 215.79 221.758 216.258C221.758 216.738 221.902 217.116 222.19 217.392C222.478 217.656 222.946 217.788 223.594 217.788H226.294ZM127.958 248.972C126.962 248.972 126.092 248.804 125.348 248.468C124.604 248.12 123.986 247.646 123.494 247.046C123.002 246.446 122.63 245.738 122.378 244.922C122.138 244.106 122.018 243.23 122.018 242.294C122.018 241.358 122.15 240.482 122.414 239.666C122.678 238.838 123.062 238.118 123.566 237.506C124.082 236.894 124.718 236.414 125.474 236.066C126.23 235.706 127.106 235.526 128.102 235.526C128.774 235.526 129.41 235.616 130.01 235.796C130.61 235.976 131.144 236.24 131.612 236.588C132.08 236.936 132.47 237.374 132.782 237.902C133.094 238.418 133.298 239.018 133.394 239.702H131.684C131.492 238.79 131.066 238.106 130.406 237.65C129.758 237.194 128.984 236.966 128.084 236.966C127.316 236.966 126.656 237.11 126.104 237.398C125.564 237.686 125.114 238.076 124.754 238.568C124.406 239.048 124.148 239.6 123.98 240.224C123.812 240.848 123.728 241.496 123.728 242.168C123.728 242.9 123.812 243.596 123.98 244.256C124.148 244.904 124.406 245.474 124.754 245.966C125.114 246.446 125.57 246.83 126.122 247.118C126.674 247.406 127.334 247.55 128.102 247.55C128.654 247.55 129.152 247.46 129.596 247.28C130.04 247.088 130.418 246.83 130.73 246.506C131.054 246.17 131.306 245.774 131.486 245.318C131.666 244.862 131.774 244.37 131.81 243.842H133.52C133.352 245.474 132.794 246.74 131.846 247.64C130.91 248.528 129.614 248.972 127.958 248.972ZM138.14 248.882C137.72 248.882 137.324 248.834 136.952 248.738C136.58 248.654 136.25 248.51 135.962 248.306C135.686 248.09 135.464 247.82 135.296 247.496C135.14 247.16 135.062 246.758 135.062 246.29C135.062 245.762 135.152 245.33 135.332 244.994C135.512 244.658 135.746 244.388 136.034 244.184C136.334 243.968 136.67 243.806 137.042 243.698C137.426 243.59 137.816 243.5 138.212 243.428C138.632 243.344 139.028 243.284 139.4 243.248C139.784 243.2 140.12 243.14 140.408 243.068C140.696 242.984 140.924 242.87 141.092 242.726C141.26 242.57 141.344 242.348 141.344 242.06C141.344 241.724 141.278 241.454 141.146 241.25C141.026 241.046 140.864 240.89 140.66 240.782C140.468 240.674 140.246 240.602 139.994 240.566C139.754 240.53 139.514 240.512 139.274 240.512C138.626 240.512 138.086 240.638 137.654 240.89C137.222 241.13 136.988 241.592 136.952 242.276H135.422C135.446 241.7 135.566 241.214 135.782 240.818C135.998 240.422 136.286 240.104 136.646 239.864C137.006 239.612 137.414 239.432 137.87 239.324C138.338 239.216 138.836 239.162 139.364 239.162C139.784 239.162 140.198 239.192 140.606 239.252C141.026 239.312 141.404 239.438 141.74 239.63C142.076 239.81 142.346 240.068 142.55 240.404C142.754 240.74 142.856 241.178 142.856 241.718V246.506C142.856 246.866 142.874 247.13 142.91 247.298C142.958 247.466 143.102 247.55 143.342 247.55C143.45 247.55 143.606 247.52 143.81 247.46V248.648C143.546 248.804 143.18 248.882 142.712 248.882C142.316 248.882 141.998 248.774 141.758 248.558C141.53 248.33 141.416 247.964 141.416 247.46C140.996 247.964 140.504 248.33 139.94 248.558C139.388 248.774 138.788 248.882 138.14 248.882ZM138.482 247.55C138.986 247.55 139.418 247.484 139.778 247.352C140.138 247.208 140.432 247.034 140.66 246.83C140.888 246.614 141.056 246.386 141.164 246.146C141.272 245.894 141.326 245.66 141.326 245.444V243.878C141.134 244.034 140.882 244.142 140.57 244.202C140.258 244.262 139.928 244.316 139.58 244.364C139.244 244.412 138.902 244.46 138.554 244.508C138.206 244.556 137.894 244.64 137.618 244.76C137.342 244.88 137.114 245.054 136.934 245.282C136.766 245.498 136.682 245.798 136.682 246.182C136.682 246.434 136.73 246.65 136.826 246.83C136.934 246.998 137.066 247.136 137.222 247.244C137.39 247.352 137.582 247.43 137.798 247.478C138.014 247.526 138.242 247.55 138.482 247.55ZM144.316 247.334H145.414C145.546 247.082 145.678 246.74 145.81 246.308C145.954 245.864 146.08 245.378 146.188 244.85C146.308 244.31 146.404 243.74 146.476 243.14C146.548 242.54 146.584 241.952 146.584 241.376V239.378H153.316V247.334H154.576V251.51H153.118V248.684H145.774V251.51H144.316V247.334ZM151.786 247.334V240.728H148.078V241.52C148.078 242.108 148.042 242.696 147.97 243.284C147.91 243.86 147.826 244.406 147.718 244.922C147.61 245.438 147.49 245.906 147.358 246.326C147.238 246.746 147.118 247.082 146.998 247.334H151.786ZM160.208 248.882C159.464 248.882 158.81 248.762 158.246 248.522C157.694 248.27 157.226 247.928 156.842 247.496C156.458 247.052 156.17 246.536 155.978 245.948C155.786 245.36 155.69 244.724 155.69 244.04C155.69 243.356 155.786 242.72 155.978 242.132C156.17 241.532 156.458 241.016 156.842 240.584C157.226 240.14 157.694 239.792 158.246 239.54C158.81 239.288 159.464 239.162 160.208 239.162C160.94 239.162 161.588 239.288 162.152 239.54C162.716 239.792 163.19 240.14 163.574 240.584C163.958 241.016 164.246 241.532 164.438 242.132C164.63 242.72 164.726 243.356 164.726 244.04C164.726 244.724 164.63 245.36 164.438 245.948C164.246 246.536 163.958 247.052 163.574 247.496C163.19 247.928 162.716 248.27 162.152 248.522C161.588 248.762 160.94 248.882 160.208 248.882ZM160.208 247.55C160.604 247.55 160.976 247.472 161.324 247.316C161.684 247.16 161.996 246.938 162.26 246.65C162.524 246.35 162.728 245.984 162.872 245.552C163.028 245.108 163.106 244.604 163.106 244.04C163.106 243.476 163.028 242.978 162.872 242.546C162.728 242.102 162.524 241.73 162.26 241.43C161.996 241.13 161.684 240.902 161.324 240.746C160.976 240.59 160.604 240.512 160.208 240.512C159.812 240.512 159.434 240.59 159.074 240.746C158.726 240.902 158.42 241.13 158.156 241.43C157.892 241.73 157.682 242.102 157.526 242.546C157.382 242.978 157.31 243.476 157.31 244.04C157.31 244.604 157.382 245.108 157.526 245.552C157.682 245.984 157.892 246.35 158.156 246.65C158.42 246.938 158.726 247.16 159.074 247.316C159.434 247.472 159.812 247.55 160.208 247.55ZM166.71 239.378H171.012C171.42 239.378 171.81 239.408 172.182 239.468C172.566 239.528 172.908 239.642 173.208 239.81C173.508 239.966 173.748 240.194 173.928 240.494C174.108 240.794 174.198 241.178 174.198 241.646C174.198 242.15 174.078 242.558 173.838 242.87C173.598 243.182 173.262 243.44 172.83 243.644V243.662C173.37 243.77 173.796 244.022 174.108 244.418C174.432 244.814 174.594 245.324 174.594 245.948C174.594 246.344 174.522 246.71 174.378 247.046C174.246 247.382 174.054 247.67 173.802 247.91C173.55 248.15 173.25 248.342 172.902 248.486C172.554 248.618 172.176 248.684 171.768 248.684H166.71V239.378ZM171.48 247.388C171.984 247.388 172.362 247.244 172.614 246.956C172.878 246.656 173.01 246.284 173.01 245.84C173.01 245.42 172.872 245.084 172.596 244.832C172.32 244.58 171.858 244.454 171.21 244.454H168.222V247.388H171.48ZM170.85 243.194C171.51 243.194 171.966 243.074 172.218 242.834C172.482 242.594 172.614 242.276 172.614 241.88C172.614 241.496 172.488 241.202 172.236 240.998C171.984 240.782 171.522 240.674 170.85 240.674H168.222V243.194H170.85ZM179.185 248.882C178.765 248.882 178.369 248.834 177.997 248.738C177.625 248.654 177.295 248.51 177.007 248.306C176.731 248.09 176.509 247.82 176.341 247.496C176.185 247.16 176.107 246.758 176.107 246.29C176.107 245.762 176.197 245.33 176.377 244.994C176.557 244.658 176.791 244.388 177.079 244.184C177.379 243.968 177.715 243.806 178.087 243.698C178.471 243.59 178.861 243.5 179.257 243.428C179.677 243.344 180.073 243.284 180.445 243.248C180.829 243.2 181.165 243.14 181.453 243.068C181.741 242.984 181.969 242.87 182.137 242.726C182.305 242.57 182.389 242.348 182.389 242.06C182.389 241.724 182.323 241.454 182.191 241.25C182.071 241.046 181.909 240.89 181.705 240.782C181.513 240.674 181.291 240.602 181.039 240.566C180.799 240.53 180.559 240.512 180.319 240.512C179.671 240.512 179.131 240.638 178.699 240.89C178.267 241.13 178.033 241.592 177.997 242.276H176.467C176.491 241.7 176.611 241.214 176.827 240.818C177.043 240.422 177.331 240.104 177.691 239.864C178.051 239.612 178.459 239.432 178.915 239.324C179.383 239.216 179.881 239.162 180.409 239.162C180.829 239.162 181.243 239.192 181.651 239.252C182.071 239.312 182.449 239.438 182.785 239.63C183.121 239.81 183.391 240.068 183.595 240.404C183.799 240.74 183.901 241.178 183.901 241.718V246.506C183.901 246.866 183.919 247.13 183.955 247.298C184.003 247.466 184.147 247.55 184.387 247.55C184.495 247.55 184.651 247.52 184.855 247.46V248.648C184.591 248.804 184.225 248.882 183.757 248.882C183.361 248.882 183.043 248.774 182.803 248.558C182.575 248.33 182.461 247.964 182.461 247.46C182.041 247.964 181.549 248.33 180.985 248.558C180.433 248.774 179.833 248.882 179.185 248.882ZM179.527 247.55C180.031 247.55 180.463 247.484 180.823 247.352C181.183 247.208 181.477 247.034 181.705 246.83C181.933 246.614 182.101 246.386 182.209 246.146C182.317 245.894 182.371 245.66 182.371 245.444V243.878C182.179 244.034 181.927 244.142 181.615 244.202C181.303 244.262 180.973 244.316 180.625 244.364C180.289 244.412 179.947 244.46 179.599 244.508C179.251 244.556 178.939 244.64 178.663 244.76C178.387 244.88 178.159 245.054 177.979 245.282C177.811 245.498 177.727 245.798 177.727 246.182C177.727 246.434 177.775 246.65 177.871 246.83C177.979 246.998 178.111 247.136 178.267 247.244C178.435 247.352 178.627 247.43 178.843 247.478C179.059 247.526 179.287 247.55 179.527 247.55ZM188.421 245.048C187.761 244.952 187.221 244.652 186.801 244.148C186.381 243.644 186.171 243.008 186.171 242.24C186.171 241.364 186.429 240.668 186.945 240.152C187.473 239.636 188.187 239.378 189.087 239.378H193.803V248.684H192.273V245.102H190.239L187.395 248.684H185.361L188.421 245.048ZM192.273 243.788V240.728H189.573C188.925 240.728 188.457 240.866 188.169 241.142C187.881 241.418 187.737 241.79 187.737 242.258C187.737 242.738 187.881 243.116 188.169 243.392C188.457 243.656 188.925 243.788 189.573 243.788H192.273ZM202.433 252.392C202.253 252.392 202.073 252.38 201.893 252.356C201.713 252.332 201.539 252.29 201.371 252.23V250.826C201.515 250.874 201.659 250.922 201.803 250.97C201.959 251.018 202.115 251.042 202.271 251.042C202.583 251.042 202.835 250.97 203.027 250.826C203.219 250.682 203.387 250.472 203.531 250.196L204.161 248.63L200.471 239.378H202.199L204.917 246.992H204.953L207.563 239.378H209.183L205.133 249.908C204.953 250.364 204.773 250.748 204.593 251.06C204.425 251.372 204.233 251.624 204.017 251.816C203.813 252.02 203.579 252.164 203.315 252.248C203.063 252.344 202.769 252.392 202.433 252.392ZM210.587 248.792C210.431 248.792 210.269 248.774 210.101 248.738C209.933 248.714 209.795 248.69 209.687 248.666V247.316C209.807 247.352 209.915 247.376 210.011 247.388C210.119 247.4 210.221 247.406 210.317 247.406C210.713 247.406 211.013 247.25 211.217 246.938C211.433 246.626 211.589 246.146 211.685 245.498C211.793 244.85 211.859 244.022 211.883 243.014C211.907 241.994 211.931 240.782 211.955 239.378H218.489V248.684H216.959V240.728H213.431C213.395 241.82 213.353 242.858 213.305 243.842C213.269 244.814 213.167 245.666 212.999 246.398C212.831 247.13 212.561 247.712 212.189 248.144C211.817 248.576 211.283 248.792 210.587 248.792ZM221.323 246.686V248.684H223.321V246.686H221.323ZM226.513 246.686V248.684H227.575C227.587 248.828 227.575 248.984 227.539 249.152C227.515 249.32 227.461 249.482 227.377 249.638C227.293 249.806 227.179 249.956 227.035 250.088C226.903 250.232 226.735 250.34 226.531 250.412V251.312C227.227 251.108 227.731 250.76 228.043 250.268C228.355 249.776 228.511 249.188 228.511 248.504V246.686H226.513ZM243.859 237.488V236.138H237.559L236.371 242.762L237.685 242.834C237.985 242.474 238.327 242.186 238.711 241.97C239.107 241.742 239.557 241.628 240.061 241.628C240.493 241.628 240.883 241.7 241.231 241.844C241.591 241.988 241.897 242.192 242.149 242.456C242.401 242.708 242.593 243.014 242.725 243.374C242.869 243.722 242.941 244.106 242.941 244.526C242.941 245.03 242.869 245.474 242.725 245.858C242.581 246.23 242.383 246.542 242.131 246.794C241.891 247.046 241.603 247.238 241.267 247.37C240.943 247.49 240.601 247.55 240.241 247.55C239.857 247.55 239.503 247.496 239.179 247.388C238.867 247.268 238.591 247.106 238.351 246.902C238.123 246.686 237.937 246.44 237.793 246.164C237.661 245.876 237.583 245.57 237.559 245.246H236.029C236.041 245.822 236.155 246.338 236.371 246.794C236.587 247.25 236.881 247.634 237.253 247.946C237.625 248.246 238.051 248.48 238.531 248.648C239.023 248.804 239.545 248.882 240.097 248.882C240.841 248.882 241.489 248.768 242.041 248.54C242.605 248.3 243.073 247.982 243.445 247.586C243.817 247.19 244.093 246.74 244.273 246.236C244.465 245.72 244.561 245.192 244.561 244.652C244.561 243.92 244.453 243.284 244.237 242.744C244.021 242.192 243.727 241.736 243.355 241.376C242.983 241.004 242.545 240.728 242.041 240.548C241.537 240.368 241.003 240.278 240.439 240.278C240.007 240.278 239.569 240.356 239.125 240.512C238.693 240.656 238.339 240.884 238.063 241.196L238.027 241.16L238.711 237.488H243.859ZM250.584 248.882C249.876 248.882 249.246 248.768 248.694 248.54C248.154 248.312 247.698 247.988 247.326 247.568C246.966 247.148 246.69 246.65 246.498 246.074C246.318 245.498 246.228 244.856 246.228 244.148C246.228 243.452 246.318 242.804 246.498 242.204C246.678 241.592 246.948 241.064 247.308 240.62C247.68 240.164 248.136 239.81 248.676 239.558C249.228 239.294 249.876 239.162 250.62 239.162C251.148 239.162 251.64 239.228 252.096 239.36C252.564 239.48 252.972 239.672 253.32 239.936C253.68 240.2 253.974 240.536 254.202 240.944C254.43 241.34 254.574 241.814 254.634 242.366H253.05C252.93 241.778 252.678 241.322 252.294 240.998C251.91 240.674 251.394 240.512 250.746 240.512C250.194 240.512 249.732 240.614 249.36 240.818C248.988 241.022 248.688 241.292 248.46 241.628C248.244 241.964 248.088 242.354 247.992 242.798C247.896 243.23 247.848 243.68 247.848 244.148C247.848 244.58 247.896 245 247.992 245.408C248.1 245.816 248.262 246.182 248.478 246.506C248.694 246.818 248.97 247.07 249.306 247.262C249.654 247.454 250.074 247.55 250.566 247.55C251.322 247.55 251.91 247.352 252.33 246.956C252.762 246.56 253.026 246.002 253.122 245.282H254.688C254.52 246.446 254.094 247.34 253.41 247.964C252.726 248.576 251.784 248.882 250.584 248.882ZM256.22 240.44H257.75C257.738 240.056 257.774 239.678 257.858 239.306C257.954 238.922 258.104 238.58 258.308 238.28C258.512 237.98 258.77 237.74 259.082 237.56C259.406 237.368 259.79 237.272 260.234 237.272C260.57 237.272 260.888 237.326 261.188 237.434C261.488 237.542 261.746 237.698 261.962 237.902C262.19 238.106 262.37 238.352 262.502 238.64C262.634 238.916 262.7 239.228 262.7 239.576C262.7 240.02 262.628 240.41 262.484 240.746C262.352 241.082 262.148 241.394 261.872 241.682C261.608 241.97 261.272 242.258 260.864 242.546C260.456 242.822 259.982 243.128 259.442 243.464C258.998 243.728 258.572 244.01 258.164 244.31C257.756 244.61 257.39 244.958 257.066 245.354C256.742 245.75 256.472 246.218 256.256 246.758C256.052 247.286 255.92 247.928 255.86 248.684H264.194V247.334H257.642C257.714 246.938 257.864 246.59 258.092 246.29C258.332 245.978 258.614 245.69 258.938 245.426C259.274 245.162 259.64 244.916 260.036 244.688C260.432 244.448 260.828 244.208 261.224 243.968C261.62 243.716 262.004 243.452 262.376 243.176C262.748 242.9 263.078 242.594 263.366 242.258C263.654 241.91 263.882 241.52 264.05 241.088C264.23 240.656 264.32 240.158 264.32 239.594C264.32 238.994 264.212 238.466 263.996 238.01C263.792 237.554 263.51 237.176 263.15 236.876C262.79 236.564 262.364 236.33 261.872 236.174C261.392 236.006 260.876 235.922 260.324 235.922C259.652 235.922 259.052 236.036 258.524 236.264C257.996 236.492 257.552 236.81 257.192 237.218C256.844 237.614 256.586 238.088 256.418 238.64C256.25 239.192 256.184 239.792 256.22 240.44Z" fill="#1F1F1F"/>
<path d="M164.5 43.8506L231 116.5M262.5 150L382.5 277.851" stroke="#DFDCE0" stroke-width="5" stroke-linecap="round"/>
<path d="M83.8359 429.346C88.7554 420.229 93.8642 411.228 99.1572 402.351M206.212 263.887C175.457 295.074 147.504 329.031 122.761 365.351M247.606 225.052C273.526 202.564 301.056 181.883 330 163.205" stroke="#DFDCE0" stroke-width="5" stroke-linecap="round"/>
<path d="M183.916 330.384L213.056 308.278C214.951 306.84 217.645 307.163 219.146 309.009L251.313 348.559C252.916 350.53 252.528 353.443 250.465 354.926L218.188 378.125C216.205 379.55 213.442 379.094 212.023 377.107L182.992 336.464C181.604 334.521 182.014 331.827 183.916 330.384Z" fill="#DFDCE0"/>
<path d="M235.706 67.6461C152.355 80.6462 73.0526 112.45 4.00065 160.164" stroke="#DFDCE0" stroke-width="5" stroke-linecap="round"/>
<path d="M193.501 159.651C187.315 159.651 182.301 164.665 182.301 170.851C182.301 176.491 186.476 181.144 191.901 181.923V196.451C191.898 196.663 191.937 196.873 192.016 197.07C192.095 197.267 192.212 197.446 192.361 197.597C192.51 197.748 192.688 197.868 192.883 197.949C193.079 198.031 193.289 198.073 193.501 198.073C193.713 198.073 193.923 198.031 194.118 197.949C194.314 197.868 194.491 197.748 194.64 197.597C194.789 197.446 194.906 197.267 194.986 197.07C195.065 196.873 195.104 196.663 195.101 196.451V181.923C200.526 181.144 204.701 176.491 204.701 170.851C204.701 164.665 199.686 159.651 193.501 159.651ZM193.501 162.851C195.49 162.851 197.101 163.926 197.101 165.251C197.101 166.575 195.49 167.651 193.501 167.651C191.512 167.651 189.901 166.575 189.901 165.251C189.901 163.926 191.512 162.851 193.501 162.851Z" fill="#0D0D0D"/>
</svg>
