<svg width="18" height="18" viewBox="0 0 18 18" fill="none" xmlns="http://www.w3.org/2000/svg">
<path d="M9.3431 0.666748C4.75477 0.666748 1.01957 4.39873 1.0179 8.98706C1.01707 10.4537 1.40122 11.8856 2.12956 13.1472L1 17.3334L5.36035 16.3031C6.57619 16.9665 7.94488 17.3147 9.33822 17.3155H9.34147C13.929 17.3155 17.6625 13.5827 17.665 8.9952C17.6667 6.77103 16.8018 4.67986 15.2301 3.10653C13.6585 1.53403 11.5698 0.667581 9.3431 0.666748ZM9.34147 2.33341C11.1215 2.33425 12.7943 3.02825 14.0518 4.28491C15.3093 5.54325 16 7.21524 15.9984 8.99357C15.9967 12.6636 13.0115 15.6488 9.33984 15.6488C8.22901 15.648 7.12867 15.3691 6.15951 14.8399L5.59798 14.5339L4.97786 14.6804L3.33724 15.0678L3.73763 13.5802L3.91829 12.9128L3.57324 12.3139C2.99158 11.3072 2.68374 10.1562 2.68457 8.98706C2.68624 5.31873 5.6723 2.33341 9.34147 2.33341ZM6.39714 5.14591C6.25797 5.14591 6.03296 5.198 5.84212 5.40633C5.65129 5.61383 5.11296 6.1164 5.11296 7.13973C5.11296 8.16306 5.8584 9.15226 5.96257 9.29142C6.0659 9.42976 7.40146 11.5961 9.51562 12.4294C11.2723 13.1219 11.6291 12.9853 12.0107 12.9503C12.3924 12.9161 13.242 12.4482 13.4154 11.9623C13.5887 11.4765 13.5891 11.0586 13.5374 10.9727C13.4858 10.8861 13.347 10.8344 13.1387 10.7302C12.9312 10.6261 11.9086 10.1239 11.7178 10.0548C11.5269 9.9856 11.3874 9.9506 11.249 10.1589C11.1107 10.3673 10.7131 10.8344 10.5915 10.9727C10.4698 11.1119 10.349 11.1306 10.1406 11.0264C9.93229 10.9214 9.26245 10.7013 8.46745 9.99292C7.84911 9.44209 7.43189 8.76245 7.31022 8.55412C7.18939 8.34662 7.29883 8.23265 7.403 8.12931C7.49633 8.03598 7.6097 7.8864 7.71387 7.76473C7.8172 7.64306 7.85303 7.55638 7.9222 7.41805C7.99137 7.27972 7.95596 7.15763 7.9043 7.05347C7.85263 6.9493 7.44802 5.92216 7.26302 5.5105C7.10719 5.16466 6.9426 5.15663 6.79427 5.1508C6.67344 5.1458 6.53547 5.14591 6.39714 5.14591Z" fill="#1F1F1F" stroke="#F1F1F1" stroke-width="0.2"/>
</svg>
