<?xml version="1.0" encoding="UTF-8"?>
<svg width="92px" height="92px" viewBox="0 0 92 92" version="1.1" xmlns="http://www.w3.org/2000/svg" xmlns:xlink="http://www.w3.org/1999/xlink">
    <!-- Generator: Sketch 53.2 (72643) - https://sketchapp.com -->
    <title>Group 7</title>
    <desc>Created with Sketch.</desc>
    <defs>
        <polygon id="path-1" points="0 0.949 30 0.949 30 42 0 42"></polygon>
    </defs>
    <g id="mobile" stroke="none" stroke-width="1" fill="none" fill-rule="evenodd">
        <g id="Piterra/mobile/product-card/salon-Copy" transform="translate(-127.000000, -257.000000)">
            <g id="Group-7" transform="translate(128.000000, 258.000000)">
                <g id="Group-2" fill="#C7B799" opacity="0.115432518" stroke-dasharray="1">
                    <g id="Group-4">
                        <path d="M45,90 C69.8528137,90 90,69.8528137 90,45 C90,20.1471863 69.8528137,0 45,0 C20.1471863,0 0,20.1471863 0,45 C0,69.8528137 20.1471863,90 45,90 Z" id="Oval-41" stroke="#FFB823"></path>
                        <path d="M44.6590909,68.8636364 C58.0268922,68.8636364 68.8636364,58.0268922 68.8636364,44.6590909 C68.8636364,31.2912896 58.0268922,20.4545455 44.6590909,20.4545455 C31.2912896,20.4545455 20.4545455,31.2912896 20.4545455,44.6590909 C20.4545455,58.0268922 31.2912896,68.8636364 44.6590909,68.8636364 Z" id="Oval-41" stroke="#C7B799"></path>
                        <path d="M44.3181818,55.2272727 C49.9665486,55.2272727 54.5454545,50.6483668 54.5454545,45 C54.5454545,39.3516332 49.9665486,34.7727273 44.3181818,34.7727273 C38.6698151,34.7727273 34.0909091,39.3516332 34.0909091,45 C34.0909091,50.6483668 38.6698151,55.2272727 44.3181818,55.2272727 Z" id="Oval-37" stroke="#C7B799"></path>
                    </g>
                </g>
                <g id="Page-1" transform="translate(30.000000, 2.000000)">
                    <g id="Group-3" transform="translate(0.000000, 0.051100)">
                        <mask id="mask-2" fill="white">
                            <use xlink:href="#path-1"></use>
                        </mask>
                        <g id="Clip-2"></g>
                        <path d="M22.22,15.8605 C22.22,19.9865 18.861,23.3455 14.705,23.3455 C10.55,23.3455 7.22,20.0155 7.22,15.8895 C7.22,11.7645 10.579,8.4345 14.705,8.4345 C18.861,8.4045 22.22,11.7645 22.22,15.8605 M30,15.8605 C30,7.6385 23.281,0.9485 15,0.9485 C6.719,0.9485 0,7.6385 0,15.8605 C0,19.4855 1.296,22.8155 3.448,25.4085 L15,42.0005 L26.729,25.1735 C27.142,24.6425 27.525,24.0825 27.878,23.5225 L27.996,23.3455 L27.966,23.3455 C29.263,21.1355 30,18.6015 30,15.8605" id="Fill-1" fill="#C7B799" mask="url(#mask-2)"></path>
                    </g>
                    <path d="M14.72,23.3969 C18.838,23.3969 22.176,20.0589 22.176,15.9409 C22.176,11.8229 18.838,8.4849 14.72,8.4849 C10.602,8.4849 7.264,11.8229 7.264,15.9409 C7.264,20.0589 10.602,23.3969 14.72,23.3969" id="Fill-4" fill="#FFFFFF"></path>
                </g>
            </g>
        </g>
    </g>
</svg>
