<?xml version="1.0" encoding="UTF-8"?>
<svg width="30px" height="41px" viewBox="0 0 30 41" version="1.1" xmlns="http://www.w3.org/2000/svg" xmlns:xlink="http://www.w3.org/1999/xlink">
    <!-- Generator: Sketch 53.2 (72643) - https://sketchapp.com -->
    <title>Page 1</title>
    <desc>Created with Sketch.</desc>
    <defs>
        <polygon id="path-1" points="0 0.949 30 0.949 30 42 0 42"></polygon>
    </defs>
    <g id="mobile" stroke="none" stroke-width="1" fill="none" fill-rule="evenodd">
        <g id="Piterra/mobile/product-card/salon-Copy" transform="translate(-158.000000, -261.000000)">
            <g id="Group-7" transform="translate(128.000000, 258.000000)">
                <g id="Page-1" transform="translate(30.000000, 2.000000)">
                    <g id="Group-3" transform="translate(0.000000, 0.051100)">
                        <mask id="mask-2" fill="white">
                            <use xlink:href="#path-1"></use>
                        </mask>
                        <g id="Clip-2"></g>
                        <path d="M22.22,15.8605 C22.22,19.9865 18.861,23.3455 14.705,23.3455 C10.55,23.3455 7.22,20.0155 7.22,15.8895 C7.22,11.7645 10.579,8.4345 14.705,8.4345 C18.861,8.4045 22.22,11.7645 22.22,15.8605 M30,15.8605 C30,7.6385 23.281,0.9485 15,0.9485 C6.719,0.9485 0,7.6385 0,15.8605 C0,19.4855 1.296,22.8155 3.448,25.4085 L15,42.0005 L26.729,25.1735 C27.142,24.6425 27.525,24.0825 27.878,23.5225 L27.996,23.3455 L27.966,23.3455 C29.263,21.1355 30,18.6015 30,15.8605" id="Fill-1" fill="#C7B799" mask="url(#mask-2)"></path>
                    </g>
                    <path d="M14.72,23.3969 C18.838,23.3969 22.176,20.0589 22.176,15.9409 C22.176,11.8229 18.838,8.4849 14.72,8.4849 C10.602,8.4849 7.264,11.8229 7.264,15.9409 C7.264,20.0589 10.602,23.3969 14.72,23.3969" id="Fill-4" fill="#FFFFFF"></path>
                </g>
            </g>
        </g>
    </g>
</svg>