<svg xmlns="http://www.w3.org/2000/svg" xmlns:xlink="http://www.w3.org/1999/xlink" viewBox="0 0 60 60"><defs><path id="a" d="M30 0c16.6 0 30 13.4 30 30S46.6 60 30 60 0 46.6 0 30 13.4 0 30 0"/></defs><use xlink:href="#a" overflow="visible" fill-rule="evenodd" clip-rule="evenodd" fill="#cbcaca"/><clipPath id="b"><use xlink:href="#a" overflow="visible"/></clipPath><path d="M29.2 9.4c-.9.5-1.9.7-2.9.8-3.4.4-6.1 2.9-6.9 6.2-.6 2-.7 4.2-.3 6.3-1.2.6-1.3.8-1.1 2.2.1.8.3 1.6.4 2.4.2 1.5.4 1.7 1.9 1.9.3 1.8 1.1 3.6 2.4 5 1.2 1.1 1.6 2.7 1.2 4.3-.1 1-.7 1.8-1.6 2.2-3.1 1.3-6.1 2.7-9.2 4-1.8.7-3.4 1.7-4.8 3.1-1.1 1-1.8 2.5-1.9 4.1-.1 2.6-.1 5.1 0 7.7 0 1.3.8 2.4 2 2.8.8.3 1.6.5 2.4.5h39.7c2.1-.2 3.6-2 3.5-4v-6c.1-2.3-.9-4.4-2.8-5.7-1.5-1-3.1-1.9-4.7-2.6-2.9-1.4-5.8-2.6-8.7-3.9-.8-.3-1.4-1.1-1.4-2 0-.7-.1-1.4-.2-2.1-.1-.4.1-.8.4-1.1 1.5-1.4 2.6-3.2 3.2-5.2.1-.4.2-.7.2-1 1.4-.1 1.7-.4 1.9-1.7.1-.9.3-1.8.4-2.7.2-1.3 0-1.5-1.3-2 0-.2.1-.4.1-.6.1-1.5.1-3.1 0-4.6-.9-4.2-3.8-6.8-7.7-8.2-.6-.2-1.1-.3-1.7-.3-1.1-.4-1.8-.2-2.5.2" clip-path="url(#b)" fill-rule="evenodd" clip-rule="evenodd" fill="#fff"/></svg>
