<svg xmlns="http://www.w3.org/2000/svg" xmlns:xlink="http://www.w3.org/1999/xlink"><symbol id="arrow-1" viewBox="0 0 20 11"><path d="M14.602.047l-1.079 1.031 3.293 3.434H0v1.5h16.787l-3.264 3.41 1.079 1.031L19.6 5.25 14.602.047z"/></symbol><symbol id="arrow-2" viewBox="0 0 25 25"><path d="M21.632.968a1.25 1.25 0 011.767 1.768L10.607 15.53a1.25 1.25 0 01-1.768-1.768L21.632.968z" fill="#F1F1F1"/><rect x="11.051" width="13.262" height="2.5" rx="1.25" fill="#F1F1F1"/><rect x="21.816" y="13.262" width="13.262" height="2.5" rx="1.25" transform="rotate(-90 21.816 13.262)" fill="#F1F1F1"/><path d="M2.685 23.446a1.25 1.25 0 01-1.768-1.768L13.71 8.884a1.25 1.25 0 011.768 1.768L2.685 23.446z" fill="#F1F1F1"/><rect x="13.266" y="24.413" width="13.262" height="2.5" rx="1.25" transform="rotate(-180 13.266 24.413)" fill="#F1F1F1"/><rect x="2.5" y="11.151" width="13.262" height="2.5" rx="1.25" transform="rotate(90 2.5 11.151)" fill="#F1F1F1"/></symbol><symbol id="arrow-prev" viewBox="0 0 20 11"><path d="M5.398.047l1.079 1.031-3.293 3.434H20v1.5H3.213l3.264 3.41-1.079 1.031L.4 5.25 5.398.047z" fill="#0E0E0E"/></symbol><symbol id="cross" viewBox="0 0 43 44"><rect x="9.898" y="12.101" width="3" height="30" rx="1.5" transform="rotate(-45 9.898 12.1)" fill="#000"/><rect x="11.313" y="33.314" width="3" height="30" rx="1.5" transform="rotate(-135 11.313 33.314)" fill="#000"/></symbol><symbol id="german" viewBox="0 0 18 12"><path d="M17.066 7.727h-17v3.864h17V7.727z" fill="#FFC107"/><path d="M17.066 3.864h-17v3.863h17V3.864z" fill="#FF3D00"/><path d="M17.066 0h-17v3.864h17V0z" fill="#455A64"/></symbol><symbol id="hand" viewBox="0 0 68 68"><circle cx="34" cy="34" r="34" fill="#000"/><path fill="#fff" d="M27 20h3v17h-3zm6-2h3v17h-3zm7 4h3v17h-3z"/><path d="M21.501 26v14c-.166 3 3.723 10.974 12.999 8.5 7.5-2 13-5.5 17-7.5" stroke="#fff" stroke-width="3"/></symbol><symbol id="logo" viewBox="0 0 104 105"><path d="M52.07 104.141C23.36 104.141 0 80.782 0 52.071 0 23.358 23.359 0 52.07 0v7.5C27.495 7.5 7.5 27.494 7.5 52.07s19.995 44.57 44.57 44.57v7.501zM63.985 1.467L62.958 6.64l-.28-.054-.006-.025L60.814.838 58.927.464l-1.474 7.421 1.344.267 1.028-5.174.279.056.008.024L61.97 8.78l1.887.376 1.473-7.423-1.344-.267zm4.689 9.45l2.73-7.056-1.408-.545-2.73 7.058 1.408.543zm11.667-2.429l-2.718 4.52-.243-.146v-.025l.191-6.015-1.649-.991-3.899 6.485 1.172.705 2.72-4.52.243.146v.026l-.191 6.015 1.648.99 3.9-6.483-1.174-.707zm8.36 8.63l.914-.976-4.068-3.808-5.172 5.522 4.154 3.89.913-.976-3.05-2.857 1.29-1.381 2.308 2.163.893-.953-2.308-2.161 1.158-1.24.033.03 2.935 2.747zm7.421 9.66c.143-.28.228-.579.246-.896a2.887 2.887 0 00-.118-.996 4.063 4.063 0 00-.487-1.04 3.797 3.797 0 00-.81-.925 2.735 2.735 0 00-.89-.488 2.022 2.022 0 00-.897-.074 2.16 2.16 0 00-.832.319c-.474.305-.77.693-.88 1.151-.11.46-.042.991.202 1.577l.573 1.364c.127.306.184.582.167.82-.017.246-.16.455-.424.625a.848.848 0 01-.85.064c-.288-.127-.55-.375-.782-.736a3.326 3.326 0 01-.281-.536 1.72 1.72 0 01-.128-.546 1.253 1.253 0 01.076-.524c.06-.16.167-.314.317-.455l-.834-1.298c-.558.462-.876 1.043-.943 1.727-.069.705.159 1.469.678 2.273.279.433.579.778.894 1.028.314.248.634.42.95.512.317.09.63.112.934.062.303-.052.591-.164.855-.333.282-.183.505-.386.661-.607.156-.22.259-.456.307-.701.049-.248.052-.509.009-.774a3.843 3.843 0 00-.236-.826l-.555-1.339a2.12 2.12 0 01-.167-.713c-.007-.231.101-.422.325-.567a.784.784 0 01.407-.133h.017a.85.85 0 01.378.09c.122.06.241.148.356.256.113.11.218.24.313.387.218.339.336.651.346.923.008.267-.093.517-.303.746l.836 1.298c.242-.208.432-.45.57-.715zm2.648 5.932l.016.041 1.455 3.747 1.246-.484-2.015-5.195-7.054 2.739 2.06 5.305 1.246-.483-1.514-3.898 1.762-.684.015.04 1.13 2.908 1.218-.474-1.146-2.947 1.582-.615zm5.04 14.426l-.214-1.353-5.21.823-.045-.28.02-.016 4.73-3.721-.302-1.9-7.473 1.183.214 1.353 5.21-.824.045.28-4.748 3.736.3 1.9 7.473-1.181zm-.521 9.829a2.91 2.91 0 00.488-.876c.12-.34.193-.718.217-1.125a3.829 3.829 0 00-.114-1.227 2.746 2.746 0 00-.434-.917 2.006 2.006 0 00-1.543-.817c-.563-.028-1.029.108-1.387.415-.36.309-.617.778-.762 1.395l-.34 1.44c-.075.323-.19.58-.346.762-.157.188-.396.28-.708.257a.848.848 0 01-.728-.448c-.156-.27-.224-.626-.2-1.055.013-.207.04-.408.088-.6a1.69 1.69 0 01.218-.515 1.21 1.21 0 01.37-.38c.143-.094.319-.156.524-.182l.086-1.54c-.724.044-1.322.328-1.778.844-.468.529-.733 1.282-.786 2.239-.03.512.012.968.12 1.354.109.386.267.714.47.972.2.26.444.46.718.598.276.138.574.218.887.235.337.02.635-.016.891-.102a1.84 1.84 0 00.662-.388c.183-.17.338-.38.462-.622.121-.241.221-.514.293-.806l.336-1.41a2.1 2.1 0 01.285-.674c.12-.18.301-.27.541-.27l.055.001a.794.794 0 01.407.13.828.828 0 01.265.306c.064.12.11.26.14.417.026.157.036.324.026.495-.023.405-.111.725-.264.953-.148.22-.378.364-.683.424l-.086 1.542c.317-.027.615-.11.883-.244.281-.142.525-.338.727-.581zm-7.702 3.898l-1.446 5.503 1.292.34 1.064-4.043 1.827.48-.804 3.06 1.262.33.805-3.057 1.641.431-1.034 3.93 1.294.34 1.417-5.39-7.318-1.924zm.277 18.19c.308-.129.598-.32.863-.565.266-.246.504-.558.709-.927.277-.5.443-.998.496-1.484a3.11 3.11 0 00-.152-1.384 3.578 3.578 0 00-.74-1.217 4.995 4.995 0 00-1.276-.988 4.916 4.916 0 00-1.512-.558 3.575 3.575 0 00-1.427.014 3.12 3.12 0 00-1.25.6c-.382.298-.72.705-.999 1.21a3.71 3.71 0 00-.424 1.146 2.958 2.958 0 00-.002 1.08c.064.345.195.67.386.969.181.282.416.54.697.763l.763-1.377a1.45 1.45 0 01-.482-.867c-.052-.338.026-.696.232-1.067a1.97 1.97 0 01.62-.701c.246-.16.514-.26.8-.298.287-.036.59-.016.902.064a3.9 3.9 0 01.943.38 4 4 0 01.822.599c.23.224.408.47.529.732.12.262.18.543.17.834a1.954 1.954 0 01-.265.9c-.38.684-.901.965-1.544.836l-.769 1.387c.314.1.633.14.946.133.331-.012.655-.084.964-.214zm-11.162 5.171l2.644-3.071.034.029 4.662 4.016.986-1.145-5.734-4.938-3.63 4.216 1.038.893zm1.463 7.004l-4.9-5.765-1.152.977 4.9 5.767 1.151-.979zm-11.88 1.947l5.196 3.032 1.656-.977-3.845-6.517-1.179.695 2.68 4.545-.244.144-.023-.013-5.196-3.032-1.658.977 3.845 6.517 1.18-.695-2.681-4.545.245-.144.024.013zm-3.292 7.3l-2.671-7.08-1.412.532 2.672 7.08 1.411-.532zm-11.397 2.571c.296.154.629.252.987.297.36.045.752.026 1.167-.055a3.944 3.944 0 001.455-.576c.403-.272.727-.61.96-1.007a3.57 3.57 0 00.453-1.351 4.99 4.99 0 00-.066-1.611 5 5 0 00-.544-1.517 3.589 3.589 0 00-.93-1.082 3.145 3.145 0 00-1.264-.57c-.476-.102-1.003-.096-1.569.015a3.754 3.754 0 00-1.15.412c-.328.19-.606.422-.828.694a2.722 2.722 0 00-.491.919 3.16 3.16 0 00-.138 1.025l1.546-.301c.015-.367.132-.68.351-.928.226-.256.552-.429.966-.51.343-.065.66-.058.939.024.279.083.529.224.74.42.213.196.392.442.534.73.14.288.246.612.315.967.069.353.093.694.07 1.013-.02.321-.094.616-.217.878-.122.26-.301.486-.529.668a1.943 1.943 0 01-.86.374c-.77.15-1.32-.065-1.634-.641l-1.558.305c.128.305.298.578.51.81.223.245.486.447.785.598z"/></symbol><symbol id="lupa" viewBox="0 0 26 26"><path d="M11.902 1C5.894 1 1 5.894 1 11.902c0 6.009 4.894 10.903 10.902 10.903 2.613 0 5.013-.928 6.893-2.468l4.328 4.328a1.09 1.09 0 101.542-1.542l-4.328-4.328a10.845 10.845 0 002.468-6.893C22.805 5.894 17.911 1 11.903 1zm0 2.18a8.705 8.705 0 018.723 8.723 8.705 8.705 0 01-8.723 8.722 8.705 8.705 0 01-8.721-8.723 8.706 8.706 0 018.721-8.721zm-.016 4.256a1.09 1.09 0 00-1.074 1.105v2.271h-2.27a1.089 1.089 0 00-.781 1.867 1.088 1.088 0 00.78.314h2.271v2.27a1.089 1.089 0 001.867.781 1.088 1.088 0 00.314-.78v-2.271h2.27a1.09 1.09 0 100-2.18h-2.27V8.54a1.09 1.09 0 00-1.107-1.105z" fill="#fff" stroke="#fff" stroke-width=".5"/></symbol><symbol id="map" viewBox="0 0 385 432"><path d="M301.444 112.619l-6.257-15.836-5.293 9.257-5.272-9.257-6.279 15.836H276.5v2.401h9.472v-2.401h-1.414l1.371-3.943 3.965 6.515 3.964-6.515 1.372 3.943h-1.415v2.401h9.472v-2.401h-1.843zm-209 248.068l-6.257-15.836-5.293 9.257-5.272-9.257-6.279 15.836H67.5v2.4h9.472v-2.4h-1.414l1.371-3.943 3.965 6.515 3.964-6.515 1.372 3.943h-1.415v2.4h9.472v-2.4h-1.843z" fill="#B6B0B8"/><path d="M239.849 126.242h2.34l4.05 10.8 4.068-10.8h2.34v12.852h-1.62v-10.692h-.036l-4.014 10.692h-1.458l-4.014-10.692h-.036v10.692h-1.62v-12.852zm18.146 13.05a4.74 4.74 0 01-1.188-.144 2.734 2.734 0 01-.99-.432 2.44 2.44 0 01-.666-.81c-.156-.336-.234-.738-.234-1.206 0-.528.09-.96.27-1.296a2.31 2.31 0 01.702-.81 3.27 3.27 0 011.008-.486 12.73 12.73 0 011.17-.27c.42-.084.816-.144 1.188-.18.384-.048.72-.108 1.008-.18.288-.084.516-.198.684-.342.168-.156.252-.378.252-.666 0-.336-.066-.606-.198-.81a1.215 1.215 0 00-.486-.468 1.892 1.892 0 00-.666-.216 4.847 4.847 0 00-.72-.054c-.648 0-1.188.126-1.62.378-.432.24-.666.702-.702 1.386h-1.53c.024-.576.144-1.062.36-1.458a2.65 2.65 0 01.864-.954 3.53 3.53 0 011.224-.54 6.63 6.63 0 011.494-.162c.42 0 .834.03 1.242.09.42.06.798.186 1.134.378.336.18.606.438.81.774.204.336.306.774.306 1.314v4.788c0 .36.018.624.054.792.048.168.192.252.432.252.108 0 .264-.03.468-.09v1.188c-.264.156-.63.234-1.098.234-.396 0-.714-.108-.954-.324-.228-.228-.342-.594-.342-1.098-.42.504-.912.87-1.476 1.098a4.897 4.897 0 01-1.8.324zm.342-1.332c.504 0 .936-.066 1.296-.198.36-.144.654-.318.882-.522.228-.216.396-.444.504-.684.108-.252.162-.486.162-.702v-1.566c-.192.156-.444.264-.756.324s-.642.114-.99.162l-1.026.144a3.56 3.56 0 00-.936.252 1.74 1.74 0 00-.684.522c-.168.216-.252.516-.252.9 0 .252.048.468.144.648.108.168.24.306.396.414.168.108.36.186.576.234.216.048.444.072.684.072zm8.894-2.502a2.508 2.508 0 01-1.62-.9c-.42-.504-.63-1.14-.63-1.908 0-.876.258-1.572.774-2.088.528-.516 1.242-.774 2.142-.774h4.716v9.306h-1.53v-3.582h-2.034l-2.844 3.582h-2.034l3.06-3.636zm3.852-1.26v-3.06h-2.7c-.648 0-1.116.138-1.404.414-.288.276-.432.648-.432 1.116 0 .48.144.858.432 1.134.288.264.756.396 1.404.396h2.7zm4.016-4.41h1.53v4.446l4.266-4.446h2.034l-4.122 4.032 4.608 5.274h-1.962l-3.888-4.428-.936.918v3.51h-1.53v-9.306zm13.669 9.504c-.744 0-1.398-.12-1.962-.36a4.169 4.169 0 01-1.404-1.026 4.449 4.449 0 01-.864-1.548 6.113 6.113 0 01-.288-1.908c0-.684.096-1.32.288-1.908.192-.6.48-1.116.864-1.548a4.06 4.06 0 011.404-1.044c.564-.252 1.218-.378 1.962-.378.732 0 1.38.126 1.944.378.564.252 1.038.6 1.422 1.044.384.432.672.948.864 1.548.192.588.288 1.224.288 1.908 0 .684-.096 1.32-.288 1.908a4.449 4.449 0 01-.864 1.548 4.125 4.125 0 01-1.422 1.026c-.564.24-1.212.36-1.944.36zm0-1.332c.396 0 .768-.078 1.116-.234.36-.156.672-.378.936-.666.264-.3.468-.666.612-1.098.156-.444.234-.948.234-1.512 0-.564-.078-1.062-.234-1.494a3.123 3.123 0 00-.612-1.116 2.623 2.623 0 00-.936-.684 2.697 2.697 0 00-1.116-.234c-.396 0-.774.078-1.134.234a2.668 2.668 0 00-.918.684c-.264.3-.474.672-.63 1.116-.144.432-.216.93-.216 1.494s.072 1.068.216 1.512c.156.432.366.798.63 1.098.264.288.57.51.918.666.36.156.738.234 1.134.234zm6.502-8.172h4.302c.408 0 .798.03 1.17.09.384.06.726.174 1.026.342.3.156.54.384.72.684.18.3.27.684.27 1.152 0 .504-.12.912-.36 1.224-.24.312-.576.57-1.008.774v.018c.54.108.966.36 1.278.756.324.396.486.906.486 1.53 0 .396-.072.762-.216 1.098a2.376 2.376 0 01-.576.864c-.252.24-.552.432-.9.576a3.172 3.172 0 01-1.134.198h-5.058v-9.306zm4.77 8.01c.504 0 .882-.144 1.134-.432.264-.3.396-.672.396-1.116 0-.42-.138-.756-.414-1.008-.276-.252-.738-.378-1.386-.378h-2.988v2.934h3.258zm-.63-4.194c.66 0 1.116-.12 1.368-.36.264-.24.396-.558.396-.954 0-.384-.126-.678-.378-.882-.252-.216-.714-.324-1.386-.324h-2.628v2.52h2.628zm9.613 5.688c-.708 0-1.338-.114-1.89-.342a3.746 3.746 0 01-1.368-.972 4.409 4.409 0 01-.828-1.494 6.44 6.44 0 01-.27-1.926c0-.696.09-1.344.27-1.944.18-.612.45-1.14.81-1.584.372-.456.828-.81 1.368-1.062.552-.264 1.2-.396 1.944-.396.528 0 1.02.066 1.476.198.468.12.876.312 1.224.576.36.264.654.6.882 1.008.228.396.372.87.432 1.422h-1.584c-.12-.588-.372-1.044-.756-1.368-.384-.324-.9-.486-1.548-.486-.552 0-1.014.102-1.386.306a2.55 2.55 0 00-.9.81 3.518 3.518 0 00-.468 1.17 6.206 6.206 0 00-.144 1.35c0 .432.048.852.144 1.26.108.408.27.774.486 1.098.216.312.492.564.828.756.348.192.768.288 1.26.288.756 0 1.344-.198 1.764-.594.432-.396.696-.954.792-1.674h1.566c-.168 1.164-.594 2.058-1.278 2.682-.684.612-1.626.918-2.826.918zm5.996-9.504h1.53v4.446l4.266-4.446h2.034l-4.122 4.032 4.608 5.274h-1.962l-3.888-4.428-.936.918v3.51h-1.53v-9.306zm12.228 9.504a4.74 4.74 0 01-1.188-.144 2.734 2.734 0 01-.99-.432 2.44 2.44 0 01-.666-.81c-.156-.336-.234-.738-.234-1.206 0-.528.09-.96.27-1.296a2.31 2.31 0 01.702-.81 3.27 3.27 0 011.008-.486 12.73 12.73 0 011.17-.27c.42-.084.816-.144 1.188-.18.384-.048.72-.108 1.008-.18.288-.084.516-.198.684-.342.168-.156.252-.378.252-.666 0-.336-.066-.606-.198-.81a1.215 1.215 0 00-.486-.468 1.892 1.892 0 00-.666-.216 4.847 4.847 0 00-.72-.054c-.648 0-1.188.126-1.62.378-.432.24-.666.702-.702 1.386h-1.53c.024-.576.144-1.062.36-1.458a2.65 2.65 0 01.864-.954 3.53 3.53 0 011.224-.54 6.63 6.63 0 011.494-.162c.42 0 .834.03 1.242.09.42.06.798.186 1.134.378.336.18.606.438.81.774.204.336.306.774.306 1.314v4.788c0 .36.018.624.054.792.048.168.192.252.432.252.108 0 .264-.03.468-.09v1.188c-.264.156-.63.234-1.098.234-.396 0-.714-.108-.954-.324-.228-.228-.342-.594-.342-1.098-.42.504-.912.87-1.476 1.098a4.897 4.897 0 01-1.8.324zm.342-1.332c.504 0 .936-.066 1.296-.198.36-.144.654-.318.882-.522.228-.216.396-.444.504-.684.108-.252.162-.486.162-.702v-1.566c-.192.156-.444.264-.756.324s-.642.114-.99.162l-1.026.144a3.56 3.56 0 00-.936.252 1.74 1.74 0 00-.684.522c-.168.216-.252.516-.252.9 0 .252.048.468.144.648.108.168.24.306.396.414.168.108.36.186.576.234.216.048.444.072.684.072zm8.894-2.502a2.508 2.508 0 01-1.62-.9c-.42-.504-.63-1.14-.63-1.908 0-.876.258-1.572.774-2.088.528-.516 1.242-.774 2.142-.774h4.716v9.306h-1.53v-3.582h-2.034l-2.844 3.582h-2.034l3.06-3.636zm3.852-1.26v-3.06h-2.7c-.648 0-1.116.138-1.404.414-.288.276-.432.648-.432 1.116 0 .48.144.858.432 1.134.288.264.756.396 1.404.396h2.7zM25.977 374.31h8.802v1.44h-7.092v3.78h4.284c1.272 0 2.244.33 2.916.99.684.66 1.026 1.608 1.026 2.844 0 1.224-.342 2.166-1.026 2.826-.672.648-1.644.972-2.916.972h-5.994V374.31zm5.436 11.412c1.872 0 2.808-.786 2.808-2.358 0-1.596-.936-2.394-2.808-2.394h-3.726v4.752h3.726zm9.213 1.638a4.74 4.74 0 01-1.188-.144 2.734 2.734 0 01-.99-.432 2.44 2.44 0 01-.666-.81c-.156-.336-.234-.738-.234-1.206 0-.528.09-.96.27-1.296a2.31 2.31 0 01.702-.81 3.27 3.27 0 011.008-.486 12.73 12.73 0 011.17-.27c.42-.084.816-.144 1.188-.18.384-.048.72-.108 1.008-.18.288-.084.516-.198.684-.342.168-.156.252-.378.252-.666 0-.336-.066-.606-.198-.81a1.213 1.213 0 00-.486-.468 1.89 1.89 0 00-.666-.216 4.845 4.845 0 00-.72-.054c-.648 0-1.188.126-1.62.378-.432.24-.666.702-.702 1.386h-1.53c.024-.576.144-1.062.36-1.458a2.65 2.65 0 01.864-.954 3.53 3.53 0 011.224-.54 6.63 6.63 0 011.494-.162c.42 0 .834.03 1.242.09.42.06.798.186 1.134.378.336.18.606.438.81.774.204.336.306.774.306 1.314v4.788c0 .36.018.624.054.792.048.168.192.252.432.252.108 0 .264-.03.468-.09v1.188c-.264.156-.63.234-1.098.234-.396 0-.714-.108-.954-.324-.228-.228-.342-.594-.342-1.098-.42.504-.912.87-1.476 1.098a4.897 4.897 0 01-1.8.324zm.342-1.332c.504 0 .936-.066 1.296-.198.36-.144.654-.318.882-.522.228-.216.396-.444.504-.684.108-.252.162-.486.162-.702v-1.566c-.192.156-.444.264-.756.324s-.642.114-.99.162l-1.026.144a3.56 3.56 0 00-.936.252 1.74 1.74 0 00-.684.522c-.168.216-.252.516-.252.9 0 .252.048.468.144.648.108.168.24.306.396.414.168.108.36.186.576.234.216.048.444.072.684.072zm6.986-8.172h1.53v1.26h.036A2.252 2.252 0 0150.708 378c.54-.24 1.134-.36 1.782-.36.72 0 1.344.132 1.872.396.54.264.984.624 1.332 1.08.36.444.63.96.81 1.548.18.588.27 1.212.27 1.872 0 .672-.09 1.302-.27 1.89a4.322 4.322 0 01-.792 1.53 3.675 3.675 0 01-1.332 1.026c-.528.252-1.146.378-1.854.378a4.532 4.532 0 01-1.602-.306 3.645 3.645 0 01-.792-.432 2.661 2.661 0 01-.612-.702h-.036v4.788h-1.53v-12.852zm4.41 8.172c.516 0 .954-.102 1.314-.306.36-.204.648-.474.864-.81.216-.336.372-.72.468-1.152.096-.432.144-.876.144-1.332 0-.432-.06-.852-.18-1.26a3.187 3.187 0 00-.522-1.116 2.457 2.457 0 00-.9-.774c-.36-.192-.786-.288-1.278-.288-.516 0-.954.102-1.314.306-.36.204-.654.474-.882.81a3.383 3.383 0 00-.504 1.116c-.096.42-.144.846-.144 1.278 0 .456.054.9.162 1.332.108.42.276.792.504 1.116a2.8 2.8 0 00.918.792c.372.192.822.288 1.35.288zm6.44-8.172h1.53v1.26h.036A2.252 2.252 0 0161.558 378c.54-.24 1.134-.36 1.782-.36.72 0 1.344.132 1.872.396.54.264.984.624 1.332 1.08.36.444.63.96.81 1.548.18.588.27 1.212.27 1.872 0 .672-.09 1.302-.27 1.89a4.322 4.322 0 01-.792 1.53 3.675 3.675 0 01-1.332 1.026c-.528.252-1.146.378-1.854.378a4.532 4.532 0 01-1.602-.306 3.645 3.645 0 01-.792-.432 2.661 2.661 0 01-.612-.702h-.036v4.788h-1.53v-12.852zm4.41 8.172c.516 0 .954-.102 1.314-.306.36-.204.648-.474.864-.81.216-.336.372-.72.468-1.152.096-.432.144-.876.144-1.332 0-.432-.06-.852-.18-1.26a3.187 3.187 0 00-.522-1.116 2.457 2.457 0 00-.9-.774c-.36-.192-.786-.288-1.278-.288-.516 0-.954.102-1.314.306-.36.204-.654.474-.882.81a3.383 3.383 0 00-.504 1.116c-.096.42-.144.846-.144 1.278 0 .456.054.9.162 1.332.108.42.276.792.504 1.116a2.8 2.8 0 00.918.792c.372.192.822.288 1.35.288zm6.386-8.172h1.53v7.596l4.392-7.596h1.962v9.306h-1.53v-7.596l-4.392 7.596H69.6v-9.306zm10.375 0h1.53v4.446l4.266-4.446h2.034l-4.122 4.032 4.608 5.274h-1.962l-3.888-4.428-.936.918v3.51h-1.53v-9.306zm12.229 9.504a4.74 4.74 0 01-1.188-.144 2.734 2.734 0 01-.99-.432 2.44 2.44 0 01-.666-.81c-.156-.336-.234-.738-.234-1.206 0-.528.09-.96.27-1.296a2.31 2.31 0 01.701-.81 3.27 3.27 0 011.009-.486 12.73 12.73 0 011.17-.27c.42-.084.816-.144 1.188-.18.383-.048.72-.108 1.008-.18.288-.084.516-.198.684-.342.167-.156.251-.378.251-.666 0-.336-.066-.606-.197-.81a1.215 1.215 0 00-.486-.468 1.892 1.892 0 00-.666-.216 4.847 4.847 0 00-.72-.054c-.648 0-1.188.126-1.62.378-.433.24-.666.702-.703 1.386h-1.53c.025-.576.144-1.062.36-1.458a2.65 2.65 0 01.865-.954 3.53 3.53 0 011.224-.54 6.63 6.63 0 011.493-.162c.42 0 .834.03 1.242.09.42.06.799.186 1.135.378.335.18.605.438.81.774.203.336.305.774.305 1.314v4.788c0 .36.019.624.055.792.047.168.191.252.431.252.108 0 .264-.03.469-.09v1.188c-.264.156-.63.234-1.099.234-.396 0-.714-.108-.954-.324-.227-.228-.341-.594-.341-1.098-.42.504-.913.87-1.477 1.098a4.897 4.897 0 01-1.8.324zm.342-1.332c.503 0 .935-.066 1.295-.198.36-.144.655-.318.883-.522.227-.216.395-.444.504-.684.108-.252.162-.486.162-.702v-1.566c-.192.156-.445.264-.757.324-.311.06-.641.114-.99.162l-1.025.144a3.56 3.56 0 00-.936.252 1.74 1.74 0 00-.684.522c-.169.216-.252.516-.252.9 0 .252.047.468.144.648.108.168.24.306.395.414.169.108.36.186.577.234.216.048.444.072.684.072zm5.833-.216h1.099c.132-.252.264-.594.396-1.026.143-.444.269-.93.377-1.458.12-.54.216-1.11.288-1.71a14.8 14.8 0 00.108-1.764v-1.998h6.732v7.956h1.26v4.176h-1.458v-2.826h-7.343v2.826h-1.459v-4.176zm7.47 0v-6.606h-3.708v.792a14.5 14.5 0 01-.108 1.764c-.06.576-.144 1.122-.252 1.638-.108.516-.228.984-.36 1.404-.12.42-.24.756-.36 1.008h4.788zm4.408-7.956h1.53v3.708h4.716v-3.708h1.53v9.306h-1.53v-4.284h-4.716v4.284h-1.53v-9.306zm12.826 9.504a4.74 4.74 0 01-1.188-.144 2.734 2.734 0 01-.99-.432 2.44 2.44 0 01-.666-.81c-.156-.336-.234-.738-.234-1.206 0-.528.09-.96.27-1.296a2.31 2.31 0 01.702-.81 3.27 3.27 0 011.008-.486 12.73 12.73 0 011.17-.27c.42-.084.816-.144 1.188-.18.384-.048.72-.108 1.008-.18.288-.084.516-.198.684-.342.168-.156.252-.378.252-.666 0-.336-.066-.606-.198-.81a1.215 1.215 0 00-.486-.468 1.892 1.892 0 00-.666-.216 4.847 4.847 0 00-.72-.054c-.648 0-1.188.126-1.62.378-.432.24-.666.702-.702 1.386h-1.53c.024-.576.144-1.062.36-1.458a2.65 2.65 0 01.864-.954 3.53 3.53 0 011.224-.54 6.63 6.63 0 011.494-.162c.42 0 .834.03 1.242.09.42.06.798.186 1.134.378.336.18.606.438.81.774.204.336.306.774.306 1.314v4.788c0 .36.018.624.054.792.048.168.192.252.432.252.108 0 .264-.03.468-.09v1.188c-.264.156-.63.234-1.098.234-.396 0-.714-.108-.954-.324-.228-.228-.342-.594-.342-1.098-.42.504-.912.87-1.476 1.098a4.897 4.897 0 01-1.8.324zm.342-1.332c.504 0 .936-.066 1.296-.198.36-.144.654-.318.882-.522.228-.216.396-.444.504-.684.108-.252.162-.486.162-.702v-1.566c-.192.156-.444.264-.756.324s-.642.114-.99.162l-1.026.144a3.56 3.56 0 00-.936.252 1.74 1.74 0 00-.684.522c-.168.216-.252.516-.252.9 0 .252.048.468.144.648.108.168.24.306.396.414.168.108.36.186.576.234.216.048.444.072.684.072zm8.894-2.502a2.508 2.508 0 01-1.62-.9c-.42-.504-.63-1.14-.63-1.908 0-.876.258-1.572.774-2.088.528-.516 1.242-.774 2.142-.774h4.716v9.306h-1.53v-3.582h-2.034l-2.844 3.582h-2.034l3.06-3.636zm3.852-1.26v-3.06h-2.7c-.648 0-1.116.138-1.404.414-.288.276-.432.648-.432 1.116 0 .48.144.858.432 1.134.288.264.756.396 1.404.396h2.7zm117.733-74.267h10.008v12.852h-1.71v-11.412h-6.588v11.412h-1.71v-12.852zm15.316 13.05a4.74 4.74 0 01-1.188-.144 2.734 2.734 0 01-.99-.432 2.44 2.44 0 01-.666-.81c-.156-.336-.234-.738-.234-1.206 0-.528.09-.96.27-1.296a2.31 2.31 0 01.702-.81 3.27 3.27 0 011.008-.486 12.73 12.73 0 011.17-.27c.42-.084.816-.144 1.188-.18.384-.048.72-.108 1.008-.18.288-.084.516-.198.684-.342.168-.156.252-.378.252-.666 0-.336-.066-.606-.198-.81a1.215 1.215 0 00-.486-.468 1.892 1.892 0 00-.666-.216 4.847 4.847 0 00-.72-.054c-.648 0-1.188.126-1.62.378-.432.24-.666.702-.702 1.386h-1.53c.024-.576.144-1.062.36-1.458a2.65 2.65 0 01.864-.954 3.53 3.53 0 011.224-.54 6.63 6.63 0 011.494-.162c.42 0 .834.03 1.242.09.42.06.798.186 1.134.378.336.18.606.438.81.774.204.336.306.774.306 1.314v4.788c0 .36.018.624.054.792.048.168.192.252.432.252.108 0 .264-.03.468-.09v1.188c-.264.156-.63.234-1.098.234-.396 0-.714-.108-.954-.324-.228-.228-.342-.594-.342-1.098-.42.504-.912.87-1.476 1.098a4.897 4.897 0 01-1.8.324zm.342-1.332c.504 0 .936-.066 1.296-.198.36-.144.654-.318.882-.522.228-.216.396-.444.504-.684.108-.252.162-.486.162-.702v-1.566c-.192.156-.444.264-.756.324s-.642.114-.99.162l-1.026.144a3.56 3.56 0 00-.936.252 1.74 1.74 0 00-.684.522c-.168.216-.252.516-.252.9 0 .252.048.468.144.648.108.168.24.306.396.414.168.108.36.186.576.234.216.048.444.072.684.072zm9.182-6.822h-3.33v-1.35h8.19v1.35h-3.33v7.956h-1.53v-7.956zm6.316-1.35h1.53v1.26h.036a2.252 2.252 0 011.188-1.116c.54-.24 1.134-.36 1.782-.36.72 0 1.344.132 1.872.396.54.264.984.624 1.332 1.08.36.444.63.96.81 1.548.18.588.27 1.212.27 1.872 0 .672-.09 1.302-.27 1.89a4.322 4.322 0 01-.792 1.53 3.675 3.675 0 01-1.332 1.026c-.528.252-1.146.378-1.854.378a4.532 4.532 0 01-1.602-.306 3.645 3.645 0 01-.792-.432 2.661 2.661 0 01-.612-.702h-.036v4.788h-1.53v-12.852zm4.41 8.172c.516 0 .954-.102 1.314-.306.36-.204.648-.474.864-.81.216-.336.372-.72.468-1.152.096-.432.144-.876.144-1.332 0-.432-.06-.852-.18-1.26a3.187 3.187 0 00-.522-1.116 2.457 2.457 0 00-.9-.774c-.36-.192-.786-.288-1.278-.288-.516 0-.954.102-1.314.306-.36.204-.654.474-.882.81a3.383 3.383 0 00-.504 1.116c-.096.42-.144.846-.144 1.278 0 .456.054.9.162 1.332.108.42.276.792.504 1.116a2.8 2.8 0 00.918.792c.372.192.822.288 1.35.288zm6.386-8.172h1.53v7.596l4.392-7.596h1.962v9.306h-1.53v-7.596l-4.392 7.596h-1.962v-9.306zm10.376 0h1.53v4.446l4.266-4.446h2.034l-4.122 4.032 4.608 5.274h-1.962l-3.888-4.428-.936.918v3.51h-1.53v-9.306zm9.654 0h1.53v7.596l4.392-7.596h1.962v9.306h-1.53v-7.596l-4.392 7.596h-1.962v-9.306z" fill="#ABA3AD"/><path d="M153.91 209.832h8.802v1.44h-7.092v3.78h4.284c1.272 0 2.244.33 2.916.99.684.66 1.026 1.608 1.026 2.844 0 1.224-.342 2.166-1.026 2.826-.672.648-1.644.972-2.916.972h-5.994v-12.852zm5.436 11.412c1.872 0 2.808-.786 2.808-2.358 0-1.596-.936-2.394-2.808-2.394h-3.726v4.752h3.726zm10.653 1.638c-.744 0-1.398-.12-1.962-.36a4.169 4.169 0 01-1.404-1.026 4.449 4.449 0 01-.864-1.548 6.113 6.113 0 01-.288-1.908c0-.684.096-1.32.288-1.908.192-.6.48-1.116.864-1.548a4.06 4.06 0 011.404-1.044c.564-.252 1.218-.378 1.962-.378.732 0 1.38.126 1.944.378.564.252 1.038.6 1.422 1.044.384.432.672.948.864 1.548.192.588.288 1.224.288 1.908 0 .684-.096 1.32-.288 1.908a4.449 4.449 0 01-.864 1.548 4.125 4.125 0 01-1.422 1.026c-.564.24-1.212.36-1.944.36zm0-1.332c.396 0 .768-.078 1.116-.234.36-.156.672-.378.936-.666.264-.3.468-.666.612-1.098.156-.444.234-.948.234-1.512 0-.564-.078-1.062-.234-1.494a3.123 3.123 0 00-.612-1.116 2.623 2.623 0 00-.936-.684 2.697 2.697 0 00-1.116-.234c-.396 0-.774.078-1.134.234a2.668 2.668 0 00-.918.684c-.264.3-.474.672-.63 1.116-.144.432-.216.93-.216 1.494s.072 1.068.216 1.512c.156.432.366.798.63 1.098.264.288.57.51.918.666.36.156.738.234 1.134.234zm6.429 1.242c-.156 0-.318-.018-.486-.054a5.664 5.664 0 01-.414-.072v-1.35a2.01 2.01 0 00.63.09c.396 0 .696-.156.9-.468.216-.312.372-.792.468-1.44.108-.648.174-1.476.198-2.484.024-1.02.048-2.232.072-3.636h6.534v9.306h-1.53v-7.956h-3.528c-.036 1.092-.078 2.13-.126 3.114-.036.972-.138 1.824-.306 2.556-.168.732-.438 1.314-.81 1.746-.372.432-.906.648-1.602.648zm10.485-9.414h1.53v3.564h3.312c.912 0 1.644.252 2.196.756.552.492.828 1.188.828 2.088 0 .876-.264 1.578-.792 2.106-.528.528-1.248.792-2.16.792h-4.914v-9.306zm4.356 7.956c1.284 0 1.926-.516 1.926-1.548 0-1.02-.642-1.53-1.926-1.53h-2.826v3.078h2.826zm5.349-7.956h1.53v7.956h3.474v-7.956h1.53v7.956h3.474v-7.956h1.53v9.306h-11.538v-9.306zm16.588 9.504a4.74 4.74 0 01-1.188-.144 2.734 2.734 0 01-.99-.432 2.44 2.44 0 01-.666-.81c-.156-.336-.234-.738-.234-1.206 0-.528.09-.96.27-1.296a2.31 2.31 0 01.702-.81 3.27 3.27 0 011.008-.486 12.73 12.73 0 011.17-.27c.42-.084.816-.144 1.188-.18.384-.048.72-.108 1.008-.18.288-.084.516-.198.684-.342.168-.156.252-.378.252-.666 0-.336-.066-.606-.198-.81a1.215 1.215 0 00-.486-.468 1.892 1.892 0 00-.666-.216 4.847 4.847 0 00-.72-.054c-.648 0-1.188.126-1.62.378-.432.24-.666.702-.702 1.386h-1.53c.024-.576.144-1.062.36-1.458a2.65 2.65 0 01.864-.954 3.53 3.53 0 011.224-.54 6.63 6.63 0 011.494-.162c.42 0 .834.03 1.242.09.42.06.798.186 1.134.378.336.18.606.438.81.774.204.336.306.774.306 1.314v4.788c0 .36.018.624.054.792.048.168.192.252.432.252.108 0 .264-.03.468-.09v1.188c-.264.156-.63.234-1.098.234-.396 0-.714-.108-.954-.324-.228-.228-.342-.594-.342-1.098-.42.504-.912.87-1.476 1.098a4.897 4.897 0 01-1.8.324zm.342-1.332c.504 0 .936-.066 1.296-.198.36-.144.654-.318.882-.522.228-.216.396-.444.504-.684.108-.252.162-.486.162-.702v-1.566c-.192.156-.444.264-.756.324s-.642.114-.99.162l-1.026.144a3.56 3.56 0 00-.936.252 1.74 1.74 0 00-.684.522c-.168.216-.252.516-.252.9 0 .252.048.468.144.648.108.168.24.306.396.414.168.108.36.186.576.234.216.048.444.072.684.072zm8.894-2.502a2.508 2.508 0 01-1.62-.9c-.42-.504-.63-1.14-.63-1.908 0-.876.258-1.572.774-2.088.528-.516 1.242-.774 2.142-.774h4.716v9.306h-1.53v-3.582h-2.034l-2.844 3.582h-2.034l3.06-3.636zm3.852-1.26v-3.06h-2.7c-.648 0-1.116.138-1.404.414-.288.276-.432.648-.432 1.116 0 .48.144.858.432 1.134.288.264.756.396 1.404.396h2.7zm-98.336 31.184c-.996 0-1.866-.168-2.61-.504a5.216 5.216 0 01-1.854-1.422 6.187 6.187 0 01-1.116-2.124 9.273 9.273 0 01-.36-2.628c0-.936.132-1.812.396-2.628a6.429 6.429 0 011.152-2.16 5.427 5.427 0 011.908-1.44c.756-.36 1.632-.54 2.628-.54.672 0 1.308.09 1.908.27.6.18 1.134.444 1.602.792.468.348.858.786 1.17 1.314.312.516.516 1.116.612 1.8h-1.71c-.192-.912-.618-1.596-1.278-2.052-.648-.456-1.422-.684-2.322-.684-.768 0-1.428.144-1.98.432-.54.288-.99.678-1.35 1.17a5.011 5.011 0 00-.774 1.656 7.445 7.445 0 00-.252 1.944c0 .732.084 1.428.252 2.088.168.648.426 1.218.774 1.71.36.48.816.864 1.368 1.152.552.288 1.212.432 1.98.432.552 0 1.05-.09 1.494-.27.444-.192.822-.45 1.134-.774a3.59 3.59 0 00.756-1.188c.18-.456.288-.948.324-1.476h1.71c-.168 1.632-.726 2.898-1.674 3.798-.936.888-2.232 1.332-3.888 1.332zm10.182-.09a4.74 4.74 0 01-1.188-.144 2.734 2.734 0 01-.99-.432 2.44 2.44 0 01-.666-.81c-.156-.336-.234-.738-.234-1.206 0-.528.09-.96.27-1.296a2.31 2.31 0 01.702-.81 3.27 3.27 0 011.008-.486 12.73 12.73 0 011.17-.27c.42-.084.816-.144 1.188-.18.384-.048.72-.108 1.008-.18.288-.084.516-.198.684-.342.168-.156.252-.378.252-.666 0-.336-.066-.606-.198-.81a1.215 1.215 0 00-.486-.468 1.892 1.892 0 00-.666-.216 4.847 4.847 0 00-.72-.054c-.648 0-1.188.126-1.62.378-.432.24-.666.702-.702 1.386h-1.53c.024-.576.144-1.062.36-1.458a2.65 2.65 0 01.864-.954 3.53 3.53 0 011.224-.54 6.63 6.63 0 011.494-.162c.42 0 .834.03 1.242.09.42.06.798.186 1.134.378.336.18.606.438.81.774.204.336.306.774.306 1.314v4.788c0 .36.018.624.054.792.048.168.192.252.432.252.108 0 .264-.03.468-.09v1.188c-.264.156-.63.234-1.098.234-.396 0-.714-.108-.954-.324-.228-.228-.342-.594-.342-1.098-.42.504-.912.87-1.476 1.098a4.897 4.897 0 01-1.8.324zm.342-1.332c.504 0 .936-.066 1.296-.198.36-.144.654-.318.882-.522.228-.216.396-.444.504-.684.108-.252.162-.486.162-.702v-1.566c-.192.156-.444.264-.756.324s-.642.114-.99.162l-1.026.144a3.56 3.56 0 00-.936.252 1.74 1.74 0 00-.684.522c-.168.216-.252.516-.252.9 0 .252.048.468.144.648.108.168.24.306.396.414.168.108.36.186.576.234.216.048.444.072.684.072zm5.834-.216h1.098c.132-.252.264-.594.396-1.026.144-.444.27-.93.378-1.458.12-.54.216-1.11.288-1.71a14.8 14.8 0 00.108-1.764v-1.998h6.732v7.956h1.26v4.176h-1.458v-2.826h-7.344v2.826h-1.458v-4.176zm7.47 0v-6.606h-3.708v.792a14.5 14.5 0 01-.108 1.764c-.06.576-.144 1.122-.252 1.638-.108.516-.228.984-.36 1.404-.12.42-.24.756-.36 1.008h4.788zm8.422 1.548c-.744 0-1.398-.12-1.962-.36a4.169 4.169 0 01-1.404-1.026 4.449 4.449 0 01-.864-1.548 6.113 6.113 0 01-.288-1.908c0-.684.096-1.32.288-1.908.192-.6.48-1.116.864-1.548a4.06 4.06 0 011.404-1.044c.564-.252 1.218-.378 1.962-.378.732 0 1.38.126 1.944.378.564.252 1.038.6 1.422 1.044.384.432.672.948.864 1.548.192.588.288 1.224.288 1.908 0 .684-.096 1.32-.288 1.908a4.449 4.449 0 01-.864 1.548 4.125 4.125 0 01-1.422 1.026c-.564.24-1.212.36-1.944.36zm0-1.332c.396 0 .768-.078 1.116-.234.36-.156.672-.378.936-.666.264-.3.468-.666.612-1.098.156-.444.234-.948.234-1.512 0-.564-.078-1.062-.234-1.494a3.123 3.123 0 00-.612-1.116 2.623 2.623 0 00-.936-.684 2.697 2.697 0 00-1.116-.234c-.396 0-.774.078-1.134.234a2.668 2.668 0 00-.918.684c-.264.3-.474.672-.63 1.116-.144.432-.216.93-.216 1.494s.072 1.068.216 1.512c.156.432.366.798.63 1.098.264.288.57.51.918.666.36.156.738.234 1.134.234zm6.502-8.172h4.302c.408 0 .798.03 1.17.09.384.06.726.174 1.026.342.3.156.54.384.72.684.18.3.27.684.27 1.152 0 .504-.12.912-.36 1.224-.24.312-.576.57-1.008.774v.018c.54.108.966.36 1.278.756.324.396.486.906.486 1.53 0 .396-.072.762-.216 1.098a2.376 2.376 0 01-.576.864c-.252.24-.552.432-.9.576a3.172 3.172 0 01-1.134.198h-5.058v-9.306zm4.77 8.01c.504 0 .882-.144 1.134-.432.264-.3.396-.672.396-1.116 0-.42-.138-.756-.414-1.008-.276-.252-.738-.378-1.386-.378h-2.988v2.934h3.258zm-.63-4.194c.66 0 1.116-.12 1.368-.36.264-.24.396-.558.396-.954 0-.384-.126-.678-.378-.882-.252-.216-.714-.324-1.386-.324h-2.628v2.52h2.628zm8.335 5.688a4.74 4.74 0 01-1.188-.144 2.734 2.734 0 01-.99-.432 2.44 2.44 0 01-.666-.81c-.156-.336-.234-.738-.234-1.206 0-.528.09-.96.27-1.296a2.31 2.31 0 01.702-.81 3.27 3.27 0 011.008-.486 12.73 12.73 0 011.17-.27c.42-.084.816-.144 1.188-.18.384-.048.72-.108 1.008-.18.288-.084.516-.198.684-.342.168-.156.252-.378.252-.666 0-.336-.066-.606-.198-.81a1.215 1.215 0 00-.486-.468 1.892 1.892 0 00-.666-.216 4.847 4.847 0 00-.72-.054c-.648 0-1.188.126-1.62.378-.432.24-.666.702-.702 1.386h-1.53c.024-.576.144-1.062.36-1.458a2.65 2.65 0 01.864-.954 3.53 3.53 0 011.224-.54 6.63 6.63 0 011.494-.162c.42 0 .834.03 1.242.09.42.06.798.186 1.134.378.336.18.606.438.81.774.204.336.306.774.306 1.314v4.788c0 .36.018.624.054.792.048.168.192.252.432.252.108 0 .264-.03.468-.09v1.188c-.264.156-.63.234-1.098.234-.396 0-.714-.108-.954-.324-.228-.228-.342-.594-.342-1.098-.42.504-.912.87-1.476 1.098a4.897 4.897 0 01-1.8.324zm.342-1.332c.504 0 .936-.066 1.296-.198.36-.144.654-.318.882-.522.228-.216.396-.444.504-.684.108-.252.162-.486.162-.702v-1.566c-.192.156-.444.264-.756.324s-.642.114-.99.162l-1.026.144a3.56 3.56 0 00-.936.252 1.74 1.74 0 00-.684.522c-.168.216-.252.516-.252.9 0 .252.048.468.144.648.108.168.24.306.396.414.168.108.36.186.576.234.216.048.444.072.684.072zm8.894-2.502a2.508 2.508 0 01-1.62-.9c-.42-.504-.63-1.14-.63-1.908 0-.876.258-1.572.774-2.088.528-.516 1.242-.774 2.142-.774h4.716v9.306h-1.53v-3.582h-2.034l-2.844 3.582h-2.034l3.06-3.636zm3.852-1.26v-3.06h-2.7c-.648 0-1.116.138-1.404.414-.288.276-.432.648-.432 1.116 0 .48.144.858.432 1.134.288.264.756.396 1.404.396h2.7zm10.16 8.604c-.18 0-.36-.012-.54-.036a2.55 2.55 0 01-.522-.126v-1.404l.432.144c.156.048.312.072.468.072.312 0 .564-.072.756-.216.192-.144.36-.354.504-.63l.63-1.566-3.69-9.252h1.728l2.718 7.614h.036l2.61-7.614h1.62l-4.05 10.53c-.18.456-.36.84-.54 1.152-.168.312-.36.564-.576.756a1.72 1.72 0 01-.702.432 2.471 2.471 0 01-.882.144zm8.154-3.6c-.156 0-.318-.018-.486-.054a5.664 5.664 0 01-.414-.072v-1.35a2.01 2.01 0 00.63.09c.396 0 .696-.156.9-.468.216-.312.372-.792.468-1.44.108-.648.174-1.476.198-2.484.024-1.02.048-2.232.072-3.636h6.534v9.306h-1.53v-7.956h-3.528c-.036 1.092-.078 2.13-.126 3.114-.036.972-.138 1.824-.306 2.556-.168.732-.438 1.314-.81 1.746-.372.432-.906.648-1.602.648zm10.736-2.106v1.998h1.998v-1.998h-1.998zm5.19 0v1.998h1.062c.012.144 0 .3-.036.468-.024.168-.078.33-.162.486a1.544 1.544 0 01-.342.45 1.22 1.22 0 01-.504.324v.9c.696-.204 1.2-.552 1.512-1.044.312-.492.468-1.08.468-1.764v-1.818h-1.998zm17.346-9.198v-1.35h-6.3l-1.188 6.624 1.314.072c.3-.36.642-.648 1.026-.864a2.656 2.656 0 011.35-.342c.432 0 .822.072 1.17.216.36.144.666.348.918.612.252.252.444.558.576.918.144.348.216.732.216 1.152 0 .504-.072.948-.216 1.332a2.662 2.662 0 01-.594.936c-.24.252-.528.444-.864.576a2.93 2.93 0 01-1.026.18 3.34 3.34 0 01-1.062-.162 2.842 2.842 0 01-.828-.486 2.784 2.784 0 01-.558-.738 2.656 2.656 0 01-.234-.918h-1.53a3.76 3.76 0 00.342 1.548c.216.456.51.84.882 1.152.372.3.798.534 1.278.702a5.151 5.151 0 001.566.234c.744 0 1.392-.114 1.944-.342a4.094 4.094 0 001.404-.954c.372-.396.648-.846.828-1.35a4.508 4.508 0 00.288-1.584c0-.732-.108-1.368-.324-1.908-.216-.552-.51-1.008-.882-1.368a3.497 3.497 0 00-1.314-.828 4.727 4.727 0 00-1.602-.27c-.432 0-.87.078-1.314.234a2.398 2.398 0 00-1.062.684l-.036-.036.684-3.672h5.148zm6.725 11.394c-.708 0-1.338-.114-1.89-.342a3.746 3.746 0 01-1.368-.972 4.409 4.409 0 01-.828-1.494 6.44 6.44 0 01-.27-1.926c0-.696.09-1.344.27-1.944.18-.612.45-1.14.81-1.584.372-.456.828-.81 1.368-1.062.552-.264 1.2-.396 1.944-.396.528 0 1.02.066 1.476.198.468.12.876.312 1.224.576.36.264.654.6.882 1.008.228.396.372.87.432 1.422h-1.584c-.12-.588-.372-1.044-.756-1.368-.384-.324-.9-.486-1.548-.486-.552 0-1.014.102-1.386.306a2.55 2.55 0 00-.9.81 3.518 3.518 0 00-.468 1.17 6.206 6.206 0 00-.144 1.35c0 .432.048.852.144 1.26.108.408.27.774.486 1.098.216.312.492.564.828.756.348.192.768.288 1.26.288.756 0 1.344-.198 1.764-.594.432-.396.696-.954.792-1.674h1.566c-.168 1.164-.594 2.058-1.278 2.682-.684.612-1.626.918-2.826.918zm5.636-8.442h1.53a4.49 4.49 0 01.108-1.134c.096-.384.246-.726.45-1.026.204-.3.462-.54.774-.72.324-.192.708-.288 1.152-.288.336 0 .654.054.954.162.3.108.558.264.774.468.228.204.408.45.54.738.132.276.198.588.198.936 0 .444-.072.834-.216 1.17a2.866 2.866 0 01-.612.936c-.264.288-.6.576-1.008.864a44.9 44.9 0 01-1.422.918c-.444.264-.87.546-1.278.846-.408.3-.774.648-1.098 1.044a5.317 5.317 0 00-.81 1.404c-.204.528-.336 1.17-.396 1.926h8.334v-1.35h-6.552a2.41 2.41 0 01.45-1.044c.24-.312.522-.6.846-.864.336-.264.702-.51 1.098-.738l1.188-.72c.396-.252.78-.516 1.152-.792.372-.276.702-.582.99-.918.288-.348.516-.738.684-1.17.18-.432.27-.93.27-1.494 0-.6-.108-1.128-.324-1.584a3.096 3.096 0 00-.846-1.134 3.575 3.575 0 00-1.278-.702 4.654 4.654 0 00-1.548-.252c-.672 0-1.272.114-1.8.342a3.71 3.71 0 00-1.332.954c-.348.396-.606.87-.774 1.422a5.16 5.16 0 00-.198 1.8z" fill="#1F1F1F"/><path d="M164.5 43.85L231 116.5m31.5 33.5l120 127.851M83.836 429.346a724.564 724.564 0 0115.321-26.995m107.055-138.464a729.356 729.356 0 00-83.451 101.464m124.845-140.299A728.515 728.515 0 01330 163.205" stroke="#DFDCE0" stroke-width="5" stroke-linecap="round"/><path d="M183.916 330.384l29.14-22.106a4.412 4.412 0 016.09.731l32.167 39.55a4.412 4.412 0 01-.848 6.367l-32.277 23.199a4.412 4.412 0 01-6.165-1.018l-29.031-40.643a4.412 4.412 0 01.924-6.08z" fill="#DFDCE0"/><path d="M235.706 67.646c-83.351 13-162.653 44.804-231.705 92.518" stroke="#DFDCE0" stroke-width="5" stroke-linecap="round"/><path d="M193.501 159.651c-6.186 0-11.2 5.014-11.2 11.2 0 5.64 4.175 10.293 9.6 11.072v14.528a1.6 1.6 0 103.2 0v-14.528c5.425-.779 9.6-5.432 9.6-11.072 0-6.186-5.015-11.2-11.2-11.2zm0 3.2c1.989 0 3.6 1.075 3.6 2.4 0 1.324-1.611 2.4-3.6 2.4s-3.6-1.076-3.6-2.4c0-1.325 1.611-2.4 3.6-2.4z" fill="#0D0D0D"/></symbol><symbol id="play" viewBox="0 0 72 72"><path d="M36 0C16.117 0 0 16.117 0 36s16.117 36 36 36 36-16.117 36-36S55.883 0 36 0zm-7.2 48.927V23.073L50.4 36 28.8 48.927z" fill="#F1F1F1"/></symbol><symbol id="swiss" viewBox="0 0 18 12"><path d="M17.066 0H0v11.636h17.066V0z" fill="#FF3D00"/><path d="M9.69 2.327H7.364V9.31h2.328V2.327z" fill="#fff"/><path d="M12.02 4.655H5.04v2.327h6.98V4.655z" fill="#fff"/></symbol><symbol id="whatsapp" viewBox="0 0 18 18"><path d="M9.343.667c-4.588 0-8.323 3.732-8.325 8.32 0 1.467.383 2.899 1.112 4.16L1 17.333l4.36-1.03a8.316 8.316 0 003.978 1.012h.003c4.588 0 8.322-3.732 8.324-8.32a8.268 8.268 0 00-2.435-5.888A8.27 8.27 0 009.343.667zm-.002 1.666a6.624 6.624 0 014.71 1.952 6.608 6.608 0 011.947 4.709 6.665 6.665 0 01-6.658 6.655 6.657 6.657 0 01-3.18-.81l-.562-.305-.62.146-1.64.388.4-1.488.18-.667-.345-.6a6.65 6.65 0 01-.888-3.326A6.665 6.665 0 019.34 2.333zM6.397 5.146a.764.764 0 00-.555.26c-.19.208-.729.71-.729 1.734 0 1.023.745 2.012.85 2.151.103.139 1.438 2.305 3.553 3.138 1.756.693 2.113.556 2.495.521.381-.034 1.231-.502 1.404-.988.174-.486.174-.903.122-.99-.051-.086-.19-.138-.398-.242-.208-.104-1.23-.606-1.421-.675-.191-.07-.33-.104-.469.104-.138.208-.536.675-.658.814-.121.139-.242.158-.45.053-.209-.105-.879-.325-1.674-1.033-.618-.55-1.035-1.23-1.157-1.439-.12-.207-.011-.321.093-.425.093-.093.207-.243.31-.364.104-.122.14-.209.21-.347.068-.138.033-.26-.019-.365-.051-.104-.456-1.13-.641-1.542-.156-.346-.32-.354-.469-.36-.12-.005-.259-.005-.397-.005z" fill="#1F1F1F" stroke="#F1F1F1" stroke-width=".2"/></symbol></svg>