<svg xmlns="http://www.w3.org/2000/svg" xmlns:xlink="http://www.w3.org/1999/xlink" width="100" height="100" viewBox="0 0 100 100">
    <defs>
        <path id="v" d="M37.305 42.857c0-4.299 3.357-7.666 7.643-7.666 4.07 0 7.383 3.439 7.383 7.666 0 2.976-1.555 5.612-3.964 6.717a1.32 1.32 0 0 0-.75 1.419l1.613 9.539h-8.62l1.69-9.529a1.318 1.318 0 0 0-.748-1.43c-2.501-1.146-4.247-3.909-4.247-6.716zM31.23 63.17h6.232l-3.846 21.676a1.32 1.32 0 0 0 2.599.46l3.927-22.136h9.533l3.742 22.127a1.317 1.317 0 0 0 1.52 1.08 1.318 1.318 0 0 0 1.082-1.52L52.352 63.17h6.052a1.32 1.32 0 1 0 0-2.638h-6.498l-1.53-9.044c2.82-1.725 4.593-5.003 4.593-8.631 0-5.222-3.798-9.537-8.701-10.205v-8.529a1.32 1.32 0 0 0-2.64 0v8.519c-5.119.632-8.963 4.886-8.963 10.215 0 3.513 1.921 6.86 4.87 8.631l-1.605 9.044h-6.699a1.32 1.32 0 1 0 0 2.638zm41.425-25.057h6.608V76.04l-3.402 6.226-3.206-6.209V38.113zm0-11.874c0-.327.47-.796.796-.796h5.016c.327 0 .796.469.796.796v9.235h-6.608v-9.235zm2 59.442c.224.434.669.71 1.157.715h.016c.482 0 .926-.263 1.158-.686l4.755-8.701c.105-.194.16-.412.16-.633V26.239c0-1.798-1.636-3.435-3.434-3.435h-5.016c-1.797 0-3.434 1.637-3.434 3.435v50.137c0 .211.05.418.146.605l4.493 8.7zm19.636 9.68H12.497c-3.845 0-6.859-2.899-6.859-6.598 0-3.7 3.014-6.597 6.86-6.597a6.604 6.604 0 0 1 6.597 6.597 1.319 1.319 0 1 0 2.639 0v-73.09h72.558V95.36zM5.638 12.498a6.867 6.867 0 0 1 6.86-6.86c3.515 0 6.597 3.206 6.597 6.86v69.813a9.206 9.206 0 0 0-6.598-2.784c-2.724 0-5.142 1.066-6.859 2.796V12.499zm89.973.534H21.734v-.534c0-5.15-4.23-9.499-9.237-9.499C7.26 3 3 7.261 3 12.5v76.263c0 5.18 4.172 9.236 9.497 9.236h83.114c.729 0 1.319-.59 1.319-1.319V14.353c0-.729-.59-1.32-1.319-1.32z"/>
    </defs>
    <g fill="none" fill-rule="evenodd">
        <mask id="k" fill="#fff">
            <use xlink:href="#v"/>
        </mask>
        <use fill="#020203" xlink:href="#v"/>
        <g fill="#333333" mask="url(#k)">
            <path d="M0 0h100v100H0z"/>
        </g>
    </g>
</svg>
