<svg xmlns="http://www.w3.org/2000/svg" width="24" height="24" viewBox="0 0 24 24" enable-background="new 0 0 24 24"><path d="M7 3h10v10H7V3zm2 2v6h6V5H9zM6 8v2H4v5h16v-5h-2V8h4v9H2V8h4zm1 10h2v2h6v-2h2v4H7v-4z" fill="#525a65"/><defs><filter id="a" filterUnits="userSpaceOnUse" x="0" y="0" width="24" height="24"><feColorMatrix values="1 0 0 0 0 0 1 0 0 0 0 0 1 0 0 0 0 0 1 0"/></filter></defs><mask maskUnits="userSpaceOnUse" x="0" y="0" width="24" height="24" id="b"><path d="M7 3h10v10H7V3zm2 2v6h6V5H9zM6 8v2H4v5h16v-5h-2V8h4v9H2V8h4zm1 10h2v2h6v-2h2v4H7v-4z" fill="##727272" filter="url(#a)"/></mask><g mask="url(#b)"><path fill="#333" d="M0 0h24v24H0z"/><path d="M0 0h24v24H0z"/></g></svg>
