<svg xmlns="http://www.w3.org/2000/svg" xmlns:xlink="http://www.w3.org/1999/xlink" width="30" height="30" viewBox="0 0 30 30">
    <defs>
        <path id="a" d="M22.44 19.828h1.348v-1.35H22.44v1.35zm3.885 4.985a4.512 4.512 0 0 1-3.211 1.326 4.512 4.512 0 0 1-3.211-1.326 4.511 4.511 0 0 1-1.326-3.21 4.51 4.51 0 0 1 1.326-3.212 4.51 4.51 0 0 1 3.21-1.326 4.51 4.51 0 0 1 3.212 1.326 4.508 4.508 0 0 1 1.326 3.211 4.51 4.51 0 0 1-1.326 3.211zm-3.211-9.097a5.893 5.893 0 0 0-5.887 5.886 5.893 5.893 0 0 0 5.887 5.886A5.893 5.893 0 0 0 29 21.602a5.893 5.893 0 0 0-5.886-5.886zm-1.792 6.031h1.117v2.979h1.35v-4.328h-2.467v1.35zM6.22 10.777l-.001 12.059c0 1.086-.725 1.888-1.803 1.992-.97.094-1.845-.6-2.044-1.611a1.891 1.891 0 0 1-.025-.357c-.002-5.913-.002-11.827 0-17.74 0-.577.197-.773.78-.773a9173.188 9173.188 0 0 1 8.899 0c.573 0 .734.165.753.768.01.346.039.75.166 1.12.25.725.84 1.125 1.662 1.125h8.29c.655.001.834.181.834.84v.426H8.366c-1.344 0-2.147.804-2.147 2.15zM8.811 24.86H6.916c.44-.616.653-1.337.651-2.195-.007-3.077-.006-6.154-.004-9.23v-2.741c0-.501.221-.725.717-.725h17.336c.5 0 .722.221.722.717v1.423l.003 3.438c.487.261.935.582 1.343.948v-1.379c.001-1.497.001-2.996-.002-4.494-.002-1.147-.846-1.987-2.006-1.997h-.601v-.073a13.26 13.26 0 0 0-.003-.633 1.897 1.897 0 0 0-.777-1.503c-.363-.275-.789-.404-1.342-.404h-.004c-2.057.003-4.113.002-6.172.004H14.63c-.304 0-.386-.059-.459-.33-.048-.176-.052-.382-.053-.595-.005-1.29-.8-2.09-2.074-2.091H3.057c-1.23.004-2.056.835-2.057 2.07l.001 17.74c0 1.937 1.458 3.397 3.391 3.397l13.646-.002a6.89 6.89 0 0 1-.965-1.348c-2.754.004-5.508.004-8.262.004z"/>
    </defs>
    <g fill="none" fill-rule="evenodd">
        <mask id="b" fill="#fff">
            <use xlink:href="#a"/>
        </mask>
        <use fill="#fff" xlink:href="#a"/>
        <g fill="#fff" mask="url(#b)">
            <path d="M0 0h30v30H0z"/>
        </g>
    </g>
</svg>
