<svg xmlns="http://www.w3.org/2000/svg" xmlns:xlink="http://www.w3.org/1999/xlink" width="24" height="24" viewBox="0 0 24 24"><defs><path id="a" d="M9.35 20.423h.815a.255.255 0 0 0 .257-.268L9.815 6.632a.256.256 0 0 0-.256-.245h-.814a.256.256 0 0 0-.256.268l.604 13.523a.256.256 0 0 0 .256.245zm7.534.675v.065a.57.57 0 0 1-.563.569h-7.91a.567.567 0 0 1-.564-.569v-.066L6.536 5.105H18.17l-1.285 15.993zM9.821 2.9a.57.57 0 0 1 .563-.57h3.899a.566.566 0 0 1 .563.569v.866H9.821V2.9zm10.596.865h-4.232V2.9a1.89 1.89 0 0 0-.555-1.343A1.888 1.888 0 0 0 14.284 1h-3.9a1.901 1.901 0 0 0-1.896 1.9v.865H4.257A.256.256 0 0 0 4 4.022v.825c0 .142.115.257.257.257h.947l1.304 16.055A1.902 1.902 0 0 0 8.41 23.06h7.917c.505 0 .98-.195 1.339-.552a1.88 1.88 0 0 0 .56-1.328L19.51 5.105h.908a.257.257 0 0 0 .257-.257v-.826a.257.257 0 0 0-.257-.256zm-8.471 16.657h.784a.256.256 0 0 0 .256-.257V6.643a.257.257 0 0 0-.256-.256h-.784a.256.256 0 0 0-.257.256v13.523c0 .142.115.257.257.257zm2.562 0h.816c.137 0 .25-.108.256-.245l.605-13.523a.258.258 0 0 0-.257-.268h-.82a.257.257 0 0 0-.256.245l-.6 13.523a.257.257 0 0 0 .256.268z"/></defs><g fill="none" fill-rule="evenodd"><mask id="b" fill="#fff"><use xlink:href="#a"/></mask><use fill="#727272" xlink:href="#a"/><g fill="#727272" mask="url(#b)"><path d="M0 0h24v24H0z"/></g></g></svg>
