
<svg width="103px" height="21px" viewBox="0 0 103 21" version="1.1" xmlns="http://www.w3.org/2000/svg" xmlns:xlink="http://www.w3.org/1999/xlink">
    <!-- Generator: Sketch 51.3 (57544) - http://www.bohemiancoding.com/sketch -->
    <desc>Created with Sketch.</desc>
    <defs></defs>
    <g id="mobile" stroke="none" stroke-width="1" fill="none" fill-rule="evenodd">
        <g id="Piterra/mobile/product-card/cash" transform="translate(-184.000000, -635.000000)" fill="#C7B799">
            <g id="Page-1" transform="translate(184.000000, 635.000000)">
                <path d="M68.3852459,0 L67.1563143,0 L61.8102335,8.61670762 L61.8102335,0 L60.5301345,0 L60.5301345,18.4459459 L61.8102335,18.4459459 L61.8102335,8.71990172 L67.4130651,18.4459459 L68.8457526,18.4459459 L63.1140888,8.51351351 L68.3852459,0 Z M75.5742673,15.1695332 C75.3348769,15.8743857 75.0068572,16.4769656 74.5892946,16.97543 C74.1708183,17.4738943 73.6637127,17.7235872 73.0670641,17.7235872 C72.4530551,17.7235872 71.9623962,17.4738943 71.596001,16.97543 C71.2286921,16.4769656 71.0459513,15.7628993 71.0459513,14.8341523 C71.0459513,13.6990172 71.3008747,12.8734644 71.8134625,12.3574939 C72.3251366,11.8415233 73.1182315,11.5835381 74.1918334,11.5835381 L75.5742673,11.5835381 L75.5742673,15.1695332 Z M76.750204,16.046683 L76.750204,8.95208845 C76.750204,7.66216216 76.4651285,6.71222359 75.8940636,6.10135135 C75.3229987,5.49047912 74.4988379,5.18550369 73.425236,5.18550369 C72.6915318,5.18550369 72.064731,5.31818182 71.5448336,5.58538084 C71.0249361,5.85257985 70.636612,6.15755528 70.380775,6.5012285 L70.7133631,7.66216216 C71.0203676,7.21529484 71.4123465,6.86701474 71.8902136,6.61732187 C72.367167,6.36762899 72.8788411,6.24324324 73.425236,6.24324324 C74.1415797,6.24324324 74.6788376,6.46713759 75.0360957,6.91400491 C75.3951813,7.36087224 75.5742673,8.08323096 75.5742673,9.08108108 L75.5742673,10.7063882 L74.1671634,10.7063882 C72.7682829,10.7063882 71.7029043,11.0629607 70.9692002,11.777027 C70.2354961,12.4910934 69.8691008,13.544226 69.8691008,14.9373464 C69.8691008,16.1240786 70.1413846,17.0482187 70.6877794,17.710688 C71.2332606,18.3722359 71.941381,18.7039312 72.811227,18.7039312 C73.459043,18.7039312 74.0136612,18.5233415 74.4741679,18.1621622 C74.9346746,17.8009828 75.3184302,17.3108108 75.6254347,16.6916462 C75.6592417,17.1560197 75.7067543,17.5218059 75.7661451,17.7880835 C75.8255358,18.0552826 75.8812717,18.2736486 75.9324391,18.4459459 L77.0325385,18.4459459 C76.9466503,18.2054668 76.8790363,17.8571867 76.8269551,17.4011057 C76.7767014,16.9459459 76.750204,16.4935504 76.750204,16.046683 Z M46.5623448,5.44348894 L44.541232,5.44348894 L41.4456036,11.4545455 L41.4456036,5.44348894 L39.4500745,5.44348894 L39.4500745,18.4459459 L41.4456036,18.4459459 L41.4456036,11.970516 L44.8482365,18.4459459 L47.0228515,18.4459459 L43.3643815,11.5577396 L46.5623448,5.44348894 Z M53.0341087,16.7045455 C52.6768505,16.8685504 52.2501508,16.9496314 51.7558371,16.9496314 C50.9371585,16.9496314 50.3359414,16.5064496 49.9521858,15.6210074 C49.5684302,14.7346437 49.3765524,13.4751229 49.3765524,11.8415233 C49.3765524,10.1904177 49.6068058,8.96038084 50.0673125,8.15233415 C50.5278192,7.34428747 51.1162444,6.93980344 51.8325882,6.93980344 C52.2419275,6.93980344 52.6293379,7.03009828 52.9966468,7.21068796 C53.363042,7.39127764 53.6828383,7.60135135 53.9560358,7.84275184 L54.2374565,5.93366093 C53.9468987,5.74477887 53.6234476,5.58538084 53.2652757,5.45638821 C52.9071038,5.32739558 52.4374601,5.26289926 51.8581719,5.26289926 C51.1071074,5.26289926 50.4464995,5.4222973 49.8754347,5.74017199 C49.3034561,6.05804668 48.8265027,6.50583538 48.4427471,7.08169533 C48.0589916,7.65847666 47.7693475,8.35872236 47.5729011,9.18427518 C47.3764548,10.009828 47.2786885,10.9302826 47.2786885,11.9447174 C47.2786885,14.1808968 47.6706674,15.8531941 48.455539,16.9625307 C49.2394968,18.0718673 50.3222358,18.6265356 51.7046696,18.6265356 C52.3013182,18.6265356 52.8129923,18.5362408 53.239692,18.3556511 C53.6663917,18.1750614 54.0501473,17.9391892 54.3909588,17.6461916 L53.9304521,16.1498771 C53.6910617,16.3562654 53.3931942,16.5414619 53.0341087,16.7045455 Z M101.541729,15.1695332 C101.302338,15.8743857 100.974319,16.4769656 100.556756,16.97543 C100.13828,17.4738943 99.6311742,17.7235872 99.0345256,17.7235872 C98.4205166,17.7235872 97.9298577,17.4738943 97.5634625,16.97543 C97.1961536,16.4769656 97.0134128,15.7628993 97.0134128,14.8341523 C97.0134128,13.6990172 97.2683362,12.8734644 97.780924,12.3574939 C98.2916844,11.8415233 99.085693,11.5835381 100.159295,11.5835381 L101.541729,11.5835381 L101.541729,15.1695332 Z M102.79533,17.4011057 C102.744163,16.9459459 102.718579,16.4935504 102.718579,16.046683 L102.718579,8.95208845 C102.718579,7.66216216 102.43259,6.71222359 101.861525,6.10135135 C101.29046,5.49047912 100.466299,5.18550369 99.3926975,5.18550369 C98.6589933,5.18550369 98.0321925,5.31818182 97.5122951,5.58538084 C96.9923976,5.85257985 96.6040735,6.15755528 96.3482365,6.5012285 L96.6808246,7.66216216 C96.9878291,7.21529484 97.379808,6.86701474 97.8576751,6.61732187 C98.3346285,6.36762899 98.8463026,6.24324324 99.3926975,6.24324324 C100.109041,6.24324324 100.646299,6.46713759 101.003557,6.91400491 C101.362643,7.36087224 101.541729,8.08323096 101.541729,9.08108108 L101.541729,10.7063882 L100.134625,10.7063882 C98.7357444,10.7063882 97.6703658,11.0629607 96.9366617,11.777027 C96.2029576,12.4910934 95.8365623,13.544226 95.8365623,14.9373464 C95.8365623,16.1240786 96.1097598,17.0482187 96.6543272,17.710688 C97.2007221,18.3722359 97.9088425,18.7039312 98.7786885,18.7039312 C99.4265045,18.7039312 99.9811227,18.5233415 100.441629,18.1621622 C100.902136,17.8009828 101.285892,17.3108108 101.592896,16.6916462 C101.626703,17.1560197 101.674216,17.5218059 101.733607,17.7880835 C101.792997,18.0552826 101.848733,18.2736486 101.899901,18.4459459 L103,18.4459459 C102.914112,18.2054668 102.846498,17.8571867 102.79533,17.4011057 Z M85.013741,16.9496314 C84.7926247,17.1394349 84.5239958,17.3015971 84.2078543,17.4398034 C83.8935402,17.5770885 83.5307998,17.6461916 83.1214605,17.6461916 C82.1145589,17.6461916 81.3817685,17.1468059 80.9212618,16.1498771 C80.4607551,15.152027 80.2305017,13.759828 80.2305017,11.970516 C80.2305017,10.1305283 80.4653236,8.71160934 80.9331399,7.71375921 C81.4027837,6.71683047 82.1319193,6.21744472 83.1214605,6.21744472 C83.6669417,6.21744472 84.1448087,6.36394349 84.5532343,6.65601966 C84.9634873,6.9490172 85.3125222,7.29269042 85.60308,7.68796069 L85.9356682,6.3980344 C85.6460241,6.05436118 85.2695781,5.76597052 84.8099851,5.53378378 C84.3494784,5.30159705 83.7857232,5.18550369 83.1214605,5.18550369 C81.7911078,5.18550369 80.7759829,5.77886978 80.0769995,6.96560197 C79.3771024,8.15233415 79.0271539,9.82094595 79.0271539,11.970516 C79.0271539,14.1035012 79.3816709,15.7592138 80.0897914,16.9367322 C80.7969981,18.115172 81.7993311,18.7039312 83.0958768,18.7039312 C83.5901905,18.7039312 84.0296821,18.6311425 84.4134377,18.4846437 C84.7971932,18.338145 85.1087662,18.1713759 85.3463292,17.9815725 C85.636887,17.7751843 85.8762774,17.5337838 86.0635867,17.2592138 L85.6798311,16.2530713 C85.4925218,16.5276413 85.2695781,16.759828 85.013741,16.9496314 Z M93.5084451,16.9496314 C93.2864151,17.1394349 93.0177862,17.3015971 92.7016447,17.4398034 C92.3873306,17.5770885 92.0245902,17.6461916 91.6152509,17.6461916 C90.6083493,17.6461916 89.8755589,17.1468059 89.4150522,16.1498771 C88.9545455,15.152027 88.7242921,13.759828 88.7242921,11.970516 C88.7242921,10.1305283 88.959114,8.71160934 89.4269303,7.71375921 C89.8965741,6.71683047 90.6257097,6.21744472 91.6152509,6.21744472 C92.160732,6.21744472 92.6385991,6.36394349 93.0479384,6.65601966 C93.456364,6.9490172 93.8063125,7.29269042 94.0968703,7.68796069 L94.4294585,6.3980344 C94.1398144,6.05436118 93.7633685,5.76597052 93.3028618,5.53378378 C92.8432688,5.30159705 92.2795135,5.18550369 91.6152509,5.18550369 C90.2848982,5.18550369 89.2697733,5.77886978 88.5707899,6.96560197 C87.8708928,8.15233415 87.5209442,9.82094595 87.5209442,11.970516 C87.5209442,14.1035012 87.8754613,15.7592138 88.582668,16.9367322 C89.2917022,18.115172 90.2931215,18.7039312 91.5896672,18.7039312 C92.0839809,18.7039312 92.5234724,18.6311425 92.907228,18.4846437 C93.2909836,18.338145 93.6025566,18.1713759 93.8401196,17.9815725 C94.1306774,17.7751843 94.3691541,17.5337838 94.557377,17.2592138 L94.1736215,16.2530713 C93.9863122,16.5276413 93.7633685,16.759828 93.5084451,16.9496314 Z M25.7627919,16.7948403 L22.3345753,16.7948403 C22.606859,16.1065725 22.8206657,15.3547297 22.9741679,14.5374693 C23.1276701,13.7211302 23.2473653,12.8900491 23.3323398,12.0479115 C23.4173142,11.2048526 23.4730502,10.3756143 23.4986339,9.55835381 C23.5242176,8.74109337 23.5370094,7.98925061 23.5370094,7.3009828 L23.5370094,7.06879607 L25.7627919,7.06879607 L25.7627919,16.7948403 Z M27.7327372,5.44348894 L21.74615,5.44348894 L21.74615,6.55282555 C21.74615,7.41246929 21.7333582,8.30251843 21.7077745,9.22297297 C21.6821908,10.1434275 21.6218863,11.0454545 21.5286885,11.9318182 C21.434577,12.8172604 21.30209,13.6778256 21.1321411,14.5116708 C20.9612785,15.345516 20.7310251,16.1065725 20.441381,16.7948403 L19.6482861,16.7948403 L19.6482861,21 L21.4391456,21 L21.4391456,18.4459459 L26.965226,18.4459459 L26.965226,21 L28.7560854,21 L28.7560854,16.7948403 L27.7327372,16.7948403 L27.7327372,5.44348894 Z M16.527074,10.9643735 L13.5593641,10.9643735 L13.5593641,5.44348894 L11.5638351,5.44348894 L11.5638351,18.4459459 L13.5593641,18.4459459 L13.5593641,12.6154791 L16.527074,12.6154791 L16.527074,18.4459459 L18.4970194,18.4459459 L18.4970194,5.44348894 L16.527074,5.44348894 L16.527074,10.9643735 Z M7.03460542,9.72604423 L5.98658718,9.72604423 C5.55988752,9.72604423 5.15511674,9.66154791 4.77136115,9.53255528 C4.38760556,9.40356265 4.05501739,9.18427518 3.77359662,8.87469287 C3.49217586,8.56511057 3.27014584,8.16062654 3.10842027,7.66216216 C2.94578099,7.16277641 2.86537506,6.54453317 2.86537506,5.8046683 C2.86537506,5.03071253 2.95491803,4.38114251 3.13400397,3.85687961 C3.31308992,3.33261671 3.54791179,2.91062654 3.83664218,2.59275184 C4.12719999,2.27487715 4.45978816,2.04269042 4.83532042,1.89619165 C5.20993897,1.74969287 5.59369456,1.67690418 5.98658718,1.67690418 L7.03460542,1.67690418 L7.03460542,9.72604423 Z M4.01664183,0.361179361 C3.36791214,0.601658477 2.8014158,0.962837838 2.31441168,1.44471744 C1.82923497,1.92659705 1.44547938,2.53286241 1.16405862,3.26351351 C0.882637854,3.99416462 0.741927471,4.84183047 0.741927471,5.8046683 C0.741927471,7.18028256 0.988627493,8.26842752 1.48385494,9.06818182 C1.97816869,9.86793612 2.62598467,10.4742015 3.42821659,10.8869779 L0,18.4459459 L2.27603612,18.4459459 L5.39724824,11.3771499 L7.03460542,11.3771499 L7.03460542,18.4459459 L9.00546448,18.4459459 L9.00546448,0 L6.0633383,0 C5.34699454,0 4.66445781,0.120700246 4.01664183,0.361179361 Z M32.5415602,7.95884521 C32.798311,7.26228501 33.233234,6.91400491 33.8472429,6.91400491 C34.136887,6.91400491 34.3799322,7.00798526 34.5763785,7.1977887 C34.7719111,7.38667076 34.9254134,7.65386978 35.0368852,7.997543 C35.1474434,8.34121622 35.228763,8.75030713 35.2799305,9.22297297 C35.3310979,9.69563882 35.3566816,10.2079238 35.3566816,10.7579853 L32.0563835,10.7579853 C32.1239976,9.58875921 32.2866369,8.65540541 32.5415602,7.95884521 Z M35.9314012,16.6013514 C35.497392,16.7985258 34.9985097,16.8980344 34.4356682,16.8980344 C33.6334362,16.8980344 33.0331329,16.5202703 32.6320169,15.7628993 C32.2309009,15.0064496 32.0307998,13.8878993 32.0307998,12.4090909 L37.403378,12.4090909 L37.403378,11.2997543 C37.403378,10.1987101 37.3184036,9.26627764 37.147541,8.50061425 C36.9766784,7.73587224 36.7382017,7.11210074 36.4311972,6.63022113 C36.1241927,6.14834152 35.7486605,5.80006143 35.3055142,5.58538084 C34.8623678,5.37070025 34.3753637,5.26289926 33.8472429,5.26289926 C33.1647062,5.26289926 32.576281,5.44348894 32.0819672,5.8046683 C31.5876535,6.16584767 31.181969,6.66891892 30.8658275,7.31388206 C30.5505997,7.95884521 30.3203463,8.71990172 30.1759811,9.5970516 C30.0307022,10.4742015 29.9585196,11.4370393 29.9585196,12.4864865 C29.9585196,14.4987715 30.3422752,16.0254914 31.1097864,17.0657248 C31.8772976,18.1059582 32.9262295,18.6265356 34.2556685,18.6265356 C34.9043982,18.6265356 35.4928234,18.5316339 36.0218579,18.3427518 C36.5499787,18.1538698 37.0196225,17.8958845 37.4289617,17.5687961 L36.968455,16.0208845 C36.712618,16.210688 36.367238,16.4041769 35.9314012,16.6013514 Z" id="Fill-1"></path>
            </g>
        </g>
    </g>
</svg>
