<svg xmlns="http://www.w3.org/2000/svg" xmlns:xlink="http://www.w3.org/1999/xlink" width="24" height="24" viewBox="0 0 24 24">
    <defs>
        <path id="a" d="M6.505 14.987a.136.136 0 0 0-.087-.066.134.134 0 0 0-.107.013l-.63.368a.142.142 0 0 0-.051.192l.34.594c.018.033.05.056.086.066a.12.12 0 0 0 .037.005.155.155 0 0 0 .07-.018l.63-.369a.142.142 0 0 0 .052-.191l-.34-.594zm14.46 2.624a.145.145 0 0 0 .108.014.14.14 0 0 0 .086-.067l.34-.594a.142.142 0 0 0-.052-.192l-.63-.367a.132.132 0 0 0-.107-.014.139.139 0 0 0-.086.066l-.34.594a.142.142 0 0 0 .052.192l.63.368zm-15.72-1.89a.139.139 0 0 0-.087-.065.134.134 0 0 0-.107.014l-.629.367a.142.142 0 0 0-.051.192l.34.594c.018.033.05.057.086.066a.113.113 0 0 0 .036.005c.025 0 .05-.007.071-.018l.63-.368a.141.141 0 0 0 .05-.192l-.34-.594zm16.404 1.731l-8.862 5.172V17.91l4.347-2.537.053.031a.141.141 0 0 0 .193-.051l.106-.186.058-.034a.14.14 0 0 0 .07-.122v-.068l.106-.185a.142.142 0 0 0-.052-.191l-.054-.031V9.462l4.035-2.355v10.345zm-4.996-7.43v4.514l-3.866 2.257V12.28l3.866-2.256zm-4.346 1.42l-3.873-2.26 3.873-2.259 3.87 2.26-3.87 2.258zm-.48 5.352l-3.872-2.258v-4.514l3.871 2.257v4.515zm0 5.83L2.96 17.452V7.107l4.036 2.354v5.075l-.055.03a.142.142 0 0 0-.051.192l.106.185v.068c0 .05.026.097.07.122l.058.034.105.186a.141.141 0 0 0 .194.052l.053-.032 4.35 2.537v4.714zm.48-21.527l8.864 5.172-4.036 2.355-4.348-2.538V6.02a.14.14 0 0 0-.14-.14h-.211l-.058-.035a.137.137 0 0 0-.142 0l-.058.034h-.21a.14.14 0 0 0-.142.141v.065l-4.35 2.538-4.038-2.355 8.87-5.172zM22.54 5.949L12.378.019a.137.137 0 0 0-.142 0L2.069 5.95A.14.14 0 0 0 2 6.07v11.858c0 .05.026.096.07.122l10.166 5.93a.139.139 0 0 0 .142 0l10.162-5.93a.142.142 0 0 0 .07-.122V6.071a.14.14 0 0 0-.07-.122zm-2.834 10.927a.155.155 0 0 0 .071.018.113.113 0 0 0 .036-.005.136.136 0 0 0 .086-.066l.34-.594a.142.142 0 0 0-.052-.192l-.629-.367a.134.134 0 0 0-.107-.014.139.139 0 0 0-.086.066l-.34.594a.141.141 0 0 0 .052.192l.629.368zm-1.26-.735a.155.155 0 0 0 .071.018.12.12 0 0 0 .037-.005.139.139 0 0 0 .086-.066l.34-.594a.142.142 0 0 0-.052-.192l-.63-.368a.134.134 0 0 0-.107-.013.136.136 0 0 0-.086.066l-.34.594a.142.142 0 0 0 .052.191l.63.369zM11.968 5.428h.68a.14.14 0 0 0 .14-.141v-.734a.141.141 0 0 0-.14-.142h-.68a.141.141 0 0 0-.14.142v.734c0 .078.062.14.14.14zM3.986 16.457a.139.139 0 0 0-.087-.066.13.13 0 0 0-.107.014l-.63.367a.142.142 0 0 0-.051.192l.34.594a.14.14 0 0 0 .122.072c.025 0 .05-.007.071-.02l.63-.367a.142.142 0 0 0 .052-.192l-.34-.594zm7.981-12.498h.68c.077 0 .14-.064.14-.141v-.735a.14.14 0 0 0-.14-.14h-.68a.14.14 0 0 0-.14.14v.735c0 .077.062.141.14.141zm0-1.47h.68a.14.14 0 0 0 .14-.14v-.734a.141.141 0 0 0-.14-.142h-.68a.141.141 0 0 0-.14.142v.734c0 .078.062.14.14.14z"/>
    </defs>
    <g fill="none" fill-rule="evenodd">
        <mask id="b" fill="#000">
            <use xlink:href="#a"/>
        </mask>
        <use fill="#000" xlink:href="#a"/>
        <g fill="#000" mask="url(#b)">
            <path d="M0 0h24v24H0z"/>
        </g>
    </g>
</svg>
