<svg xmlns="http://www.w3.org/2000/svg" enable-background="new 0 0 30 30" viewBox="0 0 30 30" fill="#ffc108"><path fill="#ffc108" d="M11.8 6.4c1.9-3.2 4.5-3.2 6.4 0l8.9 15.2c1.9 3.2.6 5.4-3.1 5.4H5.9c-3.7 0-5-2.3-3.1-5.4l9-15.2zm-1.7-1l-9 15.2C-1.5 25.1.7 29 5.9 29H24c5.2 0 7.5-3.9 4.8-8.4L19.9 5.4c-2.6-4.5-7.2-4.5-9.8 0zM16 16v-6h-2v6l.5 4h1l.5-4zm-2 6v2h2v-2h-2z"/><defs><filter id="a" width="30" height="30" x="0" y="0" filterUnits="userSpaceOnUse"><feColorMatrix values="1 0 0 0 0 0 1 0 0 0 0 0 1 0 0 0 0 0 1 0"/></filter></defs><mask id="b" width="30" height="30" x="0" y="0" maskUnits="userSpaceOnUse"><path fill="#fff" d="M11.8 6.4c1.9-3.2 4.5-3.2 6.4 0l8.9 15.2c1.9 3.2.6 5.4-3.1 5.4H5.9c-3.7 0-5-2.3-3.1-5.4l9-15.2zm-1.7-1l-9 15.2C-1.5 25.1.7 29 5.9 29H24c5.2 0 7.5-3.9 4.8-8.4L19.9 5.4c-2.6-4.5-7.2-4.5-9.8 0zM16 16v-6h-2v6l.5 4h1l.5-4zm-2 6v2h2v-2h-2z" filter="url(#a)"/></mask><g mask="url(#b)"><path d="M30 30H0V0h30z"/></g></svg>
