<svg xmlns="http://www.w3.org/2000/svg" xmlns:xlink="http://www.w3.org/1999/xlink" width="24" height="24" viewBox="0 0 24 24">
    <defs>
        <path id="a" d="M18.639 20.545l-.282.172a16.49 16.49 0 0 1-1.27.732c-.179.09-.387.136-.609.185-.09.02-.18.04-.27.063-.677-.075-1.347-.317-2.103-.76-1.334-.783-2.544-1.87-3.811-3.42-2.186-2.678-3.709-5.583-4.529-8.636-.296-1.102-.43-2.093-.41-3.03.016-.722.13-1.287.36-1.783.174-.375.423-.652.758-.847.238-.137.474-.279.711-.42.212-.127.424-.253.638-.378a.51.51 0 0 1 .238-.087c.093 0 .162.064.242.198a745.506 745.506 0 0 1 2.157 3.643c.132.222.107.322-.116.46-.27.167-.539.334-.817.485-.593.325-.928.856-1.024 1.62-.145 1.168.195 2.234.508 3.032.711 1.812 1.68 3.21 2.961 4.274.4.331.888.628 1.45.884.678.308 1.352.254 1.948-.159.142-.098.293-.184.444-.27l.203-.117c.311-.184.397-.162.576.138l1.926 3.247c.073.12.146.24.213.365.12.22.054.32-.092.409m1.272-1.066c-.73-1.25-1.47-2.497-2.214-3.74-.477-.795-1.453-1.042-2.269-.573-.296.169-.589.345-.881.524-.177.11-.33.133-.47.069l-.185-.083c-.28-.124-.545-.24-.762-.408-1.297-.997-2.26-2.375-2.947-4.21-.26-.692-.38-1.314-.369-1.903.01-.51.171-.795.538-.956.207-.09.394-.21.575-.326l.142-.092c.82-.513 1.051-1.452.562-2.282-.718-1.214-1.438-2.43-2.16-3.643C8.964 1.006 8.01.76 7.15 1.252c-.313.18-.622.366-.931.55l-.49.294c-.491.291-.881.709-1.16 1.24-.47.9-.566 1.873-.568 3.151l.002.03c.019.134.037.283.056.443.049.402.104.856.193 1.315.392 2.044 1.18 4.105 2.409 6.298 1.48 2.642 3.15 4.72 5.108 6.354 1.214 1.012 2.259 1.602 3.386 1.91.401.11.778.163 1.136.163.55 0 1.05-.13 1.513-.39.52-.293 1.035-.6 1.546-.914.792-.486 1.03-1.419.562-2.217"/>
    </defs>
    <g fill="none" fill-rule="evenodd">
        <mask id="b" fill="#fff">
            <use xlink:href="#a"/>
        </mask>
        <use fill="#c7b799" xlink:href="#a"/>
        <g fill="#c7b799" mask="url(#b)">
            <path d="M0 0h24v24H0z"/>
        </g>
    </g>
</svg>
