<svg xmlns="http://www.w3.org/2000/svg" xmlns:xlink="http://www.w3.org/1999/xlink" width="30" height="30" viewBox="0 0 30 30">
    <defs>
        <path id="a" d="M14.58 17.567c-.17.47-.493.687-1.016.687-.526 0-.845-.218-1.002-.686-.064-.191-.107-.426-.107-.95 0-.528.043-.762.107-.95.156-.47.475-.688 1.002-.688.524 0 .847.22 1.015.687.069.21.093.458.093.95 0 .49-.023.739-.092.95zm-.953-6.084c-3.008 0-5.11 2.085-5.11 5.07 0 2.995 2.101 5.086 5.11 5.086 1.272 0 2.202-.208 3.116-.7a.267.267 0 0 0 .129-.165.225.225 0 0 0-.02-.167l-.206-.513a.256.256 0 0 0-.147-.136.271.271 0 0 0-.213.021c-.807.398-1.602.566-2.659.566-2.393 0-3.94-1.566-3.94-3.99 0-2.417 1.547-3.978 3.94-3.978 2.349 0 3.927 1.598 3.927 3.977 0 .788-.168 1.725-.969 1.725-.366 0-.757-.244-.757-.93v-3.097c0-.153-.098-.252-.25-.252h-.667c-.136 0-.239.108-.239.252v.084c-.313-.294-.787-.462-1.334-.462-.948 0-1.603.46-1.896 1.333-.1.34-.168.71-.168 1.41s.068 1.071.17 1.416c.295.88.945 1.327 1.932 1.327.775 0 1.357-.258 1.699-.748.307.486.845.761 1.51.761 1.34 0 2.14-1.054 2.14-2.82 0-2.985-2.097-5.07-5.098-5.07zm11.994-1.517a.414.414 0 0 1-.414.413h-.966V6.793h.966c.228 0 .414.186.414.414v2.759zm0 4.965a.415.415 0 0 1-.414.414h-.966v-3.586h.966c.228 0 .414.186.414.413v2.759zm0 4.966a.415.415 0 0 1-.414.413h-.966v-3.586h.966c.228 0 .414.186.414.414v2.759zm0 4.965a.415.415 0 0 1-.414.414h-.966V21.69h.966c.228 0 .414.186.414.413v2.76zM24.096 5.414a1.794 1.794 0 0 0-1.648-1.104H5.897c-.7 0-1.518-.252-1.518-.965 0-.871.756-.966 1.08-.966h18.644c.228 0 .414.186.414.414v2.62h-.42zm-1.234 21.655a.415.415 0 0 1-.414.414H4.793a.415.415 0 0 1-.414-.414V5.393c.437.195.956.297 1.518.297h16.551c.228 0 .414.186.414.413V27.07zM27 7.207c0-.72-.44-1.37-1.103-1.648V2.793c0-.989-.805-1.793-1.794-1.793H5.46C4.275 1 3 1.734 3 3.345v23.724c0 .989.804 1.793 1.793 1.793h17.655c.989 0 1.793-.804 1.793-1.793v-.414h.966c.989 0 1.793-.804 1.793-1.793v-2.759A1.78 1.78 0 0 0 26.612 21 1.78 1.78 0 0 0 27 19.897v-2.76a1.78 1.78 0 0 0-.388-1.103A1.78 1.78 0 0 0 27 14.931v-2.759a1.78 1.78 0 0 0-.388-1.103A1.78 1.78 0 0 0 27 9.966v-2.76z"/>
    </defs>
    <g fill="none" fill-rule="evenodd">
        <mask id="b" fill="#fff">
            <use xlink:href="#a"/>
        </mask>
        <use fill="#fff" xlink:href="#a"/>
        <g fill="#fff" mask="url(#b)">
            <path d="M0 0h30v30H0z"/>
        </g>
    </g>
</svg>
