<?xml version="1.0" encoding="UTF-8"?>
<svg width="24px" height="24px" viewBox="0 0 24 24" version="1.1" xmlns="http://www.w3.org/2000/svg" xmlns:xlink="http://www.w3.org/1999/xlink">
    <!-- Generator: sketchtool 49.1 (51147) - http://www.bohemiancoding.com/sketch -->
    <title>D49992D4-B44E-4B6C-9727-FD022DB054E3</title>
    <desc>Created with sketchtool.</desc>
    <defs>
        <path d="M18.6387099,20.5449495 L18.3567472,20.7173598 C17.9454769,20.9714854 17.519839,21.2327947 17.0870174,21.4492055 C16.9083213,21.5381045 16.6999922,21.584799 16.4781936,21.6341874 C16.3874986,21.6539427 16.2977016,21.674596 16.2079046,21.6970453 C15.5308351,21.6216158 14.8609493,21.3800618 14.1048584,20.9364645 C12.7713727,20.1543325 11.5609089,19.0677886 10.293873,17.5160961 C8.10821357,14.839247 6.58525615,11.9343135 5.76540937,8.88121487 C5.46907921,7.77850749 5.33528166,6.78804638 5.35593497,5.85056552 C5.37120046,5.12949546 5.48524268,4.56377425 5.71512304,4.06809471 C5.88932926,3.69274318 6.138067,3.41616836 6.47300987,3.22130883 C6.71097197,3.08391939 6.94713813,2.94204011 7.18420226,2.80105879 C7.39612322,2.67444499 7.60804418,2.5478312 7.82176108,2.42301334 C7.91963983,2.36644122 7.99506933,2.33591024 8.05972318,2.33591024 C8.15311208,2.33591024 8.22225578,2.39966612 8.30217513,2.53436165 C9.02504112,3.74662139 9.74341727,4.96067707 10.4590995,6.17652869 C10.5911011,6.3992253 10.565958,6.49889999 10.3432613,6.63718739 C10.0738703,6.80420985 9.80447924,6.9712323 9.52610848,7.12209129 C8.93255019,7.4471565 8.59760732,7.97785687 8.50242248,8.74292746 C8.35695131,9.9102887 8.69728201,10.9761793 9.00977563,11.7744748 C9.72096801,13.5856806 10.6898778,14.9838202 11.9712813,16.0479149 C12.371776,16.3792659 12.8593738,16.676494 13.4206052,16.9324155 C14.0985726,17.2404193 14.7729482,17.1856431 15.3692004,16.7734748 C15.5110797,16.6746981 15.6619387,16.5893909 15.8127977,16.5031858 L16.015739,16.3855517 C16.3273346,16.2023657 16.4126418,16.223917 16.5922358,16.5238391 L18.5183819,19.7708992 C18.5911174,19.8912272 18.663853,20.0115552 18.7312008,20.1363731 C18.8515288,20.3563758 18.785079,20.4560505 18.6387099,20.5449495 M19.9111336,19.4790589 C19.1801859,18.2290844 18.4411564,16.9818039 17.6967391,15.7390131 C17.219917,14.9443095 16.2438234,14.6973677 15.4284665,15.1661082 C15.1321363,15.3349266 14.839398,15.5109287 14.5466598,15.6896248 C14.3697596,15.8000751 14.2162067,15.8234223 14.0770214,15.7587685 L13.8920395,15.6761552 C13.6118728,15.5522353 13.3469716,15.4363972 13.1296628,15.2675788 C11.8329939,14.2708319 10.8694719,12.8933456 10.1825247,11.0578946 C9.9230113,10.3655596 9.8026833,9.74416421 9.81435691,9.15509578 C9.82423458,8.64594669 9.98497124,8.36039217 10.352241,8.19875754 C10.5587742,8.10806255 10.745552,7.98863251 10.926942,7.87279436 L11.0688213,7.7812014 C11.888668,7.26756246 12.1203443,6.32918362 11.6309506,5.49945918 C10.9134724,4.28450552 10.1933003,3.06955187 9.4713323,1.85639416 C8.96397915,1.0060164 8.00853888,0.759074601 7.14918142,1.25206023 C6.83578983,1.43165427 6.52688808,1.61753409 6.21798634,1.80251595 L5.72769462,2.0961522 C5.23650494,2.38709454 4.84678588,2.80465067 4.56841512,3.33535105 C4.09787875,4.23511716 4.00179594,5.20851684 4,6.48722637 L4.00179594,6.51775736 C4.02065331,6.65065695 4.03861272,6.79972 4.05836806,6.96045666 C4.10685845,7.36184933 4.16163463,7.81622224 4.25053368,8.275085 C4.64294665,10.3188651 5.43136447,12.3797067 6.65978767,14.5734478 C8.13964253,17.2152761 9.81076503,19.2931791 11.76834,20.9265869 C12.9823957,21.9394972 14.026735,22.5285657 15.1536876,22.8365694 C15.5550803,22.9461218 15.9322277,23 16.2896199,23 C16.8391776,23 17.340245,22.8706923 17.8026996,22.609383 C18.3235223,22.3166447 18.8380592,22.0095389 19.3490043,21.6961473 C20.141014,21.2103454 20.3780781,20.2773544 19.9111336,19.4790589" id="path-1"></path>
    </defs>
    <g id="Symbols" stroke="none" stroke-width="1" fill="none" fill-rule="evenodd">
        <g id="Icons/24px/phone">
            <mask id="mask-2" fill="white">
                <use xlink:href="#path-1"></use>
            </mask>
            <use id="Mask" fill="#000000" xlink:href="#path-1"></use>
            <g id="Colors/#000000" mask="url(#mask-2)" fill="#333">
                <rect id="black" x="0" y="0" width="24" height="24"></rect>
            </g>
        </g>
    </g>
</svg>
