
<svg width="30px" height="24px" viewBox="0 0 30 24" version="1.1" xmlns="http://www.w3.org/2000/svg" xmlns:xlink="http://www.w3.org/1999/xlink">
    <!-- Generator: Sketch 51.3 (57544) - http://www.bohemiancoding.com/sketch -->
    <desc>Created with Sketch.</desc>
    <defs></defs>
    <g id="mobile" stroke="none" stroke-width="1" fill="none" fill-rule="evenodd">
        <g id="Piterra/mobile/product-card/cash" transform="translate(-258.000000, -193.000000)" fill="#C7B799">
            <g id="Page-1" transform="translate(258.000000, 193.000000)">
                <path d="M28.8712257,15.6536941 C28.8702582,16.3027802 28.6224608,16.5563769 27.9967393,16.5566248 C25.357982,16.5577406 22.7192246,16.5581745 20.0804068,16.5575546 C19.4582529,16.5573687 19.1918919,16.2887087 19.1911663,15.6582813 C19.1892313,13.9030648 19.1885057,12.1477863 19.1903802,10.3925698 C19.1909849,9.79958373 19.4427731,9.54065598 20.0144363,9.53991211 C21.353981,9.53817642 22.6935258,9.53935421 24.03301,9.53935421 L24.03301,9.529312 C25.4127659,9.529312 26.7924008,9.52887808 28.1720961,9.52962195 C28.5323637,9.52974593 28.828233,9.7997697 28.861067,10.1716413 C28.8782399,10.3664105 28.8718908,10.5635973 28.8719513,10.7596063 C28.8724955,12.3909689 28.8736444,14.0223935 28.8712257,15.6536941 M27.0226624,21.7945032 C27.0221182,22.5725883 26.7598086,22.8457115 26.0123048,22.8457115 C18.0527377,22.8459594 10.0931706,22.8459594 2.13366402,22.8455875 C1.4106497,22.8455255 1.12790194,22.5556033 1.12784147,21.8138438 C1.12711586,15.9160932 1.12699492,10.0183427 1.12729726,4.12059209 C1.12729726,4.0292824 1.13515808,3.93791072 1.13751633,3.88645991 C2.90499216,4.07434835 4.66363968,3.96673557 6.41799398,3.97088883 C12.9770647,3.98626208 19.5361959,3.97634385 26.0953876,3.9766538 C26.77033,3.9766538 27.0236904,4.24178044 27.0231462,4.93270903 C27.0220577,6.05737415 27.0228438,7.18203926 27.0228438,8.35939497 C26.850329,8.35939497 26.7215929,8.35939497 26.5928568,8.35939497 C24.4669879,8.35896105 22.3410585,8.34935276 20.2153106,8.36664767 C19.8419215,8.36974712 19.4471872,8.42597108 19.1011901,8.56166484 C18.3888786,8.84086297 18.034295,9.44271347 18.0246201,10.2041235 C18.0011586,12.0526333 18.0064798,13.901763 18.0190571,15.7505208 C18.026797,16.8842983 18.878366,17.7266658 19.9961146,17.7292694 C22.2126853,17.7344764 24.429256,17.731439 26.6458266,17.7317489 L27.0229043,17.7317489 L27.0229043,18.0761594 C27.0229043,19.315566 27.023509,20.5550346 27.0226624,21.7945032 M1.92589642,1.15690145 C2.32806822,1.13904864 2.73150984,1.14983471 3.13440726,1.14977272 C10.7493679,1.14958676 18.3643891,1.14952477 25.9794103,1.15008267 C26.8192485,1.15020665 27.0227229,1.36437839 27.0229647,2.23743045 C27.0230252,2.47441412 27.0229647,2.71139779 27.0229916,2.91341971 C26.5742327,2.88050359 26.166135,2.82483753 25.7579769,2.82458958 C17.991907,2.81956847 10.2258976,2.8211182 2.45988817,2.82124217 C2.28870363,2.82124217 2.11721675,2.82601532 1.94627409,2.81851466 C1.43792071,2.79626064 1.13370686,2.45277999 1.13237656,1.9062856 C1.13134861,1.47583448 1.43259954,1.17884553 1.92589642,1.15690145 M29.9978025,10.4119723 C29.9975607,10.2578059 29.9953233,10.10023 29.965815,9.95009285 C29.782416,9.01734545 29.2538663,8.54728341 28.1396249,8.33862868 L28.1396249,7.91927358 C28.1396249,5.97914412 28.1414389,4.03895267 28.1390807,2.09882321 C28.1373876,0.779326892 27.3817206,0.00142783692 26.0895222,0.00111789229 C18.0595706,-0.000803764475 10.0295584,-5.98973419e-05 1.99954628,0.00192374835 C0.810929368,0.00223369299 0.00126459429,0.832141458 0.00108319068,2.04253726 C5.52368934e-05,8.62191808 -0.000428506063,15.2012989 0.00047851198,21.7807417 C0.000720383459,23.1718352 0.80633381,23.9995734 2.15597666,23.9996354 C10.1153623,24.0001933 18.0748085,24.0000073 26.0342546,23.9997594 C27.3422351,23.9997594 28.1347875,23.1866506 28.1391412,21.8372756 C28.1419831,20.9180418 28.1396249,19.998746 28.1396249,19.0795122 L28.1396249,17.7490438 C28.2118235,17.7279056 28.2583233,17.7102388 28.3063953,17.7007545 C29.4428284,17.4778423 29.9994956,16.7944143 29.999798,15.6176165 C30.0002212,13.8824225 30.0001608,12.1472284 29.9978025,10.4119723 M24.0891242,14.0160086 C23.5237496,14.0225794 23.0635286,13.5655971 23.0574819,12.9917656 C23.0512537,12.4115492 23.4913993,11.9488018 24.0601601,11.9376438 C24.6247486,11.9264858 25.0846672,12.3826624 25.0919838,12.961205 C25.0993004,13.5390658 24.6520196,14.0095618 24.0891242,14.0160086 M24.0689884,10.7861995 C22.9050424,10.7843398 21.9351982,11.7812458 21.9398542,12.9746566 C21.9446312,14.1778617 22.8963955,15.1624318 24.0653603,15.1734039 C25.2291249,15.1842519 26.2220678,14.1616206 26.2116069,12.9630647 C26.2010855,11.7617193 25.2427907,10.7881212 24.0689884,10.7861995" id="Fill-1"></path>
            </g>
        </g>
    </g>
</svg>
