<svg xmlns="http://www.w3.org/2000/svg" xmlns:xlink="http://www.w3.org/1999/xlink" width="24" height="24" viewBox="0 0 24 24">
    <defs>
        <path id="a" d="M18.906 2.733A9.292 9.292 0 0 0 12.319 0a9.292 9.292 0 0 0-6.586 2.733A9.289 9.289 0 0 0 3 9.319c0 .78.104 1.504.284 2.18.271 1.012.713 1.916 1.229 2.751.516.837 1.106 1.608 1.68 2.36l5.37 7.053v.001a.881.881 0 0 0 .685.336c.037 0 .088 0 .154-.008a.713.713 0 0 0 .188-.053.858.858 0 0 0 .162-.091c.09-.065.18-.145.286-.254.158-.164.356-.394.63-.736.276-.341.627-.793 1.088-1.396l.104-.136.058-.076h.002c.68-.872 1.353-1.748 2.022-2.632l.001-.001.001-.001c.292-.391.598-.782.907-1.176.509-.651 1.04-1.33 1.53-2.036l-.003.003c.518-.733 1.081-1.609 1.517-2.625.435-1.016.743-2.175.743-3.463 0-2.569-1.046-4.9-2.732-6.586m.408 9.423c-.372.855-.86 1.616-1.322 2.269l-.003.005-.003.005c-.458.66-.972 1.317-1.472 1.958-.315.4-.627.8-.928 1.204l.001-.002c-.663.875-1.331 1.744-2.003 2.605l.002-.002c-.016.018-.036.046-.067.085l-.113.147a70.808 70.808 0 0 1-1.097 1.408L7.545 15.58h-.001c-.751-.982-1.467-1.921-1.989-2.925a7.783 7.783 0 0 1-.624-1.57A6.722 6.722 0 0 1 4.7 9.319c0-2.101.854-4.004 2.235-5.385a7.592 7.592 0 0 1 5.385-2.235c2.102 0 4.004.854 5.386 2.235a7.594 7.594 0 0 1 2.234 5.385c0 1.034-.253 1.981-.625 2.837m-6.99-7.766c-1.306 0-2.493.53-3.35 1.384a4.7 4.7 0 0 0 0 6.675 4.739 4.739 0 0 0 3.35 1.383 4.738 4.738 0 0 0 4.74-4.72 4.7 4.7 0 0 0-1.39-3.338 4.735 4.735 0 0 0-3.35-1.384m2.802 5.895a3.042 3.042 0 0 1-2.803 1.849 3.046 3.046 0 0 1-2.802-1.85 2.987 2.987 0 0 1-.239-1.173c0-.417.085-.813.239-1.174a3.057 3.057 0 0 1 1.103-1.331 3.036 3.036 0 0 1 1.7-.517 3.04 3.04 0 0 1 3.042 3.022c0 .417-.085.813-.24 1.174"/>
    </defs>
    <g fill="none" fill-rule="evenodd">
        <mask id="b" fill="#c7b799">
            <use xlink:href="#a"/>
        </mask>
        <use fill="#c7b799" xlink:href="#a"/>
        <g fill="#c7b799" mask="url(#b)">
            <path d="M0 0h24v24H0z"/>
        </g>
    </g>
</svg>
