<svg xmlns="http://www.w3.org/2000/svg" xmlns:xlink="http://www.w3.org/1999/xlink" width="40" height="40" viewBox="0 0 40 40">
    <defs>
        <path id="a" d="M18.58 17.08l6.046-.48v-.687l-6.045.563v.604zm0-2.121l6.046-.78v-.688l-6.045.865v.603zm0 1.06l6.046-.63v-.687l-6.045.715v.602zm0 2.122l6.046-.333v-.685l-6.045.414v.604zm0 1.063l6.046-.185v-.686l-6.045.267v.604zm0-7.428l6.046-1.227v-.687l-6.045 1.31v.604zm0 2.123l6.046-.93v-.688l-6.045 1.014v.604zm0-4.244l6.046-1.528v-.684L18.581 9.05v.605zm0 1.06l6.046-1.378v-.685l-6.045 1.46v.602zm0 2.121l6.046-1.077v-.689l-6.045 1.163v.603zm0 7.429l6.046-.035v-.687l-6.045.116v.606zm0 9.547l6.046 1.31v-.688l-6.045-1.225v.603zm0-1.062l6.046 1.16v-.685l-6.045-1.078v.603zM28.318 40h8.858V0h-8.858v40zm-9.736-9.127l6.045 1.458v-.687l-6.045-1.375v.604zm-3.732-11.138h-2.92l-.503-.403v-1.008H3.778S2 18.594 2 20.707c0 2.114 1.84 2.355 1.84 2.355h7.586v-1.108l.606-.306h2.817v10.483h3.227V8.85H14.85v10.884zm3.732 12.198l6.045 1.608v-.687l-6.045-1.525v.604zm0-5.305l6.045.863v-.689l-6.045-.779v.605zm0-4.24l6.045.262v-.689l-6.045-.18v.607zm0 1.058l6.045.415v-.687l-6.045-.33v.602zm0 2.123l6.045.712v-.688l-6.045-.63v.606zm0-1.061l6.045.562v-.686l-6.045-.481v.605zm0-3.185l6.045.115v-.685l-6.045-.032v.602zm0 6.366l6.045 1.011v-.685l-6.045-.928v.602z"/>
    </defs>
    <g fill="none" fill-rule="evenodd">
        <mask id="b" fill="#fff">
            <use xlink:href="#a"/>
        </mask>
        <use fill="#241F21" xlink:href="#a"/>
        <g fill="#000" mask="url(#b)">
            <path d="M0 0h40v40H0z"/>
        </g>
    </g>
</svg>
