<svg xmlns="http://www.w3.org/2000/svg" width="24" height="24" viewBox="0 0 24 24" enable-background="new 0 0 24 24" fill="#fff"><path d="M12.1 18c-.6 0-1.1.5-1.1 1.2s.5 1.2 1.1 1.2c.6 0 1.1-.5 1.1-1.2s-.5-1.2-1.1-1.2M11 10V5.1c0-.6.4-1.1 1-1.1.7 0 1.1.5 1.1 1.2V15c0 .7-.4 1.1-1 1.2-.7 0-1.1-.4-1.1-1.1V10" fill="#fff"/><defs><filter id="a" filterUnits="userSpaceOnUse" x="0" y="0" width="24" height="24"><feColorMatrix values="1 0 0 0 0 0 1 0 0 0 0 0 1 0 0 0 0 0 1 0"/></filter></defs><mask maskUnits="userSpaceOnUse" x="0" y="0" width="24" height="24" id="b"><path d="M12.1 18c-.6 0-1.1.5-1.1 1.2s.5 1.2 1.1 1.2c.6 0 1.1-.5 1.1-1.2s-.5-1.2-1.1-1.2M11 10V5.1c0-.6.4-1.1 1-1.1.7 0 1.1.5 1.1 1.2V15c0 .7-.4 1.1-1 1.2-.7 0-1.1-.4-1.1-1.1V10" fill="#fff" filter="url(#a)"/></mask><g mask="url(#b)"><path d="M0 0h24v24H0z"/></g></svg>
