<svg xmlns="http://www.w3.org/2000/svg" xmlns:xlink="http://www.w3.org/1999/xlink" width="30" height="30" viewBox="0 0 30 30">
    <defs>
        <path id="a" d="M14.905 3.647a9.112 9.112 0 0 1 3.163-2.071c4.539-1.724 9.617.558 11.338 5.097.205.535.354 1.088.45 1.65a8.578 8.578 0 0 1-2.524 7.785c-3.397 3.43-6.823 6.83-10.234 10.242-.625.626-1.245 1.252-1.871 1.872a5.613 5.613 0 0 0-.22.205c-.743-.722-1.471-1.417-2.18-2.132a3384.666 3384.666 0 0 1-10.16-10.268A8.823 8.823 0 0 1 .008 9.36a8.628 8.628 0 0 1 7.14-8.171 8.72 8.72 0 0 1 7.572 2.305c.054.05.102.089.186.152zm-.021 3.144c-.584-.598-1.114-1.19-1.7-1.727a6.336 6.336 0 0 0-5.736-1.7A6.471 6.471 0 0 0 3.756 13.97c.64.75 1.307 1.478 2 2.18 2.333 2.36 4.699 4.706 7.045 7.059.714.714 1.417 1.43 2.229 2.249.062-.135.14-.262.233-.38a2625.16 2625.16 0 0 1 6.878-6.883c1.224-1.225 2.455-2.435 3.666-3.673a6.371 6.371 0 0 0 1.783-6.246 6.276 6.276 0 0 0-4.581-4.8 6.4 6.4 0 0 0-6.472 1.636c-.546.522-1.07 1.086-1.653 1.678z"/>
    </defs>
    <g fill="none" fill-rule="evenodd">
        <mask id="b" fill="#fff">
            <use xlink:href="#a"/>
        </mask>
        <use fill="#000" xlink:href="#a"/>
        <g fill="#000" mask="url(#b)">
            <path d="M0 0h30v30H0z"/>
        </g>
    </g>
</svg>
