<svg xmlns="http://www.w3.org/2000/svg" viewBox="0 0 24 24" enable-background="new 0 0 24 24"><path d="M12 3c4.5 0 8 3 8 8h-2c0-3-2.1-6-6-6-2.3 0-4 .5-5.5 2H9v2H3V3h2v2.5C6.6 3.5 9.3 3 12 3zm-1 17c-4.5 0-8-3-8-8h2c0 3 2.1 6 6 6 2.3 0 4-.5 5.5-2H14v-2h6v6h-2v-2.5c-1.6 2-4.3 2.5-7 2.5z" fill="#333"/><defs><filter id="a" filterUnits="userSpaceOnUse" x="0" y="0" width="24" height="24"><feColorMatrix values="1 0 0 0 0 0 1 0 0 0 0 0 1 0 0 0 0 0 1 0"/></filter></defs><mask maskUnits="userSpaceOnUse" x="0" y="0" width="24" height="24" id="b"><path d="M12 3c4.5 0 8 3 8 8h-2c0-3-2.1-6-6-6-2.3 0-4 .5-5.5 2H9v2H3V3h2v2.5C6.6 3.5 9.3 3 12 3zm-1 17c-4.5 0-8-3-8-8h2c0 3 2.1 6 6 6 2.3 0 4-.5 5.5-2H14v-2h6v6h-2v-2.5c-1.6 2-4.3 2.5-7 2.5z" fill="#fff" filter="url(#a)"/></mask><g fill="#727272" mask="url(#b)"><path d="M0 0h24v24H0z"/></g></svg>
