<svg xmlns="http://www.w3.org/2000/svg" xmlns:xlink="http://www.w3.org/1999/xlink" width="24" height="24" viewBox="0 0 24 24">
    <defs>
        <path id="a" d="M21.426 17.929l-5.589-6.454 5.623-4.496c.052 1.759.027 8.995-.034 10.95m-.745.89c-2.361.002-4.722.002-7.083.001H9.646c-1.928 0-3.857 0-5.785-.002-.056 0-.112-.005-.167-.011l5.784-6.686 2.645 2.114c.076.06.184.06.261 0l2.65-2.118 5.794 6.69a.963.963 0 0 1-.147.011M3.039 11.363V6.968l5.639 4.512-5.637 6.51c-.003-2.205-.002-4.409-.002-6.627m.774-5.33c.003 0 .004-.002.007 0h16.897c.09 0 .168.009.24.029l-.319.258-1.503 1.202c-2.283 1.825-4.566 3.651-6.847 5.48l-.034.027a5646.586 5646.586 0 0 0-7.001-5.606l-1.699-1.36a.94.94 0 0 1 .26-.03m18.698.487l-.064-.222v-.001c-.22-.785-.9-1.294-1.734-1.295C18.362 5 16.01 5 13.653 5.001h-9.73c-1.027.001-1.626.47-1.891 1.464A.212.212 0 0 0 2 6.577v11.7c0 .02.003.04.008.059l.072.241a1.742 1.742 0 0 0 1.706 1.276h16.83c.997-.001 1.624-.49 1.86-1.442l.026-.048a.222.222 0 0 0 .018-.086v-11.7a.188.188 0 0 0-.008-.057"/>
    </defs>
    <g fill="none" fill-rule="evenodd">
        <mask id="b" fill="#fff">
            <use xlink:href="#a"/>
        </mask>
        <use fill="#c7b799" xlink:href="#a"/>
        <g fill="#c7b799" mask="url(#b)">
            <path d="M0 0h24v24H0z"/>
        </g>
    </g>
</svg>
