<svg xmlns="http://www.w3.org/2000/svg" xmlns:xlink="http://www.w3.org/1999/xlink" width="24" height="24" viewBox="0 0 24 24">
    <defs>
        <path id="a" d="M18.854 11.34c-.507.519-1.029 1.038-1.533 1.54a1566.334 1566.334 0 0 0-4.934 4.937 1.36 1.36 0 0 0-.016.021l-.376-.38c-.274-.277-.534-.54-.797-.803a839.004 839.004 0 0 0-1.571-1.571 582.519 582.519 0 0 1-2.739-2.747c-.42-.426-.828-.871-1.215-1.325a3.74 3.74 0 0 1-.855-1.767A3.752 3.752 0 0 1 7.815 4.87a3.665 3.665 0 0 1 3.323.988c.242.224.467.46.706.711.107.112.214.225.325.339a.214.214 0 0 0 .31-.006c.124-.125.243-.248.36-.368.22-.228.428-.444.647-.654a3.694 3.694 0 0 1 3.755-.944 3.656 3.656 0 0 1 2.65 2.786 3.689 3.689 0 0 1-1.037 3.619m2.841-3.68a5.569 5.569 0 0 0-.286-1.05 5.552 5.552 0 0 0-2.935-3.116 5.555 5.555 0 0 0-4.28-.127 5.752 5.752 0 0 0-1.869 1.178A5.564 5.564 0 0 0 7.55 3.12a5.522 5.522 0 0 0-4.546 5.202 5.618 5.618 0 0 0 1.69 4.238c2.208 2.24 4.242 4.296 6.218 6.284.334.337.667.659 1.02 1l.317.308a.212.212 0 0 0 .302-.004c.03-.032.077-.074.131-.123.267-.265.532-.53.798-.797l.348-.35 1.886-1.884a1046.4 1046.4 0 0 0 4.373-4.38 5.445 5.445 0 0 0 1.608-4.955"/>
    </defs>
    <g fill="none" fill-rule="evenodd">
        <mask id="b" fill="#fff">
            <use xlink:href="#a"/>
        </mask>
        <use fill="#000" xlink:href="#a"/>
        <g fill="#000" mask="url(#b)">
            <path d="M0 0h24v24H0z"/>
        </g>
    </g>
</svg>
