<svg xmlns="http://www.w3.org/2000/svg" xmlns:xlink="http://www.w3.org/1999/xlink" width="100" height="100" viewBox="0 0 100 100">
    <defs>
        <path id="ts" d="M50.985 49.71c-.719 9.787-8.959 16.269-17.756 15.722-9.734-.606-16.703-8.778-15.81-18.534.818-8.953 8.565-15.485 17.42-15.165 9.886.507 16.817 8.848 16.146 17.976zm-16.31-21.191C23.624 28.289 14.413 37.132 14.109 48c-.318 11.416 8.953 20.579 19.803 20.644 11.23.067 20.199-8.765 20.298-20.039.095-10.771-8.858-19.865-19.533-20.086zm58.952 48.473c-1.33 0-2.611.035-3.89-.037-.194-.011-.505-.51-.518-.795-.062-1.221-.019-2.446-.038-3.67-.017-1.037-.656-1.724-1.563-1.73-.902-.005-1.54.666-1.567 1.722a91.344 91.344 0 0 0-.01 3.671c.01.626-.243.878-.873.86a46.962 46.962 0 0 0-3.146.005c-.674.026-.932-.196-.91-.896.04-1.188.016-2.378-.024-3.566-.038-1.123-.69-1.818-1.619-1.797-.932.022-1.534.735-1.546 1.863-.012 1.153-.032 2.308.007 3.46.023.668-.195.958-.892.935a59.007 59.007 0 0 0-3.25-.006c-.585.013-.807-.22-.792-.808.03-1.187.017-2.377.004-3.565-.013-1.134-.607-1.84-1.543-1.878-.957-.037-1.647.71-1.674 1.874a77.875 77.875 0 0 0 0 3.566c.012.578-.189.828-.785.812a60.626 60.626 0 0 0-2.937-.002c-.595.014-.792-.264-.79-.828.013-2.832.013-5.663 0-8.495-.002-.55.144-.826.766-.824 9.09.02 18.179.021 27.268.029.066 0 .132.035.322.09v10.01zm-32.757.037c-10.003-.035-20.007.016-30.01-.032C18.7 76.94 8.328 68.185 6.575 56.232c-.542-3.705-.36-7.536-.286-11.305.044-2.213.301-4.476.854-6.616 2.436-9.438 10.834-16.828 20.507-17.783 5.408-.534 10.938-.954 16.252.615 9.917 2.926 15.962 9.582 17.811 19.775.513 2.824.361 5.777.413 8.674.061 3.461.015 6.924.015 10.387 0 5.247-.024 10.493.02 15.74.009.998-.269 1.314-1.29 1.31zM96.925 66.34c0-2.066-.631-2.709-2.681-2.71-9.267-.002-18.535-.014-27.803.019-.915.003-1.189-.233-1.183-1.168.044-5.665.001-11.331.033-16.997.016-2.884-.218-5.739-1.13-8.479-3.626-10.91-11.05-17.614-22.421-19.542-3.446-.584-7.04-.487-10.558-.389-2.63.074-5.353.298-7.846 1.066-11.117 3.428-17.947 10.934-19.88 22.433-.674 4.025-.388 8.221-.433 12.34-.016 1.492.181 3.006.458 4.477C6.063 71.124 18.164 80.29 31.296 80.185c20.248-.162 40.498-.044 60.746-.044h1.64c0 .875-.124 1.6.04 2.252.136.545.505 1.18.963 1.453.364.217 1.209.14 1.499-.148.412-.41.705-1.132.711-1.725.052-5.21.03-10.421.03-15.633z"/>
    </defs>
    <g fill="none" fill-rule="evenodd">
        <mask id="qq" fill="#fff">
            <use xlink:href="#t"/>
        </mask>
        <use fill="#1D1D1B" xlink:href="#ts"/>
        <g fill="#333333" mask="url(#qq)">
            <path d="M0 0h100v100H0z"/>
        </g>
    </g>
</svg>
