<svg xmlns="http://www.w3.org/2000/svg" xmlns:xlink="http://www.w3.org/1999/xlink" width="100" height="100" viewBox="0 0 100 100">
    <defs>
        <path id="ss" d="M40.754 62.386h5.8v-5.541h-5.8v5.54zm0 8.44h5.8v-5.802h-5.8v5.802zm0 8.44h5.8v-5.802h-5.8v5.802zm-8.463-41.701h5.824v-5.54H32.29v5.54zm0 8.44h5.824v-5.8H32.29v5.8zm0 8.201h5.824v-5.56H32.29v5.56zm0 8.18h5.824v-5.541H32.29v5.54zm0 8.44h5.824v-5.802H32.29v5.802zm0 8.44h5.824v-5.802H32.29v5.802zm21.122-22.421a1.319 1.319 0 1 0 0-2.639h-4.22v-1.32a1.32 1.32 0 1 0-2.639 0v1.32h-5.8v-5.56h3.958a1.32 1.32 0 0 0 0-2.64h-3.959v-5.801h3.959a1.32 1.32 0 0 0 0-2.64h-3.959v-5.539h3.959a1.32 1.32 0 0 0 0-2.64h-3.959v-2.104a1.319 1.319 0 1 0-2.638 0v2.105H32.29v-2.105a1.319 1.319 0 1 0-2.638 0v2.105h-3.958a1.32 1.32 0 1 0 0 2.64h3.958v5.538h-3.958a1.32 1.32 0 1 0 0 2.64h3.958v5.8h-3.958a1.32 1.32 0 1 0 0 2.64h3.958v5.561h-3.958a1.32 1.32 0 1 0 0 2.639h3.958v5.54h-3.958a1.319 1.319 0 1 0 0 2.64h3.958v5.801h-3.958a1.319 1.319 0 1 0 0 2.638h3.958v5.802h-3.958a1.319 1.319 0 1 0 0 2.639h3.958v2.911a1.319 1.319 0 1 0 2.638 0v-2.911h5.825v2.911a1.319 1.319 0 1 0 2.638 0v-2.911h5.801v2.911a1.319 1.319 0 1 0 2.64 0v-2.911h4.219a1.319 1.319 0 1 0 0-2.639h-4.22v-5.802h4.22a1.319 1.319 0 1 0 0-2.638h-4.22v-5.802h4.22a1.319 1.319 0 1 0 0-2.638h-4.22v-5.541h4.22zm41.687 4.21h-2.103c-.728 0-1.318.59-1.318 1.32v20.064c0 .593-.466 1.059-1.058 1.059h-4.493a1.059 1.059 0 0 1-1.057-1.059V62.375c0-.73-.59-1.32-1.32-1.32h-2.106v-3.162H95.1v3.162zm-10.815-23.74V26.496c0-.593.465-1.057 1.058-1.057h6.059c.608 0 1.065.454 1.065 1.057v10.817c0 .79-.428 1.32-1.065 1.32h-.78a1.32 1.32 0 0 0-1.32 1.32v15.3h-1.855v-15.3c0-.729-.59-1.32-1.319-1.32h-.785c-.622 0-1.058-.542-1.058-1.32zM96.42 55.252H91.94V41.235c1.838-.262 3.165-1.86 3.165-3.92V26.496c0-2.073-1.626-3.697-3.704-3.697h-6.06a3.7 3.7 0 0 0-3.695 3.697v10.817c0 2.062 1.327 3.66 3.162 3.922v14.017h-4.483a1.32 1.32 0 0 0-1.319 1.32v5.802c0 .728.59 1.319 1.32 1.319h2.105v18.745a3.7 3.7 0 0 0 3.696 3.696h4.493a3.7 3.7 0 0 0 3.695-3.696V63.694h2.103c.73 0 1.32-.59 1.32-1.32v-5.801c0-.729-.59-1.32-1.32-1.32zm-46.18-17.415c0-4.965 2.54-9.347 6.61-11.648v10.056c0 .395.177.77.483 1.02l5.802 4.756a1.317 1.317 0 0 0 1.671 0l5.801-4.756c.307-.25.483-.625.483-1.02V26.178c4.23 2.334 6.871 6.727 6.871 11.66 0 5.72-3.788 10.946-9.426 13.003-.521.19-.868.685-.868 1.239V79.8c0 2.177-1.52 3.698-3.697 3.698-1.778 0-3.697-1.415-3.697-3.698V53.149c0-.108-.002-.2 0-.278a1.317 1.317 0 0 0-.622-2.036c-5.717-1.996-9.41-7.097-9.41-12.997zM57.635 79.8a6.343 6.343 0 0 0 6.335 6.335c3.612 0 6.336-2.723 6.336-6.335V52.977C76.5 50.337 80.6 44.363 80.6 37.838c0-6.703-4.067-12.573-10.362-14.953a1.32 1.32 0 0 0-1.785 1.235v11.502l-4.483 3.673-4.482-3.673V24.12a1.32 1.32 0 0 0-1.786-1.235c-6.135 2.32-10.1 8.19-10.1 14.953 0 6.635 3.898 12.417 10.035 15.044-.002.09-.002.18-.002.267v26.65zM5.64 12.233c0-3.759 2.836-6.593 6.597-6.593 3.761 0 6.598 2.834 6.598 6.593v69.818a9.204 9.204 0 0 0-13.195 0V12.233zm90 74.427c-.73 0-1.32.59-1.32 1.319v7.382H12.237c-3.7 0-6.597-3.012-6.597-6.86a6.605 6.605 0 0 1 6.597-6.596 6.605 6.605 0 0 1 6.598 6.597 1.319 1.319 0 1 0 2.638 0V15.407H94.32v3.696a1.319 1.319 0 1 0 2.639 0v-5.016c0-.728-.59-1.32-1.32-1.32H21.474v-.534C21.473 7.056 17.417 3 12.237 3 7.057 3 3 7.056 3 12.233v76.269C3 93.828 7.058 98 12.237 98H95.64c.728 0 1.319-.59 1.319-1.319V87.98c0-.729-.59-1.319-1.32-1.319z"/>
    </defs>
    <g fill="none" fill-rule="evenodd">
        <mask id="sss" fill="#fff">
            <use xlink:href="#ss"/>
        </mask>
        <use fill="#020203" xlink:href="#ss"/>
        <g fill="#333333" mask="url(#sss)">
            <path d="M0 0h100v100H0z"/>
        </g>
    </g>
</svg>
