<svg width="448" height="324" viewBox="0 0 448 324" fill="none" xmlns="http://www.w3.org/2000/svg">
<path d="M44.0644 193.497C41.7423 187.67 46.118 181.375 52.4906 181.375H74.3851C81.7167 181.375 87.66 187.211 87.66 194.41V197.121C87.66 204.321 81.7167 210.157 74.3851 210.157H68.9212C57.9335 210.157 48.0681 203.545 44.0644 193.497Z" fill="white"/>
<path fill-rule="evenodd" clip-rule="evenodd" d="M52.4906 181.896C46.4922 181.896 42.3731 187.822 44.5589 193.307C48.4831 203.155 58.1519 209.635 68.9212 209.635H74.3851C81.4234 209.635 87.1293 204.033 87.1293 197.121V194.41C87.1293 187.499 81.4234 181.896 74.3851 181.896H52.4906ZM52.4906 181.375C46.118 181.375 41.7423 187.67 44.0644 193.497C48.0681 203.545 57.9335 210.157 68.9212 210.157H74.3851C81.7167 210.157 87.66 204.321 87.66 197.121V194.41C87.66 187.211 81.7167 181.375 74.3851 181.375H52.4906Z" fill="#AFCCE4"/>
<path fill-rule="evenodd" clip-rule="evenodd" d="M22.4671 259.964C22.4865 259.825 22.6195 259.727 22.7642 259.745L73.4822 266.257C73.6269 266.275 73.7284 266.403 73.709 266.543C73.6901 266.682 73.5571 266.78 73.4123 266.761L22.6944 260.25C22.5496 260.231 22.4482 260.104 22.4671 259.964Z" fill="#AFCCE4"/>
<path fill-rule="evenodd" clip-rule="evenodd" d="M67.6153 206.392C67.7546 206.375 67.88 206.48 67.8959 206.626L77.2172 292.442C77.2332 292.587 77.133 292.719 76.9941 292.735C76.8553 292.752 76.7299 292.647 76.7139 292.502L67.3922 206.686C67.3767 206.54 67.4764 206.409 67.6153 206.392Z" fill="#AFCCE4"/>
<path d="M11.1499 183.755C8.25628 173.636 15.8774 163.568 26.4308 163.568H39.6837C46.6728 163.568 52.8412 168.121 54.8813 174.787L58.2702 185.858C61.1718 195.338 54.7302 205.117 44.8523 206.227L31.7963 207.694C24.0796 208.561 16.8651 203.74 14.7357 196.294L11.1499 183.755Z" fill="white"/>
<path fill-rule="evenodd" clip-rule="evenodd" d="M26.4308 164.096C16.2292 164.096 8.86227 173.829 11.6595 183.61L15.2449 196.15C17.3031 203.347 24.2774 208.008 31.7369 207.169L44.7929 205.702C54.3414 204.628 60.5683 195.176 57.7635 186.012L54.3747 174.941C52.4027 168.498 46.44 164.096 39.6837 164.096H26.4308ZM26.4308 163.568C15.8774 163.568 8.25628 173.636 11.1499 183.755L14.7357 196.294C16.8651 203.74 24.0796 208.561 31.7963 207.694L44.8523 206.227C54.7302 205.117 61.1718 195.338 58.2702 185.858L54.8813 174.787C52.8412 168.121 46.6728 163.568 39.6837 163.568H26.4308Z" fill="#AFCCE4"/>
<path d="M26.6758 202.88C26.6758 199.003 29.7979 195.86 33.6492 195.86H61.1205C64.9719 195.86 68.094 199.003 68.094 202.88C68.094 206.757 64.9719 209.9 61.1205 209.9H33.6492C29.7979 209.9 26.6758 206.757 26.6758 202.88Z" fill="white"/>
<path fill-rule="evenodd" clip-rule="evenodd" d="M61.1205 196.392H33.6492C30.0895 196.392 27.2039 199.297 27.2039 202.88C27.2039 206.463 30.0895 209.368 33.6492 209.368H61.1205C64.6803 209.368 67.5659 206.463 67.5659 202.88C67.5659 199.297 64.6803 196.392 61.1205 196.392ZM33.6492 195.86C29.7979 195.86 26.6758 199.003 26.6758 202.88C26.6758 206.757 29.7979 209.9 33.6492 209.9H61.1205C64.9719 209.9 68.094 206.757 68.094 202.88C68.094 199.003 64.9719 195.86 61.1205 195.86H33.6492Z" fill="#AFCCE4"/>
<path fill-rule="evenodd" clip-rule="evenodd" d="M27.8539 209.902C27.9949 209.917 28.0967 210.048 28.0815 210.192L19.4681 292.502C19.453 292.647 19.3263 292.751 19.1858 292.736C19.0448 292.72 18.9434 292.59 18.9585 292.445L27.5715 210.136C27.5867 209.991 27.7133 209.886 27.8539 209.902Z" fill="#AFCCE4"/>
<path fill-rule="evenodd" clip-rule="evenodd" d="M73.7047 266.276C73.7346 266.422 73.6437 266.565 73.5018 266.596L43.533 273.076C43.5086 273.081 43.4837 273.082 43.4589 273.081L7.26269 270.273C7.11792 270.261 7.00935 270.132 7.02029 269.983C7.03123 269.835 7.15748 269.723 7.30182 269.734L43.4614 272.539L73.3937 266.067C73.5359 266.037 73.6748 266.13 73.7047 266.276Z" fill="#AFCCE4"/>
<path d="M94.0703 26.2387C94.0703 23.3788 96.389 21.0601 99.249 21.0601H180.931C183.791 21.0601 186.109 23.3788 186.109 26.2387V85.0874C186.109 87.9473 183.791 90.266 180.931 90.266H99.249C96.389 90.266 94.0703 87.9473 94.0703 85.0874V26.2387Z" fill="#D4E8F5"/>
<path d="M106.859 30.1304H125.731" stroke="#0F3E9F" stroke-width="6" stroke-linecap="round" stroke-linejoin="round"/>
<path fill-rule="evenodd" clip-rule="evenodd" d="M116.132 41.594H106.861C105.944 41.594 105.199 40.8495 105.199 39.9317C105.199 39.0135 105.944 38.269 106.861 38.269H116.132C117.05 38.269 117.794 39.0135 117.794 39.9317C117.794 40.8495 117.05 41.594 116.132 41.594Z" fill="#A8CDE7"/>
<path d="M136.945 48.3838H143.489V76.4287H136.945V48.3838Z" fill="#0F3E9F"/>
<path d="M147.227 55.1143H153.77V76.4281H147.227V55.1143Z" fill="#FF566A"/>
<path d="M157.512 60.3491H164.056V76.4283H157.512V60.3491Z" fill="#0F3E9F"/>
<path d="M174.337 65.3975H167.793V76.4284H174.337V65.3975Z" fill="#FF566A"/>
<path fill-rule="evenodd" clip-rule="evenodd" d="M153.382 37.9015C148.972 37.9015 144.948 39.5452 141.892 42.2519C141.746 42.3811 141.523 42.3676 141.393 42.2216C141.264 42.0756 141.278 41.8526 141.424 41.7234C144.604 38.9064 148.793 37.1953 153.382 37.1953C163.327 37.1953 171.391 45.2305 171.391 55.1451V58.2874C171.391 58.4822 171.233 58.6404 171.038 58.6404C170.843 58.6404 170.685 58.4822 170.685 58.2874V55.1451C170.685 45.6227 162.94 37.9015 153.382 37.9015Z" fill="white"/>
<path d="M141.661 42.8895C142.094 42.8895 142.446 42.5378 142.446 42.1039C142.446 41.6701 142.094 41.3184 141.661 41.3184C141.227 41.3184 140.875 41.6701 140.875 42.1039C140.875 42.5378 141.227 42.8895 141.661 42.8895Z" fill="#0F3E9F"/>
<path d="M151.243 38.3338C151.676 38.3338 152.028 37.9821 152.028 37.5483C152.028 37.1144 151.676 36.7627 151.243 36.7627C150.809 36.7627 150.457 37.1144 150.457 37.5483C150.457 37.9821 150.809 38.3338 151.243 38.3338Z" fill="#FF566A"/>
<path d="M160.829 39.9046C161.262 39.9046 161.614 39.5529 161.614 39.1191C161.614 38.6852 161.262 38.3335 160.829 38.3335C160.395 38.3335 160.043 38.6852 160.043 39.1191C160.043 39.5529 160.395 39.9046 160.829 39.9046Z" fill="#0F3E9F"/>
<path d="M171.039 59.2298C171.473 59.2298 171.825 58.8781 171.825 58.4443C171.825 58.0104 171.473 57.6587 171.039 57.6587C170.606 57.6587 170.254 58.0104 170.254 58.4443C170.254 58.8781 170.606 59.2298 171.039 59.2298Z" fill="#FF566A"/>
<path d="M106.074 49.9118C106.074 48.6119 107.128 47.5581 108.428 47.5581H126.33C127.63 47.5581 128.684 48.6119 128.684 49.9118V57.8135C128.684 59.1135 127.63 60.1672 126.33 60.1672H108.428C107.128 60.1672 106.074 59.1135 106.074 57.8135V49.9118Z" fill="#A8CDE7"/>
<path d="M106.074 65.7828C106.074 64.4824 107.128 63.4287 108.428 63.4287H126.33C127.63 63.4287 128.684 64.4824 128.684 65.7828V73.6842C128.684 74.9841 127.63 76.0382 126.33 76.0382H108.428C107.128 76.0382 106.074 74.9841 106.074 73.6842V65.7828Z" fill="#A8CDE7"/>
<path d="M83.9687 169.286H38.0312L39.1144 187.057C39.3733 191.304 42.763 194.691 47.0112 194.946L76.0581 196.688C81.0755 196.989 85.2362 192.853 84.9664 187.834L83.9687 169.286Z" fill="#120A3E"/>
<path d="M82.1172 227.269L95.1682 225.219L98.2431 253.421L97.6203 254.605C96.6524 256.444 94.3682 257.137 92.5418 256.145L87.5235 253.421L82.1172 227.269Z" fill="#F9CCA3"/>
<path d="M86.7916 248.86L84.5406 239.016C83.6611 239.534 83.2874 240.491 83.2874 241.586L83.2344 242.94L84.1875 255.328H85.6166V250.428L87.0874 255.185C87.228 255.753 87.3748 256.273 87.523 256.718C88.873 260.767 95.8612 262.197 98.0048 261.72C100.149 261.243 100.149 259.338 99.9107 258.147C99.7285 257.238 99.2942 255.523 98.8869 253.914C98.8557 253.79 98.8242 253.666 98.7934 253.544C98.6638 253.032 98.0402 252.791 97.552 252.994C96.3522 253.493 94.448 253.886 92.3709 253.332C89.428 252.548 87.8133 250.513 86.7916 248.86Z" fill="#261B65"/>
<path d="M73.5018 201.393L66.1004 203.226C53.0212 206.464 40.0683 197.491 38.5024 184.109L38.2941 182.332C38.2466 181.923 38.5391 181.552 38.9477 181.504L70.87 177.751L74.9755 177.15C85.4561 175.616 94.9297 183.566 95.2382 194.154L97.4024 232.948L81.3687 234.913L73.5018 201.393Z" fill="#120A3E"/>
<path d="M59.1742 249.579L61.0439 252.712L59.3842 262.191L57.9766 261.945L59.1742 249.579Z" fill="#261B65"/>
<path d="M59.3344 248.671C59.6551 246.839 61.3998 245.615 63.2312 245.935L63.6693 246.012L60.9049 263.182L59.1758 249.578L59.3344 248.671Z" fill="#261B65"/>
<path d="M60.7773 233.95L73.9865 234.181L72.1518 262.492L71.6308 263.166C70.1966 265.022 67.5223 265.347 65.685 263.89L61.5925 260.643L60.7773 233.95Z" fill="#F9CCA3"/>
<path d="M72.9697 267.472C72.9461 266.501 72.8022 264.608 72.6735 262.887C72.6293 262.292 71.9804 261.9 71.3958 262.019C70.1275 262.277 68.2536 262.3 66.3733 261.429C62.8047 259.775 61.7771 256.45 61.1261 254.643C60.6758 257.214 60.6577 261.543 61.0141 263.927C61.6454 268.149 68.2826 270.762 70.4763 270.662C72.6705 270.563 72.9996 268.686 72.9697 267.472Z" fill="#261B65"/>
<path d="M54.8766 202.097C54.2647 194.922 60.0359 188.813 67.234 189.017C74.3855 189.219 79.7893 195.567 78.8479 202.659L74.1027 244.794H58.5701L54.8766 202.097Z" fill="#261B65"/>
<path d="M127.608 147.846L114.023 149.589L117.82 162.584L127.608 159.032L129.473 151.947L127.608 147.846Z" fill="#578DFF"/>
<path d="M93.8417 130.757C92.2148 125.035 87.3429 120.828 81.4455 120.05L78.3125 119.637L85.8263 163.002C86.729 168.212 91.9269 171.507 97.024 170.101L104.448 168.054L93.8417 130.757Z" fill="#FFB84C"/>
<path d="M82.6406 156.124L86.3855 165.151C88.3049 169.777 93.5542 172.038 98.2338 170.254L121.244 161.486L114.108 148.947L82.6406 156.124Z" fill="#FFB84C"/>
<path fill-rule="evenodd" clip-rule="evenodd" d="M110.983 151.106C110.519 151.329 110.322 151.886 110.545 152.35L114.833 161.299C115.055 161.763 115.612 161.96 116.076 161.737C116.541 161.515 116.737 160.958 116.514 160.493L112.226 151.544C112.004 151.08 111.447 150.884 110.983 151.106Z" fill="#FF9F3B"/>
<path d="M96.6562 156.049L103.741 151.388L100.012 152.134L99.2662 149.896L96.6562 156.049Z" fill="#FF9F3B"/>
<path d="M85.2141 129.67C86.2102 124.723 82.7413 119.989 77.7243 119.449L54.2996 116.929C50.2197 116.49 46.4934 119.274 45.7582 123.311L37.6595 167.773C37.4634 168.851 38.2339 169.864 39.3247 169.964L74.752 173.193C75.7001 173.279 76.5611 172.637 76.7492 171.704L85.2141 129.67Z" fill="#F4F4F4"/>
<path d="M90.4371 132.238L85.997 172.21C79.391 172.21 73.7599 167.274 72.973 160.715L69.9961 135.913L76.8946 119.32L80.9989 119.943C86.9342 120.845 91.0999 126.271 90.4371 132.238Z" fill="#FFB84C"/>
<path fill-rule="evenodd" clip-rule="evenodd" d="M75.0469 137.69L81.5103 120.515L79.8805 120.252L73.5273 137.493L76.3418 165.074L77.8256 164.922L75.0469 137.69Z" fill="#FF9F3B"/>
<path d="M38.2689 197.698L46.6521 196.183C48.7546 195.803 50.4135 194.181 50.8393 192.087L62.3682 135.415L59.6135 117.403L52.2849 116.709L31.8821 190.708C30.7871 194.679 34.2152 198.431 38.2689 197.698Z" fill="#FFB84C"/>
<path fill-rule="evenodd" clip-rule="evenodd" d="M57.6933 117.828H56.0151L57.1235 135.528L53.2305 156.846L54.6979 157.114L58.6355 135.551L57.6933 117.828Z" fill="#FF9F3B"/>
<path d="M56.0123 159.938L47.9956 131.998L35.5039 177.489L53.6712 172.542L56.0123 159.938Z" fill="#FF9F3B"/>
<path d="M80.25 146.913L84.7246 164.603L81.0214 165.93L80.25 146.913Z" fill="#FF9F3B"/>
<path d="M51.1654 187.72C51.1524 187.411 50.8919 187.172 50.5834 187.185L33.4307 187.899C33.1223 187.912 32.8824 188.173 32.895 188.481C32.9081 188.79 33.1685 189.03 33.4774 189.017L34.8964 188.958L33.8044 193.325C33.7295 193.625 33.9117 193.929 34.2118 194.004C34.5114 194.078 34.8148 193.896 34.8897 193.597L36.0617 188.909L38.8665 188.792L37.551 195.319C37.4917 195.623 37.6894 195.916 37.9929 195.975C38.2959 196.034 38.5896 195.837 38.6489 195.533L40.017 188.745L43.1551 188.614L42.1943 193.897C42.1392 194.201 42.3408 194.492 42.6446 194.547C42.9485 194.602 43.2397 194.401 43.2948 194.097L44.3006 188.566L47.1887 188.445V192.389C47.1887 192.698 47.4391 192.948 47.7479 192.948C48.0568 192.948 48.3072 192.698 48.3072 192.389V188.399L50.6297 188.302C50.9386 188.289 51.1781 188.029 51.1654 187.72Z" fill="#FF9F3B"/>
<path d="M128.355 125.659C128.355 122.57 125.851 120.066 122.762 120.066H93.3045C90.2153 120.066 87.7109 122.57 87.7109 125.659V164.066C87.7109 167.155 90.2153 169.659 93.3045 169.659H122.762C125.851 169.659 128.355 167.155 128.355 164.066V125.659Z" fill="#D4E8F5"/>
<path fill-rule="evenodd" clip-rule="evenodd" d="M111.63 134.738C110.744 133.721 109.507 133.117 108.16 133.117V129.388C110.717 129.388 112.99 130.569 114.53 132.392L114.599 132.472L114.657 132.561C114.658 132.561 114.663 132.568 114.675 132.584C114.69 132.603 114.711 132.628 114.746 132.669C114.757 132.683 114.771 132.699 114.787 132.718C114.853 132.795 114.953 132.91 115.05 133.032C115.323 133.373 115.623 133.809 115.945 134.453L112.61 136.121C112.411 135.724 112.256 135.509 112.138 135.362C112.086 135.295 112.043 135.246 111.985 135.178C111.961 135.151 111.936 135.121 111.906 135.086C111.833 135 111.733 134.882 111.63 134.738Z" fill="#0F3E9F"/>
<path fill-rule="evenodd" clip-rule="evenodd" d="M109.897 131.253C109.897 130.223 109.062 129.389 108.032 129.389C103.193 129.389 99.2695 133.312 99.2695 138.151C99.2695 142.991 103.193 146.914 108.032 146.914C112.872 146.914 116.795 142.991 116.795 138.151C116.795 136.792 116.485 135.5 115.928 134.348C115.481 133.42 114.367 133.031 113.439 133.479C112.512 133.926 112.122 135.04 112.57 135.968C112.887 136.626 113.066 137.365 113.066 138.151C113.066 140.931 110.813 143.185 108.032 143.185C105.252 143.185 102.998 140.931 102.998 138.151C102.998 135.371 105.252 133.118 108.032 133.118C109.062 133.118 109.897 132.283 109.897 131.253Z" fill="#FF566A"/>
<path fill-rule="evenodd" clip-rule="evenodd" d="M116.423 153.252C116.423 152.222 115.588 151.388 114.559 151.388H101.321C100.292 151.388 99.457 152.222 99.457 153.252C99.457 154.282 100.292 155.116 101.321 155.116H114.559C115.588 155.116 116.423 154.282 116.423 153.252Z" fill="#AFCCE4"/>
<path fill-rule="evenodd" clip-rule="evenodd" d="M113.812 160.709C113.812 159.68 112.978 158.845 111.948 158.845H103.931C102.901 158.845 102.066 159.68 102.066 160.709C102.066 161.739 102.901 162.574 103.931 162.574H111.948C112.978 162.574 113.812 161.739 113.812 160.709Z" fill="#AFCCE4"/>
<path d="M129.709 147.399L130.515 151.831C130.871 153.788 129.97 155.789 128.022 156.19C125.31 156.748 122.306 156.61 121.782 156.192C120.85 155.446 121.969 151.531 121.782 149.853C121.725 149.336 121.597 148.659 121.441 147.949C121.015 146.002 122.476 144.164 124.465 144.311C125.175 144.364 125.919 144.425 126.639 144.495C128.204 144.647 129.428 145.851 129.709 147.399Z" fill="#F9CCA3"/>
<path d="M73.9691 104.194L61.8886 106.115L61.1193 119.622C60.9228 123.08 63.6737 125.992 67.1375 125.992C70.3483 125.992 72.9957 123.476 73.1578 120.268L73.9691 104.194Z" fill="#F9C799"/>
<path d="M73.5286 111.811L62.2969 106.877L62.4707 107.97L73.1549 117.549L73.5286 111.811Z" fill="#F19C5C"/>
<path d="M79.2302 99.136C78.6285 93.3762 73.0757 89.5366 67.5213 91.0398C63.0496 92.2501 60.1064 96.5669 60.5912 101.204L61.1757 106.796C61.7779 112.556 67.3306 116.395 72.8847 114.892C77.3567 113.682 80.2996 109.365 79.8148 104.728L79.2302 99.136Z" fill="#F9C799"/>
<path d="M67.2503 90.5482C63.5277 91.5426 60.8811 94.7151 60.4069 98.4432C60.2482 98.4306 60.0879 98.4247 59.9259 98.4247C56.5281 98.4247 53.7734 101.179 53.7734 104.577C53.7734 107.975 56.5281 110.73 59.9259 110.73C60.462 110.73 60.9817 110.661 61.4774 110.532C66.6531 109.585 68.6474 106.174 68.6428 101.979L68.6419 101.001L72.556 99.9548C74.9858 99.3059 77.0824 97.6815 78.1327 95.5745C78.687 96.592 79.0632 97.7341 79.2122 98.9667C80.0812 98.12 80.6211 96.9371 80.6211 95.6279C80.6211 93.0537 78.5342 90.9669 75.96 90.9669C75.3027 90.9669 74.677 91.1028 74.1097 91.3486C72.062 90.2755 69.6233 89.914 67.2503 90.5482Z" fill="#273238"/>
<path fill-rule="evenodd" clip-rule="evenodd" d="M62.4856 100.353C62.8298 99.9705 62.7987 99.3809 62.4161 99.0366L60.5519 97.3584C60.1694 97.0142 59.5798 97.0449 59.2356 97.4278C58.8909 97.8104 58.9221 98.3999 59.3046 98.7442L61.1688 100.422C61.5518 100.767 62.1409 100.736 62.4856 100.353Z" fill="#FFB84C"/>
<path d="M67.5446 108.218C66.2164 108.573 64.8537 107.782 64.501 106.452C64.1482 105.121 64.9389 103.755 66.267 103.4C67.5952 103.045 68.9579 103.836 69.3106 105.167C69.6634 106.497 68.8727 107.863 67.5446 108.218Z" fill="#F9C799"/>
<path d="M67.2254 107.014C66.5613 107.191 65.88 106.796 65.7036 106.131C65.5272 105.465 65.9226 104.782 66.5866 104.605C67.2507 104.428 67.9321 104.823 68.1084 105.488C68.2848 106.153 67.8895 106.836 67.2254 107.014Z" fill="#F19C5C"/>
<path fill-rule="evenodd" clip-rule="evenodd" d="M60.4906 116.473C60.4628 116.78 60.6896 117.052 60.9972 117.08L73.3021 118.199C73.6097 118.227 73.882 118 73.9098 117.693C73.938 117.385 73.7111 117.113 73.4035 117.085L61.0983 115.966C60.7906 115.938 60.5188 116.165 60.4906 116.473Z" fill="#273238"/>
<path d="M80.0864 163.041L75.2146 164.219L74.4727 173.574L85.5028 174.233C87.4773 174.351 89.4468 173.927 91.1978 173.006L96.5229 170.206C97.3999 169.745 97.891 168.781 97.7488 167.8C97.5758 166.607 96.5246 165.742 95.321 165.8L92.6846 165.928C92.0037 165.961 91.3237 165.854 90.6853 165.615L90.1996 165.434C88.303 164.723 87.147 162.798 87.4104 160.79L87.7025 158.565C87.758 158.142 87.5501 157.727 87.1777 157.519C86.7316 157.27 86.1707 157.38 85.8525 157.78L83.2998 160.99C82.4868 162.012 81.356 162.734 80.0864 163.041Z" fill="#F9CCA3"/>
<path d="M78.959 164.794L60.3754 159.439L58.3281 173.068L78.6442 173.771L78.959 164.794Z" fill="#F9CCA3"/>
<path fill-rule="evenodd" clip-rule="evenodd" d="M73.0002 174.541C73.5065 174.633 73.9921 174.298 74.0838 173.791L75.9485 163.537C76.0407 163.03 75.7049 162.545 75.1982 162.453C74.6915 162.361 74.2063 162.697 74.1141 163.203L72.2495 173.457C72.1577 173.964 72.4935 174.449 73.0002 174.541Z" fill="#273238"/>
<path d="M54.7092 116.896C47.0174 115.235 39.3888 119.951 37.4366 127.574L29.4317 158.836C28.0577 164.203 31.8405 169.516 37.3612 169.974L48.5223 170.9L54.7092 116.896Z" fill="#FFB84C"/>
<path d="M31.7736 150.828L30.501 161.4C29.9678 165.829 33.0701 169.871 37.4854 170.502L60.2039 173.747L61.5177 158.854L31.7736 150.828Z" fill="#FFB84C"/>
<path fill-rule="evenodd" clip-rule="evenodd" d="M59.1143 159.787C58.7078 159.72 58.324 159.996 58.2575 160.403L57.1583 170.909C57.0919 171.315 57.3671 171.699 57.7736 171.765C58.1801 171.832 58.5635 171.557 58.6304 171.15L59.7292 160.644C59.7961 160.238 59.5204 159.854 59.1143 159.787Z" fill="#FF9F3B"/>
<path d="M73.6747 104.539C73.3119 104.648 72.9295 104.442 72.8207 104.079C72.7118 103.717 72.9177 103.334 73.2805 103.225C73.6434 103.117 74.0257 103.322 74.1346 103.685C74.2434 104.048 74.0376 104.43 73.6747 104.539Z" fill="#273238"/>
<path d="M78.0575 104.02C77.6947 104.129 77.3123 103.923 77.2035 103.56C77.0946 103.198 77.3005 102.815 77.6633 102.706C78.0262 102.598 78.4086 102.803 78.5174 103.166C78.6263 103.529 78.4204 103.911 78.0575 104.02Z" fill="#273238"/>
<path d="M78.1743 107.544C78.8421 106.975 77.1277 105.178 76.1871 104.35L75.8749 107.361C75.8328 107.765 76.1467 108.113 76.5465 108.067C77.0923 108.005 77.7985 107.864 78.1743 107.544Z" fill="#F19C5C"/>
<path fill-rule="evenodd" clip-rule="evenodd" d="M76.9731 100.6C77.4238 100.397 77.9448 100.405 78.3925 100.621L78.5154 100.68C78.7717 100.804 79.0797 100.701 79.2039 100.451C79.328 100.2 79.2207 99.8967 78.9649 99.773L78.8416 99.7133C78.1152 99.3619 77.2689 99.3493 76.5375 99.6792L76.4601 99.7141C76.2022 99.8303 76.0906 100.13 76.211 100.385C76.3313 100.639 76.6381 100.751 76.8957 100.635L76.9731 100.6ZM74.4759 100.461C74.4999 100.183 74.2899 99.9363 74.0063 99.9102L73.7904 99.8904C72.6062 99.7819 71.4397 100.203 70.6136 101.036L70.5198 101.131C70.322 101.33 70.3275 101.65 70.5324 101.846C70.7369 102.042 71.0631 102.039 71.2608 101.84L71.3547 101.745C71.9653 101.129 72.8276 100.818 73.7029 100.899L73.9188 100.919C74.2024 100.944 74.4515 100.74 74.4759 100.461Z" fill="#273238"/>
<path d="M76.6513 109.704L73.9219 109.982C74.3961 111.772 76.5474 111.553 76.6513 109.704Z" fill="white"/>
<path fill-rule="evenodd" clip-rule="evenodd" d="M175.733 271.644H350.624L356.018 306.351C356.237 307.552 355.32 308.659 354.106 308.659C352.543 308.659 351.202 307.535 350.92 305.988L342.809 274.918H183.548L178.045 306.496C177.763 308.043 176.422 309.167 174.858 309.167C173.645 309.167 172.728 308.06 172.946 306.859L175.733 271.644Z" fill="white"/>
<path fill-rule="evenodd" clip-rule="evenodd" d="M356.018 306.351L350.624 271.644H175.733L172.946 306.859C172.728 308.06 173.645 309.167 174.858 309.167C176.422 309.167 177.763 308.043 178.045 306.496L183.548 274.918H342.809L350.92 305.988C351.202 307.535 352.543 308.659 354.106 308.659C355.32 308.659 356.237 307.552 356.018 306.351ZM177.712 306.436L177.712 306.435L183.264 274.58H343.07L351.247 305.902L351.25 305.915L351.252 305.927C351.505 307.315 352.707 308.321 354.106 308.321C355.107 308.321 355.867 307.407 355.685 306.412L355.685 306.407L350.335 271.981H176.045L173.282 306.903L173.279 306.92C173.098 307.915 173.858 308.829 174.858 308.829C176.257 308.829 177.459 307.824 177.712 306.436Z" fill="#AFCCE4"/>
<path d="M152.973 214.683L180.016 216.035L176.129 255.079H157.874L152.973 214.683Z" fill="white"/>
<path fill-rule="evenodd" clip-rule="evenodd" d="M152.973 214.683L157.874 255.079H176.129L180.016 216.035L152.973 214.683ZM153.356 215.04L158.174 254.741H175.822L179.645 216.355L153.356 215.04Z" fill="#AFCCE4"/>
<path d="M375.513 214.683L348.469 216.035L351.849 255.248H370.105L375.513 214.683Z" fill="white"/>
<path fill-rule="evenodd" clip-rule="evenodd" d="M375.655 214.64L370.243 255.206H351.99L348.609 215.993L375.655 214.64ZM375.264 214.998L369.949 254.868H352.3L348.976 216.312L375.264 214.998Z" fill="#AFCCE4"/>
<path d="M179.191 209.523C179.661 205.807 182.823 203.021 186.569 203.021H330.537C334.402 203.021 337.623 205.982 337.947 209.834L341.769 255.248L173.422 255.079L179.191 209.523Z" fill="white"/>
<path fill-rule="evenodd" clip-rule="evenodd" d="M341.101 203.358H186.569C182.993 203.358 179.975 206.018 179.526 209.566L173.806 254.742L351.965 254.91L348.175 209.862C347.865 206.185 344.791 203.358 341.101 203.358ZM348.511 209.834C348.187 205.982 344.966 203.021 341.101 203.021H186.569C182.823 203.021 179.661 205.807 179.191 209.523L173.422 255.079L352.333 255.248L348.511 209.834Z" fill="#AFCCE4"/>
<path d="M156.351 269.277L162.037 225.631C162.657 220.877 159.74 216.376 155.148 214.998L154.836 214.904C152.658 214.251 150.296 214.887 148.741 216.546C147.119 218.276 146.246 220.576 146.312 222.946L147.327 259.469C147.463 264.367 151.08 268.466 155.922 269.211L156.351 269.277Z" fill="white"/>
<path fill-rule="evenodd" clip-rule="evenodd" d="M156.06 268.89L161.702 225.587C162.3 220.998 159.484 216.652 155.052 215.322L154.739 215.228C152.683 214.611 150.455 215.212 148.987 216.777C147.427 218.442 146.586 220.656 146.65 222.937L147.665 259.46C147.796 264.194 151.293 268.157 155.973 268.877L156.06 268.89ZM162.037 225.631C162.657 220.877 159.74 216.376 155.148 214.998L154.836 214.904C152.658 214.251 150.296 214.887 148.741 216.546C147.119 218.276 146.246 220.576 146.312 222.946L147.327 259.469C147.463 264.367 151.08 268.466 155.922 269.211L156.351 269.277L162.037 225.631Z" fill="#AFCCE4"/>
<path d="M371.604 269.277L365.918 225.631C365.3 220.877 368.216 216.376 372.807 214.998L373.119 214.904C375.299 214.251 377.659 214.887 379.212 216.546C380.837 218.276 381.708 220.576 381.645 222.946L380.626 259.469C380.492 264.367 376.877 268.466 372.033 269.211L371.604 269.277Z" fill="white"/>
<path fill-rule="evenodd" clip-rule="evenodd" d="M371.894 268.89L366.251 225.587C365.653 220.998 368.469 216.652 372.904 215.322L373.215 215.228C375.273 214.611 377.499 215.212 378.968 216.777C380.529 218.442 381.367 220.656 381.304 222.937L380.289 259.46C380.159 264.194 376.662 268.157 371.982 268.877L371.894 268.89ZM365.918 225.631C365.3 220.877 368.216 216.376 372.807 214.998L373.119 214.904C375.299 214.251 377.659 214.887 379.212 216.546C380.837 218.276 381.708 220.576 381.645 222.946L380.626 259.469C380.492 264.367 376.877 268.466 372.033 269.211L371.604 269.277L365.918 225.631Z" fill="#AFCCE4"/>
<path d="M176.803 254.91H369.122C372.329 254.91 374.727 257.845 374.092 260.985L373.036 266.221C372.4 269.376 369.627 271.643 366.408 271.643H160.869C157.651 271.643 154.879 269.376 154.242 266.221L153.184 260.985C152.55 257.845 154.951 254.91 158.154 254.91H176.803Z" fill="white"/>
<path fill-rule="evenodd" clip-rule="evenodd" d="M158.154 255.248C155.164 255.248 152.924 257.987 153.516 260.918L154.573 266.154C155.179 269.151 157.812 271.305 160.869 271.305H366.408C369.467 271.305 372.097 269.151 372.703 266.154L373.764 260.918C374.353 257.987 372.114 255.248 369.122 255.248H158.154ZM158.154 254.91C154.951 254.91 152.55 257.845 153.184 260.985L154.242 266.221C154.879 269.376 157.651 271.643 160.869 271.643H366.408C369.627 271.643 372.4 269.376 373.036 266.221L374.092 260.985C374.727 257.845 372.329 254.91 369.122 254.91H158.154Z" fill="#AFCCE4"/>
<path fill-rule="evenodd" clip-rule="evenodd" d="M159.457 271.305H366.698L373.2 313.397C373.448 314.76 372.4 316.017 371.016 316.017C369.227 316.017 367.7 314.741 367.376 312.984L354.874 275.024H171.283L162.098 312.885C161.776 314.641 160.245 315.917 158.459 315.917C157.073 315.917 156.026 314.661 156.275 313.297L159.457 271.305Z" fill="white"/>
<path fill-rule="evenodd" clip-rule="evenodd" d="M373.2 313.397L366.698 271.305H159.457L156.275 313.297C156.026 314.661 157.073 315.917 158.459 315.917C160.245 315.917 161.776 314.641 162.098 312.885L171.283 275.024H354.874L367.376 312.984C367.7 314.741 369.227 316.017 371.016 316.017C372.4 316.017 373.448 314.76 373.2 313.397ZM159.771 271.643L156.611 313.341L156.608 313.358C156.396 314.514 157.284 315.579 158.459 315.579C160.082 315.579 161.473 314.42 161.765 312.824L161.767 312.815L171.017 274.686H355.119L367.704 312.901L367.708 312.923C368.003 314.519 369.392 315.679 371.016 315.679C372.19 315.679 373.078 314.613 372.868 313.458L372.863 313.453L366.408 271.643H159.771Z" fill="#AFCCE4"/>
<path fill-rule="evenodd" clip-rule="evenodd" d="M297.495 0C297.583 0 297.654 0.0707012 297.654 0.158232V63.4882C297.654 63.5758 297.583 63.6469 297.495 63.6469C297.407 63.6469 297.336 63.5758 297.336 63.4882V0.158232C297.336 0.0707012 297.407 0 297.495 0Z" fill="#AFCCE4"/>
<path fill-rule="evenodd" clip-rule="evenodd" d="M291.707 64.2576C292.01 63.6869 292.604 63.3301 293.251 63.3301H302.051C302.698 63.3301 303.293 63.6869 303.595 64.2576L306.842 70.381C306.868 70.4298 306.867 70.4891 306.838 70.5367C306.809 70.5842 306.758 70.6133 306.702 70.6133H288.6C288.544 70.6133 288.493 70.5842 288.464 70.5367C288.435 70.4891 288.434 70.4298 288.46 70.381L291.707 64.2576ZM293.251 63.647C292.721 63.647 292.235 63.939 291.988 64.4057L288.863 70.2964H306.438L303.314 64.4057C303.067 63.939 302.581 63.647 302.051 63.647H293.251Z" fill="#AFCCE4"/>
<path fill-rule="evenodd" clip-rule="evenodd" d="M284.312 71.0879C284.312 70.6507 284.668 70.2964 285.107 70.2964H310.195C310.633 70.2964 310.989 70.6507 310.989 71.0879V73.6213C310.989 74.0585 310.633 74.4129 310.195 74.4129H285.107C284.668 74.4129 284.312 74.0585 284.312 73.6213V71.0879ZM285.107 70.6133C284.844 70.6133 284.63 70.8258 284.63 71.0879V73.6213C284.63 73.8835 284.844 74.0964 285.107 74.0964H310.195C310.458 74.0964 310.671 73.8835 310.671 73.6213V71.0879C310.671 70.8258 310.458 70.6133 310.195 70.6133H285.107Z" fill="#AFCCE4"/>
<path fill-rule="evenodd" clip-rule="evenodd" d="M253.233 0C253.321 0 253.392 0.071122 253.392 0.158232V85.0499C253.392 85.1375 253.321 85.2082 253.233 85.2082C253.145 85.2082 253.074 85.1375 253.074 85.0499V0.158232C253.074 0.071122 253.145 0 253.233 0Z" fill="#AFCCE4"/>
<path fill-rule="evenodd" clip-rule="evenodd" d="M249.009 91.9723C249.036 91.9512 249.07 91.9395 249.106 91.9395H257.045C257.08 91.9395 257.114 91.9512 257.142 91.9723C258.725 93.1884 259.745 95.0981 259.745 97.2452C259.745 100.919 256.758 103.897 253.075 103.897C249.392 103.897 246.406 100.919 246.406 97.2452C246.406 95.0981 247.426 93.1884 249.009 91.9723ZM249.16 92.2563C247.677 93.4161 246.724 95.2198 246.724 97.2452C246.724 100.744 249.567 103.58 253.075 103.58C256.583 103.58 259.427 100.744 259.427 97.2452C259.427 95.2198 258.474 93.4161 256.991 92.2563H249.16Z" fill="#AFCCE4"/>
<path fill-rule="evenodd" clip-rule="evenodd" d="M247.676 88.2173C247.676 87.9551 247.889 87.7422 248.152 87.7422H257.997C258.26 87.7422 258.473 87.9551 258.473 88.2173V91.7017C258.473 91.9643 258.26 92.1768 257.997 92.1768H248.152C247.889 92.1768 247.676 91.9643 247.676 91.7017V88.2173ZM248.152 88.0591C248.064 88.0591 247.993 88.1298 247.993 88.2173V91.7017C247.993 91.7892 248.064 91.8603 248.152 91.8603H257.997C258.084 91.8603 258.156 91.7892 258.156 91.7017V88.2173C258.156 88.1298 258.084 88.0591 257.997 88.0591H248.152Z" fill="#AFCCE4"/>
<path fill-rule="evenodd" clip-rule="evenodd" d="M249.262 85.3667C249.262 85.1041 249.475 84.8916 249.738 84.8916H256.407C256.67 84.8916 256.884 85.1041 256.884 85.3667V87.584C256.884 87.8462 256.67 88.0591 256.407 88.0591H249.738C249.475 88.0591 249.262 87.8462 249.262 87.584V85.3667ZM249.738 85.2081C249.651 85.2081 249.579 85.2792 249.579 85.3667V87.584C249.579 87.6716 249.651 87.7423 249.738 87.7423H256.407C256.495 87.7423 256.566 87.6716 256.566 87.584V85.3667C256.566 85.2792 256.495 85.2081 256.407 85.2081H249.738Z" fill="#AFCCE4"/>
<path d="M409.805 229.265C409.371 224.852 412.599 220.923 417.009 220.489C421.424 220.055 425.354 223.281 425.787 227.694L427.412 244.233C427.845 248.646 424.622 252.575 420.207 253.009C415.797 253.443 411.867 250.217 411.433 245.804L409.805 229.265Z" fill="#00C8BC"/>
<path fill-rule="evenodd" clip-rule="evenodd" d="M418.82 233.135C419.27 233.066 419.691 233.373 419.759 233.822C420.339 237.564 420.983 244.703 421.425 252.89C422.014 263.914 422.233 276.92 421.391 286.185C421.349 286.637 420.95 286.97 420.499 286.929C420.045 286.888 419.712 286.488 419.754 286.036C420.583 276.892 420.373 263.981 419.78 252.978C419.342 244.806 418.702 237.732 418.134 234.074C418.067 233.625 418.374 233.205 418.82 233.135Z" fill="#261B65"/>
<path fill-rule="evenodd" clip-rule="evenodd" d="M418.82 233.135C419.27 233.066 419.691 233.373 419.759 233.822C420.339 237.564 420.983 244.703 421.425 252.89C421.446 253.343 421.101 253.731 420.647 253.755C420.192 253.779 419.805 253.431 419.78 252.978C419.342 244.806 418.702 237.732 418.134 234.074C418.067 233.625 418.374 233.205 418.82 233.135Z" fill="#01ACA2"/>
<path d="M408.156 288.307C407.777 285.764 409.747 283.478 412.318 283.478H430.986C433.557 283.478 435.526 285.764 435.148 288.307L432.425 306.558C432.118 308.62 430.35 310.146 428.263 310.146H415.041C412.958 310.146 411.186 308.62 410.879 306.558L408.156 288.307Z" fill="#D4E8F5"/>
<path d="M405.559 284.653C405.559 283.355 406.442 282.303 407.536 282.303H436.005C437.099 282.303 437.983 283.355 437.983 284.653V285.592C437.983 286.89 437.099 287.942 436.005 287.942H407.536C406.442 287.942 405.559 286.89 405.559 285.592V284.653Z" fill="#D4E8F5"/>
<path d="M433.753 297.106L435.395 287.942H417.539L433.753 297.106Z" fill="#D7E8F4"/>
<path d="M435.536 245.425C438.027 242.435 442.475 242.032 445.463 244.526C448.455 247.019 448.855 251.464 446.364 254.453L439.222 263.014C436.731 266.003 432.287 266.406 429.295 263.913C426.307 261.42 425.903 256.975 428.399 253.985L435.536 245.425Z" fill="#00C8BC"/>
<path d="M402.31 272.358C399.045 270.585 397.833 266.5 399.604 263.233C401.38 259.966 405.462 258.755 408.732 260.528L414.106 263.444C417.371 265.217 418.583 269.302 416.812 272.569C415.036 275.836 410.954 277.047 407.684 275.275L402.31 272.358Z" fill="#00C8BC"/>
<path fill-rule="evenodd" clip-rule="evenodd" d="M441.043 250.253C441.358 250.582 441.346 251.102 441.017 251.415C437.062 255.176 433.316 259.628 430.19 263.92C427.984 266.945 426.091 269.881 424.652 272.429C423.204 274.992 422.24 277.115 421.857 278.524C421.739 278.962 421.289 279.222 420.852 279.103C420.41 278.984 420.153 278.532 420.271 278.094C420.708 276.482 421.752 274.215 423.221 271.62C424.694 269.01 426.621 266.02 428.86 262.951C432.033 258.598 435.841 254.067 439.881 250.224C440.209 249.911 440.731 249.924 441.043 250.253Z" fill="#261B65"/>
<path fill-rule="evenodd" clip-rule="evenodd" d="M441.042 250.252C441.357 250.581 441.345 251.101 441.012 251.414C437.061 255.176 433.315 259.627 430.184 263.92C429.919 264.287 429.406 264.367 429.036 264.1C428.669 263.832 428.589 263.318 428.859 262.95C432.032 258.598 435.84 254.067 439.88 250.223C440.208 249.91 440.73 249.923 441.042 250.252Z" fill="#01ACA2"/>
<path fill-rule="evenodd" clip-rule="evenodd" d="M405.716 266.885C405.864 266.455 406.331 266.224 406.76 266.37C410.543 267.649 413.964 269.837 416.573 272.29C418.118 273.739 419.393 275.294 420.289 276.829C421.186 278.356 421.737 279.911 421.766 281.347C421.775 281.801 421.417 282.176 420.963 282.186C420.508 282.195 420.134 281.834 420.121 281.38C420.1 280.322 419.683 279.045 418.871 277.661C418.063 276.285 416.897 274.85 415.45 273.488C412.992 271.182 409.773 269.125 406.234 267.928C405.8 267.782 405.569 267.315 405.716 266.885Z" fill="#261B65"/>
<path fill-rule="evenodd" clip-rule="evenodd" d="M405.716 266.885C405.864 266.455 406.331 266.224 406.76 266.37C410.543 267.649 413.964 269.837 416.573 272.29C416.906 272.601 416.923 273.121 416.611 273.452C416.3 273.783 415.778 273.799 415.45 273.488C412.992 271.182 409.773 269.125 406.234 267.928C405.8 267.782 405.569 267.315 405.716 266.885Z" fill="#01ACA2"/>
<path d="M429.735 281.714L430.58 282.303H413.781C415.469 280.846 417.539 279.906 419.748 279.594L420.451 279.496C423.713 279.035 427.033 279.828 429.735 281.714Z" fill="#00C8BC"/>
<path d="M383.297 82.9933C383.297 80.1932 385.565 77.9229 388.368 77.9229H425.552C428.354 77.9229 430.623 80.1932 430.623 82.9933V115.446C430.623 118.246 428.354 120.516 425.552 120.516H388.368C385.565 120.516 383.297 118.246 383.297 115.446V82.9933Z" fill="#E2F0FA"/>
<path fill-rule="evenodd" clip-rule="evenodd" d="M399.859 114.094C399.859 113.16 400.617 112.403 401.551 112.403H413.549C414.483 112.403 415.24 113.16 415.24 114.094C415.24 115.027 414.483 115.784 413.549 115.784H401.551C400.617 115.784 399.859 115.027 399.859 114.094Z" fill="#AFCCE4"/>
<path d="M394.113 94.8257C394.113 93.49 395.195 92.4072 396.529 92.4072C397.867 92.4072 398.949 93.49 398.949 94.8257V106.111C398.949 107.447 397.867 108.529 396.529 108.529C395.195 108.529 394.113 107.447 394.113 106.111V94.8257Z" fill="#FF566A"/>
<path d="M400.965 86.7642C400.965 85.4285 402.046 84.3457 403.38 84.3457C404.719 84.3457 405.8 85.4285 405.8 86.7642V106.111C405.8 107.446 404.719 108.529 403.38 108.529C402.046 108.529 400.965 107.446 400.965 106.111V86.7642Z" fill="#0F3E9F"/>
<path d="M407.816 99.2588C407.816 97.9231 408.898 96.8403 410.236 96.8403C411.57 96.8403 412.652 97.9231 412.652 99.2588V106.111C412.652 107.446 411.57 108.529 410.236 108.529C408.898 108.529 407.816 107.446 407.816 106.111V99.2588Z" fill="#FF566A"/>
<path d="M414.668 91.1982C414.668 89.8626 415.749 88.7798 417.088 88.7798C418.422 88.7798 419.507 89.8626 419.507 91.1982V106.111C419.507 107.447 418.422 108.529 417.088 108.529C415.749 108.529 414.668 107.447 414.668 106.111V91.1982Z" fill="#0F3E9F"/>
<path d="M0 89.2463C0 86.4461 2.27034 84.1758 5.07049 84.1758H27.0437C29.8439 84.1758 32.1142 86.4461 32.1142 89.2463V116.966C32.1142 119.766 29.8439 122.037 27.0437 122.037H5.07049C2.27034 122.037 0 119.766 0 116.966V89.2463Z" fill="#D4E8F5"/>
<path fill-rule="evenodd" clip-rule="evenodd" d="M5.07031 99.0499C5.07031 98.1165 5.82695 97.3599 6.76034 97.3599H25.691C26.6244 97.3599 27.3811 98.1165 27.3811 99.0499C27.3811 99.9837 26.6244 100.74 25.691 100.74H6.76034C5.82695 100.74 5.07031 99.9837 5.07031 99.0499Z" fill="#AFCCE4"/>
<path fill-rule="evenodd" clip-rule="evenodd" d="M5.07031 107.163C5.07031 106.23 5.82695 105.473 6.76034 105.473H18.2538C19.1876 105.473 19.9443 106.23 19.9443 107.163C19.9443 108.096 19.1876 108.853 18.2538 108.853H6.76034C5.82695 108.853 5.07031 108.096 5.07031 107.163Z" fill="#AFCCE4"/>
<path d="M333.453 118.094C333.453 115.294 335.723 113.023 338.524 113.023H360.496C363.298 113.023 365.566 115.294 365.566 118.094V145.814C365.566 148.615 363.298 150.884 360.496 150.884H338.524C335.723 150.884 333.453 148.615 333.453 145.814V118.094Z" fill="#D4E8F5"/>
<path d="M361.036 130.738C361.015 132.843 360.369 134.896 359.181 136.635C357.994 138.375 356.317 139.723 354.364 140.509C352.41 141.296 350.267 141.485 348.206 141.054C346.144 140.623 344.257 139.59 342.783 138.086C341.308 136.582 340.313 134.674 339.923 132.605C339.532 130.535 339.765 128.397 340.59 126.459C341.415 124.521 342.797 122.872 344.559 121.719C346.322 120.567 348.387 119.963 350.493 119.983L350.387 130.631L361.036 130.738Z" fill="#0F3E9F"/>
<path d="M352.676 121.358C354.648 121.377 356.532 122.18 357.912 123.588C359.293 124.997 360.058 126.896 360.038 128.868L352.602 128.794L352.676 121.358Z" fill="#FF566A"/>
<path d="M176.988 293.382L159.826 292.681L156.324 312.82H170.333L176.988 293.382Z" fill="#F9CCA3"/>
<path d="M161.879 312.232C161.879 310.588 160.548 309.255 158.905 309.254C158.124 309.254 157.353 309.425 156.646 309.756L142.457 316.39C141.798 316.698 141.309 317.281 141.121 317.983C140.701 319.548 141.879 321.085 143.498 321.085L166.379 321.092C167.362 321.092 168.265 320.551 168.73 319.684L170.414 316.536C170.621 316.15 170.73 315.718 170.73 315.279L170.73 314.59C170.731 313.874 170.59 313.192 170.335 312.568L161.879 312.566V312.232Z" fill="#120A3E"/>
<path d="M141.611 317.063C141.381 317.334 141.21 317.656 141.115 318.007C140.7 319.556 141.876 321.081 143.49 321.084L166.296 321.13C167.276 321.132 168.175 320.597 168.636 319.739L169.504 318.123C169.368 318.144 169.229 318.155 169.088 318.155L143.619 318.103C142.775 318.102 142.051 317.684 141.611 317.063Z" fill="#B5D5FF"/>
<path d="M198.407 231.212L198.417 231.179L193.73 231.071L189.091 230.931L189.082 230.964L180.479 230.765C174.398 230.624 169.134 234.964 168.112 240.959L158.07 299.861L175.269 300.834C176.071 300.88 176.8 300.375 177.04 299.608L191.399 253.643L209.546 254.14C221.219 254.459 229.739 243.196 226.256 232.05L198.407 231.212Z" fill="#120A3E"/>
<path d="M241.427 223.685H198.432L195.547 236.293L241.427 235.615V223.685Z" fill="#120A3E"/>
<path d="M201.15 289.354L185.389 287.953L182.938 312.644L195.196 315.096L201.15 289.354Z" fill="#F9CCA3"/>
<path d="M213.516 233.318L213.547 233.157L205.783 232.978L204.222 232.91L204.214 232.942L197.166 232.779C190.441 232.623 184.848 237.916 184.631 244.639L182.762 302.663H196.865C198.71 302.663 200.295 301.356 200.647 299.545L209.159 255.743L219.17 256.062C231.324 256.449 241.386 246.702 241.385 234.542L213.516 233.318Z" fill="#261B65"/>
<path d="M235.881 234.948C235.622 234.818 235.306 234.923 235.176 235.183L231.453 242.631C231.448 242.629 231.443 242.627 231.439 242.625L229.178 241.852C226.519 240.943 224.367 238.955 223.25 236.377L222.819 235.384C222.704 235.118 222.395 234.995 222.129 235.11C221.862 235.226 221.74 235.535 221.856 235.801L222.286 236.795C223.52 239.644 225.899 241.841 228.838 242.846L230.978 243.579C229.124 247.194 225.26 249.328 221.206 248.966L214.201 248.338C208.619 247.838 203.549 251.603 202.414 257.091L193.898 298.249L184.207 297.411C183.918 297.386 183.664 297.6 183.639 297.889C183.614 298.178 183.828 298.433 184.117 298.458L198.301 299.684C198.591 299.709 198.845 299.495 198.87 299.205C198.895 298.916 198.681 298.662 198.392 298.637L194.953 298.34L203.443 257.304C204.47 252.339 209.057 248.932 214.108 249.385L221.112 250.012C225.63 250.417 229.935 248.015 231.964 243.957L236.117 235.652C236.246 235.393 236.141 235.078 235.881 234.948Z" fill="#2149CC"/>
<path d="M187.445 312.407C187.446 310.763 186.114 309.43 184.471 309.429C183.69 309.429 182.919 309.6 182.212 309.931L168.023 316.566C167.365 316.873 166.876 317.456 166.687 318.159C166.267 319.723 167.445 321.26 169.064 321.261L191.945 321.268C192.928 321.268 193.832 320.727 194.296 319.86L195.981 316.712C196.188 316.325 196.296 315.893 196.296 315.455L196.297 314.765C196.297 314.049 196.156 313.367 195.901 312.744L187.445 312.741L187.445 312.407Z" fill="#261B65"/>
<path d="M167.173 317.238C166.943 317.509 166.772 317.83 166.678 318.182C166.262 319.731 167.438 321.256 169.052 321.259L192.208 321.305C193.188 321.307 194.088 320.772 194.549 319.914L195.108 318.329C194.972 318.35 194.791 318.33 194.65 318.329L169.181 318.279C168.337 318.277 167.613 317.859 167.173 317.238Z" fill="#B5D5FF"/>
<path d="M191.763 172.783L172.721 139.247L166.105 143.808L175.898 171.771C178.418 178.967 188.348 179.601 191.763 172.783Z" fill="#F9CCA3"/>
<path d="M216.505 181.361L182.324 162.823C175.627 163.487 173.441 172.172 179.025 175.927L208.435 195.704L216.505 181.361Z" fill="#F9CCA3"/>
<path d="M213.523 175.89L194.126 167.974L185.148 181.406L202.689 192.58L213.523 175.89Z" fill="#FFB84C"/>
<path d="M165.697 123.021L173.691 141.414L165.913 143.687L163.938 140.977C162.232 138.637 161.717 135.619 162.565 132.934L165.697 123.021Z" fill="#F9CCA3"/>
<path d="M133.194 107.408C133.309 104.509 135.752 102.251 138.651 102.365L161.674 103.274C164.574 103.388 166.831 105.831 166.717 108.73L165.859 130.482C165.744 133.381 163.301 135.639 160.402 135.524L137.379 134.616C134.479 134.502 132.222 132.059 132.336 129.16L133.194 107.408Z" fill="#D4E8F5"/>
<path d="M162.833 134.712L166.589 136.905L163.153 139.561L160.827 136.553C160.724 136.419 160.641 136.269 160.583 136.109L159.377 132.768C159.264 132.454 159.322 132.115 159.528 131.891C159.863 131.524 160.458 131.596 160.773 132.042L162.345 134.262C162.476 134.447 162.643 134.601 162.833 134.712Z" fill="#F9CCA3"/>
<path fill-rule="evenodd" clip-rule="evenodd" d="M173.717 138.78C173.436 138.386 172.89 138.294 172.496 138.574L165.466 143.572C165.072 143.853 164.979 144.399 165.26 144.793C165.54 145.187 166.087 145.28 166.481 145L173.51 140.002C173.905 139.721 173.997 139.175 173.717 138.78Z" fill="#273238"/>
<path fill-rule="evenodd" clip-rule="evenodd" d="M196.48 170.15C196.227 170.008 195.907 170.098 195.764 170.351L188.954 182.474C188.812 182.727 188.902 183.047 189.155 183.189C189.408 183.331 189.728 183.241 189.87 182.988L196.68 170.865C196.823 170.612 196.733 170.292 196.48 170.15Z" fill="#FF9F3B"/>
<path d="M171.281 142.28C170.44 142.758 169.371 142.463 168.893 141.622C168.416 140.781 168.71 139.712 169.551 139.235C170.392 138.757 171.461 139.052 171.939 139.893C172.416 140.734 172.122 141.803 171.281 142.28Z" fill="#C3E5FE"/>
<path d="M238.326 180.743C238.046 178.811 236.473 177.326 234.528 177.156L205.94 174.659C203.663 174.46 201.644 176.115 201.392 178.387L196.065 226.367C195.789 228.859 197.74 231.039 200.248 231.039H240.767C243.332 231.039 245.3 228.764 244.931 226.226L238.326 180.743Z" fill="#FFB84C"/>
<path fill-rule="evenodd" clip-rule="evenodd" d="M234.474 231.039H237.536C241.805 231.039 245.081 227.252 244.468 223.028L241.331 201.427L232.672 197.066L234.474 231.039Z" fill="#FF9F3B"/>
<path d="M205.924 186.039C205.257 185.898 204.603 186.329 204.469 186.998L204.391 187.386L213.173 189.374C213.456 189.438 213.633 189.72 213.569 190.003C213.505 190.286 213.224 190.463 212.94 190.399L204.137 188.406L202.546 195.993C202.408 196.654 202.829 197.302 203.489 197.444L211.591 199.179C211.874 199.241 212.055 199.52 211.994 199.804C211.933 200.087 211.654 200.268 211.37 200.207L203.269 198.471C202.043 198.208 201.261 197.005 201.518 195.778L203.436 186.627C203.456 186.533 203.5 186.449 203.561 186.382C203.966 185.379 205.045 184.779 206.142 185.011L213.516 186.571C213.799 186.631 213.981 186.91 213.921 187.194C213.861 187.478 213.582 187.659 213.298 187.599L205.924 186.039Z" fill="#FF9F3B"/>
<path d="M214.477 160.734L225.824 162.539L226.546 175.225C226.731 178.473 224.147 181.209 220.893 181.209C217.878 181.209 215.391 178.844 215.239 175.832L214.477 160.734Z" fill="#F9CCA3"/>
<path d="M214.887 167.889L225.436 163.254L225.273 164.281L215.237 173.278L214.887 167.889Z" fill="#F19C5C"/>
<path d="M217.217 149.113C219.836 144.345 226.042 143.044 230.303 146.369C233.734 149.046 234.709 153.856 232.6 157.694L228.039 166.275C225.419 171.042 219.213 172.343 214.952 169.018C211.521 166.341 210.546 161.532 212.655 157.694L217.217 149.113Z" fill="#F9CCA3"/>
<path d="M217.354 147.441C218.035 150.113 220.566 152.727 223.586 154.064V157.985L223.187 158.895C221.472 162.813 222.744 167.147 226.006 169.233C226.599 168.619 227.753 166.63 228.197 165.847L232.505 157.985C234.855 153.841 233.993 148.767 230.476 146.041C229.738 145.47 228.865 145.058 227.916 144.791L226.622 142.7C225.298 140.562 222.492 139.901 220.354 141.224L219.208 141.933C217.316 143.105 216.581 145.438 217.354 147.441Z" fill="#273238"/>
<path d="M222.01 165.188C223.031 165.979 224.499 165.79 225.289 164.767C226.079 163.744 225.892 162.273 224.871 161.482C223.851 160.691 222.383 160.879 221.593 161.903C220.803 162.926 220.99 164.397 222.01 165.188Z" fill="#F9CCA3"/>
<path d="M222.724 164.261C223.234 164.656 223.968 164.562 224.363 164.051C224.758 163.539 224.665 162.804 224.154 162.408C223.644 162.013 222.91 162.107 222.515 162.618C222.12 163.13 222.214 163.865 222.724 164.261Z" fill="#F19C5C"/>
<path d="M260.28 205.945L242.629 182.636C240.477 179.794 236.794 178.575 233.371 179.572C227.969 181.145 225.508 187.396 228.389 192.229L242.337 215.63L260.28 205.945Z" fill="#F9CCA3"/>
<path d="M222.189 226.19L251.068 223.669C261.18 222.787 265.554 210.411 258.24 203.371L221.504 217.55L222.189 226.19Z" fill="#F9CCA3"/>
<path d="M252.51 195.261L243.084 182.521C238.023 175.682 228.009 175.083 222.169 181.271L221.641 181.831L236.316 206.624L252.51 195.261Z" fill="#FFB84C"/>
<path d="M223.218 217.381L215.526 216.487C212.766 216.167 210.011 217.123 208.043 219.086L204.574 222.547C203.248 223.871 204.186 226.136 206.059 226.136H222.517L223.218 217.381Z" fill="#F9CCA3"/>
<path fill-rule="evenodd" clip-rule="evenodd" d="M248.518 191.867C248.354 191.627 248.027 191.566 247.788 191.73L234.479 200.836C234.239 201 234.178 201.327 234.342 201.566C234.506 201.806 234.833 201.867 235.072 201.703L248.381 192.597C248.621 192.433 248.682 192.106 248.518 191.867Z" fill="#FF9F3B"/>
<path d="M228.363 175.167C227.802 174.379 226.709 174.194 225.921 174.755L217.195 180.955L219.263 183.864L229.416 176.649L228.363 175.167Z" fill="#FFB84C"/>
<path d="M213.657 174.816L221.114 180.116L219.047 183.025L211.59 177.726L213.657 174.816Z" fill="#FFB84C"/>
<path d="M213.673 174.885C213.834 174.644 214.16 174.579 214.401 174.74C214.643 174.901 214.708 175.227 214.547 175.468L213.557 176.953C213.373 177.229 213.309 177.568 213.379 177.892L214.133 181.376C214.305 182.172 215.191 182.582 215.91 182.198L218.755 180.673C218.782 180.658 218.809 180.646 218.837 180.636C218.912 180.609 218.991 180.6 219.067 180.608C219.175 180.62 219.279 180.664 219.362 180.738L222.582 183.481C223.141 183.957 223.99 183.838 224.397 183.228L228.558 176.987C228.719 176.745 229.045 176.68 229.286 176.841C229.528 177.002 229.593 177.328 229.432 177.57L225.271 183.811C224.516 184.945 222.939 185.165 221.901 184.281L218.946 181.763L216.406 183.124C215.072 183.838 213.425 183.077 213.106 181.598L212.352 178.114C212.222 177.512 212.342 176.883 212.683 176.37L213.673 174.885Z" fill="#FF9F3B"/>
<path fill-rule="evenodd" clip-rule="evenodd" d="M218.575 183.065C218.289 183.016 218.018 183.209 217.969 183.495L213.066 212.389C213.018 212.675 213.21 212.946 213.496 212.995C213.782 213.044 214.054 212.851 214.102 212.565L219.006 183.671C219.054 183.384 218.861 183.113 218.575 183.065Z" fill="#FF9F3B"/>
<path d="M218.442 158.235C218.751 158.563 219.268 158.58 219.596 158.271C219.925 157.963 219.942 157.446 219.633 157.117C219.324 156.789 218.808 156.772 218.479 157.081C218.15 157.389 218.134 157.906 218.442 158.235Z" fill="#273238"/>
<path d="M214.239 155.082C214.548 155.411 215.064 155.428 215.393 155.119C215.722 154.81 215.738 154.294 215.43 153.965C215.121 153.636 214.605 153.62 214.276 153.928C213.947 154.237 213.931 154.754 214.239 155.082Z" fill="#273238"/>
<path d="M212.014 158.642C211.666 157.658 214.504 156.831 215.967 156.541L214.49 159.828C214.292 160.269 213.761 160.439 213.377 160.153C212.852 159.763 212.21 159.196 212.014 158.642Z" fill="#F19C5C"/>
<path fill-rule="evenodd" clip-rule="evenodd" d="M217.78 152.43C217.437 151.952 216.896 151.649 216.306 151.604L216.143 151.592C215.806 151.566 215.55 151.277 215.572 150.944C215.594 150.612 215.885 150.363 216.223 150.389L216.385 150.401C217.343 150.473 218.222 150.966 218.778 151.742L218.837 151.824C219.033 152.098 218.968 152.474 218.693 152.664C218.417 152.853 218.034 152.786 217.838 152.512L217.78 152.43ZM220.05 153.556C220.191 153.255 220.555 153.126 220.862 153.269L221.096 153.378C222.38 153.973 223.33 155.103 223.683 156.454L223.723 156.608C223.808 156.931 223.611 157.258 223.283 157.337C222.955 157.417 222.621 157.219 222.537 156.895L222.496 156.742C222.236 155.743 221.533 154.908 220.584 154.468L220.35 154.359C220.043 154.217 219.908 153.857 220.05 153.556Z" fill="#273238"/>
<path d="M212.292 161.775L214.936 163.692C213.378 165.252 211.294 163.741 212.292 161.775Z" fill="white"/>
<path d="M214.87 161.351L213.66 160.563C213.105 160.201 212.373 160.277 211.904 160.746L211.775 160.875C211.621 161.028 211.642 161.282 211.819 161.408L216.035 164.495C216.269 164.661 216.581 164.439 216.5 164.164C216.095 162.784 216.074 162.137 214.87 161.351Z" fill="#273238"/>
<path fill-rule="evenodd" clip-rule="evenodd" d="M149.327 113.754C151.987 113.754 154.143 115.91 154.143 118.57C154.143 121.23 151.987 123.385 149.327 123.385C146.668 123.385 144.511 121.23 144.511 118.57C144.511 115.91 146.668 113.754 149.327 113.754ZM159.396 118.57C159.396 113.009 154.888 108.5 149.327 108.5C143.766 108.5 139.258 113.009 139.258 118.57C139.258 124.131 143.766 128.639 149.327 128.639C154.888 128.639 159.396 124.131 159.396 118.57Z" fill="#0F3E9F"/>
<path fill-rule="evenodd" clip-rule="evenodd" d="M149.285 113.754C151.983 113.754 154.144 115.925 154.144 118.57C154.144 121.215 151.983 123.385 149.285 123.385C147.677 123.385 146.255 122.614 145.368 121.421C144.503 120.256 142.858 120.013 141.693 120.878C140.529 121.743 140.286 123.389 141.151 124.553C142.991 127.03 145.952 128.639 149.285 128.639C154.856 128.639 159.397 124.145 159.397 118.57C159.397 112.994 154.856 108.5 149.285 108.5C147.834 108.5 146.658 109.677 146.658 111.127C146.658 112.578 147.834 113.754 149.285 113.754Z" fill="#FF566A"/>
<path d="M293.899 186.091C293.013 180.615 296.902 175.515 302.419 174.922L322.97 172.711C327.696 172.202 331.978 175.524 332.661 180.228L339.639 228.327C339.812 229.521 338.949 230.615 337.748 230.725L303.608 233.836C302.507 233.936 301.516 233.168 301.34 232.077L293.899 186.091Z" fill="#E2F0FA"/>
<path d="M288.927 187.516L295.689 250.462C295.812 251.609 296.78 252.479 297.934 252.479C303.008 252.479 307.025 248.19 306.694 243.126L304.751 174.69L298.171 175.518C292.375 176.399 288.301 181.687 288.927 187.516Z" fill="#FF566A"/>
<path d="M295.809 229.268L295.261 218.863L292.523 219.776L293.436 229.268H295.809Z" fill="#EC3D52"/>
<path fill-rule="evenodd" clip-rule="evenodd" d="M301.263 182.749C301.665 182.734 302.004 183.049 302.018 183.453L303.478 244.969C303.492 245.372 303.177 245.711 302.774 245.725C302.372 245.739 302.033 245.425 302.018 245.022L300.559 183.505C300.545 183.102 300.86 182.763 301.263 182.749Z" fill="#EC3D52"/>
<path d="M285.638 186.1C287.231 180.498 292 176.379 297.774 175.617L300.841 175.213L293.257 218.987C292.496 223.382 288.111 226.161 283.811 224.976C279.096 223.675 276.344 218.781 277.682 214.076L285.638 186.1Z" fill="#FF566A"/>
<path d="M275.365 181.955L274.547 188.516L267.019 192.945L262.416 186.024C261.63 184.843 261.6 183.313 262.338 182.102L264.728 178.183L262.711 172.407C262.547 171.937 262.697 171.414 263.085 171.102C263.619 170.675 264.403 170.79 264.79 171.354L270.947 180.315L271.541 175.553C271.58 175.241 271.736 174.954 271.977 174.752C272.697 174.151 273.799 174.532 273.992 175.45L275.365 181.955Z" fill="#F9CCA3"/>
<path d="M295.851 217.745L291.017 222.54C287.1 226.427 280.52 225.295 278.125 220.324L264.946 192.968C264.241 191.503 264.867 189.744 266.34 189.055L274.87 185.063C275.376 184.825 275.98 185.008 276.27 185.486L295.851 217.745Z" fill="#FF566A"/>
<path fill-rule="evenodd" clip-rule="evenodd" d="M276.38 188.256C276.204 187.894 275.767 187.743 275.404 187.919L267.125 191.952C266.763 192.129 266.612 192.565 266.789 192.928C266.965 193.29 267.402 193.441 267.765 193.265L276.044 189.232C276.406 189.056 276.557 188.619 276.38 188.256Z" fill="#EC3D52"/>
<path d="M290.335 209.92L282.668 196.047L284.128 191.484L290.335 209.92Z" fill="#EC3D52"/>
<path d="M300.921 294.799L284.493 293.338L281.938 319.075L294.715 321.631L300.921 294.799Z" fill="#F9CCA3"/>
<path d="M270.988 292.243L253.1 291.513L249.449 312.504H264.052L270.988 292.243Z" fill="#F9CCA3"/>
<path d="M255.238 311.891C255.238 310.178 253.85 308.788 252.138 308.788C251.324 308.787 250.521 308.966 249.783 309.31L234.993 316.226C234.307 316.547 233.797 317.154 233.601 317.887C233.163 319.517 234.391 321.119 236.078 321.12L259.928 321.127C260.954 321.127 261.895 320.563 262.379 319.659L264.135 316.378C264.35 315.975 264.464 315.525 264.464 315.068L264.464 314.349C264.464 313.603 264.318 312.892 264.052 312.242L255.238 312.239V311.891Z" fill="#120A3E"/>
<path d="M234.108 316.927C233.868 317.21 233.69 317.544 233.592 317.91C233.158 319.525 234.385 321.115 236.067 321.118L259.838 321.166C260.86 321.168 261.798 320.611 262.278 319.716L263.183 318.032C263.041 318.054 262.896 318.065 262.748 318.065L236.202 318.011C235.322 318.01 234.566 317.574 234.108 316.927Z" fill="#B5D5FF"/>
<path d="M285.823 228.932L328.485 230.364C330.302 242.59 320.638 253.493 308.281 253.155L279.469 252.366L285.823 228.932Z" fill="#120A3E"/>
<path d="M295.543 229.191L269.859 304.987C269.256 306.766 267.4 307.797 265.57 307.37L252.073 304.216C250.516 303.853 249.541 302.305 249.886 300.743L263.547 238.77C264.862 232.805 270.214 228.605 276.32 228.747L295.543 229.191Z" fill="#120A3E"/>
<path fill-rule="evenodd" clip-rule="evenodd" d="M311.307 231.287L311.311 231.253L306.418 231.14L301.591 230.994L301.582 231.028L294.651 230.868C287.48 230.702 281.578 236.469 281.578 243.642V304.507C281.578 305.345 282.148 306.075 282.961 306.278L296.201 309.59C298.523 310.171 300.834 308.605 301.155 306.233L308.116 254.839L329.029 255.505C335.211 255.702 340.33 250.744 340.33 244.559V232.16L311.307 231.287Z" fill="#261B65"/>
<path d="M287.73 313.858C287.731 312.144 286.343 310.755 284.63 310.754C283.816 310.754 283.012 310.932 282.275 311.277L267.486 318.192C266.799 318.514 266.289 319.121 266.093 319.853C265.655 321.484 266.883 323.086 268.571 323.087L292.421 323.094C293.445 323.094 294.387 322.53 294.871 321.626L296.627 318.345C296.843 317.942 296.956 317.492 296.956 317.034L296.956 316.316C296.957 315.57 296.81 314.859 296.544 314.209L287.73 314.206V313.858Z" fill="#261B65"/>
<path d="M266.6 318.895C266.36 319.177 266.182 319.511 266.084 319.878C265.65 321.493 266.877 323.082 268.559 323.085L292.331 323.133C293.352 323.135 294.29 322.578 294.771 321.683L295.675 319.999C295.533 320.021 295.388 320.032 295.241 320.032L268.694 319.979C267.814 319.976 267.059 319.541 266.6 318.895Z" fill="#B5D5FF"/>
<path d="M340.046 251.639L332.14 250.21C329.934 249.812 328.245 248.022 327.975 245.796L319.148 173.027L326.323 172.347L346.299 244.795C347.371 248.683 344.014 252.356 340.046 251.639Z" fill="#FF566A"/>
<path d="M330.129 226.895V202.618L333.597 190.023L343.271 234.562L330.129 226.895Z" fill="#EC3D52"/>
<path fill-rule="evenodd" clip-rule="evenodd" d="M323.26 180.752C323.658 180.688 324.032 180.96 324.096 181.358L333.953 243.054C334.016 243.452 333.745 243.827 333.347 243.89C332.949 243.954 332.574 243.683 332.511 243.285L322.654 181.588C322.59 181.19 322.862 180.816 323.26 180.752Z" fill="#EC3D52"/>
<path d="M322.645 172.712C330.921 170.981 339.094 176.07 341.191 184.262L348.935 214.504C350.198 219.437 347.005 224.403 341.993 225.301L336.152 226.348L322.645 172.712Z" fill="#FF566A"/>
<path d="M320.418 204.234C320.171 202.233 318.35 200.811 316.349 201.057L299.552 203.126C297.551 203.372 296.129 205.194 296.375 207.195L299.431 232.005C299.677 234.006 301.499 235.429 303.5 235.182L320.296 233.114C322.297 232.867 323.72 231.045 323.473 229.044L320.418 204.234Z" fill="white"/>
<path d="M309.011 214.917C306.894 214.917 305.177 213.201 305.177 211.084C305.177 208.967 306.894 207.251 309.011 207.251C311.128 207.251 312.844 208.967 312.844 211.084C312.844 213.201 311.128 214.917 309.011 214.917Z" fill="#E2F0FA"/>
<path d="M299.228 219.104C301.604 219.136 304.791 219.153 306.581 219.047L309.319 229.999L299.699 230.8C298.743 230.879 297.889 230.205 297.743 229.257L296.64 222.066C296.398 220.492 297.637 219.082 299.228 219.104Z" fill="#F9CCA3"/>
<path d="M345.809 206.153L347.084 216.753C347.594 220.988 344.704 224.883 340.503 225.622L311.084 230.802C309.501 231.081 307.99 230.027 307.704 228.444L306.021 219.126C305.923 218.578 306.251 218.042 306.784 217.882L345.809 206.153Z" fill="#FF566A"/>
<path fill-rule="evenodd" clip-rule="evenodd" d="M308.412 218.732C308.021 218.828 307.781 219.223 307.877 219.614L310.067 228.559C310.163 228.95 310.558 229.19 310.95 229.094C311.341 228.998 311.581 228.603 311.485 228.211L309.295 219.267C309.199 218.876 308.804 218.636 308.412 218.732Z" fill="#EC3D52"/>
<path d="M305.094 160.094L316.921 161.975L317.674 175.198C317.867 178.584 315.174 181.435 311.782 181.435C308.639 181.435 306.047 178.971 305.888 175.831L305.094 160.094Z" fill="#F9CCA3"/>
<path d="M305.523 169.609H309.682L309.512 170.679L305.849 174.172L305.523 169.609Z" fill="#F19C5C"/>
<path d="M316.442 157.932C317.926 153.302 315.226 148.373 310.524 147.133C305.991 145.937 301.347 148.642 300.151 153.175L298.23 160.452C297.073 164.84 299.874 169.289 304.331 170.141L312.054 171.617L316.442 157.932Z" fill="#F9CCA3"/>
<path d="M317.378 166.323C317.679 165.56 317.669 163.204 317.763 162.343L318.385 156.692C318.886 152.138 316.032 147.913 311.667 146.747C307.373 145.6 302.858 147.782 300.949 151.538C301.955 153.664 304.044 155.308 306.472 155.957L310.305 156.98L310.304 157.938C310.299 162.062 312.267 165.41 317.378 166.323Z" fill="#273238"/>
<path fill-rule="evenodd" clip-rule="evenodd" d="M306.414 158.521C306.473 158.329 306.677 158.22 306.87 158.279L311.068 159.556C311.261 159.615 311.37 159.819 311.311 160.012C311.252 160.205 311.048 160.314 310.856 160.255L306.658 158.977C306.464 158.918 306.356 158.715 306.414 158.521Z" fill="#C3E5FE"/>
<path d="M311.385 164.033C312.685 164.381 314.019 163.606 314.365 162.304C314.71 161.001 313.936 159.664 312.636 159.316C311.335 158.969 310.001 159.743 309.656 161.046C309.31 162.348 310.085 163.686 311.385 164.033Z" fill="#F9CCA3"/>
<path d="M311.696 162.854C312.347 163.028 313.014 162.641 313.186 161.989C313.359 161.338 312.972 160.669 312.322 160.496C311.672 160.322 311.005 160.709 310.832 161.36C310.659 162.012 311.046 162.68 311.696 162.854Z" fill="#F19C5C"/>
<path d="M303.322 159.753C303.616 159.915 303.985 159.807 304.147 159.513C304.309 159.219 304.201 158.85 303.907 158.689C303.613 158.527 303.244 158.634 303.082 158.928C302.921 159.222 303.028 159.591 303.322 159.753Z" fill="#273238"/>
<path d="M299.627 158.49C299.921 158.652 300.29 158.545 300.452 158.251C300.613 157.957 300.506 157.587 300.212 157.426C299.918 157.264 299.549 157.372 299.387 157.666C299.226 157.96 299.333 158.329 299.627 158.49Z" fill="#273238"/>
<path d="M298.874 161.52C298.401 160.905 300.219 159.666 301.187 159.124L300.898 161.789C300.86 162.146 300.524 162.389 300.186 162.276C299.725 162.12 299.14 161.867 298.874 161.52Z" fill="#F19C5C"/>
<path fill-rule="evenodd" clip-rule="evenodd" d="M301.519 155.799C301.167 155.54 300.714 155.45 300.286 155.554L300.168 155.582C299.924 155.642 299.676 155.496 299.615 155.256C299.554 155.016 299.703 154.773 299.948 154.713L300.066 154.685C300.76 154.515 301.495 154.661 302.067 155.083L302.128 155.127C302.329 155.275 302.37 155.556 302.219 155.754C302.068 155.952 301.781 155.992 301.579 155.843L301.519 155.799ZM303.384 156.073C303.415 155.827 303.643 155.653 303.893 155.683L304.083 155.706C305.129 155.832 306.061 156.412 306.621 157.287L306.685 157.386C306.82 157.596 306.755 157.872 306.542 158.004C306.328 158.135 306.046 158.072 305.912 157.863L305.848 157.764C305.434 157.117 304.745 156.688 303.972 156.595L303.782 156.572C303.531 156.542 303.353 156.318 303.384 156.073Z" fill="#273238"/>
<path d="M299.79 163.673L302.101 164.42C301.358 165.882 299.536 165.293 299.79 163.673Z" fill="white"/>
<path fill-rule="evenodd" clip-rule="evenodd" d="M299.134 159.506C300.359 159.15 301.063 157.867 300.706 156.641C300.35 155.416 299.067 154.711 297.841 155.068C296.616 155.425 295.912 156.708 296.268 157.933C296.625 159.159 297.908 159.863 299.134 159.506ZM299.338 160.208C300.951 159.738 301.877 158.05 301.408 156.437C300.938 154.824 299.25 153.897 297.637 154.367C296.024 154.837 295.098 156.525 295.567 158.138C296.037 159.751 297.725 160.677 299.338 160.208Z" fill="#C3E5FE"/>
<path fill-rule="evenodd" clip-rule="evenodd" d="M304.727 161.545C305.953 161.188 306.657 159.905 306.3 158.679C305.943 157.454 304.661 156.75 303.435 157.107C302.209 157.464 301.505 158.746 301.862 159.972C302.219 161.198 303.502 161.902 304.727 161.545ZM304.932 162.246C306.544 161.776 307.471 160.088 307.001 158.475C306.532 156.863 304.843 155.936 303.231 156.406C301.618 156.875 300.692 158.563 301.161 160.176C301.631 161.789 303.319 162.716 304.932 162.246Z" fill="#C3E5FE"/>
<path d="M4.14256 193.241C1.82046 187.414 6.19617 181.118 12.5683 181.118H34.4632C41.7948 181.118 47.7381 186.954 47.7381 194.154V196.865C47.7381 204.064 41.7948 209.9 34.4632 209.9H28.9993C18.0116 209.9 8.14626 203.288 4.14256 193.241Z" fill="white"/>
<path fill-rule="evenodd" clip-rule="evenodd" d="M12.5683 181.64C6.57028 181.64 2.45127 187.566 4.63702 193.051C8.56119 202.899 18.23 209.379 28.9993 209.379H34.4632C41.5015 209.379 47.207 203.776 47.207 196.865V194.154C47.207 187.242 41.5015 181.64 34.4632 181.64H12.5683ZM12.5683 181.118C6.19617 181.118 1.82046 187.414 4.14256 193.241C8.14626 203.288 18.0116 209.9 28.9993 209.9H34.4632C41.7948 209.9 47.7381 204.064 47.7381 196.865V194.154C47.7381 186.954 41.7948 181.118 34.4632 181.118H12.5683Z" fill="#AFCCE4"/>
<path fill-rule="evenodd" clip-rule="evenodd" d="M17.3214 206.394C17.4699 206.416 17.5717 206.552 17.5486 206.696L4.0524 291.109C4.02925 291.254 3.89038 291.353 3.74183 291.331C3.59328 291.308 3.49186 291.172 3.51501 291.028L17.0108 206.615C17.0339 206.47 17.1728 206.371 17.3214 206.394Z" fill="#AFCCE4"/>
<path fill-rule="evenodd" clip-rule="evenodd" d="M36.7314 209.2C36.8695 209.186 36.9915 209.294 37.0041 209.44L44.2246 293.852C44.2376 293.998 44.1362 294.127 43.9982 294.14C43.8602 294.154 43.7381 294.047 43.7255 293.901L36.505 209.489C36.492 209.343 36.5934 209.213 36.7314 209.2Z" fill="#AFCCE4"/>
</svg>
