<svg width="168" height="168" viewBox="0 0 168 168" fill="none" xmlns="http://www.w3.org/2000/svg">
<circle cx="83.0087" cy="82.8655" r="69.3055" fill="#1C1C1C"/>
<path fill-rule="evenodd" clip-rule="evenodd" d="M69.1899 98.5751C69.1201 98.309 69.0426 98.0596 68.9418 97.8517C68.841 97.6438 68.7246 97.4775 68.5851 97.3694C68.3835 97.228 68.0656 97.095 67.6779 96.9703C67.2902 96.8538 66.8482 96.7457 66.383 96.6543C65.4603 96.463 64.4833 96.33 63.8707 96.2551C63.5451 96.2135 63.2892 95.9142 63.2892 95.5649V81.5784C63.2892 77.7866 62.8317 74.502 61.5368 72.1571C60.2419 69.8121 58.1019 68.4234 54.76 68.4234C51.7747 68.4234 47.4171 70.1697 44.2845 73.3794C44.0674 73.6039 43.7495 73.6372 43.4936 73.5374C43.2377 73.4293 43.0361 73.1882 43.0361 72.8639V68.7976C43.0361 68.4567 42.9896 68.2156 42.8966 68.0493C42.8035 67.8829 42.664 67.8081 42.5011 67.7998C42.3383 67.7915 42.1522 67.8414 41.9584 67.9245C41.7568 68.0077 41.5474 68.1241 41.3225 68.2571C41.2915 68.2738 35.4374 71.6665 33.778 72.6893C33.5377 72.8556 33.4136 72.972 33.3516 73.1383C33.3206 73.2214 33.3051 73.3212 33.2973 73.446C33.2896 73.5707 33.2896 73.7204 33.2896 73.9116C33.2896 74.2525 33.3051 74.4937 33.3904 74.66C33.4756 74.8346 33.6307 74.9261 33.8711 74.9677C34.2355 75.0342 34.5689 75.0841 34.8713 75.1257C34.9024 75.134 34.9334 75.134 34.9644 75.1423C35.228 75.1839 35.4606 75.2171 35.67 75.2504C36.143 75.3336 36.4919 75.425 36.7478 75.583C37.0036 75.741 37.1665 75.9572 37.275 76.3065C37.3758 76.664 37.4224 77.1463 37.4224 77.8282C37.4224 80.1399 37.4301 82.5264 37.4379 84.8381C37.4534 89.2452 37.4689 93.378 37.4224 96.2302V100.188C37.4224 100.612 37.7403 100.945 38.128 100.945H42.3383C42.7337 100.945 43.0439 100.604 43.0439 100.188V88.4386C43.0749 87.8316 43.1214 87.1165 43.199 86.3515C43.4316 84.0148 43.9201 81.4537 44.8505 79.8156C45.6647 78.3853 46.3005 77.3875 47.0526 76.6308C47.766 75.9073 48.6267 75.3668 49.9448 74.9926C51.0381 74.6849 51.8445 74.5353 52.5889 74.5602C53.3177 74.5768 54.0621 74.7598 55.0313 75.2005C55.861 75.583 56.3883 76.0487 56.7605 76.6308C57.0473 77.0798 57.28 77.6452 57.4661 78.4103C57.6056 79.2584 57.6754 80.1981 57.6754 81.2209V100.172C57.6754 100.596 57.9933 100.928 58.3888 100.928H68.7634C69.1666 100.928 69.4845 100.571 69.4458 100.138C69.3915 99.706 69.3217 99.1073 69.1899 98.5751Z" fill="#F9F7F4"/>
<path fill-rule="evenodd" clip-rule="evenodd" d="M123.688 65.0493C123.586 64.8742 123.434 64.7952 123.257 64.7864C123.078 64.7774 122.874 64.8312 122.661 64.9208C122.44 65.0104 122.21 65.1359 121.963 65.2793C121.929 65.2973 115.5 68.9542 113.678 70.0567C113.414 70.2359 113.278 70.3614 113.21 70.5407C113.176 70.6303 113.159 70.7379 113.15 70.8723C113.142 71.0068 113.142 71.1681 113.142 71.3742C113.142 71.7417 113.159 72.0017 113.252 72.1809C113.346 72.3691 113.516 72.4677 113.78 72.5126C114.18 72.5843 114.547 72.638 114.879 72.6828C114.896 72.6873 114.913 72.6896 114.93 72.6918C114.947 72.6941 114.964 72.6963 114.981 72.7008C115.128 72.7236 115.267 72.7441 115.398 72.7635C115.524 72.7821 115.643 72.7997 115.756 72.8173C116.275 72.9069 116.658 73.0055 116.939 73.1758C117.22 73.3461 117.399 73.5792 117.518 73.9556C117.629 74.341 117.68 74.8609 117.68 75.5959C117.68 78.0876 117.689 81.0916 117.697 83.5833L117.698 83.8185C117.715 88.4805 117.73 92.8392 117.68 95.8627V100.129C117.68 100.586 118.029 100.945 118.455 100.945H123.078C123.328 100.945 123.688 100.469 123.688 99.9932C123.688 99.5175 123.688 65.0493 123.688 65.0493Z" fill="#F9F7F4"/>
<path d="M74.4898 80.6769L87.657 80.7546C87.6074 77.489 87.5826 74.5602 87.5826 71.9684C87.5826 69.3766 87.5826 67.6661 87.5826 66.8367L88.4009 66.2924L92.9066 67.381L92.8322 80.7546L106.371 80.8324L107.115 85.5499L106.594 86.483C105.702 86.4312 103.941 86.3534 101.313 86.2497C98.7339 86.1461 95.907 86.0683 92.8322 86.0165C92.8818 89.2303 92.9562 92.1849 93.0554 94.8804C93.1546 97.6277 93.229 99.4679 93.2786 100.401L92.3859 100.945L87.7314 100.168L87.657 86.0165L75.0106 86.0942L73.9691 81.5322L74.4898 80.6769Z" fill="#F9F7F4"/>
<path fill-rule="evenodd" clip-rule="evenodd" d="M89.0353 164.065C132.217 164.065 167.222 129.06 167.222 85.8785C167.222 42.6971 132.217 7.69171 89.0353 7.69171C45.8539 7.69171 10.8485 42.6971 10.8485 85.8785C10.8485 129.06 45.8539 164.065 89.0353 164.065ZM89.0353 164.224C132.304 164.224 167.381 129.147 167.381 85.8785C167.381 42.6096 132.304 7.53314 89.0353 7.53314C45.7664 7.53314 10.6899 42.6096 10.6899 85.8785C10.6899 129.147 45.7664 164.224 89.0353 164.224Z" fill="#1C1C1C"/>
<path fill-rule="evenodd" clip-rule="evenodd" d="M78.4889 155.724C121.224 155.724 155.867 121.08 155.867 78.3454C155.867 35.6104 121.224 0.96684 78.4889 0.96684C35.7539 0.96684 1.1104 35.6104 1.1104 78.3454C1.1104 121.08 35.7539 155.724 78.4889 155.724ZM78.4889 156.691C121.758 156.691 156.834 121.614 156.834 78.3454C156.834 35.0764 121.758 0 78.4889 0C35.22 0 0.143555 35.0764 0.143555 78.3454C0.143555 121.614 35.22 156.691 78.4889 156.691Z" fill="#1C1C1C"/>
<path fill-rule="evenodd" clip-rule="evenodd" d="M89.0353 161.052C132.217 161.052 167.222 126.047 167.222 82.8653C167.222 39.684 132.217 4.67853 89.0353 4.67853C45.8539 4.67853 10.8485 39.684 10.8485 82.8653C10.8485 126.047 45.8539 161.052 89.0353 161.052ZM89.0353 161.211C132.304 161.211 167.381 126.134 167.381 82.8653C167.381 39.5964 132.304 4.51996 89.0353 4.51996C45.7664 4.51996 10.6899 39.5964 10.6899 82.8653C10.6899 126.134 45.7664 161.211 89.0353 161.211Z" fill="#1C1C1C"/>
<path fill-rule="evenodd" clip-rule="evenodd" d="M86.0226 158.911C128.854 158.911 163.575 124.19 163.575 81.3589C163.575 38.5278 128.854 3.80633 86.0226 3.80633C43.1915 3.80633 8.47009 38.5278 8.47009 81.3589C8.47009 124.19 43.1915 158.911 86.0226 158.911ZM86.0226 159.704C129.292 159.704 164.368 124.628 164.368 81.3589C164.368 38.0899 129.292 3.01349 86.0226 3.01349C42.7537 3.01349 7.67725 38.0899 7.67725 81.3589C7.67725 124.628 42.7537 159.704 86.0226 159.704Z" fill="#1C1C1C"/>
<path fill-rule="evenodd" clip-rule="evenodd" d="M81.5021 164.337C123.169 164.337 156.947 130.559 156.947 88.892C156.947 47.2249 123.169 13.4471 81.5021 13.4471C39.8351 13.4471 6.05726 47.2249 6.05726 88.892C6.05726 130.559 39.8351 164.337 81.5021 164.337ZM81.5021 167.237C124.771 167.237 159.848 132.161 159.848 88.892C159.848 45.623 124.771 10.5466 81.5021 10.5466C38.2332 10.5466 3.15674 45.623 3.15674 88.892C3.15674 132.161 38.2332 167.237 81.5021 167.237Z" fill="#1C1C1C"/>
<path fill-rule="evenodd" clip-rule="evenodd" d="M82.256 147.732C122.641 147.732 155.38 115.655 155.38 76.0856C155.38 36.5164 122.641 4.43919 82.256 4.43919C41.8709 4.43919 9.13234 36.5164 9.13234 76.0856C9.13234 115.655 41.8709 147.732 82.256 147.732ZM82.256 149.158C123.445 149.158 156.835 116.442 156.835 76.0856C156.835 35.729 123.445 3.01349 82.256 3.01349C41.0673 3.01349 7.67725 35.729 7.67725 76.0856C7.67725 116.442 41.0673 149.158 82.256 149.158Z" fill="#1C1C1C"/>
</svg>
